<?xml version="1.0" encoding="utf-8"?>
<svg t="1609917067098" class="icon" viewBox="0 0 1072 1024" version="1.1" xmlns="http://www.w3.org/2000/svg" p-id="2715" xmlns:xlink="http://www.w3.org/1999/xlink" width="268" height="256">
  <defs>
    <style type="text/css">
    .st0{fill:#3B78E7;}
    .st1{fill:#3B0601;}
    .st2{fill:#873B35;}
    .st3{fill:#DA4733;}
    .st4{fill:#FFE15F;}
    .st5{fill:#159756;}
    </style>
  </defs>
  <path class="st0" d="M926.47619 243.809524a48.761905 48.761905 0 0 1 97.52381 0v438.857143a146.285714 146.285714 0 0 1-146.285714 146.285714H195.047619a146.285714 146.285714 0 0 1-146.285714-146.285714V438.857143a48.761905 48.761905 0 1 1 97.523809 0v243.809524a48.761905 48.761905 0 0 0 48.761905 48.761904h682.666667a48.761905 48.761905 0 0 0 48.761904-48.761904V243.809524z" p-id="2716"></path>

  <path class="st0" d="M492.78781 758.393905a48.761905 48.761905 0 0 1 87.186285 43.593143l-97.523809 195.047619a48.761905 48.761905 0 0 1-87.186286-43.593143l97.52381-195.047619z" p-id="2717"></path>

  <path class="st5" d="M400.676571 547.303619l-93.427809 94.012952a48.761905 48.761905 0 1 1-69.193143-68.754285L356.449524 453.485714a48.761905 48.761905 0 0 1 56.515047-9.216l162.620953 81.822476 170.081524-170.227809a48.761905 48.761905 0 0 1 68.998095 68.900571l-194.998857 195.193905a48.761905 48.761905 0 0 1-56.368762 9.069714l-162.572191-81.724952z" p-id="2717"></path>

  <path class="st0" d="M492.78781 801.987048a48.761905 48.761905 0 0 1 87.186285-43.593143l97.52381 195.047619a48.761905 48.761905 0 0 1-87.186286 43.593143l-97.523809-195.047619zM975.238095 195.047619V97.52381H97.52381v97.523809h877.714285zM97.52381 0h877.714285a97.52381 97.52381 0 0 1 97.52381 97.52381v146.285714a48.761905 48.761905 0 0 1-48.761905 48.761905H48.761905a48.761905 48.761905 0 0 1-48.761905-48.761905V97.52381a97.52381 97.52381 0 0 1 97.52381-97.52381z" p-id="2718"></path>
  <path class="st3" d="M634.09981 439.100952a48.761905 48.761905 0 1 1 0.097523-97.523809l146.188191 0.146286a48.761905 48.761905 0 0 1 48.761905 48.713142l0.146285 146.090667a48.761905 48.761905 0 0 1-97.523809 0.097524l-0.097524-97.426286-97.572571-0.097524z" p-id="2719"></path>
</svg>