<?xml version="1.0" encoding="utf-8"?>
<!-- Generator: Adobe Illustrator 22.0.0, SVG Export Plug-In . SVG Version: 6.00 Build 0)  -->
<svg version="1.1" id="图层_1"
	 xmlns="http://www.w3.org/2000/svg" xmlns:xlink="http://www.w3.org/1999/xlink" x="0px" y="0px" viewBox="0 0 320 256"
	 style="enable-background:new 0 0 320 256;" xml:space="preserve">
<style type="text/css">
	.st0{fill:#3B78E7;}
	.st1{fill:#3B0601;}
	.st2{fill:#873B35;}
	.st3{fill:#DA4733;}
	.st4{fill:#FFE15F;}
	.st5{fill:#159756;}
</style>
<metadata>
	<sfw>
		<slices></slices>
		<sliceSourceBounds  bottomLeftOrigin="true" height="107.2" width="320" x="0" y="79.4"></sliceSourceBounds>
	</sfw>
</metadata>
<path class="st0" d="M46,107.6l-8.1,30.3c-0.9,3.3,1.5,6.8,5.1,6.8h74l-5.8,21.2c-1.9,6.3-7.5,10.8-14.3,10.8H29.6c-20.2,0-33.6-19.2-28.6-37
	L12,99.2c4.8-17.8,20.9-29.9,38.9-29.9h47.7c19.2,0,33.5,17.9,28.6,37.1l-3.2,12.1c-2.9,11.1-12.8,17.8-23.4,17.8H46.7l3.5-13.1
	c1.6-6.3,7.3-10.9,14.3-10.9h21.8c2,0,3.3-1,3.9-3l0.7-2.6c0.7-2.7-1.3-5.1-3.9-5.1H53.8C49.7,101.6,46.9,103.7,46,107.6z"/>
<path class="st3" d="M185.9,69.4h40.4L220,93.2c-1.9,6.6-7.5,11-14.4,11h-18.8c-25.1,0-24.9,37.7,0,37.7h11.4c4.2,0,7.7,3.9,6.5,8.4l-7.2,26.3
	H185c-33.8,0-59.5-31.7-50.7-65.8C141.6,83.6,162.8,69.4,185.9,69.4"/>
<path class="st5" d="M279.6,69.4H320l-6.3,23.8c-1.9,6.6-7.5,11-14.4,11h-18.8c-25.1,0-24.9,37.7,0,37.7H292c4.2,0,7.7,3.9,6.5,8.4l-7.2,26.3
	h-12.5c-33.8,0-59.5-31.7-50.7-65.8C235.4,83.6,256.5,69.4,279.6,69.4"/>
</svg>
