<?xml version="1.0" encoding="utf-8"?>
<!-- Generator: Adobe Illustrator 22.0.0, SVG Export Plug-In . SVG Version: 6.00 Build 0)  -->
<svg version="1.1" id="图层_1" xmlns="http://www.w3.org/2000/svg" xmlns:xlink="http://www.w3.org/1999/xlink" x="0px" y="0px"
	viewBox="0 0 1.8 1.8"
  width="1.8rem" height="1.8rem" style="enable-background:new 0 0 1.8 1.8;" xml:space="preserve">
<style type="text/css">
	.st0{fill:#3B78E7;}
	.st1{fill:#3B0601;}
	.st2{fill:#873B35;}
	.st3{fill:#DA4733;}
	.st4{fill:#FFE15F;}
	.st5{fill:#159756;}
</style>
<g id="图层_2_1_">
	<path class="st0" d="M1.7,0.3L1.7,0.3L1.7,0.3H1.5l0,0l0.1,0.1l0,0L1.7,0.3L1.7,0.3z"/>
	<path class="st1" d="M0.9,0.2H1l0,0V0l0,0H0.9l0,0V0.2C0.8,0.2,0.8,0.2,0.9,0.2z"/>
	<path class="st2" d="M0.3,0.5L0.3,0.5L0.3,0.5V0.3l0,0H0.1l0,0L0.3,0.5L0.3,0.5z"/>
</g>
<g id="图层_4">
	<path class="st3" d="M0.3,1.2L0.3,1.2l1.2,0.1c0,0,0.1,0,0.1-0.1V0.7c0-0.4-0.3-0.6-0.6-0.6S0.3,0.3,0.3,0.7V1.2z"/>
	<path class="st4" d="M0.4,0.7c0-0.3,0.2-0.5,0.5-0.5s0.5,0.2,0.5,0.5v0.4H0.7V0.7l0,0H0.6l0,0V1H0.4V0.7z"/>
</g>
<path class="st5" d="M1.5,1.4H0.3c0,0-0.1,0-0.1,0.1l0,0l0,0h1.4l0,0L1.5,1.4C1.6,1.4,1.6,1.4,1.5,1.4z"/>
</svg>
