<?xml version="1.0" encoding="utf-8"?>
<!-- Generator: Adobe Illustrator 22.0.0, SVG Export Plug-In . SVG Version: 6.00 Build 0)  -->
<svg 
	version="1.1" 
	id="图层_1" 
	xmlns="http://www.w3.org/2000/svg" 
	xmlns:xlink="http://www.w3.org/1999/xlink"
	x="0px" y="0px"
	viewBox="0 0 1.8 1.8" 
	width="1.8rem" height="1.8rem"
	style="enable-background:new 0 0 1.8 1.8;" 
	xml:space="preserve">
<style type="text/css">
	.st0{fill:#DA4733;}
	.st1{fill:#3B78E7;}
	.st2{fill:#FDBA2C;}
	.st3{fill:#159756;}
</style>
<g id="图层_2_1_">
	<path class="st0" d="M1.3,0.8h0.3c0,0,0.1,0,0.1,0.1c0,0,0,0.1-0.1,0.1H1.3C1.3,1,1.2,0.9,1.3,0.8C1.2,0.9,1.3,0.8,1.3,0.8z"/>
	<path class="st1" d="M1.3,1.1h0.3c0,0,0.1,0,0.1,0.1c0,0,0,0.1-0.1,0.1H1.3C1.3,1.3,1.2,1.3,1.3,1.1C1.2,1.2,1.3,1.1,1.3,1.1z"/>
	<path class="st2" d="M1.3,1.4h0.3c0,0,0.1,0,0.1,0.1s0,0.1-0.1,0.1H1.3C1.3,1.6,1.2,1.6,1.3,1.4C1.2,1.5,1.3,1.4,1.3,1.4z"/>
</g>
<path class="st3" d="M0.7,0.7v0.8H0.5V0.8L0.1,0.3C0.1,0.2,0.1,0.1,0.2,0c0,0,0.1,0,0.1,0h1.1c0.1,0,0.2,0.1,0.2,0.2
	c0,0,0,0.1,0,0.1L1.2,0.8v1H1V0.7l0.4-0.6c0,0-0.4,0-1.1,0C0.3,0.2,0.4,0.4,0.7,0.7L0.7,0.7z"/>
</svg>
