<?xml version="1.0" encoding="utf-8"?>
<!-- Generator: Adobe Illustrator 22.0.0, SVG Export Plug-In . SVG Version: 6.00 Build 0)  -->
<svg version="1.1" id="图层_1" xmlns="http://www.w3.org/2000/svg" xmlns:xlink="http://www.w3.org/1999/xlink" x="0px" y="0px"
	 viewBox="0 0 16 16" style="enable-background:new 0 0 16 16;" xml:space="preserve">
<style type="text/css">
	.st0{fill:#FFFF00;}
	.st1{fill:#0861C1;}
  .st2{fill:#fff;}
</style>
<path class="st2" d="M13.2,0.4c1.3,0,2.4,1.1,2.4,2.4v10.3c0,1.3-1.1,2.4-2.4,2.4H2.8c-1.3,0-2.4-1.1-2.4-2.4V2.8
	c0-1.3,1.1-2.4,2.4-2.4H13.2 M13.3,0H2.7C1.2,0,0,1.2,0,2.7v10.7C0,14.8,1.2,16,2.7,16h10.7c1.5,0,2.7-1.2,2.7-2.7V2.7
	C16,1.2,14.8,0,13.3,0z"/>
<path class="st1" d="M6.1,8.8c0-0.1,0-0.1,0.1-0.1h0.5c0.1,0,0.1,0,0.1,0.1v1.9h3.9V8.6c0-1.5-1.2-2.7-2.7-2.7S5.3,7.1,5.3,8.6v2.1
	h0.8V8.8z"/>
<path class="st0" d="M4.8,5.8l0.4-0.4c0,0,0-0.1,0-0.1L4.5,4.5c0,0-0.1,0-0.1,0L3.9,4.9c0,0,0,0.1,0,0.1l0.7,0.7
	C4.7,5.8,4.7,5.8,4.8,5.8z M12.1,4.9l-0.4-0.4c0,0-0.1,0-0.1,0l-0.7,0.7c0,0,0,0.1,0,0.1l0.4,0.4c0,0,0.1,0,0.1,0l0.7-0.7
	C12.1,5,12.1,5,12.1,4.9z M7.7,4.4h0.6c0,0,0.1,0,0.1-0.1v-1c0,0,0-0.1-0.1-0.1H7.7c0,0-0.1,0-0.1,0.1L7.7,4.4
	C7.6,4.3,7.6,4.4,7.7,4.4z M11.5,12.2h-7c-0.2,0-0.3,0.2-0.3,0.4v0.3c0,0,0,0.1,0.1,0.1h7.5c0,0,0.1,0,0.1-0.1v-0.3
	C11.9,12.3,11.7,12.2,11.5,12.2z M4.5,11.1c0,0.2,0.2,0.4,0.4,0.4h6.3c0.2,0,0.3-0.2,0.3-0.4V8.6c0-1.9-1.6-3.5-3.5-3.5
	S4.5,6.6,4.5,8.6V11.1z M5.3,8.6c0-1.5,1.2-2.7,2.7-2.7s2.7,1.2,2.7,2.7v2.1H6.8V8.8c0-0.1,0-0.1-0.1-0.1H6.2c-0.1,0-0.1,0-0.1,0.1
	v1.9H5.3V8.6z"/>
</svg>
