<?xml version="1.0" encoding="utf-8"?>
<!-- Generator: Adobe Illustrator 22.0.0, SVG Export Plug-In . SVG Version: 6.00 Build 0)  -->
<svg version="1.1" id="图层_1" xmlns="http://www.w3.org/2000/svg" xmlns:xlink="http://www.w3.org/1999/xlink" x="0px" y="0px"
	 viewBox="0 0 200 200" style="enable-background:new 0 0 200 200;" xml:space="preserve">
<style type="text/css">
	.st0{fill:#28A745;}
	.st1{fill:#007BFF;}
</style>
<path class="st0" d="M100,8.3c50.4,0,91.7,41.2,91.7,91.7s-41.2,91.7-91.7,91.7S8.3,150.4,8.3,100S49.6,8.3,100,8.3z M100,175
	c41.2,0,75-33.8,75-75s-33.8-75-75-75s-75,33.7-75,75S58.7,175,100,175z"/>
<path class="st1" d="M136.2,105l-11.2,9.6V66.7c0-4.6-3.8-8.3-8.3-8.3s-8.3,3.8-8.3,8.3v66.7c0,3.3,2.1,6.2,5,7.5
	c1.3,0.4,2.1,0.8,3.3,0.8c2.1,0,4.2-0.8,5.4-2.1l25-22.1c3.3-2.9,3.8-8.3,0.8-11.7C145,102.1,139.6,101.7,136.2,105"/>
<path class="st0" d="M86.7,59.2c-2.9-1.2-6.7-0.8-8.7,1.2l-25,22.1c-3.3,2.9-3.8,8.3-0.8,11.7c2.9,3.3,8.3,3.8,11.7,0.8L75,85v48.3
	c0,4.6,3.8,8.3,8.3,8.3s8.3-3.8,8.3-8.3V66.7C91.7,63.3,89.6,60.4,86.7,59.2"/>
</svg>
