<?xml version="1.0" encoding="utf-8"?>
<!-- Generator: Adobe Illustrator 23.0.0, SVG Export Plug-In . SVG Version: 6.00 Build 0)  -->
<svg version="1.1" id="Layer_1" xmlns="http://www.w3.org/2000/svg" xmlns:xlink="http://www.w3.org/1999/xlink" x="0px" y="0px"
	 viewBox="0 0 400 400" style="enable-background:new 0 0 400 400;" xml:space="preserve">
<style type="text/css">
	.st0{fill:#FFDF7B;}
	.st1{fill:#F2A446;}
	.st2{fill:#F46545;}
</style>
<g>
	<rect class="st0" width="400" height="400"/>
	<g>
		<path class="st1" d="M29.18,377.76c-0.9,0-1.72,0.26-2.43,0.69L8.06,359.77H0v2h7.23l18.05,18.05c-0.51,0.75-0.81,1.66-0.81,2.63
			c0,2.59,2.11,4.7,4.71,4.7c2.58,0,4.69-2.11,4.69-4.7C33.87,379.86,31.76,377.76,29.18,377.76z M29.18,385.15
			c-1.49,0-2.71-1.21-2.71-2.7c0-1.48,1.22-2.69,2.71-2.69c1.48,0,2.69,1.21,2.69,2.69C31.87,383.94,30.66,385.15,29.18,385.15z"/>
		<path class="st1" d="M66.95,356.76c-2.25,0-4.13,1.59-4.59,3.7H36.82l-20.43-20.42H0v2h15.57l20.42,20.42h26.37
			c0.46,2.11,2.34,3.7,4.59,3.7c2.59,0,4.69-2.11,4.69-4.71C71.64,358.86,69.54,356.76,66.95,356.76z M66.95,364.16
			c-1.49,0-2.7-1.22-2.7-2.71c0-1.48,1.21-2.69,2.7-2.69c1.48,0,2.69,1.21,2.69,2.69C69.64,362.94,68.43,364.16,66.95,364.16z"/>
		<path class="st1" d="M33.29,366.72c-0.97,0-1.87,0.29-2.61,0.8l-16.99-16.99H0v2h12.86l16.44,16.43
			c-0.44,0.72-0.71,1.55-0.71,2.45c0,2.6,2.11,4.71,4.7,4.71c2.59,0,4.69-2.11,4.69-4.71C37.98,368.82,35.88,366.72,33.29,366.72z
			 M33.29,374.12c-1.49,0-2.7-1.22-2.7-2.71c0-1.48,1.21-2.69,2.7-2.69c1.49,0,2.69,1.21,2.69,2.69
			C35.98,372.9,34.78,374.12,33.29,374.12z"/>
		<path class="st1" d="M54.22,344.22c-2.25,0-4.13,1.59-4.59,3.7h-11.7l-17.49-17.49H0v2h19.61l17.49,17.49h12.53
			c0.47,2.11,2.35,3.7,4.59,3.7c2.59,0,4.7-2.11,4.7-4.71C58.92,346.32,56.81,344.22,54.22,344.22z M54.22,351.62
			c-1.49,0-2.7-1.22-2.7-2.71c0-1.48,1.21-2.69,2.7-2.69c1.49,0,2.7,1.21,2.7,2.69C56.92,350.4,55.71,351.62,54.22,351.62z"/>
		<path class="st1" d="M142.91,364.54c-2.59,0-4.69,2.11-4.69,4.7c0,2.25,1.58,4.12,3.69,4.58V400h2v-26.18
			c2.11-0.46,3.7-2.34,3.7-4.58C147.61,366.65,145.5,364.54,142.91,364.54z M142.91,371.93c-1.49,0-2.69-1.21-2.69-2.69
			c0-1.49,1.2-2.7,2.69-2.7c1.49,0,2.7,1.21,2.7,2.7C145.61,370.72,144.4,371.93,142.91,371.93z"/>
		<path class="st1" d="M133.3,354.54c-2.59,0-4.69,2.11-4.69,4.7c0,2.25,1.58,4.12,3.7,4.58V400h2v-36.18
			c2.11-0.46,3.69-2.34,3.69-4.58C138,356.65,135.89,354.54,133.3,354.54z M133.3,361.93c-1.48,0-2.69-1.21-2.69-2.69
			c0-1.49,1.21-2.7,2.69-2.7c1.49,0,2.7,1.21,2.7,2.7C136,360.72,134.79,361.93,133.3,361.93z"/>
		<path class="st1" d="M153.4,353.04c-2.59,0-4.69,2.11-4.69,4.7c0,2.25,1.59,4.12,3.7,4.58V400h2v-37.68
			c2.11-0.46,3.69-2.34,3.69-4.58C158.1,355.15,155.99,353.04,153.4,353.04z M153.4,360.43c-1.48,0-2.69-1.21-2.69-2.69
			c0-1.49,1.21-2.7,2.69-2.7c1.49,0,2.7,1.21,2.7,2.7C156.1,359.22,154.89,360.43,153.4,360.43z"/>
		<path class="st1" d="M162.64,338.04c-2.59,0-4.69,2.11-4.69,4.7c0,2.25,1.59,4.12,3.7,4.58V400h2v-52.68
			c2.11-0.46,3.69-2.34,3.69-4.58C167.34,340.15,165.23,338.04,162.64,338.04z M162.64,345.43c-1.48,0-2.69-1.21-2.69-2.69
			c0-1.49,1.21-2.7,2.69-2.7c1.49,0,2.7,1.21,2.7,2.7C165.34,344.22,164.13,345.43,162.64,345.43z"/>
		<path class="st1" d="M184.33,24.19c-0.98,0-1.88,0.3-2.63,0.81L163.65,6.95V0h-2v7.78l18.68,18.68c-0.43,0.71-0.69,1.54-0.69,2.43
			c0,2.59,2.1,4.69,4.69,4.69c2.59,0,4.7-2.1,4.7-4.69C189.03,26.3,186.92,24.19,184.33,24.19z M184.33,31.58
			c-1.49,0-2.69-1.2-2.69-2.69s1.2-2.7,2.69-2.7s2.7,1.21,2.7,2.7S185.82,31.58,184.33,31.58z"/>
		<path class="st1" d="M173.29,28.3c-0.9,0-1.73,0.27-2.45,0.71l-16.43-16.43V0h-2v13.4l16.98,16.99c-0.5,0.75-0.79,1.65-0.79,2.62
			c0,2.58,2.1,4.69,4.69,4.69c2.59,0,4.7-2.11,4.7-4.69C177.99,30.41,175.88,28.3,173.29,28.3z M173.29,35.7
			c-1.48,0-2.69-1.21-2.69-2.69c0-1.49,1.21-2.71,2.69-2.71c1.49,0,2.7,1.22,2.7,2.71C175.99,34.49,174.78,35.7,173.29,35.7z"/>
		<path class="st1" d="M164.34,62.07V35.7l-20.43-20.42V0h-2v16.11l20.43,20.42v25.54c-2.11,0.46-3.7,2.34-3.7,4.59
			c0,2.59,2.1,4.7,4.69,4.7c2.59,0,4.7-2.11,4.7-4.7C168.03,64.42,166.45,62.54,164.34,62.07z M163.33,69.36
			c-1.48,0-2.69-1.21-2.69-2.7c0-1.49,1.21-2.7,2.69-2.7c1.49,0,2.7,1.21,2.7,2.7C166.03,68.15,164.82,69.36,163.33,69.36z"/>
		<path class="st1" d="M151.8,49.35V36.82l-17.49-17.49V0h-2v20.15l17.49,17.5v11.7c-2.11,0.46-3.7,2.34-3.7,4.59
			c0,2.59,2.1,4.69,4.69,4.69c2.59,0,4.7-2.1,4.7-4.69C155.49,51.69,153.91,49.81,151.8,49.35z M150.79,56.63
			c-1.48,0-2.69-1.21-2.69-2.69c0-1.49,1.21-2.7,2.69-2.7c1.49,0,2.7,1.21,2.7,2.7C153.49,55.42,152.28,56.63,150.79,56.63z"/>
		<path class="st1" d="M211.84,87.09c-2.59,0-4.7,2.11-4.7,4.71c0,0.97,0.3,1.88,0.81,2.63l-25.76,25.75h-44.63
			c-0.46-2.11-2.33-3.69-4.58-3.69c-2.59,0-4.7,2.11-4.7,4.7c0,2.59,2.11,4.69,4.7,4.69c2.25,0,4.13-1.58,4.58-3.7h45.46
			l26.39-26.39c0.71,0.44,1.54,0.7,2.43,0.7c2.59,0,4.69-2.11,4.69-4.69C216.53,89.2,214.43,87.09,211.84,87.09z M132.98,123.88
			c-1.49,0-2.7-1.21-2.7-2.69c0-1.49,1.21-2.7,2.7-2.7s2.7,1.21,2.7,2.7C135.68,122.67,134.47,123.88,132.98,123.88z M211.84,94.49
			c-1.49,0-2.7-1.21-2.7-2.69c0-1.49,1.21-2.71,2.7-2.71c1.48,0,2.69,1.22,2.69,2.71C214.53,93.28,213.32,94.49,211.84,94.49z"/>
		<path class="st1" d="M215.95,98.13c-2.59,0-4.7,2.11-4.7,4.7c0,0.9,0.27,1.74,0.71,2.45l-24.14,24.14h-60.26
			c-0.46-2.11-2.33-3.69-4.58-3.69c-2.59,0-4.7,2.11-4.7,4.7c0,2.59,2.11,4.69,4.7,4.69c2.25,0,4.13-1.58,4.58-3.7h61.09
			l24.69-24.69c0.75,0.5,1.65,0.8,2.61,0.8c2.59,0,4.7-2.11,4.7-4.7C220.65,100.24,218.54,98.13,215.95,98.13z M122.98,133.12
			c-1.49,0-2.7-1.21-2.7-2.69c0-1.49,1.21-2.7,2.7-2.7s2.7,1.21,2.7,2.7C125.68,131.91,124.47,133.12,122.98,133.12z M215.95,105.53
			c-1.49,0-2.7-1.21-2.7-2.7s1.21-2.7,2.7-2.7s2.7,1.21,2.7,2.7S217.44,105.53,215.95,105.53z"/>
		<path class="st1" d="M236.89,120.63c-2.25,0-4.13,1.59-4.59,3.7h-12.53l-25.2,25.2h-65.51c-0.46-2.12-2.33-3.7-4.58-3.7
			c-2.59,0-4.7,2.11-4.7,4.7c0,2.59,2.11,4.69,4.7,4.69c2.25,0,4.13-1.58,4.58-3.69h66.34l25.19-25.2h11.7
			c0.46,2.11,2.35,3.7,4.6,3.7c2.58,0,4.69-2.11,4.69-4.7C241.58,122.74,239.47,120.63,236.89,120.63z M124.48,153.22
			c-1.49,0-2.7-1.2-2.7-2.69c0-1.49,1.21-2.7,2.7-2.7s2.7,1.21,2.7,2.7C127.18,152.02,125.97,153.22,124.48,153.22z M236.89,128.03
			c-1.49,0-2.71-1.21-2.71-2.7s1.22-2.7,2.71-2.7c1.48,0,2.69,1.21,2.69,2.7S238.37,128.03,236.89,128.03z"/>
		<path class="st1" d="M249.61,108.09c-2.25,0-4.12,1.59-4.59,3.7h-26.37l-28.13,28.13h-51.46c-0.46-2.11-2.33-3.7-4.58-3.7
			c-2.59,0-4.7,2.11-4.7,4.7c0,2.59,2.11,4.7,4.7,4.7c2.25,0,4.13-1.59,4.58-3.7h52.29l28.13-28.13h25.54
			c0.46,2.11,2.34,3.7,4.59,3.7c2.59,0,4.7-2.11,4.7-4.7C254.31,110.2,252.2,108.09,249.61,108.09z M134.48,143.62
			c-1.49,0-2.7-1.21-2.7-2.7c0-1.49,1.21-2.7,2.7-2.7s2.7,1.21,2.7,2.7C137.18,142.41,135.97,143.62,134.48,143.62z M249.61,115.49
			c-1.49,0-2.7-1.21-2.7-2.7c0-1.49,1.21-2.7,2.7-2.7s2.7,1.21,2.7,2.7C252.31,114.28,251.1,115.49,249.61,115.49z"/>
		<path class="st1" d="M364.11,330.43c-0.46-2.11-2.34-3.7-4.58-3.7c-2.6,0-4.71,2.1-4.71,4.69c0,2.6,2.11,4.71,4.71,4.71
			c2.24,0,4.11-1.59,4.57-3.7H400v-2H364.11z M359.53,334.13c-1.5,0-2.71-1.22-2.71-2.71c0-1.48,1.21-2.69,2.71-2.69
			c1.48,0,2.69,1.21,2.69,2.69C362.22,332.91,361.01,334.13,359.53,334.13z"/>
		<path class="st1" d="M374.11,340.04c-0.46-2.12-2.34-3.7-4.58-3.7c-2.6,0-4.71,2.1-4.71,4.69c0,2.59,2.11,4.7,4.71,4.7
			c2.24,0,4.11-1.58,4.57-3.69H400v-2H374.11z M369.53,343.73c-1.5,0-2.71-1.21-2.71-2.7c0-1.48,1.21-2.69,2.71-2.69
			c1.48,0,2.69,1.21,2.69,2.69C372.22,342.52,371.01,343.73,369.53,343.73z"/>
		<path class="st1" d="M362.61,350.53c-0.46-2.11-2.34-3.7-4.58-3.7c-2.6,0-4.71,2.11-4.71,4.69c0,2.6,2.11,4.71,4.71,4.71
			c2.24,0,4.11-1.59,4.57-3.7H400v-2H362.61z M358.03,354.23c-1.5,0-2.71-1.22-2.71-2.71c0-1.48,1.21-2.69,2.71-2.69
			c1.48,0,2.69,1.21,2.69,2.69C360.72,353.01,359.51,354.23,358.03,354.23z"/>
		<path class="st1" d="M347.61,359.77c-0.46-2.11-2.34-3.7-4.58-3.7c-2.6,0-4.71,2.11-4.71,4.69c0,2.6,2.11,4.71,4.71,4.71
			c2.24,0,4.11-1.59,4.57-3.7H400v-2H347.61z M343.03,363.47c-1.5,0-2.71-1.22-2.71-2.71c0-1.48,1.21-2.69,2.71-2.69
			c1.48,0,2.69,1.21,2.69,2.69C345.72,362.25,344.51,363.47,343.03,363.47z"/>
		<path class="st1" d="M42.28,314.13v-23.45L21.11,269.5v-56.43c2.11-0.46,3.7-2.34,3.7-4.59c0-2.59-2.11-4.69-4.7-4.69
			c-2.59,0-4.7,2.1-4.7,4.69c0,2.25,1.59,4.13,3.7,4.59v57.26l21.17,21.17v22.63c-2.11,0.46-3.7,2.34-3.7,4.58
			c0,2.6,2.11,4.71,4.71,4.71c2.58,0,4.69-2.11,4.69-4.71C45.98,316.47,44.39,314.59,42.28,314.13z M17.41,208.48
			c0-1.48,1.21-2.69,2.7-2.69s2.7,1.21,2.7,2.69c0,1.49-1.21,2.71-2.7,2.71S17.41,209.97,17.41,208.48z M41.29,321.42
			c-1.49,0-2.71-1.22-2.71-2.71c0-1.48,1.22-2.69,2.71-2.69c1.48,0,2.69,1.21,2.69,2.69C43.98,320.2,42.77,321.42,41.29,321.42z"/>
		<path class="st1" d="M51.52,304.23v-19.18l-21.37-21.37v-39.61c2.11-0.45,3.7-2.34,3.7-4.59c0-2.59-2.1-4.69-4.69-4.69
			c-2.59,0-4.7,2.1-4.7,4.69c0,2.25,1.58,4.13,3.69,4.59v40.44l21.37,21.37v18.36c-2.11,0.46-3.7,2.33-3.7,4.58
			c0,2.59,2.11,4.7,4.71,4.7c2.58,0,4.69-2.11,4.69-4.7C55.22,306.57,53.63,304.69,51.52,304.23z M26.46,219.48
			c0-1.48,1.21-2.69,2.7-2.69c1.48,0,2.69,1.21,2.69,2.69c0,1.49-1.21,2.71-2.69,2.71C27.67,222.19,26.46,220.97,26.46,219.48z
			 M50.53,311.52c-1.49,0-2.71-1.21-2.71-2.7s1.22-2.7,2.71-2.7c1.48,0,2.69,1.21,2.69,2.7S52.01,311.52,50.53,311.52z"/>
		<path class="st1" d="M63.8,338.22V271.3l23.1-23.1v-38.64L54.65,177.3c0.56-0.78,0.91-1.72,0.91-2.76c0-2.59-2.11-4.7-4.69-4.7
			c-2.6,0-4.71,2.11-4.71,4.7c0,2.59,2.11,4.7,4.71,4.7c0.83,0,1.59-0.24,2.27-0.62l31.76,31.76v37l-23.1,23.1v68.56l29.13,29.13
			V400h2v-32.66L63.8,338.22z M50.87,177.24c-1.49,0-2.71-1.21-2.71-2.7c0-1.49,1.22-2.7,2.71-2.7c1.48,0,2.69,1.21,2.69,2.7
			C53.56,176.03,52.35,177.24,50.87,177.24z"/>
		<path class="st1" d="M72.85,332.4v-56.61l23.72-23.72V207.4l-25.84-25.84c0.47-0.73,0.74-1.59,0.74-2.51c0-2.6-2.1-4.71-4.69-4.71
			c-2.59,0-4.7,2.11-4.7,4.71c0,2.58,2.11,4.69,4.7,4.69c0.94,0,1.81-0.28,2.54-0.76l25.25,25.25v43.01l-23.72,23.72v58.26
			l29.32,29.32V400h2v-38.29L72.85,332.4z M66.78,181.74c-1.49,0-2.7-1.21-2.7-2.69c0-1.49,1.21-2.71,2.7-2.71
			c1.49,0,2.69,1.22,2.69,2.71C69.47,180.53,68.27,181.74,66.78,181.74z"/>
		<path class="st1" d="M82.32,328.67v-48.39l23.17-23.17v-53.24l-18.48-18.48c0.51-0.76,0.82-1.67,0.82-2.64
			c0-2.6-2.11-4.71-4.7-4.71c-2.59,0-4.7,2.11-4.7,4.71c0,2.58,2.11,4.69,4.7,4.69c0.89,0,1.71-0.26,2.42-0.69l17.94,17.95v51.58
			l-23.17,23.17v50.05l30.34,30.34V400h2v-40.99L82.32,328.67z M83.13,185.44c-1.49,0-2.7-1.21-2.7-2.69c0-1.5,1.21-2.71,2.7-2.71
			s2.7,1.21,2.7,2.71C85.83,184.23,84.62,185.44,83.13,185.44z"/>
		<path class="st1" d="M92.18,324.87v-38.56l24.61-24.61v-61.1l-12.19-12.19c0.47-0.72,0.75-1.59,0.75-2.52c0-2.59-2.11-4.7-4.7-4.7
			c-2.59,0-4.7,2.11-4.7,4.7c0,2.59,2.11,4.7,4.7,4.7c0.94,0,1.81-0.29,2.54-0.76l11.6,11.6v59.45l-24.61,24.6v40.22l30.09,30.09
			V400h2v-45.04L92.18,324.87z M100.65,188.59c-1.49,0-2.7-1.21-2.7-2.7s1.21-2.7,2.7-2.7c1.49,0,2.7,1.21,2.7,2.7
			S102.14,188.59,100.65,188.59z"/>
		<path class="st1" d="M43.39,373.19c-2.59,0-4.7,2.11-4.7,4.7c0,2.25,1.59,4.12,3.7,4.58V400h2v-17.53c2.11-0.45,3.7-2.33,3.7-4.58
			C48.09,375.3,45.98,373.19,43.39,373.19z M43.39,380.59c-1.49,0-2.7-1.21-2.7-2.7s1.21-2.7,2.7-2.7s2.7,1.21,2.7,2.7
			S44.88,380.59,43.39,380.59z"/>
		<path class="st1" d="M56.14,373.19c-2.6,0-4.71,2.11-4.71,4.7c0,2.25,1.59,4.12,3.7,4.58V400h2v-17.53
			c2.11-0.45,3.7-2.33,3.7-4.58C60.83,375.3,58.72,373.19,56.14,373.19z M56.14,380.59c-1.49,0-2.71-1.21-2.71-2.7
			s1.22-2.7,2.71-2.7c1.48,0,2.69,1.21,2.69,2.7S57.62,380.59,56.14,380.59z"/>
		<path class="st1" d="M68.41,373.67c-2.59,0-4.7,2.11-4.7,4.71c0,2.24,1.59,4.11,3.7,4.57V400h2v-17.04
			c2.11-0.46,3.7-2.34,3.7-4.58C73.11,375.78,71,373.67,68.41,373.67z M68.41,381.07c-1.49,0-2.7-1.21-2.7-2.69
			c0-1.5,1.21-2.71,2.7-2.71c1.49,0,2.7,1.21,2.7,2.71C71.11,379.86,69.9,381.07,68.41,381.07z"/>
		<path class="st1" d="M80.66,373.19c-2.59,0-4.7,2.11-4.7,4.7c0,2.25,1.59,4.12,3.7,4.58V400h2v-17.53c2.11-0.45,3.7-2.33,3.7-4.58
			C85.36,375.3,83.25,373.19,80.66,373.19z M80.66,380.59c-1.49,0-2.7-1.21-2.7-2.7s1.21-2.7,2.7-2.7c1.49,0,2.7,1.21,2.7,2.7
			S82.15,380.59,80.66,380.59z"/>
		<path class="st1" d="M92.93,47.8V0h-2v47.8c-2.11,0.46-3.7,2.34-3.7,4.58c0,2.59,2.11,4.7,4.7,4.7c2.59,0,4.69-2.11,4.69-4.7
			C96.62,50.13,95.04,48.26,92.93,47.8z M91.93,55.08c-1.49,0-2.7-1.21-2.7-2.7s1.21-2.69,2.7-2.69s2.69,1.2,2.69,2.69
			S93.42,55.08,91.93,55.08z"/>
		<path class="st1" d="M102.17,57.8V0h-2v57.8c-2.11,0.46-3.7,2.34-3.7,4.58c0,2.59,2.11,4.7,4.7,4.7c2.59,0,4.69-2.11,4.69-4.7
			C105.86,60.13,104.28,58.26,102.17,57.8z M101.17,65.08c-1.49,0-2.7-1.21-2.7-2.7s1.21-2.69,2.7-2.69s2.69,1.2,2.69,2.69
			S102.66,65.08,101.17,65.08z"/>
		<path class="st1" d="M112.66,47.8V0h-2v47.8c-2.11,0.46-3.7,2.34-3.7,4.58c0,2.59,2.11,4.7,4.7,4.7c2.59,0,4.7-2.11,4.7-4.7
			C116.36,50.13,114.77,48.26,112.66,47.8z M111.66,55.08c-1.49,0-2.7-1.21-2.7-2.7s1.21-2.69,2.7-2.69c1.49,0,2.7,1.2,2.7,2.69
			S113.15,55.08,111.66,55.08z"/>
		<path class="st1" d="M122.27,57.8V0h-2v57.8c-2.11,0.46-3.7,2.34-3.7,4.58c0,2.59,2.11,4.7,4.7,4.7c2.59,0,4.7-2.11,4.7-4.7
			C125.97,60.13,124.38,58.26,122.27,57.8z M121.27,65.08c-1.49,0-2.7-1.21-2.7-2.7s1.21-2.69,2.7-2.69s2.7,1.2,2.7,2.69
			S122.76,65.08,121.27,65.08z"/>
		<path class="st1" d="M81.66,24.55V0h-2v23.72L55.72,47.66V92.3c-2.11,0.46-3.7,2.34-3.7,4.59c0,2.59,2.11,4.69,4.71,4.69
			c2.59,0,4.69-2.1,4.69-4.69c0-2.25-1.59-4.14-3.7-4.6v-43.8L81.66,24.55z M59.42,96.89c0,1.48-1.21,2.69-2.69,2.69
			c-1.49,0-2.71-1.21-2.71-2.69c0-1.49,1.22-2.71,2.71-2.71C58.21,94.18,59.42,95.4,59.42,96.89z"/>
		<path class="st1" d="M69.41,18.12V0h-2v17.3L42.84,41.86V92.3c-2.11,0.46-3.7,2.34-3.7,4.59c0,2.59,2.11,4.69,4.71,4.69
			c2.58,0,4.69-2.1,4.69-4.69c0-2.25-1.59-4.14-3.7-4.6v-49.6L69.41,18.12z M46.54,96.89c0,1.48-1.21,2.69-2.69,2.69
			c-1.49,0-2.71-1.21-2.71-2.69c0-1.49,1.22-2.71,2.71-2.71C45.33,94.18,46.54,95.4,46.54,96.89z"/>
		<path class="st1" d="M57.13,14.62V0h-2v13.79L30.43,38.5v53.8c-2.11,0.46-3.7,2.34-3.7,4.59c0,2.59,2.11,4.69,4.71,4.69
			c2.58,0,4.69-2.1,4.69-4.69c0-2.25-1.59-4.14-3.7-4.6V39.32L57.13,14.62z M34.13,96.89c0,1.48-1.21,2.69-2.69,2.69
			c-1.49,0-2.71-1.21-2.71-2.69c0-1.49,1.22-2.71,2.71-2.71C32.92,94.18,34.13,95.4,34.13,96.89z"/>
		<path class="st1" d="M44.39,11.27V0h-2v10.44L17.88,34.95V92.3c-2.11,0.46-3.7,2.34-3.7,4.59c0,2.59,2.11,4.69,4.71,4.69
			c2.58,0,4.69-2.1,4.69-4.69c0-2.25-1.59-4.14-3.7-4.6V35.78L44.39,11.27z M21.58,96.89c0,1.48-1.21,2.69-2.69,2.69
			c-1.5,0-2.71-1.21-2.71-2.69c0-1.49,1.21-2.71,2.71-2.71C20.37,94.18,21.58,95.4,21.58,96.89z"/>
		<path class="st1" d="M73.26,157.69V65.42c2.11-0.46,3.7-2.35,3.7-4.6c0-2.58-2.11-4.69-4.7-4.69c-2.59,0-4.7,2.11-4.7,4.69
			c0,2.25,1.59,4.13,3.7,4.59v92.29c-2.11,0.46-3.7,2.34-3.7,4.59c0,2.58,2.11,4.69,4.7,4.69c2.59,0,4.7-2.11,4.7-4.69
			C76.96,160.04,75.37,158.15,73.26,157.69z M69.56,60.82c0-1.48,1.21-2.69,2.7-2.69s2.7,1.21,2.7,2.69c0,1.49-1.21,2.71-2.7,2.71
			S69.56,62.31,69.56,60.82z M72.26,164.98c-1.49,0-2.7-1.21-2.7-2.69c0-1.49,1.21-2.71,2.7-2.71s2.7,1.22,2.7,2.71
			C74.96,163.77,73.75,164.98,72.26,164.98z"/>
		<path class="st1" d="M85.81,157.69V75.42c2.11-0.46,3.7-2.35,3.7-4.6c0-2.58-2.11-4.69-4.7-4.69s-4.7,2.11-4.7,4.69
			c0,2.25,1.59,4.13,3.7,4.59v82.29c-2.11,0.46-3.7,2.34-3.7,4.59c0,2.58,2.11,4.69,4.7,4.69s4.7-2.11,4.7-4.69
			C89.51,160.04,87.92,158.15,85.81,157.69z M82.11,70.82c0-1.48,1.21-2.69,2.7-2.69s2.7,1.21,2.7,2.69c0,1.49-1.21,2.71-2.7,2.71
			S82.11,72.31,82.11,70.82z M84.81,164.98c-1.49,0-2.7-1.21-2.7-2.69c0-1.49,1.21-2.71,2.7-2.71s2.7,1.22,2.7,2.71
			C87.51,163.77,86.3,164.98,84.81,164.98z"/>
		<path class="st1" d="M98.22,157.69V90.42c2.11-0.46,3.7-2.35,3.7-4.6c0-2.58-2.11-4.69-4.7-4.69c-2.59,0-4.7,2.11-4.7,4.69
			c0,2.25,1.59,4.13,3.7,4.59v67.29c-2.11,0.46-3.7,2.34-3.7,4.59c0,2.58,2.11,4.69,4.7,4.69c2.59,0,4.7-2.11,4.7-4.69
			C101.92,160.04,100.33,158.15,98.22,157.69z M94.52,85.82c0-1.48,1.21-2.69,2.7-2.69c1.49,0,2.7,1.21,2.7,2.69
			c0,1.49-1.21,2.71-2.7,2.71C95.73,88.53,94.52,87.31,94.52,85.82z M97.22,164.98c-1.49,0-2.7-1.21-2.7-2.69
			c0-1.49,1.21-2.71,2.7-2.71c1.49,0,2.7,1.22,2.7,2.71C99.92,163.77,98.71,164.98,97.22,164.98z"/>
		<path class="st1" d="M111.1,157.69V90.42c2.11-0.46,3.7-2.35,3.7-4.6c0-2.58-2.11-4.69-4.69-4.69c-2.6,0-4.71,2.11-4.71,4.69
			c0,2.25,1.59,4.13,3.7,4.59v67.29c-2.11,0.46-3.7,2.34-3.7,4.59c0,2.58,2.11,4.69,4.71,4.69c2.58,0,4.69-2.11,4.69-4.69
			C114.8,160.04,113.21,158.15,111.1,157.69z M107.4,85.82c0-1.48,1.21-2.69,2.71-2.69c1.48,0,2.69,1.21,2.69,2.69
			c0,1.49-1.21,2.71-2.69,2.71C108.61,88.53,107.4,87.31,107.4,85.82z M110.11,164.98c-1.5,0-2.71-1.21-2.71-2.69
			c0-1.49,1.21-2.71,2.71-2.71c1.48,0,2.69,1.22,2.69,2.71C112.8,163.77,111.59,164.98,110.11,164.98z"/>
		<path class="st1" d="M48.24,261.52v-42.15l-28.36-28.36v-47.97c2.11-0.46,3.7-2.34,3.7-4.6c0-2.58-2.11-4.69-4.69-4.69
			c-2.6,0-4.71,2.11-4.71,4.69c0,2.25,1.59,4.13,3.7,4.59v48.81l28.36,28.35v41.33c-2.11,0.46-3.7,2.33-3.7,4.58
			c0,2.59,2.11,4.7,4.7,4.7c2.59,0,4.7-2.11,4.7-4.7C51.94,263.85,50.35,261.97,48.24,261.52z M16.18,138.44
			c0-1.48,1.21-2.69,2.71-2.69c1.48,0,2.69,1.21,2.69,2.69c0,1.5-1.21,2.71-2.69,2.71C17.39,141.15,16.18,139.94,16.18,138.44z
			 M47.24,268.8c-1.49,0-2.7-1.21-2.7-2.7c0-1.49,1.21-2.7,2.7-2.7s2.7,1.21,2.7,2.7C49.94,267.59,48.73,268.8,47.24,268.8z"/>
		<path class="st1" d="M67.77,241.52v-32.08l-27.6-27.6v-58.8c2.11-0.46,3.7-2.34,3.7-4.6c0-2.58-2.1-4.69-4.69-4.69
			c-2.6,0-4.71,2.11-4.71,4.69c0,2.25,1.59,4.13,3.7,4.59v59.64l27.6,27.6v31.25c-2.12,0.46-3.7,2.33-3.7,4.58
			c0,2.59,2.11,4.7,4.7,4.7c2.59,0,4.69-2.11,4.69-4.7C71.46,243.85,69.88,241.97,67.77,241.52z M36.47,118.44
			c0-1.48,1.22-2.69,2.71-2.69c1.48,0,2.69,1.21,2.69,2.69c0,1.5-1.21,2.71-2.69,2.71C37.69,121.15,36.47,119.94,36.47,118.44z
			 M66.77,248.8c-1.49,0-2.7-1.21-2.7-2.7c0-1.49,1.21-2.7,2.7-2.7s2.69,1.21,2.69,2.7C69.46,247.59,68.26,248.8,66.77,248.8z"/>
		<path class="st1" d="M58.01,251.03v-35.16l-28.22-28.23v-54.6c2.11-0.46,3.7-2.34,3.7-4.6c0-2.58-2.11-4.69-4.69-4.69
			c-2.6,0-4.71,2.11-4.71,4.69c0,2.25,1.59,4.13,3.7,4.59v55.44l28.22,28.22v34.35c-2.11,0.46-3.69,2.33-3.69,4.57
			c0,2.6,2.11,4.71,4.7,4.71c2.59,0,4.69-2.11,4.69-4.71C61.71,253.37,60.13,251.49,58.01,251.03z M26.09,128.44
			c0-1.48,1.21-2.69,2.71-2.69c1.48,0,2.69,1.21,2.69,2.69c0,1.5-1.21,2.71-2.69,2.71C27.3,131.15,26.09,129.94,26.09,128.44z
			 M57.02,258.32c-1.49,0-2.7-1.21-2.7-2.71c0-1.48,1.21-2.69,2.7-2.69s2.69,1.21,2.69,2.69C59.71,257.11,58.51,258.32,57.02,258.32
			z"/>
		<path class="st2" d="M56.43,141.93c-3.4,0-6.18,2.77-6.18,6.18c0,3.4,2.78,6.16,6.18,6.16c3.41,0,6.17-2.76,6.17-6.16
			C62.6,144.7,59.84,141.93,56.43,141.93z M56.43,152.27c-2.3,0-4.18-1.87-4.18-4.16c0-2.31,1.88-4.18,4.18-4.18
			s4.17,1.87,4.17,4.18C60.6,150.4,58.73,152.27,56.43,152.27z"/>
		<path class="st2" d="M56.43,117.45c-3.4,0-6.18,2.77-6.18,6.18c0,3.4,2.78,6.17,6.18,6.17c3.41,0,6.17-2.77,6.17-6.17
			C62.6,120.22,59.84,117.45,56.43,117.45z M56.43,127.8c-2.3,0-4.18-1.87-4.18-4.17s1.88-4.18,4.18-4.18s4.17,1.88,4.17,4.18
			S58.73,127.8,56.43,127.8z"/>
		<path class="st2" d="M110.36,315c-3.4,0-6.18,2.77-6.18,6.18c0,3.4,2.78,6.16,6.18,6.16c3.4,0,6.17-2.76,6.17-6.16
			C116.53,317.77,113.76,315,110.36,315z M110.36,325.34c-2.3,0-4.18-1.87-4.18-4.16c0-2.31,1.88-4.18,4.18-4.18
			s4.17,1.87,4.17,4.18C114.53,323.47,112.66,325.34,110.36,325.34z"/>
		<path class="st2" d="M110.36,284.52c-3.4,0-6.18,2.77-6.18,6.18c0,3.4,2.78,6.17,6.18,6.17c3.4,0,6.17-2.77,6.17-6.17
			C116.53,287.29,113.76,284.52,110.36,284.52z M110.36,294.87c-2.3,0-4.18-1.87-4.18-4.17s1.88-4.18,4.18-4.18s4.17,1.88,4.17,4.18
			S112.66,294.87,110.36,294.87z"/>
		<path class="st2" d="M25.46,296.45c-3.41,0-6.18,2.77-6.18,6.18c0,3.4,2.77,6.17,6.18,6.17c3.4,0,6.17-2.77,6.17-6.17
			C31.63,299.22,28.86,296.45,25.46,296.45z M25.46,306.8c-2.3,0-4.18-1.87-4.18-4.17s1.88-4.18,4.18-4.18
			c2.3,0,4.17,1.88,4.17,4.18S27.76,306.8,25.46,306.8z"/>
		<path class="st1" d="M147.74,340.77c-0.9,0-1.73,0.27-2.45,0.71l-17.42-17.43v-50.99c2.11-0.46,3.7-2.34,3.7-4.6
			c0-2.58-2.11-4.69-4.7-4.69c-2.59,0-4.7,2.11-4.7,4.69c0,2.25,1.59,4.13,3.7,4.59v51.83l17.97,17.97
			c-0.51,0.74-0.81,1.65-0.81,2.62c0,2.59,2.11,4.7,4.71,4.7c2.58,0,4.69-2.11,4.69-4.7C152.43,342.88,150.32,340.77,147.74,340.77z
			 M124.17,268.46c0-1.48,1.21-2.69,2.7-2.69s2.7,1.21,2.7,2.69c0,1.5-1.21,2.71-2.7,2.71S124.17,269.96,124.17,268.46z
			 M147.74,348.17c-1.49,0-2.71-1.21-2.71-2.7c0-1.49,1.22-2.7,2.71-2.7c1.48,0,2.69,1.21,2.69,2.7
			C150.43,346.96,149.22,348.17,147.74,348.17z"/>
		<path class="st1" d="M379.89,203.79c-2.59,0-4.69,2.1-4.69,4.69c0,2.25,1.58,4.14,3.7,4.59v56.43l-21.18,21.18v23.45
			c-2.11,0.46-3.7,2.34-3.7,4.58c0,2.6,2.11,4.71,4.7,4.71c2.59,0,4.7-2.11,4.7-4.71c0-2.24-1.59-4.12-3.7-4.58V291.5l21.18-21.17
			v-57.26c2.11-0.46,3.69-2.34,3.69-4.59C384.59,205.89,382.48,203.79,379.89,203.79z M361.42,318.71c0,1.49-1.21,2.71-2.7,2.71
			c-1.49,0-2.7-1.22-2.7-2.71c0-1.48,1.21-2.69,2.7-2.69C360.21,316.02,361.42,317.23,361.42,318.71z M379.89,211.19
			c-1.49,0-2.69-1.22-2.69-2.71c0-1.48,1.2-2.69,2.69-2.69s2.7,1.21,2.7,2.69C382.59,209.97,381.38,211.19,379.89,211.19z"/>
		<path class="st1" d="M370.84,214.79c-2.58,0-4.69,2.1-4.69,4.69c0,2.25,1.59,4.14,3.7,4.59v39.61l-21.37,21.37v19.18
			c-2.11,0.46-3.7,2.34-3.7,4.59c0,2.59,2.11,4.7,4.7,4.7c2.59,0,4.7-2.11,4.7-4.7c0-2.25-1.59-4.12-3.7-4.58v-18.36l21.37-21.37
			v-40.44c2.11-0.46,3.7-2.34,3.7-4.59C375.55,216.89,373.44,214.79,370.84,214.79z M352.18,308.82c0,1.49-1.21,2.7-2.7,2.7
			s-2.7-1.21-2.7-2.7s1.21-2.7,2.7-2.7S352.18,307.33,352.18,308.82z M370.84,222.19c-1.48,0-2.69-1.22-2.69-2.71
			c0-1.48,1.21-2.69,2.69-2.69c1.49,0,2.71,1.21,2.71,2.69C373.55,220.97,372.33,222.19,370.84,222.19z"/>
		<path class="st1" d="M349.14,169.84c-2.59,0-4.7,2.11-4.7,4.7c0,1.04,0.35,1.98,0.92,2.76l-32.26,32.26v38.64l23.1,23.1v66.92
			l-29.12,29.12V400h2v-31.83l29.12-29.13v-68.56l-23.1-23.1v-37l31.76-31.76c0.68,0.38,1.45,0.62,2.28,0.62
			c2.59,0,4.7-2.11,4.7-4.7C353.84,171.95,351.73,169.84,349.14,169.84z M349.14,177.24c-1.49,0-2.7-1.21-2.7-2.7
			c0-1.49,1.21-2.7,2.7-2.7s2.7,1.21,2.7,2.7C351.84,176.03,350.63,177.24,349.14,177.24z"/>
		<path class="st1" d="M333.22,174.34c-2.59,0-4.69,2.11-4.69,4.71c0,0.92,0.28,1.78,0.74,2.51l-25.84,25.84v44.67l23.73,23.72
			v56.61l-29.32,29.31V400h2v-37.46l29.32-29.32v-58.26l-23.73-23.72v-43.01l25.25-25.25c0.73,0.48,1.6,0.76,2.54,0.76
			c2.6,0,4.7-2.11,4.7-4.69C337.92,176.45,335.82,174.34,333.22,174.34z M333.22,181.74c-1.48,0-2.69-1.21-2.69-2.69
			c0-1.49,1.21-2.71,2.69-2.71c1.49,0,2.7,1.22,2.7,2.71C335.92,180.53,334.71,181.74,333.22,181.74z"/>
		<path class="st1" d="M314.46,186.75c0.7,0.43,1.52,0.69,2.41,0.69c2.59,0,4.7-2.11,4.7-4.69c0-2.6-2.11-4.71-4.7-4.71
			c-2.59,0-4.69,2.11-4.69,4.71c0,0.97,0.3,1.88,0.81,2.64l-18.48,18.48v53.24l23.18,23.17v48.39l-30.35,30.34V400h2v-40.16
			l30.35-30.34v-50.05l-23.18-23.17V204.7L314.46,186.75z M316.87,180.04c1.49,0,2.7,1.21,2.7,2.71c0,1.48-1.21,2.69-2.7,2.69
			s-2.69-1.21-2.69-2.69C314.18,181.25,315.38,180.04,316.87,180.04z"/>
		<path class="st1" d="M285.22,260.88v-59.45l11.59-11.6c0.74,0.47,1.6,0.76,2.54,0.76c2.59,0,4.7-2.11,4.7-4.7
			c0-2.59-2.11-4.7-4.7-4.7c-2.59,0-4.69,2.11-4.69,4.7c0,0.93,0.28,1.8,0.74,2.52l-12.18,12.19v61.1l24.6,24.61v38.56l-30.08,30.09
			V400h2v-44.21l30.08-30.09v-40.22L285.22,260.88z M299.35,183.19c1.49,0,2.7,1.21,2.7,2.7s-1.21,2.7-2.7,2.7
			c-1.49,0-2.69-1.21-2.69-2.7S297.86,183.19,299.35,183.19z"/>
		<path class="st1" d="M356.61,373.19c-2.59,0-4.69,2.11-4.69,4.7c0,2.25,1.58,4.13,3.7,4.58V400h2v-17.53
			c2.11-0.46,3.69-2.33,3.69-4.58C361.31,375.3,359.2,373.19,356.61,373.19z M356.61,380.59c-1.48,0-2.69-1.21-2.69-2.7
			s1.21-2.7,2.69-2.7c1.49,0,2.7,1.21,2.7,2.7S358.1,380.59,356.61,380.59z"/>
		<path class="st1" d="M343.87,373.19c-2.59,0-4.7,2.11-4.7,4.7c0,2.25,1.59,4.13,3.7,4.58V400h2v-17.53
			c2.11-0.46,3.7-2.33,3.7-4.58C348.57,375.3,346.46,373.19,343.87,373.19z M343.87,380.59c-1.49,0-2.7-1.21-2.7-2.7
			s1.21-2.7,2.7-2.7s2.7,1.21,2.7,2.7S345.36,380.59,343.87,380.59z"/>
		<path class="st1" d="M331.59,373.67c-2.59,0-4.69,2.11-4.69,4.71c0,2.24,1.58,4.12,3.69,4.58V400h2v-17.05
			c2.12-0.46,3.7-2.33,3.7-4.57C336.29,375.78,334.18,373.67,331.59,373.67z M331.59,381.07c-1.49,0-2.69-1.21-2.69-2.69
			c0-1.5,1.2-2.71,2.69-2.71c1.49,0,2.7,1.21,2.7,2.71C334.29,379.86,333.08,381.07,331.59,381.07z"/>
		<path class="st1" d="M319.34,373.19c-2.59,0-4.69,2.11-4.69,4.7c0,2.25,1.58,4.13,3.69,4.58V400h2v-17.53
			c2.12-0.46,3.7-2.33,3.7-4.58C324.04,375.3,321.93,373.19,319.34,373.19z M319.34,380.59c-1.49,0-2.69-1.21-2.69-2.7
			s1.2-2.7,2.69-2.7c1.49,0,2.7,1.21,2.7,2.7S320.83,380.59,319.34,380.59z"/>
		<path class="st1" d="M309.08,47.8V0h-2v47.8c-2.11,0.46-3.7,2.33-3.7,4.58c0,2.59,2.1,4.7,4.69,4.7c2.59,0,4.7-2.11,4.7-4.7
			C312.77,50.14,311.19,48.26,309.08,47.8z M308.07,55.08c-1.48,0-2.69-1.21-2.69-2.7s1.21-2.69,2.69-2.69c1.49,0,2.7,1.2,2.7,2.69
			S309.56,55.08,308.07,55.08z"/>
		<path class="st1" d="M299.84,57.8V0h-2v57.8c-2.11,0.46-3.7,2.33-3.7,4.58c0,2.59,2.1,4.7,4.69,4.7c2.59,0,4.7-2.11,4.7-4.7
			C303.53,60.14,301.95,58.26,299.84,57.8z M298.83,65.08c-1.48,0-2.69-1.21-2.69-2.7s1.21-2.69,2.69-2.69c1.49,0,2.7,1.2,2.7,2.69
			S300.32,65.08,298.83,65.08z"/>
		<path class="st1" d="M289.34,47.8V0h-2v47.8c-2.11,0.46-3.69,2.33-3.69,4.58c0,2.59,2.1,4.7,4.69,4.7c2.59,0,4.7-2.11,4.7-4.7
			C293.04,50.14,291.45,48.26,289.34,47.8z M288.34,55.08c-1.49,0-2.69-1.21-2.69-2.7s1.2-2.69,2.69-2.69c1.49,0,2.7,1.2,2.7,2.69
			S289.83,55.08,288.34,55.08z"/>
		<path class="st1" d="M279.74,57.8V0h-2v57.8c-2.12,0.46-3.7,2.33-3.7,4.58c0,2.59,2.1,4.7,4.69,4.7c2.59,0,4.7-2.11,4.7-4.7
			C283.43,60.14,281.85,58.26,279.74,57.8z M278.73,65.08c-1.48,0-2.69-1.21-2.69-2.7s1.21-2.69,2.69-2.69c1.49,0,2.7,1.2,2.7,2.69
			S280.22,65.08,278.73,65.08z"/>
		<path class="st1" d="M357.16,92.3V41.86L332.59,17.3V0h-2v18.12l24.57,24.57v49.6c-2.11,0.46-3.7,2.35-3.7,4.6
			c0,2.59,2.11,4.69,4.7,4.69c2.59,0,4.7-2.1,4.7-4.69C360.86,94.64,359.27,92.76,357.16,92.3z M356.16,99.58
			c-1.49,0-2.7-1.21-2.7-2.69c0-1.49,1.21-2.71,2.7-2.71c1.49,0,2.7,1.22,2.7,2.71C358.86,98.37,357.65,99.58,356.16,99.58z"/>
		<path class="st1" d="M344.28,92.3V47.66l-23.94-23.94V0h-2v24.55l23.94,23.94v43.8c-2.11,0.46-3.7,2.35-3.7,4.6
			c0,2.59,2.11,4.69,4.69,4.69c2.6,0,4.71-2.1,4.71-4.69C347.98,94.64,346.39,92.76,344.28,92.3z M343.27,99.58
			c-1.48,0-2.69-1.21-2.69-2.69c0-1.49,1.21-2.71,2.69-2.71c1.5,0,2.71,1.22,2.71,2.71C345.98,98.37,344.77,99.58,343.27,99.58z"/>
		<path class="st1" d="M382.12,92.3V34.95l-24.5-24.51V0h-2v11.27l24.5,24.51v56.51c-2.11,0.46-3.7,2.35-3.7,4.6
			c0,2.59,2.11,4.69,4.7,4.69c2.59,0,4.7-2.1,4.7-4.69C385.82,94.64,384.23,92.76,382.12,92.3z M381.12,99.58
			c-1.49,0-2.7-1.21-2.7-2.69c0-1.49,1.21-2.71,2.7-2.71s2.7,1.22,2.7,2.71C383.82,98.37,382.61,99.58,381.12,99.58z"/>
		<path class="st1" d="M369.57,92.3V38.5l-24.7-24.71V0h-2v14.62l24.7,24.7v52.97c-2.11,0.46-3.7,2.35-3.7,4.6
			c0,2.59,2.11,4.69,4.7,4.69c2.59,0,4.7-2.1,4.7-4.69C373.27,94.64,371.68,92.76,369.57,92.3z M368.57,99.58
			c-1.49,0-2.7-1.21-2.7-2.69c0-1.49,1.21-2.71,2.7-2.71s2.7,1.22,2.7,2.71C371.27,98.37,370.06,99.58,368.57,99.58z"/>
		<path class="st1" d="M328.75,157.7V65.41c2.11-0.46,3.69-2.34,3.69-4.59c0-2.58-2.11-4.69-4.7-4.69c-2.59,0-4.69,2.11-4.69,4.69
			c0,2.25,1.59,4.14,3.7,4.6v92.27c-2.11,0.46-3.7,2.35-3.7,4.6c0,2.58,2.1,4.69,4.69,4.69c2.59,0,4.7-2.11,4.7-4.69
			C332.44,160.04,330.86,158.16,328.75,157.7z M325.05,60.82c0-1.48,1.21-2.69,2.69-2.69c1.49,0,2.7,1.21,2.7,2.69
			c0,1.49-1.21,2.71-2.7,2.71C326.26,63.53,325.05,62.31,325.05,60.82z M327.74,164.98c-1.48,0-2.69-1.21-2.69-2.69
			c0-1.49,1.21-2.71,2.69-2.71c1.49,0,2.7,1.22,2.7,2.71C330.44,163.77,329.23,164.98,327.74,164.98z"/>
		<path class="st1" d="M316.19,157.7V75.41c2.12-0.46,3.7-2.34,3.7-4.59c0-2.58-2.11-4.69-4.7-4.69s-4.69,2.11-4.69,4.69
			c0,2.25,1.58,4.14,3.69,4.6v82.27c-2.11,0.46-3.69,2.35-3.69,4.6c0,2.58,2.1,4.69,4.69,4.69s4.7-2.11,4.7-4.69
			C319.89,160.04,318.31,158.16,316.19,157.7z M312.5,70.82c0-1.48,1.2-2.69,2.69-2.69s2.7,1.21,2.7,2.69c0,1.49-1.21,2.71-2.7,2.71
			S312.5,72.31,312.5,70.82z M315.19,164.98c-1.49,0-2.69-1.21-2.69-2.69c0-1.49,1.2-2.71,2.69-2.71s2.7,1.22,2.7,2.71
			C317.89,163.77,316.68,164.98,315.19,164.98z"/>
		<path class="st1" d="M303.78,157.7V90.41c2.12-0.46,3.7-2.34,3.7-4.59c0-2.58-2.11-4.69-4.7-4.69c-2.59,0-4.69,2.11-4.69,4.69
			c0,2.25,1.58,4.14,3.69,4.6v67.27c-2.11,0.46-3.69,2.35-3.69,4.6c0,2.58,2.1,4.69,4.69,4.69c2.59,0,4.7-2.11,4.7-4.69
			C307.48,160.04,305.9,158.16,303.78,157.7z M300.09,85.82c0-1.48,1.2-2.69,2.69-2.69c1.49,0,2.7,1.21,2.7,2.69
			c0,1.49-1.21,2.71-2.7,2.71C301.29,88.53,300.09,87.31,300.09,85.82z M302.78,164.98c-1.49,0-2.69-1.21-2.69-2.69
			c0-1.49,1.2-2.71,2.69-2.71c1.49,0,2.7,1.22,2.7,2.71C305.48,163.77,304.27,164.98,302.78,164.98z"/>
		<path class="st1" d="M290.9,157.7V90.41c2.11-0.46,3.7-2.34,3.7-4.59c0-2.58-2.11-4.69-4.7-4.69c-2.59,0-4.7,2.11-4.7,4.69
			c0,2.25,1.59,4.14,3.7,4.6v67.27c-2.11,0.46-3.7,2.35-3.7,4.6c0,2.58,2.11,4.69,4.7,4.69c2.59,0,4.7-2.11,4.7-4.69
			C294.6,160.04,293.01,158.16,290.9,157.7z M287.2,85.82c0-1.48,1.21-2.69,2.7-2.69c1.49,0,2.7,1.21,2.7,2.69
			c0,1.49-1.21,2.71-2.7,2.71C288.41,88.53,287.2,87.31,287.2,85.82z M289.9,164.98c-1.49,0-2.7-1.21-2.7-2.69
			c0-1.49,1.21-2.71,2.7-2.71c1.49,0,2.7,1.22,2.7,2.71C292.6,163.77,291.39,164.98,289.9,164.98z"/>
		<path class="st1" d="M360.83,113.75c-2.59,0-4.7,2.11-4.7,4.69c0,2.26,1.59,4.14,3.7,4.6v58.8l-27.59,27.6v32.08
			c-2.11,0.45-3.7,2.33-3.7,4.58c0,2.59,2.1,4.7,4.69,4.7c2.6,0,4.71-2.11,4.71-4.7c0-2.25-1.59-4.12-3.7-4.58v-31.25l27.59-27.6
			v-59.64c2.11-0.46,3.7-2.34,3.7-4.59C365.53,115.86,363.42,113.75,360.83,113.75z M335.94,246.1c0,1.49-1.22,2.7-2.71,2.7
			c-1.48,0-2.69-1.21-2.69-2.7c0-1.49,1.21-2.7,2.69-2.7C334.72,243.4,335.94,244.61,335.94,246.1z M360.83,121.15
			c-1.49,0-2.7-1.21-2.7-2.71c0-1.48,1.21-2.69,2.7-2.69s2.7,1.21,2.7,2.69C363.53,119.94,362.32,121.15,360.83,121.15z"/>
		<path class="st1" d="M381.12,133.75c-2.59,0-4.7,2.11-4.7,4.69c0,2.26,1.59,4.14,3.7,4.6v47.97l-28.36,28.36v42.15
			c-2.11,0.45-3.69,2.33-3.69,4.58c0,2.59,2.1,4.7,4.69,4.7c2.59,0,4.7-2.11,4.7-4.7c0-2.25-1.59-4.12-3.7-4.58v-41.33l28.36-28.35
			v-48.81c2.11-0.46,3.7-2.34,3.7-4.59C385.82,135.86,383.71,133.75,381.12,133.75z M355.46,266.1c0,1.49-1.21,2.7-2.7,2.7
			s-2.69-1.21-2.69-2.7c0-1.49,1.2-2.7,2.69-2.7S355.46,264.61,355.46,266.1z M381.12,141.15c-1.49,0-2.7-1.21-2.7-2.71
			c0-1.48,1.21-2.69,2.7-2.69s2.7,1.21,2.7,2.69C383.82,139.94,382.61,141.15,381.12,141.15z"/>
		<path class="st1" d="M371.21,123.75c-2.59,0-4.7,2.11-4.7,4.69c0,2.26,1.59,4.14,3.7,4.6v54.6l-28.22,28.23v35.16
			c-2.11,0.46-3.7,2.34-3.7,4.58c0,2.6,2.1,4.71,4.69,4.71c2.6,0,4.71-2.11,4.71-4.71c0-2.24-1.59-4.11-3.7-4.57v-34.35l28.22-28.22
			v-55.44c2.11-0.46,3.7-2.34,3.7-4.59C375.91,125.86,373.8,123.75,371.21,123.75z M345.69,255.61c0,1.5-1.22,2.71-2.71,2.71
			c-1.48,0-2.69-1.21-2.69-2.71c0-1.48,1.21-2.69,2.69-2.69C344.47,252.92,345.69,254.13,345.69,255.61z M371.21,131.15
			c-1.49,0-2.7-1.21-2.7-2.71c0-1.48,1.21-2.69,2.7-2.69c1.49,0,2.7,1.21,2.7,2.69C373.91,129.94,372.7,131.15,371.21,131.15z"/>
		<path class="st2" d="M343.57,141.93c-3.4,0-6.17,2.77-6.17,6.18c0,3.4,2.77,6.16,6.17,6.16c3.41,0,6.18-2.76,6.18-6.16
			C349.75,144.7,346.98,141.93,343.57,141.93z M343.57,152.27c-2.3,0-4.17-1.87-4.17-4.16c0-2.31,1.87-4.18,4.17-4.18
			s4.18,1.87,4.18,4.18C347.75,150.4,345.87,152.27,343.57,152.27z"/>
		<path class="st2" d="M343.57,117.45c-3.4,0-6.17,2.77-6.17,6.18c0,3.4,2.77,6.17,6.17,6.17c3.41,0,6.18-2.77,6.18-6.17
			C349.75,120.22,346.98,117.45,343.57,117.45z M343.57,127.8c-2.3,0-4.17-1.87-4.17-4.17s1.87-4.18,4.17-4.18s4.18,1.88,4.18,4.18
			S345.87,127.8,343.57,127.8z"/>
		<path class="st2" d="M289.64,315c-3.4,0-6.17,2.77-6.17,6.18c0,3.4,2.77,6.16,6.17,6.16c3.41,0,6.18-2.76,6.18-6.16
			C295.82,317.77,293.05,315,289.64,315z M289.64,325.34c-2.3,0-4.17-1.87-4.17-4.16c0-2.31,1.87-4.18,4.17-4.18
			s4.18,1.87,4.18,4.18C293.82,323.47,291.94,325.34,289.64,325.34z"/>
		<path class="st2" d="M289.64,284.52c-3.4,0-6.17,2.77-6.17,6.18c0,3.4,2.77,6.17,6.17,6.17c3.41,0,6.18-2.77,6.18-6.17
			C295.82,287.29,293.05,284.52,289.64,284.52z M289.64,294.87c-2.3,0-4.17-1.87-4.17-4.17s1.87-4.18,4.17-4.18s4.18,1.88,4.18,4.18
			S291.94,294.87,289.64,294.87z"/>
		<path class="st2" d="M379.99,296.45c-6.4,0-11.62,5.23-11.62,11.65c0,6.41,5.22,11.62,11.62,11.62c6.43,0,11.65-5.21,11.65-11.62
			C391.64,301.68,386.42,296.45,379.99,296.45z M379.99,317.72c-5.3,0-9.62-4.32-9.62-9.62c0-5.32,4.32-9.65,9.62-9.65
			c5.32,0,9.65,4.33,9.65,9.65C389.64,313.4,385.31,317.72,379.99,317.72z"/>
		<path class="st1" d="M273.13,263.77c-2.59,0-4.69,2.11-4.69,4.69c0,2.26,1.58,4.14,3.7,4.6v50.99l-17.43,17.43
			c-0.72-0.44-1.55-0.71-2.44-0.71c-2.59,0-4.7,2.11-4.7,4.7c0,2.59,2.11,4.7,4.7,4.7c2.59,0,4.7-2.11,4.7-4.7
			c0-0.97-0.3-1.88-0.8-2.62l17.97-17.97v-51.83c2.11-0.46,3.69-2.34,3.69-4.59C277.83,265.88,275.72,263.77,273.13,263.77z
			 M252.27,348.17c-1.49,0-2.7-1.21-2.7-2.7c0-1.49,1.21-2.7,2.7-2.7s2.7,1.21,2.7,2.7C254.97,346.96,253.76,348.17,252.27,348.17z
			 M273.13,271.17c-1.48,0-2.69-1.21-2.69-2.71c0-1.48,1.21-2.69,2.69-2.69c1.49,0,2.7,1.21,2.7,2.69
			C275.83,269.96,274.62,271.17,273.13,271.17z"/>
		<path class="st1" d="M218.61,221.14c-2.21,0-4.06,1.56-4.52,3.64h-18.12l-4.2,4.71l0.01,76.01l-11.96,13.43h-20.61
			c-0.46-2.07-2.31-3.63-4.53-3.63c-2.55,0-4.63,2.08-4.63,4.63c0,2.56,2.08,4.64,4.63,4.64c2.22,0,4.07-1.56,4.53-3.64h21.5
			l13.07-14.67l-0.01-76.01l3.09-3.47h17.23c0.46,2.08,2.31,3.64,4.52,3.64c2.55,0,4.63-2.08,4.63-4.64S221.16,221.14,218.61,221.14
			z M154.68,322.57c-1.45,0-2.63-1.18-2.63-2.64c0-1.45,1.18-2.63,2.63-2.63c1.46,0,2.64,1.18,2.64,2.63
			C157.32,321.39,156.14,322.57,154.68,322.57z M218.61,228.42c-1.46,0-2.64-1.19-2.64-2.64c0-1.45,1.18-2.64,2.64-2.64
			c1.45,0,2.63,1.19,2.63,2.64C221.24,227.23,220.06,228.42,218.61,228.42z"/>
		<path class="st1" d="M215.61,200.8c-2.21,0-4.06,1.56-4.52,3.64h-22.93l-10.11,11.35l0.01,76l-6.05,6.8h-15.8
			c-0.46-2.08-2.31-3.64-4.53-3.64c-2.55,0-4.63,2.08-4.63,4.64s2.08,4.64,4.63,4.64c2.22,0,4.07-1.56,4.53-3.64h16.7l7.15-8.03
			l-0.01-76.01l9.01-10.11h22.03c0.46,2.07,2.31,3.63,4.52,3.63c2.55,0,4.63-2.08,4.63-4.63
			C220.24,202.88,218.16,200.8,215.61,200.8z M151.68,302.23c-1.45,0-2.63-1.19-2.63-2.64c0-1.45,1.18-2.64,2.63-2.64
			c1.46,0,2.64,1.19,2.64,2.64C154.32,301.04,153.14,302.23,151.68,302.23z M215.61,208.07c-1.46,0-2.64-1.18-2.64-2.63
			c0-1.46,1.18-2.64,2.64-2.64c1.45,0,2.63,1.18,2.63,2.64C218.24,206.89,217.06,208.07,215.61,208.07z"/>
		<path class="st1" d="M208.28,210.97c-2.21,0-4.06,1.56-4.52,3.64h-11.7l-7.15,8.03l0.01,76.01l-9.01,10.11h-27.03
			c-0.46-2.08-2.31-3.63-4.52-3.63c-2.55,0-4.63,2.07-4.63,4.63s2.08,4.64,4.63,4.64c2.21,0,4.06-1.56,4.52-3.64h27.93l10.11-11.35
			l-0.01-76.01l6.05-6.79h10.8c0.46,2.07,2.31,3.63,4.52,3.63c2.56,0,4.64-2.08,4.64-4.63
			C212.92,213.05,210.84,210.97,208.28,210.97z M144.36,312.4c-1.45,0-2.63-1.19-2.63-2.64s1.18-2.63,2.63-2.63
			c1.46,0,2.64,1.18,2.64,2.63S145.82,312.4,144.36,312.4z M208.28,218.24c-1.45,0-2.63-1.18-2.63-2.63c0-1.46,1.18-2.64,2.63-2.64
			c1.46,0,2.64,1.18,2.64,2.64C210.92,217.06,209.74,218.24,208.28,218.24z"/>
		<path class="st1" d="M205.28,190.63c-2.21,0-4.06,1.56-4.52,3.63h-16.5l-13.07,14.67l0.01,76.01l-3.09,3.48h-22.23
			c-0.46-2.08-2.31-3.64-4.52-3.64c-2.55,0-4.63,2.08-4.63,4.64c0,2.55,2.08,4.63,4.63,4.63c2.21,0,4.06-1.56,4.52-3.63H169
			l4.2-4.72l-0.01-76l11.96-13.44h15.61c0.46,2.08,2.31,3.64,4.52,3.64c2.56,0,4.64-2.08,4.64-4.64
			C209.92,192.71,207.84,190.63,205.28,190.63z M141.36,292.05c-1.45,0-2.63-1.18-2.63-2.63c0-1.46,1.18-2.64,2.63-2.64
			c1.46,0,2.64,1.18,2.64,2.64C144,290.87,142.82,292.05,141.36,292.05z M205.28,197.9c-1.45,0-2.63-1.18-2.63-2.64
			c0-1.45,1.18-2.63,2.63-2.63c1.46,0,2.64,1.18,2.64,2.63C207.92,196.72,206.74,197.9,205.28,197.9z"/>
		<path class="st1" d="M232.63,144.91c-2.56,0-4.64,2.08-4.64,4.63c0,2.22,1.56,4.06,3.64,4.52v10.81l-6.79,6.05l-76.01-0.01
			l-11.35,10.11v68.92c-2.08,0.46-3.64,2.31-3.64,4.52c0,2.55,2.08,4.63,4.64,4.63c2.55,0,4.63-2.08,4.63-4.63
			c0-2.21-1.56-4.06-3.63-4.52v-68.03l10.11-9l76.01,0.01l8.03-7.15v-11.71c2.08-0.46,3.64-2.3,3.64-4.52
			C237.27,146.99,235.19,144.91,232.63,144.91z M141.11,254.46c0,1.45-1.18,2.63-2.63,2.63c-1.46,0-2.64-1.18-2.64-2.63
			c0-1.46,1.18-2.64,2.64-2.64C139.93,251.82,141.11,253,141.11,254.46z M232.63,152.18c-1.45,0-2.64-1.18-2.64-2.64
			c0-1.45,1.19-2.63,2.64-2.63s2.64,1.18,2.64,2.63C235.27,151,234.08,152.18,232.63,152.18z"/>
		<path class="st1" d="M242.8,137.59c-2.55,0-4.63,2.07-4.63,4.63c0,2.21,1.56,4.06,3.63,4.52v22.03l-10.11,9.01l-76.01-0.01
			l-8.03,7.15v75.2c-2.08,0.46-3.64,2.31-3.64,4.52c0,2.56,2.08,4.64,4.64,4.64c2.55,0,4.63-2.08,4.63-4.64
			c0-2.21-1.56-4.06-3.63-4.52v-74.3l6.79-6.05l76.01,0.01l11.35-10.11v-22.93c2.08-0.46,3.64-2.31,3.64-4.52
			C247.44,139.66,245.36,137.59,242.8,137.59z M151.28,264.64c0,1.45-1.18,2.64-2.63,2.64c-1.46,0-2.64-1.19-2.64-2.64
			s1.18-2.64,2.64-2.64C150.1,262,151.28,263.19,151.28,264.64z M242.8,144.86c-1.45,0-2.63-1.19-2.63-2.64
			c0-1.45,1.18-2.63,2.63-2.63s2.64,1.18,2.64,2.63C245.44,143.67,244.25,144.86,242.8,144.86z"/>
		<path class="st1" d="M222.46,134.59c-2.56,0-4.64,2.07-4.64,4.63c0,2.21,1.56,4.06,3.64,4.52v17.23l-3.48,3.09l-76.01-0.01
			l-14.67,13.06v62.5c-2.07,0.46-3.63,2.31-3.63,4.52c0,2.56,2.08,4.64,4.63,4.64c2.56,0,4.64-2.08,4.64-4.64
			c0-2.21-1.56-4.06-3.64-4.52v-61.6l13.44-11.96l76,0.01l4.72-4.2v-18.12c2.07-0.46,3.63-2.31,3.63-4.52
			C227.09,136.66,225.01,134.59,222.46,134.59z M130.94,244.13c0,1.46-1.18,2.64-2.64,2.64c-1.45,0-2.63-1.18-2.63-2.64
			c0-1.45,1.18-2.63,2.63-2.63C129.76,241.5,130.94,242.68,130.94,244.13z M222.46,141.86c-1.46,0-2.64-1.19-2.64-2.64
			c0-1.45,1.18-2.63,2.64-2.63c1.45,0,2.63,1.18,2.63,2.63C225.09,140.67,223.91,141.86,222.46,141.86z"/>
		<path class="st1" d="M252.97,147.91c-2.55,0-4.63,2.08-4.63,4.63c0,2.22,1.56,4.06,3.63,4.52v15.62l-13.43,11.96l-76.01-0.01
			l-4.71,4.19v81.62c-2.08,0.46-3.64,2.31-3.64,4.52c0,2.56,2.08,4.64,4.64,4.64s4.64-2.08,4.64-4.64c0-2.21-1.56-4.06-3.64-4.52
			v-80.72l3.48-3.09l76,0.01l14.67-13.07v-16.51c2.08-0.46,3.64-2.3,3.64-4.52C257.61,149.99,255.53,147.91,252.97,147.91z
			 M161.46,274.96c0,1.46-1.19,2.64-2.64,2.64s-2.64-1.18-2.64-2.64c0-1.45,1.19-2.63,2.64-2.63S161.46,273.51,161.46,274.96z
			 M252.97,155.18c-1.45,0-2.63-1.18-2.63-2.64c0-1.45,1.18-2.63,2.63-2.63c1.46,0,2.64,1.18,2.64,2.63
			C255.61,154,254.43,155.18,252.97,155.18z"/>
		<path class="st1" d="M222.86,267.19c-2.6,0-4.71,2.11-4.71,4.7c0,2.25,1.59,4.12,3.7,4.58v27.97l-24.51,24.51V400h2v-70.22
			l24.51-24.51v-28.8c2.11-0.45,3.7-2.33,3.7-4.58C227.55,269.3,225.44,267.19,222.86,267.19z M222.86,274.59
			c-1.49,0-2.71-1.21-2.71-2.7s1.22-2.7,2.71-2.7c1.48,0,2.69,1.21,2.69,2.7S224.34,274.59,222.86,274.59z"/>
		<path class="st1" d="M235.6,267.19c-2.59,0-4.7,2.11-4.7,4.7c0,2.25,1.59,4.12,3.7,4.58v31.32l-24.7,24.71V400h2v-66.68l24.7-24.7
			v-32.15c2.11-0.45,3.69-2.33,3.69-4.58C240.29,269.3,238.19,267.19,235.6,267.19z M235.6,274.59c-1.49,0-2.7-1.21-2.7-2.7
			s1.21-2.7,2.7-2.7c1.49,0,2.69,1.21,2.69,2.7S237.09,274.59,235.6,274.59z"/>
		<path class="st1" d="M247.88,267.67c-2.6,0-4.71,2.11-4.71,4.71c0,2.24,1.59,4.11,3.7,4.57v34.35l-24.56,24.56V400h2v-63.31
			l24.56-24.57v-35.16c2.11-0.46,3.7-2.34,3.7-4.58C252.57,269.78,250.46,267.67,247.88,267.67z M247.88,275.07
			c-1.49,0-2.71-1.21-2.71-2.69c0-1.5,1.22-2.71,2.71-2.71c1.48,0,2.69,1.21,2.69,2.71C250.57,273.86,249.36,275.07,247.88,275.07z"
			/>
		<path class="st1" d="M260.13,267.19c-2.6,0-4.71,2.11-4.71,4.7c0,2.25,1.59,4.12,3.7,4.58v41.25l-23.93,23.94V400h2v-57.51
			l23.93-23.94v-42.08c2.11-0.45,3.7-2.33,3.7-4.58C264.82,269.3,262.72,267.19,260.13,267.19z M260.13,274.59
			c-1.49,0-2.71-1.21-2.71-2.7s1.22-2.7,2.71-2.7c1.48,0,2.69,1.21,2.69,2.7S261.61,274.59,260.13,274.59z"/>
		<path class="st1" d="M199.34,11.29V0h-2v11.3c-2.11,0.46-3.69,2.34-3.69,4.59c0,2.59,2.11,4.69,4.7,4.69
			c2.59,0,4.69-2.1,4.69-4.69C203.04,13.64,201.46,11.75,199.34,11.29z M198.35,18.58c-1.49,0-2.7-1.21-2.7-2.69
			c0-1.49,1.21-2.71,2.7-2.71c1.48,0,2.69,1.22,2.69,2.71C201.04,17.37,199.83,18.58,198.35,18.58z"/>
		<path class="st1" d="M211.9,11.29V0h-2v11.3c-2.12,0.46-3.7,2.34-3.7,4.59c0,2.59,2.11,4.69,4.7,4.69c2.59,0,4.69-2.1,4.69-4.69
			C215.59,13.64,214.01,11.75,211.9,11.29z M210.9,18.58c-1.49,0-2.7-1.21-2.7-2.69c0-1.49,1.21-2.71,2.7-2.71
			c1.49,0,2.69,1.22,2.69,2.71C213.59,17.37,212.39,18.58,210.9,18.58z"/>
		<path class="st1" d="M224.31,11.29V0h-2v11.3c-2.12,0.46-3.7,2.34-3.7,4.59c0,2.59,2.11,4.69,4.7,4.69s4.69-2.1,4.69-4.69
			C228,13.64,226.42,11.75,224.31,11.29z M223.31,18.58c-1.49,0-2.7-1.21-2.7-2.69c0-1.49,1.21-2.71,2.7-2.71S226,14.4,226,15.89
			C226,17.37,224.8,18.58,223.31,18.58z"/>
		<path class="st1" d="M237.19,11.29V0h-2v11.3c-2.11,0.46-3.7,2.34-3.7,4.59c0,2.59,2.11,4.69,4.7,4.69s4.7-2.1,4.7-4.69
			C240.89,13.64,239.3,11.75,237.19,11.29z M236.19,18.58c-1.49,0-2.7-1.21-2.7-2.69c0-1.49,1.21-2.71,2.7-2.71s2.7,1.22,2.7,2.71
			C238.89,17.37,237.68,18.58,236.19,18.58z"/>
		<path class="st1" d="M181.64,385.88v-47.29c2.11-0.46,3.69-2.34,3.69-4.59c0-2.59-2.11-4.69-4.7-4.69c-2.59,0-4.69,2.1-4.69,4.69
			c0,2.25,1.59,4.14,3.7,4.59v47.28c-2.11,0.46-3.7,2.34-3.7,4.6c0,2.58,2.1,4.69,4.69,4.69c2.59,0,4.7-2.11,4.7-4.69
			C185.33,388.22,183.75,386.34,181.64,385.88z M177.94,334c0-1.48,1.21-2.69,2.69-2.69c1.49,0,2.7,1.21,2.7,2.69
			c0,1.49-1.21,2.71-2.7,2.71C179.15,336.71,177.94,335.49,177.94,334z M180.63,393.16c-1.48,0-2.69-1.21-2.69-2.69
			c0-1.5,1.21-2.71,2.69-2.71c1.49,0,2.7,1.21,2.7,2.71C183.33,391.95,182.12,393.16,180.63,393.16z"/>
		<path class="st1" d="M205.65,294.97v-47.29c2.11-0.46,3.7-2.34,3.7-4.58c0-2.59-2.11-4.7-4.71-4.7c-2.58,0-4.69,2.11-4.69,4.7
			c0,2.25,1.59,4.13,3.7,4.59v47.28c-2.11,0.45-3.7,2.34-3.7,4.59c0,2.59,2.11,4.69,4.69,4.69c2.6,0,4.71-2.1,4.71-4.69
			C209.35,297.31,207.76,295.43,205.65,294.97z M201.95,243.1c0-1.49,1.21-2.7,2.69-2.7c1.49,0,2.71,1.21,2.71,2.7
			c0,1.49-1.22,2.7-2.71,2.7C203.16,245.8,201.95,244.59,201.95,243.1z M204.64,302.25c-1.48,0-2.69-1.21-2.69-2.69
			c0-1.49,1.21-2.71,2.69-2.71c1.49,0,2.71,1.22,2.71,2.71C207.35,301.04,206.13,302.25,204.64,302.25z"/>
		<path class="st2" d="M256.42,363.47c-5.43,0-9.85,4.42-9.85,9.85s4.42,9.85,9.85,9.85c5.44,0,9.85-4.42,9.85-9.85
			S261.86,363.47,256.42,363.47z M256.42,381.17c-4.32,0-7.85-3.52-7.85-7.85s3.53-7.85,7.85-7.85c4.33,0,7.85,3.52,7.85,7.85
			S260.75,381.17,256.42,381.17z"/>
		<path class="st2" d="M267.37,18.08c-3.3,0-5.99,2.69-5.99,5.99c0,3.31,2.69,5.99,5.99,5.99s5.99-2.68,5.99-5.99
			C273.36,20.77,270.67,18.08,267.37,18.08z M267.37,28.06c-2.2,0-3.99-1.79-3.99-3.99s1.79-3.99,3.99-3.99s3.99,1.79,3.99,3.99
			S269.57,28.06,267.37,28.06z"/>
		<path class="st2" d="M255.62,3.74c-3.31,0-5.99,2.69-5.99,5.99c0,3.31,2.68,5.99,5.99,5.99c3.3,0,5.99-2.68,5.99-5.99
			C261.61,6.43,258.92,3.74,255.62,3.74z M255.62,13.72c-2.2,0-3.99-1.79-3.99-3.99c0-2.2,1.79-3.99,3.99-3.99s3.99,1.79,3.99,3.99
			C259.61,11.93,257.82,13.72,255.62,13.72z"/>
		<path class="st1" d="M183.18,4.25c-3.3,0-5.99,2.69-5.99,5.99s2.69,5.99,5.99,5.99c3.31,0,6-2.69,6-5.99S186.49,4.25,183.18,4.25z
			 M183.18,14.23c-2.2,0-3.99-1.79-3.99-3.99s1.79-3.99,3.99-3.99c2.21,0,4,1.79,4,3.99S185.39,14.23,183.18,14.23z"/>
		<path class="st2" d="M142.22,82.71c-5.01,0-9.08,4.08-9.08,9.08c0,5.01,4.07,9.08,9.08,9.08c5,0,9.07-4.07,9.07-9.08
			C151.29,86.79,147.22,82.71,142.22,82.71z M142.22,98.87c-3.91,0-7.08-3.18-7.08-7.08c0-3.9,3.17-7.08,7.08-7.08
			c3.9,0,7.07,3.18,7.07,7.08C149.29,95.69,146.12,98.87,142.22,98.87z"/>
		<path class="st2" d="M142.22,75.51c-8.98,0-16.28,7.3-16.28,16.28c0,8.98,7.3,16.28,16.28,16.28c8.97,0,16.27-7.3,16.27-16.28
			C158.49,82.81,151.19,75.51,142.22,75.51z M142.22,106.07c-7.88,0-14.28-6.41-14.28-14.28c0-7.87,6.4-14.28,14.28-14.28
			c7.87,0,14.27,6.41,14.27,14.28C156.49,99.66,150.09,106.07,142.22,106.07z"/>
		<circle class="st2" cx="252.07" cy="229.42" r="11.31"/>
		<path class="st2" d="M252.07,207.03c-12.34,0-22.39,10.04-22.39,22.39c0,12.34,10.05,22.38,22.39,22.38
			c12.34,0,22.39-10.04,22.39-22.38C274.46,217.07,264.41,207.03,252.07,207.03z M252.07,249.8c-11.24,0-20.39-9.14-20.39-20.38
			c0-11.25,9.15-20.39,20.39-20.39s20.39,9.14,20.39,20.39C272.46,240.66,263.31,249.8,252.07,249.8z"/>
		<path class="st1" d="M279.74,129.83V78.5l-17.5-17.49v-11.7c2.12-0.46,3.7-2.35,3.7-4.6c0-2.58-2.1-4.69-4.69-4.69
			s-4.7,2.11-4.7,4.69c0,2.25,1.58,4.13,3.69,4.59v12.53l17.5,17.49v50.51c-2.12,0.46-3.7,2.34-3.7,4.58c0,2.6,2.11,4.71,4.7,4.71
			c2.59,0,4.69-2.11,4.69-4.71C283.43,132.17,281.85,130.29,279.74,129.83z M258.55,44.71c0-1.48,1.21-2.69,2.7-2.69
			c1.48,0,2.69,1.21,2.69,2.69c0,1.49-1.21,2.71-2.69,2.71C259.76,47.42,258.55,46.2,258.55,44.71z M278.74,137.12
			c-1.49,0-2.7-1.22-2.7-2.71c0-1.48,1.21-2.69,2.7-2.69s2.69,1.21,2.69,2.69C281.43,135.9,280.23,137.12,278.74,137.12z"/>
		<path class="st1" d="M270.13,119.83V82.54L249.7,62.12V36.58c2.12-0.46,3.7-2.34,3.7-4.59c0-2.59-2.1-4.7-4.69-4.7
			c-2.59,0-4.7,2.11-4.7,4.7c0,2.25,1.58,4.12,3.69,4.59v26.37l20.43,20.42v36.46c-2.11,0.46-3.7,2.34-3.7,4.58
			c0,2.6,2.11,4.71,4.7,4.71c2.59,0,4.7-2.11,4.7-4.71C273.83,122.17,272.24,120.29,270.13,119.83z M246.01,31.99
			c0-1.49,1.21-2.7,2.7-2.7c1.48,0,2.69,1.21,2.69,2.7s-1.21,2.7-2.69,2.7C247.22,34.69,246.01,33.48,246.01,31.99z M269.13,127.12
			c-1.49,0-2.7-1.22-2.7-2.71c0-1.48,1.21-2.69,2.7-2.69s2.7,1.21,2.7,2.69C271.83,125.9,270.62,127.12,269.13,127.12z"/>
		<path class="st1" d="M259.63,136.33V85.25l-16.98-16.99c0.5-0.75,0.79-1.65,0.79-2.61c0-2.59-2.1-4.7-4.69-4.7s-4.7,2.11-4.7,4.7
			c0,2.59,2.11,4.7,4.7,4.7c0.9,0,1.73-0.27,2.45-0.71l16.43,16.44v50.25c-2.11,0.46-3.69,2.34-3.69,4.58c0,2.6,2.11,4.71,4.7,4.71
			c2.59,0,4.69-2.11,4.69-4.71C263.33,138.67,261.75,136.79,259.63,136.33z M238.75,68.35c-1.49,0-2.7-1.21-2.7-2.7
			s1.21-2.7,2.7-2.7c1.48,0,2.69,1.21,2.69,2.7S240.23,68.35,238.75,68.35z M258.64,143.62c-1.49,0-2.7-1.22-2.7-2.71
			c0-1.48,1.21-2.69,2.7-2.69c1.48,0,2.69,1.21,2.69,2.69C261.33,142.4,260.12,143.62,258.64,143.62z"/>
		<path class="st1" d="M276.32,145.16c-2.56,0-4.64,2.08-4.64,4.64c0,2.21,1.56,4.06,3.64,4.52v25.7l-15.15,15.14
			c-0.79-0.65-1.8-1.06-2.91-1.06c-2.56,0-4.63,2.08-4.63,4.64c0,2.55,2.07,4.63,4.63,4.63s4.64-2.08,4.64-4.63
			c0-0.72-0.18-1.4-0.47-2l15.89-15.89v-26.53c2.07-0.46,3.63-2.31,3.63-4.52C280.95,147.24,278.87,145.16,276.32,145.16z
			 M257.26,201.37c-1.45,0-2.63-1.18-2.63-2.63c0-1.46,1.18-2.64,2.63-2.64s2.64,1.18,2.64,2.64
			C259.9,200.19,258.71,201.37,257.26,201.37z M276.32,152.43c-1.46,0-2.64-1.18-2.64-2.63c0-1.45,1.18-2.64,2.64-2.64
			c1.45,0,2.63,1.19,2.63,2.64C278.95,151.25,277.77,152.43,276.32,152.43z"/>
		<path class="st1" d="M263.6,152.27c-2.55,0-4.63,2.08-4.63,4.64c0,2.21,1.56,4.06,3.63,4.52v13.73l-20.21,20.21h-10.9
			c-0.46-2.07-2.31-3.63-4.52-3.63c-2.55,0-4.63,2.08-4.63,4.63c0,2.56,2.08,4.64,4.63,4.64c2.21,0,4.06-1.56,4.52-3.64h11.73
			l21.38-21.39v-14.55c2.08-0.46,3.64-2.31,3.64-4.52C268.24,154.35,266.16,152.27,263.6,152.27z M226.97,199.01
			c-1.45,0-2.63-1.18-2.63-2.64c0-1.45,1.18-2.63,2.63-2.63c1.45,0,2.64,1.18,2.64,2.63C229.61,197.83,228.42,199.01,226.97,199.01z
			 M263.6,159.54c-1.45,0-2.63-1.18-2.63-2.63c0-1.45,1.18-2.64,2.63-2.64c1.46,0,2.64,1.19,2.64,2.64
			C266.24,158.36,265.06,159.54,263.6,159.54z"/>
		<path class="st1" d="M250.46,87.44c-1.56-1.57-3.97-1.77-5.76-0.63l-18.76-18.76h-22.47c-0.23-0.63-0.58-1.23-1.08-1.74
			c-0.88-0.88-2.04-1.36-3.28-1.36s-2.4,0.48-3.28,1.36c-0.87,0.87-1.36,2.04-1.36,3.28c0,1.23,0.49,2.4,1.36,3.27
			c0.9,0.91,2.09,1.36,3.28,1.36s2.37-0.45,3.28-1.36c0.78-0.78,1.2-1.78,1.31-2.81h21.41l18.17,18.18
			c-1.14,1.79-0.94,4.2,0.63,5.76c0.87,0.88,2.04,1.36,3.28,1.36c1.23,0,2.4-0.48,3.27-1.36c0.88-0.87,1.36-2.04,1.36-3.27
			C251.82,89.48,251.34,88.31,250.46,87.44z M200.97,71.45c-1.03,1.03-2.7,1.03-3.72,0c-0.5-0.5-0.78-1.16-0.78-1.86
			c0-0.71,0.28-1.37,0.78-1.87c0.49-0.5,1.15-0.77,1.86-0.77c0.7,0,1.36,0.27,1.86,0.77C202,68.75,202,70.42,200.97,71.45z
			 M249.05,92.58c-1,1-2.73,0.99-3.73,0c-1.03-1.03-1.03-2.7,0-3.73c0.52-0.51,1.19-0.77,1.87-0.77c0.67,0,1.35,0.26,1.86,0.77
			c0.5,0.5,0.77,1.16,0.77,1.87C249.82,91.42,249.55,92.08,249.05,92.58z"/>
		<path class="st1" d="M236.45,91.4c-0.88-0.88-2.04-1.36-3.28-1.36c-0.9,0-1.75,0.26-2.49,0.73l-10.29-10.29h-30.25l-8.29,8.29
			c-1.79-1.14-4.2-0.94-5.77,0.63c-0.87,0.87-1.35,2.04-1.35,3.27c0,1.24,0.48,2.41,1.35,3.28c0.88,0.88,2.04,1.36,3.28,1.36
			s2.4-0.48,3.28-1.36c0.87-0.87,1.36-2.04,1.36-3.28c0-0.89-0.26-1.75-0.74-2.49l7.71-7.7h28.59l9.71,9.71
			c-0.47,0.73-0.74,1.59-0.74,2.49c0,1.23,0.49,2.4,1.36,3.27c0.91,0.91,2.09,1.36,3.28,1.36s2.37-0.45,3.28-1.36
			c0.87-0.87,1.36-2.04,1.36-3.27C237.81,93.44,237.32,92.27,236.45,91.4z M181.23,94.54c-1,0.99-2.74,0.99-3.73,0
			c-0.5-0.5-0.77-1.16-0.77-1.87c0-0.7,0.27-1.36,0.77-1.86c0.51-0.51,1.19-0.77,1.86-0.77c0.68,0,1.35,0.26,1.87,0.77
			c0.49,0.5,0.77,1.16,0.77,1.86C182,93.38,181.72,94.04,181.23,94.54z M235.03,96.54c-1.02,1.03-2.7,1.03-3.72,0
			c-0.5-0.5-0.78-1.16-0.78-1.86c0-0.71,0.28-1.37,0.78-1.87c0.49-0.5,1.16-0.77,1.86-0.77s1.37,0.27,1.86,0.77
			c0.5,0.5,0.78,1.16,0.78,1.87C235.81,95.38,235.53,96.04,235.03,96.54z"/>
		<path class="st1" d="M225.94,48.39c-2.24,0-4.12,1.59-4.59,3.7h-37.28c-0.46-2.11-2.34-3.7-4.59-3.7c-2.59,0-4.69,2.11-4.69,4.7
			c0,2.59,2.1,4.7,4.69,4.7c2.25,0,4.13-1.59,4.59-3.7h37.28c0.46,2.11,2.34,3.7,4.59,3.7c2.59,0,4.7-2.11,4.7-4.7
			C230.64,50.5,228.53,48.39,225.94,48.39z M179.48,55.79c-1.48,0-2.69-1.21-2.69-2.7s1.21-2.7,2.69-2.7c1.49,0,2.7,1.21,2.7,2.7
			S180.97,55.79,179.48,55.79z M225.94,55.79c-1.49,0-2.7-1.21-2.7-2.7s1.21-2.7,2.7-2.7s2.7,1.21,2.7,2.7
			S227.43,55.79,225.94,55.79z"/>
		<path class="st1" d="M235.73,37.02c-2.24,0-4.12,1.59-4.58,3.7h-37.29c-0.46-2.11-2.34-3.7-4.59-3.7c-2.59,0-4.69,2.11-4.69,4.71
			c0,2.59,2.1,4.69,4.69,4.69c2.25,0,4.14-1.59,4.59-3.7h37.28c0.46,2.11,2.34,3.7,4.59,3.7c2.59,0,4.7-2.1,4.7-4.69
			C240.43,39.13,238.32,37.02,235.73,37.02z M189.27,44.42c-1.48,0-2.69-1.21-2.69-2.69c0-1.49,1.21-2.71,2.69-2.71
			c1.49,0,2.71,1.22,2.71,2.71C191.98,43.21,190.76,44.42,189.27,44.42z M235.73,44.42c-1.49,0-2.7-1.21-2.7-2.69
			c0-1.49,1.21-2.71,2.7-2.71s2.7,1.22,2.7,2.71C238.43,43.21,237.22,44.42,235.73,44.42z"/>
		<path class="st2" d="M400,388.69V400h-11.31C388.69,393.75,393.77,388.69,400,388.69z"/>
		<path class="st2" d="M377.61,400h2c0-11.25,9.15-20.39,20.39-20.39v-2C387.66,377.61,377.61,387.65,377.61,400z"/>
		<path class="st2" d="M400,0v11.3c-6.23,0-11.31-5.06-11.31-11.3H400z"/>
		<path class="st2" d="M379.61,0h-2c0,12.34,10.05,22.38,22.39,22.38v-2C388.76,20.38,379.61,11.24,379.61,0z"/>
		<path class="st2" d="M11.31,400H0v-11.31C6.25,388.69,11.31,393.75,11.31,400z"/>
		<path class="st2" d="M0,377.61v2c11.24,0,20.39,9.14,20.39,20.39h2C22.39,387.65,12.35,377.61,0,377.61z"/>
		<path class="st2" d="M11.31,0c0,6.24-5.06,11.3-11.31,11.3V0H11.31z"/>
		<path class="st2" d="M20.39,0c0,11.24-9.15,20.38-20.39,20.38v2c12.35,0,22.39-10.04,22.39-22.38H20.39z"/>
	</g>
</g>
</svg>
