<?xml version="1.0" encoding="utf-8"?>
<!-- Generator: Adobe Illustrator 23.0.0, SVG Export Plug-In . SVG Version: 6.00 Build 0)  -->
<svg version="1.1" id="Layer_1" xmlns="http://www.w3.org/2000/svg" xmlns:xlink="http://www.w3.org/1999/xlink" x="0px" y="0px"
	 viewBox="0 0 400 400" style="enable-background:new 0 0 400 400;" xml:space="preserve">
<style type="text/css">
	.st0{fill:#62AEED;}
	.st1{fill:#8DD6FF;}
</style>
<g>
	<rect class="st0" width="400" height="400"/>
	<g>
		<path class="st1" d="M188.25,177.37l-10.59,10.59v34.26h44.85v-44.85H188.25z M220.51,220.22h-40.85v-31.44l9.41-9.41h31.44
			V220.22z"/>
		<path class="st1" d="M367.45,202.24c-0.63,0-1.22,0.18-1.73,0.47l-6.03-6.04h-58.82l-9.34-9.34h-37.37l-12.37,12.37h-13.28v-4.63
			h8.2l11.56-11.56h32.57l5.25-5.26h13.63c0.47,1.45,1.81,2.51,3.41,2.51c1.98,0,3.6-1.61,3.6-3.59c0-1.98-1.62-3.6-3.6-3.6
			c-1.66,0-3.05,1.14-3.46,2.68h-14.41l-5.25,5.26h-32.57l-11.56,11.56h-7.37v-5.15h10.01l9.12-9.12h31.02l10.39-10.38h25.55
			l7.53,7.53h18.64c0.43,1.5,1.8,2.61,3.43,2.61c1.99,0,3.6-1.61,3.6-3.59c0-1.99-1.61-3.6-3.6-3.6c-1.62,0-2.98,1.09-3.42,2.58
			h-17.82l-7.54-7.53h-27.2l-10.38,10.38h-31.03l-9.12,9.12h-9.18v-3.48h9.2l12.62-12.61h24.42l15.34-15.34h14.08
			c0.43,1.5,1.8,2.6,3.43,2.6c1.98,0,3.6-1.61,3.6-3.59c0-1.99-1.62-3.6-3.6-3.6c-1.63,0-2.99,1.1-3.43,2.59h-14.91l-15.34,15.34
			H249.5l-12.62,12.61h-8.37v-4.48h7.88l16.12-16.11h7.61c0.41,1.54,1.8,2.69,3.46,2.69c1.99,0,3.6-1.61,3.6-3.59
			c0-1.99-1.61-3.6-3.6-3.6c-1.59,0-2.93,1.05-3.4,2.5h-8.5l-16.11,16.11h-7.06v-2.59h-2.57v-10.86l6.28-6.28v-10.91l9.12-9.12
			v-16.31l8.6-8.6V83.98l9-9V56.24c1.49-0.44,2.59-1.81,2.59-3.45c0-1.97-1.61-3.59-3.59-3.59c-1.98,0-3.6,1.62-3.6,3.59
			c0,1.64,1.1,3.01,2.6,3.44v17.92l-9,9v25.32l-8.6,8.59v16.31l-9.12,9.12v10.91l-6.28,6.29v11.68h-4.24v-28.05l5.22-5.22v-29.92
			l8.02-8.01V74.09c1.53-0.41,2.67-1.8,2.67-3.47c0-1.98-1.61-3.59-3.59-3.59s-3.6,1.61-3.6,3.59c0,1.61,1.06,2.95,2.52,3.42v25.3
			l-8.02,8.02v29.91l-5.22,5.22v28.88h-4.03v-33.24l5.06-5.06V96.39l6.36-6.37v-30.2l6.52-6.52V32.15l6.6-6.6V13.3
			c1.49-0.43,2.59-1.8,2.59-3.44c0-1.98-1.61-3.59-3.59-3.59s-3.6,1.61-3.6,3.59c0,1.63,1.1,3,2.6,3.44v11.42l-6.6,6.6v21.15
			l-6.52,6.52V89.2l-6.36,6.36v36.69l-5.06,5.05v34.07h-4.16v-27.62c1.5-0.44,2.6-1.81,2.6-3.44c0-1.98-1.61-3.59-3.59-3.59
			c-1.99,0-3.6,1.61-3.6,3.59c0,1.63,1.1,3,2.59,3.44v27.62h-5.37v-21.4l-4.27-4.27v-13.25l6.3-6.29v-21.68l8.34-8.34v-27.9
			l-8.46-8.46V44.61c1.51-0.43,2.62-1.8,2.62-3.44c0-1.98-1.62-3.59-3.6-3.59s-3.59,1.61-3.59,3.59c0,1.63,1.09,2.99,2.57,3.43
			v16.01l8.46,8.45v26.25l-8.34,8.34v21.68l-6.3,6.29v14.91l4.27,4.26v20.58h-3.19v-19.85l-5.29-5.29v-20.46l4.92-4.92v-8.23
			c1.5-0.43,2.61-1.81,2.61-3.45c0-1.98-1.61-3.59-3.59-3.59c-1.99,0-3.6,1.61-3.6,3.59c0,1.63,1.09,2.99,2.58,3.44v7.41l-4.92,4.92
			v22.12l5.29,5.29v19.02h-4.74v-15.88l-6.47-6.46v-20.35l-5.91-5.92v-11.8L187,99.79V63.54l-8.36-8.36V34.03l8.85-8.85V10.24
			c1.49-0.44,2.59-1.81,2.59-3.44c0-1.98-1.61-3.59-3.59-3.59c-1.99,0-3.6,1.61-3.6,3.59c0,1.63,1.1,3,2.6,3.44v14.11l-8.85,8.85
			v22.81l8.36,8.36v34.59l-11.17,11.17v13.46l5.91,5.91v20.35l6.47,6.47v15.05h-4.65v-12.25l-8.03-8.04v-16.59l-6.21-6.2V102.9
			l-8.1-8.09V78.37c1.5-0.43,2.6-1.8,2.6-3.44c0-1.98-1.61-3.59-3.59-3.59c-1.99,0-3.6,1.61-3.6,3.59c0,1.64,1.1,3,2.59,3.44v17.26
			l8.1,8.1v25.39l6.21,6.2v16.59l8.03,8.04v11.42h-3.97v-9.1l-8.99-8.99h-19.36l-6.75-6.76v-21.78l-6.44-6.43v-11.56l-5.78-5.78
			c0.14-0.39,0.23-0.81,0.23-1.25c0-1.98-1.61-3.59-3.59-3.59c-1.98,0-3.6,1.61-3.6,3.59c0,1.99,1.62,3.6,3.6,3.6
			c0.81,0,1.55-0.28,2.15-0.73l4.99,4.99v11.56l6.44,6.43v21.77l7.93,7.94h19.35l7.82,7.81v8.28h-1.93v2.59h-7.05l-16.11-16.11
			h-8.51c-0.46-1.45-1.8-2.5-3.4-2.5c-1.98,0-3.6,1.61-3.6,3.6c0,1.98,1.62,3.59,3.6,3.59c1.67,0,3.06-1.15,3.46-2.69h7.62
			l16.11,16.11h7.88v4.48h-8.37l-12.61-12.61h-24.43l-15.33-15.34H96.01c-0.44-1.49-1.8-2.59-3.43-2.59c-1.99,0-3.6,1.61-3.6,3.6
			c0,1.98,1.61,3.59,3.6,3.59c1.63,0,2.99-1.1,3.43-2.6h14.08l15.34,15.34h24.42l12.61,12.61h9.2v3.48h-9.18l-9.12-9.12h-31.02
			l-10.38-10.38H84.75l-7.53,7.53H59.4c-0.44-1.49-1.8-2.58-3.43-2.58c-1.98,0-3.6,1.61-3.6,3.6c0,1.98,1.62,3.59,3.6,3.59
			c1.64,0,3.01-1.11,3.44-2.61h18.64l7.53-7.53h25.55l10.38,10.38h31.03l9.12,9.12h10v5.15h-7.36l-11.56-11.56h-32.57l-5.26-5.26
			h-14.4c-0.41-1.54-1.8-2.68-3.46-2.68c-1.99,0-3.6,1.62-3.6,3.6c0,1.98,1.61,3.59,3.6,3.59c1.6,0,2.94-1.06,3.4-2.51h13.64
			l5.25,5.26h32.57l11.56,11.56h8.19v4.63h-13.28l-12.36-12.37h-37.37l-9.35,9.34H40.49l-6.03,6.04c-0.52-0.29-1.1-0.47-1.74-0.47
			c-1.98,0-3.6,1.61-3.6,3.6c0,1.98,1.62,3.59,3.6,3.59c1.98,0,3.59-1.61,3.59-3.59c0-0.62-0.17-1.2-0.45-1.71l5.46-5.46h58.81
			l9.35-9.34h35.71l12.37,12.37h14.1v3.13h-23.31l-5.24-5.24c0.19-0.45,0.31-0.93,0.31-1.45c0-1.98-1.61-3.6-3.59-3.6
			c-1.99,0-3.6,1.62-3.6,3.6c0,1.98,1.61,3.59,3.6,3.59c0.73,0,1.42-0.22,1.99-0.6l5.7,5.7h24.14v4.84h-43.21l-4.82-4.81H94.04
			l-8.58,8.57H62.55c-0.44-1.49-1.8-2.59-3.43-2.59c-1.99,0-3.6,1.61-3.6,3.6c0,1.98,1.61,3.59,3.6,3.59c1.63,0,2.99-1.1,3.43-2.6
			h23.73l8.58-8.57h27.95l4.82,4.81h44.03v4h-28.55l-3.75,3.74h-28.29l-5.61,5.62H85.11c-0.44-1.5-1.8-2.6-3.43-2.6
			c-1.98,0-3.6,1.62-3.6,3.6c0,1.98,1.62,3.59,3.6,3.59c1.63,0,3-1.1,3.43-2.59h21.17l5.62-5.62h28.29l3.75-3.74h27.72v4.76h-14.72
			l-4.78,4.79h-27.32l-7.8,7.8H88.37l-7.84,7.84H65.14c-0.43-1.49-1.8-2.59-3.43-2.59c-1.98,0-3.6,1.61-3.6,3.6
			c0,1.98,1.62,3.59,3.6,3.59c1.63,0,3-1.11,3.43-2.6h16.22l7.84-7.84h28.67l7.8-7.8h27.31l4.79-4.79h13.89v1.79h1.99v10.85
			l-6.28,6.28v10.91l-9.12,9.12v16.31l-8.6,8.6v25.32l-9,9v18.74c-1.49,0.43-2.59,1.8-2.59,3.44c0,1.98,1.61,3.59,3.59,3.59
			s3.6-1.61,3.6-3.59c0-1.63-1.1-3-2.6-3.44v-17.91l9-9.01v-25.31l8.6-8.6v-16.31l9.12-9.12v-10.91l6.28-6.28v-11.68h4.24v28.04
			l-5.22,5.22v29.92l-8.01,8.01v26.08c-1.54,0.41-2.68,1.81-2.68,3.47c0,1.98,1.61,3.59,3.59,3.59s3.6-1.61,3.6-3.59
			c0-1.6-1.06-2.95-2.51-3.41v-25.31l8.01-8.01v-29.92l5.22-5.22v-28.87h4.03v33.23l-5.06,5.06v36.68l-6.36,6.37v30.2l-6.52,6.52
			v21.16l-6.6,6.59v12.25c-1.49,0.44-2.59,1.81-2.59,3.44c0,1.98,1.61,3.59,3.59,3.59s3.6-1.61,3.6-3.59c0-1.63-1.1-3-2.6-3.44
			v-11.42l6.6-6.6v-21.15l6.52-6.52v-30.2l6.36-6.37v-36.68l5.06-5.06v-34.06h4.16v27.61c-1.5,0.44-2.6,1.81-2.6,3.45
			c0,1.98,1.61,3.59,3.59,3.59c1.99,0,3.6-1.61,3.6-3.59c0-1.64-1.1-3.01-2.59-3.44v-27.62h5.37v21.4l4.27,4.27v13.24l-6.29,6.3
			v21.67l-8.35,8.34v27.91l8.46,8.45v15.17c-1.5,0.43-2.61,1.8-2.61,3.45c0,1.98,1.61,3.59,3.59,3.59s3.6-1.61,3.6-3.59
			c0-1.63-1.1-3-2.58-3.44v-16.01l-8.46-8.45v-26.25l8.35-8.34v-21.67l6.29-6.3v-14.9l-4.27-4.27v-20.57h3.19v19.84l5.29,5.3v20.46
			l-4.91,4.91v8.24c-1.51,0.43-2.62,1.8-2.62,3.44c0,1.98,1.61,3.59,3.59,3.59c1.99,0,3.6-1.61,3.6-3.59c0-1.62-1.09-2.99-2.57-3.43
			v-7.42l4.91-4.91v-22.12l-5.29-5.3v-19.01h4.74v15.87l6.47,6.47v20.35l5.91,5.91v11.8l-11.17,11.18v36.24l8.36,8.36v21.16
			l-8.84,8.84v14.95c-1.5,0.43-2.6,1.8-2.6,3.44c0,1.98,1.61,3.59,3.59,3.59c1.99,0,3.6-1.61,3.6-3.59c0-1.64-1.1-3.01-2.59-3.44
			v-14.12l8.84-8.84v-22.82l-8.36-8.36v-34.59l11.17-11.17v-13.46l-5.91-5.91v-20.35l-6.47-6.47v-15.04h4.65v12.25l8.04,8.03v16.59
			l6.2,6.2v25.39l8.1,8.1v16.43c-1.5,0.44-2.6,1.81-2.6,3.44c0,1.98,1.61,3.59,3.59,3.59c1.99,0,3.6-1.61,3.6-3.59
			c0-1.63-1.1-3-2.59-3.44v-17.26l-8.1-8.1v-25.38l-6.2-6.21v-16.59l-8.04-8.03v-11.42H224v9.1l8.99,8.99h19.36l6.76,6.76v21.78
			l6.43,6.43v11.55l5.78,5.79c-0.14,0.39-0.23,0.8-0.23,1.24c0,1.98,1.61,3.59,3.59,3.59c1.98,0,3.6-1.61,3.6-3.59
			c0-1.98-1.62-3.6-3.6-3.6c-0.81,0-1.55,0.28-2.15,0.74l-4.99-5v-11.55l-6.43-6.43v-21.78l-7.93-7.93h-19.36l-7.82-7.82v-8.27h2.51
			v-1.79h13.89l4.79,4.79h27.32l7.8,7.8h23.67l7.84,7.84h11.21c0.44,1.49,1.8,2.6,3.43,2.6c1.99,0,3.6-1.61,3.6-3.59
			c0-1.99-1.61-3.6-3.6-3.6c-1.63,0-2.99,1.1-3.43,2.59h-10.38l-7.84-7.84h-23.67l-7.8-7.8h-27.32l-4.79-4.79h-14.72v-4.76h27.73
			l3.74,3.74h28.3l5.61,5.62h21.17c0.44,1.49,1.8,2.59,3.43,2.59c1.99,0,3.6-1.61,3.6-3.59c0-1.98-1.61-3.6-3.6-3.6
			c-1.62,0-2.99,1.1-3.43,2.6h-20.34l-5.61-5.62h-28.3l-3.74-3.74h-28.56v-4h44.04l4.82-4.81h27.94l8.58,8.57h23.74
			c0.43,1.5,1.8,2.6,3.43,2.6c1.98,0,3.6-1.61,3.6-3.59c0-1.99-1.62-3.6-3.6-3.6c-1.63,0-2.99,1.1-3.43,2.59h-22.91l-8.58-8.57
			h-29.6l-4.82,4.81h-43.21v-4.84h24.14l5.71-5.7c0.57,0.38,1.25,0.6,1.99,0.6c1.98,0,3.6-1.61,3.6-3.59c0-1.98-1.62-3.6-3.6-3.6
			c-1.98,0-3.59,1.62-3.59,3.6c0,0.52,0.11,1,0.31,1.45l-5.24,5.24h-23.32v-3.13h14.11l12.37-12.37h35.71l9.34,9.34h58.82l5.45,5.46
			c-0.28,0.51-0.45,1.09-0.45,1.71c0,1.98,1.61,3.59,3.59,3.59c1.99,0,3.6-1.61,3.6-3.59C371.05,203.85,369.44,202.24,367.45,202.24
			z M303.13,175.57c0.88,0,1.6,0.72,1.6,1.6s-0.72,1.59-1.6,1.59s-1.59-0.71-1.59-1.59S302.25,175.57,303.13,175.57z M344.2,173.37
			c0.89,0,1.6,0.71,1.6,1.6c0,0.87-0.71,1.59-1.6,1.59c-0.87,0-1.59-0.72-1.59-1.59C342.61,174.08,343.33,173.37,344.2,173.37z
			 M307.6,151.9c0.88,0,1.6,0.72,1.6,1.6c0,0.87-0.72,1.59-1.6,1.59s-1.59-0.72-1.59-1.59C306.01,152.62,306.72,151.9,307.6,151.9z
			 M263.58,157.35c0.89,0,1.6,0.71,1.6,1.6c0,0.87-0.71,1.59-1.6,1.59c-0.87,0-1.59-0.72-1.59-1.59
			C261.99,158.06,262.71,157.35,263.58,157.35z M256.34,52.79c0-0.87,0.72-1.59,1.6-1.59s1.59,0.72,1.59,1.59
			c0,0.89-0.71,1.6-1.59,1.6S256.34,53.68,256.34,52.79z M230.42,70.62c0-0.87,0.72-1.59,1.6-1.59s1.59,0.72,1.59,1.59
			c0,0.88-0.71,1.6-1.59,1.6S230.42,71.5,230.42,70.62z M235.61,9.86c0-0.88,0.72-1.59,1.6-1.59s1.59,0.71,1.59,1.59
			s-0.71,1.6-1.59,1.6S235.61,10.74,235.61,9.86z M199.48,41.17c0-0.88,0.71-1.59,1.59-1.59s1.6,0.71,1.6,1.59s-0.72,1.6-1.6,1.6
			S199.48,42.05,199.48,41.17z M192,109.17c0-0.88,0.72-1.59,1.6-1.59c0.87,0,1.59,0.71,1.59,1.59s-0.72,1.6-1.59,1.6
			C192.72,110.77,192,110.05,192,109.17z M184.89,6.8c0-0.88,0.72-1.59,1.6-1.59c0.87,0,1.59,0.71,1.59,1.59s-0.72,1.6-1.59,1.6
			C185.61,8.4,184.89,7.68,184.89,6.8z M156.63,74.93c0-0.87,0.72-1.59,1.6-1.59c0.88,0,1.59,0.72,1.59,1.59
			c0,0.88-0.71,1.6-1.59,1.6C157.35,76.53,156.63,75.81,156.63,74.93z M124.91,101.32c-0.88,0-1.6-0.71-1.6-1.6
			c0-0.87,0.72-1.59,1.6-1.59s1.59,0.72,1.59,1.59C126.5,100.61,125.79,101.32,124.91,101.32z M136.59,160.54
			c-0.88,0-1.6-0.72-1.6-1.59c0-0.89,0.72-1.6,1.6-1.6s1.59,0.71,1.59,1.6C138.18,159.82,137.47,160.54,136.59,160.54z
			 M92.58,155.09c-0.88,0-1.6-0.72-1.6-1.59c0-0.88,0.72-1.6,1.6-1.6c0.87,0,1.59,0.72,1.59,1.6
			C94.17,154.37,93.45,155.09,92.58,155.09z M55.97,176.56c-0.88,0-1.6-0.72-1.6-1.59c0-0.89,0.72-1.6,1.6-1.6s1.59,0.71,1.59,1.6
			C57.56,175.84,56.85,176.56,55.97,176.56z M97.05,178.76c-0.88,0-1.6-0.71-1.6-1.59s0.72-1.6,1.6-1.6c0.88,0,1.59,0.72,1.59,1.6
			S97.93,178.76,97.05,178.76z M32.72,207.43c-0.88,0-1.6-0.72-1.6-1.59c0-0.89,0.72-1.6,1.6-1.6s1.59,0.71,1.59,1.6
			C34.31,206.71,33.6,207.43,32.72,207.43z M139.83,199.73c-0.88,0-1.6-0.71-1.6-1.59s0.72-1.6,1.6-1.6c0.87,0,1.59,0.72,1.59,1.6
			S140.7,199.73,139.83,199.73z M59.12,218.03c-0.88,0-1.6-0.71-1.6-1.59s0.72-1.6,1.6-1.6c0.87,0,1.59,0.72,1.59,1.6
			S59.99,218.03,59.12,218.03z M81.68,229.62c-0.88,0-1.6-0.71-1.6-1.59c0-0.88,0.72-1.6,1.6-1.6s1.59,0.72,1.59,1.6
			C83.27,228.91,82.56,229.62,81.68,229.62z M61.71,247.46c-0.88,0-1.6-0.72-1.6-1.59c0-0.89,0.72-1.6,1.6-1.6s1.59,0.71,1.59,1.6
			C63.3,246.74,62.59,247.46,61.71,247.46z M143.25,346.79c0,0.88-0.72,1.59-1.6,1.59s-1.59-0.71-1.59-1.59s0.71-1.6,1.59-1.6
			S143.25,345.91,143.25,346.79z M169.17,328.96c0,0.88-0.72,1.59-1.6,1.59s-1.59-0.71-1.59-1.59s0.71-1.6,1.59-1.6
			S169.17,328.08,169.17,328.96z M163.98,389.72c0,0.88-0.72,1.59-1.6,1.59s-1.59-0.71-1.59-1.59c0-0.88,0.71-1.6,1.59-1.6
			S163.98,388.84,163.98,389.72z M200.12,358.42c0,0.87-0.72,1.59-1.6,1.59s-1.59-0.72-1.59-1.59c0-0.89,0.71-1.6,1.59-1.6
			S200.12,357.53,200.12,358.42z M207.59,290.41c0,0.88-0.71,1.59-1.6,1.59c-0.87,0-1.59-0.71-1.59-1.59c0-0.88,0.72-1.6,1.59-1.6
			C206.88,288.81,207.59,289.53,207.59,290.41z M214.7,392.79c0,0.87-0.71,1.59-1.6,1.59c-0.87,0-1.59-0.72-1.59-1.59
			c0-0.89,0.72-1.6,1.59-1.6C213.99,391.19,214.7,391.9,214.7,392.79z M242.96,324.65c0,0.88-0.72,1.59-1.6,1.59
			c-0.87,0-1.59-0.71-1.59-1.59s0.72-1.6,1.59-1.6C242.24,323.05,242.96,323.77,242.96,324.65z M274.68,298.26
			c0.88,0,1.6,0.72,1.6,1.6s-0.72,1.59-1.6,1.59s-1.59-0.71-1.59-1.59S273.8,298.26,274.68,298.26z M204.92,140.31
			c0-0.88,0.72-1.59,1.6-1.59s1.59,0.71,1.59,1.59s-0.71,1.6-1.59,1.6S204.92,141.19,204.92,140.31z M194.67,259.28
			c0,0.87-0.72,1.59-1.6,1.59c-0.87,0-1.59-0.72-1.59-1.59c0-0.89,0.72-1.6,1.59-1.6C193.95,257.68,194.67,258.39,194.67,259.28z
			 M226.51,226.22h-52.85v-52.85h52.85V226.22z M328.46,244.27c0.89,0,1.6,0.71,1.6,1.6c0,0.87-0.71,1.59-1.6,1.59
			c-0.87,0-1.59-0.72-1.59-1.59C326.87,244.98,327.59,244.27,328.46,244.27z M318.49,226.43c0.89,0,1.6,0.72,1.6,1.6
			c0,0.88-0.71,1.59-1.6,1.59c-0.87,0-1.59-0.71-1.59-1.59C316.9,227.15,317.62,226.43,318.49,226.43z M341.06,214.84
			c0.88,0,1.6,0.72,1.6,1.6s-0.72,1.59-1.6,1.59s-1.59-0.71-1.59-1.59S340.18,214.84,341.06,214.84z M260.35,196.54
			c0.88,0,1.6,0.72,1.6,1.6s-0.72,1.59-1.6,1.59s-1.59-0.71-1.59-1.59S259.47,196.54,260.35,196.54z M367.45,207.43
			c-0.87,0-1.59-0.72-1.59-1.59c0-0.89,0.72-1.6,1.59-1.6c0.88,0,1.6,0.71,1.6,1.6C369.05,206.71,368.33,207.43,367.45,207.43z"/>
		<path class="st1" d="M99.69,90.66c-2.27,0-4.13,1.84-4.13,4.12c0,1.92,1.34,3.54,3.13,3.99v13.94l-10.97,10.97H67.48
			c-0.45-1.79-2.05-3.13-3.98-3.13c-2.28,0-4.13,1.85-4.13,4.12c0,2.28,1.85,4.13,4.13,4.13c1.92,0,3.53-1.33,3.98-3.12h21.06
			l12.15-12.15V98.77c1.79-0.45,3.12-2.06,3.12-3.99C103.81,92.5,101.97,90.66,99.69,90.66z M63.5,126.8
			c-1.18,0-2.13-0.95-2.13-2.13c0-1.17,0.95-2.12,2.13-2.12c1.17,0,2.12,0.95,2.12,2.12C65.62,125.85,64.67,126.8,63.5,126.8z
			 M99.69,96.91c-1.17,0-2.13-0.96-2.13-2.13c0-1.17,0.96-2.12,2.13-2.12s2.12,0.95,2.12,2.12
			C101.81,95.95,100.86,96.91,99.69,96.91z"/>
		<path class="st1" d="M113.58,83.87l-9.28-9.29H74.75L61.22,88.11c-0.6-0.36-1.3-0.58-2.06-0.58c-2.28,0-4.13,1.85-4.13,4.12
			c0,2.28,1.85,4.13,4.13,4.13c2.27,0,4.12-1.85,4.12-4.13c0-0.79-0.23-1.52-0.62-2.15l12.91-12.92h27.9l8.11,8.12v31.99l-6.96,6.96
			c-0.64-0.41-1.39-0.65-2.2-0.65c-2.28,0-4.13,1.85-4.13,4.12s1.85,4.13,4.13,4.13c2.27,0,4.12-1.86,4.12-4.13
			c0-0.74-0.21-1.42-0.55-2.02l7.59-7.58V83.87z M59.16,93.78c-1.17,0-2.13-0.95-2.13-2.13c0-1.17,0.96-2.12,2.13-2.12
			c1.17,0,2.12,0.95,2.12,2.12C61.28,92.83,60.33,93.78,59.16,93.78z M102.42,129.25c-1.17,0-2.13-0.96-2.13-2.13
			s0.96-2.12,2.13-2.12c1.17,0,2.12,0.95,2.12,2.12S103.59,129.25,102.42,129.25z"/>
		<path class="st1" d="M90.1,99.12c-1.93,0-3.54,1.33-3.99,3.12H66.89l-8.05,8.05c-0.63-0.39-1.37-0.63-2.17-0.63
			c-2.28,0-4.13,1.85-4.13,4.12c0,2.28,1.85,4.13,4.13,4.13c2.27,0,4.12-1.85,4.12-4.13c0-0.75-0.22-1.44-0.56-2.04l7.49-7.5h18.39
			c0.45,1.8,2.06,3.13,3.99,3.13c2.27,0,4.12-1.85,4.12-4.13C94.22,100.97,92.37,99.12,90.1,99.12z M56.67,115.91
			c-1.18,0-2.13-0.96-2.13-2.13c0-1.17,0.95-2.12,2.13-2.12c1.17,0,2.12,0.95,2.12,2.12C58.79,114.95,57.84,115.91,56.67,115.91z
			 M90.1,105.37c-1.17,0-2.13-0.96-2.13-2.13s0.96-2.12,2.13-2.12c1.17,0,2.12,0.95,2.12,2.12S91.27,105.37,90.1,105.37z"/>
		<path class="st1" d="M78.34,90.66c-2.27,0-4.13,1.84-4.13,4.12c0,2.27,1.86,4.13,4.13,4.13c2.28,0,4.12-1.86,4.12-4.13
			C82.46,92.5,80.62,90.66,78.34,90.66z M78.34,96.91c-1.17,0-2.13-0.96-2.13-2.13c0-1.17,0.96-2.12,2.13-2.12s2.12,0.95,2.12,2.12
			C80.46,95.95,79.51,96.91,78.34,96.91z"/>
		<path class="st1" d="M89.07,81.28c-2.28,0-4.13,1.85-4.13,4.12c0,2.28,1.85,4.13,4.13,4.13c2.27,0,4.12-1.85,4.12-4.13
			C93.19,83.13,91.34,81.28,89.07,81.28z M89.07,87.53c-1.17,0-2.13-0.95-2.13-2.13c0-1.17,0.96-2.12,2.13-2.12s2.12,0.95,2.12,2.12
			C91.19,86.58,90.24,87.53,89.07,87.53z"/>
		<path class="st1" d="M114.69,127.86c-2.28,0-4.13,1.85-4.13,4.12c0,0.83,0.25,1.6,0.67,2.25l-2.35,2.35H53.65l-2.79-2.79
			c0.27-0.55,0.44-1.15,0.44-1.81c0-2.27-1.85-4.12-4.12-4.12c-2.28,0-4.13,1.85-4.13,4.12c0,2.28,1.85,4.13,4.13,4.13
			c0.89,0,1.72-0.29,2.39-0.78l3.25,3.25h56.89l3-3c0.59,0.33,1.26,0.53,1.98,0.53c2.27,0,4.12-1.85,4.12-4.13
			C118.81,129.71,116.96,127.86,114.69,127.86z M47.18,134.11c-1.18,0-2.13-0.95-2.13-2.13c0-1.16,0.95-2.12,2.13-2.12
			c1.17,0,2.12,0.96,2.12,2.12C49.3,133.16,48.35,134.11,47.18,134.11z M114.69,134.11c-1.17,0-2.13-0.95-2.13-2.13
			c0-1.16,0.96-2.12,2.13-2.12s2.12,0.96,2.12,2.12C116.81,133.16,115.86,134.11,114.69,134.11z"/>
		<path class="st1" d="M48.51,277.06v-10.98c2.37-0.47,4.17-2.56,4.17-5.06c0-2.85-2.32-5.17-5.17-5.17c-2.84,0-5.16,2.32-5.16,5.17
			c0,2.5,1.79,4.59,4.16,5.06v10.16l-6.89,6.89v10.1H34.6v-11.59l4.53-4.53v-24.9c2.37-0.46,4.16-2.56,4.16-5.06
			c0-2.85-2.32-5.17-5.16-5.17c-2.85,0-5.17,2.32-5.17,5.17c0,2.5,1.8,4.6,4.17,5.06v24.08l-4.53,4.52v12.42h-5.02v-13.62l5.38-5.38
			v-11.26h-2v10.43l-5.38,5.38v14.45h-5.02v-14.21l4.66-4.67v-12.29l-4.14-4.14v-4.29c2.37-0.46,4.16-2.55,4.16-5.06
			c0-2.85-2.31-5.17-5.16-5.17s-5.17,2.32-5.17,5.17c0,2.51,1.8,4.6,4.17,5.06v5.12l4.14,4.14v10.64l-4.66,4.66v15.04h-2.55v2.55
			h-5.06v2h5.06v5.02h-5.06v2h5.06v5.02h-5.06v2h5.06v5.03h-5.06v2h5.06v2.54h2.55v5.06h2v-5.06h5.02v5.06h2v-5.06h5.02v5.06h2
			v-5.06h5.02v5.06h2v-5.06h2.55v-2.54h5.06v-2h-5.06v-5.03h5.06v-2h-5.06v-5.02h5.06v-2h-5.06v-5.02h5.06v-2h-5.06v-2.55h-2.55
			v-9.27L48.51,277.06z M44.35,261.02c0-1.75,1.42-3.17,3.16-3.17c1.75,0,3.17,1.42,3.17,3.17c0,1.74-1.42,3.16-3.17,3.16
			C45.77,264.18,44.35,262.76,44.35,261.02z M34.96,247.15c0-1.75,1.42-3.17,3.17-3.17c1.74,0,3.16,1.42,3.16,3.17
			c0,1.74-1.42,3.16-3.16,3.16C36.38,250.31,34.96,248.89,34.96,247.15z M16.91,248.57c0-1.75,1.42-3.17,3.17-3.17
			c1.74,0,3.16,1.42,3.16,3.17s-1.42,3.17-3.16,3.17C18.33,251.74,16.91,250.32,16.91,248.57z M42.17,295.23v24.16H18.01v-24.16
			H42.17z"/>
		<path class="st1" d="M370.36,332.55v-12.26l-15.86-15.87v-4.3h3.09v-2.36h8.44v-2h-8.44v-4.64h8.44v-2h-8.44v-4.63h8.44v-2h-8.44
			v-4.64h8.44v-2h-8.44v-4.63h5.65l6.59-6.59v-30.72c1.66-0.44,2.89-1.94,2.89-3.74c0-2.15-1.74-3.9-3.89-3.9s-3.9,1.75-3.9,3.9
			c0,1.8,1.24,3.3,2.9,3.74v29.89l-5.42,5.42h-4.82v-2.78h-2.94v-5.2l6.18-6.18v-8.38c1.66-0.44,2.89-1.95,2.89-3.75
			c0-2.14-1.75-3.89-3.89-3.89c-2.15,0-3.9,1.75-3.9,3.89c0,1.8,1.23,3.31,2.9,3.75v7.56l-6.18,6.17v6.03h-4.46v-12.31h-2v12.31
			h-4.46v-14.12c1.67-0.45,2.9-1.95,2.9-3.75c0-2.15-1.75-3.9-3.9-3.9c-2.14,0-3.89,1.75-3.89,3.9c0,1.8,1.23,3.3,2.89,3.75v14.12
			h-4.45v-5.61h-2v5.61h-4.46v-7.23h-2v7.23h-2.94v2.37h-7.91v2h7.91v4.73h-7.91v2h7.91v4.74h-7.91v2h7.91v4.74h-7.91v2h7.91v4.74
			h-7.91v2h7.91v2.36h3.22v10.78l-9.45,9.46v12.57c-1.66,0.44-2.9,1.95-2.9,3.75c0,2.15,1.75,3.89,3.9,3.89
			c2.14,0,3.89-1.74,3.89-3.89c0-1.8-1.23-3.31-2.89-3.75v-11.75l9.45-9.45v-11.61h4.35v13.95l-6.09,6.1v20.44
			c-1.66,0.44-2.9,1.94-2.9,3.74c0,2.15,1.75,3.9,3.9,3.9c2.15,0,3.89-1.75,3.89-3.9c0-1.8-1.23-3.3-2.89-3.74v-19.62l6.09-6.09
			v-14.78h4.35v10.97l15.36,15.36v14.54c-1.66,0.44-2.89,1.95-2.89,3.75c0,2.14,1.74,3.89,3.89,3.89c2.15,0,3.9-1.75,3.9-3.89
			c0-1.8-1.24-3.31-2.9-3.75v-15.36l-15.36-15.37v-10.14h4.3v6.98h2.05v-6.98h4.35v5.13l15.86,15.87v11.43
			c-1.66,0.44-2.89,1.95-2.89,3.75c0,2.15,1.75,3.89,3.89,3.89c2.15,0,3.9-1.74,3.9-3.89C373.26,334.5,372.03,332.99,370.36,332.55z
			 M366.93,230.17c0-1.05,0.85-1.9,1.9-1.9c1.04,0,1.89,0.85,1.89,1.9c0,1.04-0.85,1.89-1.89,1.89
			C367.78,232.06,366.93,231.21,366.93,230.17z M357.93,242.93c0-1.04,0.85-1.89,1.9-1.89c1.04,0,1.89,0.85,1.89,1.89
			c0,1.05-0.85,1.9-1.89,1.9C358.78,244.83,357.93,243.98,357.93,242.93z M320.54,336.68c0,1.04-0.85,1.89-1.89,1.89
			c-1.05,0-1.9-0.85-1.9-1.89c0-1.05,0.85-1.9,1.9-1.9C319.69,334.78,320.54,335.63,320.54,336.68z M330.25,344.35
			c0,1.05-0.85,1.9-1.89,1.9c-1.05,0-1.9-0.85-1.9-1.9c0-1.04,0.85-1.89,1.9-1.89C329.4,342.46,330.25,343.31,330.25,344.35z
			 M358.06,344.74c0,1.04-0.85,1.89-1.9,1.89c-1.04,0-1.89-0.85-1.89-1.89c0-1.05,0.85-1.9,1.89-1.9
			C357.21,342.84,358.06,343.69,358.06,344.74z M338.84,248.57c0-1.05,0.85-1.9,1.89-1.9c1.05,0,1.9,0.85,1.9,1.9
			c0,1.04-0.85,1.89-1.9,1.89C339.69,250.46,338.84,249.61,338.84,248.57z M325.88,298.12v-29.68h29.71v29.68H325.88z
			 M369.36,338.19c-1.04,0-1.89-0.85-1.89-1.89c0-1.05,0.85-1.9,1.89-1.9c1.05,0,1.9,0.85,1.9,1.9
			C371.26,337.34,370.41,338.19,369.36,338.19z"/>
		<path class="st1" d="M27.39,65.14c-9.67,0-17.53,7.87-17.53,17.54c0,9.66,7.86,17.53,17.53,17.53s17.53-7.87,17.53-17.53
			C44.92,73.01,37.06,65.14,27.39,65.14z M27.39,98.21c-8.57,0-15.53-6.97-15.53-15.53c0-8.57,6.96-15.54,15.53-15.54
			c8.56,0,15.53,6.97,15.53,15.54C42.92,91.24,35.95,98.21,27.39,98.21z"/>
		<path class="st1" d="M27.39,74.17c-4.69,0-8.51,3.82-8.51,8.51s3.82,8.5,8.51,8.5s8.5-3.81,8.5-8.5S32.08,74.17,27.39,74.17z
			 M27.39,89.18c-3.59,0-6.51-2.92-6.51-6.5c0-3.59,2.92-6.51,6.51-6.51s6.5,2.92,6.5,6.51C33.89,86.26,30.98,89.18,27.39,89.18z"/>
		<path class="st1" d="M395.37,175.26v-41.97c1.61-0.44,2.81-1.91,2.81-3.67c0-2.1-1.71-3.81-3.81-3.81c-2.1,0-3.81,1.71-3.81,3.81
			c0,1.76,1.19,3.23,2.81,3.67v42.8l6.63,6.63v-2.83L395.37,175.26z M392.56,129.62c0-1,0.81-1.81,1.81-1.81s1.81,0.81,1.81,1.81
			c0,1.01-0.81,1.83-1.81,1.83S392.56,130.63,392.56,129.62z"/>
		<path class="st1" d="M399.58,205.23c0.14,0,0.29,0.02,0.42,0.06v-2.04c-0.14-0.01-0.28-0.02-0.42-0.02
			c-0.72,0-1.38,0.21-1.95,0.55L377.85,184v-60.71l-8.77-8.77h-6.11l-2.87,2.87h-14.62c-0.43-1.64-1.91-2.87-3.68-2.87
			c-2.1,0-3.81,1.71-3.81,3.81c0,2.11,1.71,3.83,3.81,3.83c1.73,0,3.19-1.18,3.64-2.77h15.49l2.87-2.87h4.46l7.59,7.6v60.71
			l20.4,20.4c-0.3,0.54-0.48,1.15-0.48,1.81c0,2.11,1.71,3.83,3.81,3.83c0.14,0,0.28-0.01,0.42-0.02v-2.04
			c-0.13,0.04-0.28,0.06-0.42,0.06c-1,0-1.81-0.82-1.81-1.83C397.77,206.04,398.58,205.23,399.58,205.23z M341.8,120.16
			c-1,0-1.81-0.82-1.81-1.83c0-0.99,0.81-1.81,1.81-1.81s1.81,0.82,1.81,1.81C343.61,119.34,342.8,120.16,341.8,120.16z"/>
		<path class="st1" d="M386.43,180.49v-58.24l-12.52-12.53h-12.13c-0.42-1.65-1.91-2.89-3.69-2.89c-2.1,0-3.81,1.71-3.81,3.81
			c0,2.11,1.71,3.83,3.81,3.83c1.72,0,3.17-1.17,3.64-2.75h11.35l11.35,11.36v58.24L400,196.89v-2.83L386.43,180.49z M358.09,112.47
			c-1,0-1.81-0.82-1.81-1.83c0-1,0.81-1.81,1.81-1.81s1.81,0.81,1.81,1.81C359.9,111.65,359.09,112.47,358.09,112.47z"/>
		<path class="st1" d="M17.93,186.72c-1.76,0-3.23,1.2-3.67,2.82H9.65L0,179.89v2.83l8.82,8.82h5.45c0.44,1.62,1.91,2.82,3.66,2.82
			c2.1,0,3.81-1.72,3.81-3.83C21.74,188.43,20.03,186.72,17.93,186.72z M17.93,192.36c-1,0-1.81-0.82-1.81-1.83
			c0-1,0.81-1.81,1.81-1.81c0.99,0,1.81,0.81,1.81,1.81C19.74,191.54,18.92,192.36,17.93,192.36z"/>
		<path class="st1" d="M12.31,196.22c-1.76,0-3.23,1.2-3.66,2.82H4.98L0,194.06v2.83l4.15,4.15h4.5c0.44,1.62,1.91,2.82,3.66,2.82
			c2.1,0,3.81-1.72,3.81-3.83C16.12,197.93,14.41,196.22,12.31,196.22z M12.31,201.86c-1,0-1.81-0.82-1.81-1.83
			c0-1,0.81-1.81,1.81-1.81c0.99,0,1.81,0.81,1.81,1.81C14.12,201.04,13.3,201.86,12.31,201.86z"/>
		<path class="st1" d="M0,203.25v2.04c0.8,0.18,1.39,0.89,1.39,1.75c0,0.86-0.59,1.59-1.39,1.77v2.04c1.9-0.21,3.39-1.84,3.39-3.81
			C3.39,205.08,1.9,203.46,0,203.25z"/>
		<path class="st1" d="M264.38,319.12c-1.93,0-3.5,1.57-3.5,3.5c0,1.58,1.06,2.91,2.5,3.35v37.19l-12.63,12.63h-3.98
			c-0.43-1.44-1.76-2.5-3.34-2.5c-1.93,0-3.5,1.57-3.5,3.49c0,1.94,1.57,3.52,3.5,3.52c1.58,0,2.9-1.06,3.34-2.51h4.81l13.8-13.8
			v-38.02c1.44-0.44,2.5-1.77,2.5-3.35C267.88,320.69,266.31,319.12,264.38,319.12z M243.43,378.3c-0.83,0-1.5-0.68-1.5-1.52
			c0-0.82,0.67-1.49,1.5-1.49c0.83,0,1.5,0.67,1.5,1.49C244.93,377.62,244.26,378.3,243.43,378.3z M264.38,324.13
			c-0.83,0-1.5-0.68-1.5-1.51s0.67-1.5,1.5-1.5s1.5,0.67,1.5,1.5S265.21,324.13,264.38,324.13z"/>
		<path class="st1" d="M296.64,302.24c-1.61,0-2.95,1.1-3.36,2.57h-10.75l-11.2,11.21v51.79l-16.43,16.43h-3.13
			c-0.44-1.45-1.76-2.51-3.34-2.51c-1.93,0-3.5,1.57-3.5,3.5c0,1.94,1.57,3.51,3.5,3.51c1.58,0,2.9-1.06,3.33-2.5h3.97l17.6-17.6
			v-51.79l10.03-10.04h9.97c0.45,1.41,1.76,2.44,3.31,2.44c1.93,0,3.5-1.57,3.5-3.51C300.14,303.81,298.57,302.24,296.64,302.24z
			 M248.43,386.74c-0.83,0-1.5-0.68-1.5-1.51c0-0.83,0.67-1.5,1.5-1.5c0.82,0,1.5,0.67,1.5,1.5
			C249.93,386.06,249.25,386.74,248.43,386.74z M296.64,307.25c-0.83,0-1.5-0.68-1.5-1.51s0.67-1.5,1.5-1.5s1.5,0.67,1.5,1.5
			S297.47,307.25,296.64,307.25z"/>
		<path class="st1" d="M311.13,309.08c-1.6,0-2.93,1.08-3.35,2.55H294.9l-2.55-2.55h-5.53l-7.86,7.86v53.99l-17.5,17.5
			c-0.51-0.29-1.09-0.46-1.71-0.46c-1.93,0-3.5,1.57-3.5,3.49c0,1.94,1.57,3.52,3.5,3.52s3.5-1.58,3.5-3.52
			c0-0.57-0.16-1.11-0.4-1.59l18.11-18.11v-53.99l6.69-6.69h3.87l2.55,2.55h13.74c0.44,1.42,1.75,2.47,3.32,2.47
			c1.93,0,3.5-1.58,3.5-3.52C314.63,310.65,313.06,309.08,311.13,309.08z M259.75,392.98c-0.83,0-1.5-0.68-1.5-1.52
			c0-0.82,0.67-1.49,1.5-1.49c0.82,0,1.5,0.67,1.5,1.49C261.25,392.3,260.57,392.98,259.75,392.98z M311.13,314.1
			c-0.83,0-1.5-0.68-1.5-1.52c0-0.82,0.67-1.5,1.5-1.5c0.82,0,1.5,0.68,1.5,1.5C312.63,313.42,311.95,314.1,311.13,314.1z"/>
		<path class="st1" d="M356.61,28.95l7.51-7.5H400v-2h-36.71l-7.51,7.5h-8.5v-1.96h-5.55V0h-2v24.99h-4.12V0h-2v24.99h-4.12V0h-2
			v24.99h-4.12V0h-2v24.99h-5.55v6.28h-20.17L281,45.92v15.06h-7v3.43h-5.23v2H274v3.65h-5.23v2H274v3.65h-5.23v2H274v3.65h-5.23v2
			H274v3.65h-5.23v2H274v3.43h4.5v35.22l17.51,14.88h16.78c0.46,2.12,2.34,3.72,4.6,3.72c2.59,0,4.71-2.12,4.71-4.72
			c0-2.59-2.12-4.71-4.71-4.71c-2.26,0-4.14,1.59-4.6,3.71h-16.05l-16.24-13.8v-34.3h4.29v28.23l13.67,11.49h23.33
			c0.46,2.12,2.35,3.71,4.6,3.71c2.6,0,4.72-2.11,4.72-4.71c0-2.6-2.12-4.71-4.72-4.71c-2.25,0-4.14,1.59-4.6,3.71h-22.6
			l-12.4-10.42v-27.3h5.11v21.21l9,8.12h11.89c0.46,2.12,2.34,3.71,4.6,3.71c2.59,0,4.71-2.11,4.71-4.71c0-2.6-2.12-4.71-4.71-4.71
			c-2.26,0-4.14,1.59-4.6,3.71h-11.12l-7.77-7.01V92.44h5.11v14.15l4.28,4.8h18.5c0.46,2.12,2.35,3.71,4.6,3.71
			c2.6,0,4.72-2.12,4.72-4.71c0-2.6-2.12-4.72-4.72-4.72c-2.25,0-4.14,1.6-4.6,3.72h-17.61l-3.17-3.56V92.44h4.45v-3.43h5.33v-2
			h-5.33v-3.65h5.33v-2h-5.33v-3.65h5.33v-2h-5.33v-3.65h5.33v-2h-5.33v-3.65h5.33v-2h-5.33v-3.43h-7v-8.42l2.39-2.4h14.97v6.29
			h31.46v-3.06h20.21l7.5-7.51H400v-2h-25.84l-7.5,7.51h-19.38v-4.11h17.7l7.5-7.51H400v-2h-28.35l-7.5,7.51h-16.87v-4.11h14.35
			l7.51-7.5H400v-2h-31.69l-7.51,7.5h-13.52v-4.11h11.84l7.51-7.5H400v-2h-34.2l-7.51,7.5h-11.01v-4.11H356.61z M317.39,138.83
			c1.49,0,2.71,1.22,2.71,2.71c0,1.5-1.22,2.72-2.71,2.72c-1.5,0-2.72-1.22-2.72-2.72C314.67,140.05,315.89,138.83,317.39,138.83z
			 M326.39,128.45c1.5,0,2.72,1.21,2.72,2.71c0,1.49-1.22,2.71-2.72,2.71c-1.49,0-2.71-1.22-2.71-2.71
			C323.68,129.66,324.9,128.45,326.39,128.45z M317.39,118.06c1.49,0,2.71,1.22,2.71,2.71c0,1.5-1.22,2.71-2.71,2.71
			c-1.5,0-2.72-1.21-2.72-2.71C314.67,119.28,315.89,118.06,317.39,118.06z M326.39,107.67c1.5,0,2.72,1.22,2.72,2.72
			c0,1.49-1.22,2.71-2.72,2.71c-1.49,0-2.71-1.22-2.71-2.71C323.68,108.89,324.9,107.67,326.39,107.67z M303.46,62.98v27.46H276
			V62.98H303.46z M315.82,48.16h-15.79l-3.57,3.57v9.25h-3.15V50.1l6.98-6.22h15.53V48.16z M315.82,41.88h-16.3l-8.21,7.32v11.78
			h-3.16V48.43l10.62-9.83h17.05V41.88z M315.82,36.6h-17.84l-11.83,10.96v13.42H283V46.75l13.48-13.48h19.34V36.6z M345.28,54.45
			h-27.46V26.99h27.46V54.45z"/>
		<path class="st1" d="M324.61,62.86c-3.71,0-6.74,3.03-6.74,6.74c0,3.72,3.03,6.75,6.74,6.75c3.73,0,6.76-3.03,6.76-6.75
			C331.37,65.89,328.34,62.86,324.61,62.86z M324.61,74.35c-2.61,0-4.74-2.13-4.74-4.75c0-2.61,2.13-4.74,4.74-4.74
			c2.63,0,4.76,2.13,4.76,4.74C329.37,72.22,327.24,74.35,324.61,74.35z"/>
		<path class="st1" d="M324.61,79.97c-3.71,0-6.74,3.02-6.74,6.74c0,3.72,3.03,6.74,6.74,6.74c3.73,0,6.76-3.02,6.76-6.74
			C331.37,82.99,328.34,79.97,324.61,79.97z M324.61,91.45c-2.61,0-4.74-2.12-4.74-4.74c0-2.61,2.13-4.74,4.74-4.74
			c2.63,0,4.76,2.13,4.76,4.74C329.37,89.33,327.24,91.45,324.61,91.45z"/>
		<path class="st1" d="M340.16,62.86c-3.71,0-6.74,3.03-6.74,6.74c0,3.72,3.03,6.75,6.74,6.75c3.73,0,6.76-3.03,6.76-6.75
			C346.92,65.89,343.89,62.86,340.16,62.86z M340.16,74.35c-2.61,0-4.74-2.13-4.74-4.75c0-2.61,2.13-4.74,4.74-4.74
			c2.63,0,4.76,2.13,4.76,4.74C344.92,72.22,342.79,74.35,340.16,74.35z"/>
		<path class="st1" d="M340.16,79.97c-3.71,0-6.74,3.02-6.74,6.74c0,3.72,3.03,6.74,6.74,6.74c3.73,0,6.76-3.02,6.76-6.74
			C346.92,82.99,343.89,79.97,340.16,79.97z M340.16,91.45c-2.61,0-4.74-2.12-4.74-4.74c0-2.61,2.13-4.74,4.74-4.74
			c2.63,0,4.76,2.13,4.76,4.74C344.92,89.33,342.79,91.45,340.16,91.45z"/>
		<path class="st1" d="M355.71,62.86c-3.71,0-6.74,3.03-6.74,6.74c0,3.72,3.03,6.75,6.74,6.75c3.73,0,6.77-3.03,6.77-6.75
			C362.48,65.89,359.44,62.86,355.71,62.86z M355.71,74.35c-2.61,0-4.74-2.13-4.74-4.75c0-2.61,2.13-4.74,4.74-4.74
			c2.63,0,4.77,2.13,4.77,4.74C360.48,72.22,358.34,74.35,355.71,74.35z"/>
		<path class="st1" d="M355.71,79.97c-3.71,0-6.74,3.02-6.74,6.74c0,3.72,3.03,6.74,6.74,6.74c3.73,0,6.77-3.02,6.77-6.74
			C362.48,82.99,359.44,79.97,355.71,79.97z M355.71,91.45c-2.61,0-4.74-2.12-4.74-4.74c0-2.61,2.13-4.74,4.74-4.74
			c2.63,0,4.77,2.13,4.77,4.74C360.48,89.33,358.34,91.45,355.71,91.45z"/>
		<path class="st1" d="M326.89,353.83h-18.9c-0.46-2.36-2.55-4.15-5.05-4.15c-2.84,0-5.15,2.31-5.15,5.15
			c0,2.84,2.31,5.15,5.15,5.15c2.5,0,4.59-1.79,5.05-4.15h18l13.74,15.42V400h2v-29.51L326.89,353.83z M302.94,357.98
			c-1.73,0-3.15-1.41-3.15-3.15s1.42-3.15,3.15-3.15c1.74,0,3.16,1.41,3.16,3.15S304.68,357.98,302.94,357.98z M324.14,365.44
			h-26.22c-0.46-2.36-2.55-4.15-5.05-4.15c-2.84,0-5.15,2.31-5.15,5.15s2.31,5.15,5.15,5.15c2.5,0,4.59-1.79,5.05-4.15h25.33
			l10.36,11.63V400h2v-21.69L324.14,365.44z M292.87,369.59c-1.73,0-3.15-1.41-3.15-3.15s1.42-3.15,3.15-3.15
			c1.74,0,3.15,1.41,3.15,3.15S294.61,369.59,292.87,369.59z M321.4,377.05h-13.41c-0.46-2.36-2.55-4.15-5.05-4.15
			c-2.84,0-5.15,2.31-5.15,5.15c0,2.84,2.31,5.15,5.15,5.15c2.5,0,4.59-1.78,5.05-4.15h12.51l6.99,7.85V400h2v-13.87L321.4,377.05z
			 M302.94,381.2c-1.73,0-3.15-1.41-3.15-3.15c0-1.73,1.42-3.15,3.15-3.15c1.74,0,3.16,1.42,3.16,3.15
			C306.1,379.79,304.68,381.2,302.94,381.2z M318.66,388.66h-20.74c-0.46-2.36-2.55-4.15-5.05-4.15c-2.84,0-5.15,2.32-5.15,5.15
			c0,2.84,2.31,5.15,5.15,5.15c2.5,0,4.59-1.78,5.05-4.15h19.84l3.61,4.06V400h2v-6.04L318.66,388.66z M292.87,392.81
			c-1.73,0-3.15-1.41-3.15-3.15c0-1.73,1.42-3.15,3.15-3.15c1.74,0,3.15,1.42,3.15,3.15C296.02,391.4,294.61,392.81,292.87,392.81z"
			/>
		<path class="st1" d="M28.75,35.21c-1.62,0-2.97,1.09-3.4,2.56H0v2h25.35c0.43,1.48,1.78,2.57,3.4,2.57c1.96,0,3.56-1.6,3.56-3.57
			C32.31,36.81,30.71,35.21,28.75,35.21z M28.75,40.34c-0.86,0-1.56-0.7-1.56-1.57c0-0.86,0.7-1.56,1.56-1.56s1.56,0.7,1.56,1.56
			C30.31,39.64,29.61,40.34,28.75,40.34z M28.75,22.99c-1.62,0-2.97,1.09-3.4,2.57H0v2h25.35c0.43,1.47,1.78,2.56,3.4,2.56
			c1.96,0,3.56-1.6,3.56-3.56C32.31,24.59,30.71,22.99,28.75,22.99z M28.75,28.12c-0.86,0-1.56-0.7-1.56-1.56s0.7-1.57,1.56-1.57
			s1.56,0.71,1.56,1.57S29.61,28.12,28.75,28.12z M37.97,16.89c-1.61,0-2.97,1.08-3.4,2.56H0v2h34.57c0.43,1.48,1.79,2.56,3.4,2.56
			c1.97,0,3.57-1.6,3.57-3.56C41.54,18.48,39.94,16.89,37.97,16.89z M37.97,22.01c-0.86,0-1.56-0.7-1.56-1.56s0.7-1.56,1.56-1.56
			c0.86,0,1.57,0.7,1.57,1.56S38.83,22.01,37.97,22.01z M38.4,41.32c-1.61,0-2.96,1.08-3.4,2.56H0v2h35
			c0.44,1.48,1.79,2.56,3.4,2.56c1.97,0,3.57-1.59,3.57-3.56C41.97,42.92,40.37,41.32,38.4,41.32z M38.4,46.44
			c-0.86,0-1.56-0.7-1.56-1.56s0.7-1.56,1.56-1.56c0.87,0,1.57,0.7,1.57,1.56S39.27,46.44,38.4,46.44z M43.11,29.1
			c-1.62,0-2.97,1.09-3.4,2.57H0v2h39.71c0.43,1.47,1.79,2.56,3.4,2.56c1.97,0,3.56-1.6,3.56-3.56C46.67,30.7,45.08,29.1,43.11,29.1
			z M43.11,34.23c-0.86,0-1.56-0.7-1.56-1.56c0-0.87,0.7-1.57,1.56-1.57c0.86,0,1.56,0.7,1.56,1.57
			C44.67,33.53,43.97,34.23,43.11,34.23z"/>
		<path class="st1" d="M93.84,2.59c-3.73,0-6.77,3.03-6.77,6.74c0,3.72,3.04,6.75,6.77,6.75c3.71,0,6.74-3.03,6.74-6.75
			C100.58,5.62,97.55,2.59,93.84,2.59z M93.84,14.08c-2.63,0-4.77-2.13-4.77-4.75c0-2.61,2.14-4.74,4.77-4.74
			c2.61,0,4.74,2.13,4.74,4.74C98.58,11.95,96.45,14.08,93.84,14.08z"/>
		<path class="st1" d="M78.28,2.59c-3.72,0-6.76,3.03-6.76,6.74c0,3.72,3.04,6.75,6.76,6.75c3.72,0,6.75-3.03,6.75-6.75
			C85.03,5.62,82,2.59,78.28,2.59z M78.28,14.08c-2.62,0-4.76-2.13-4.76-4.75c0-2.61,2.14-4.74,4.76-4.74s4.75,2.13,4.75,4.74
			C83.03,11.95,80.9,14.08,78.28,14.08z"/>
		<path class="st1" d="M62.73,2.59c-3.72,0-6.76,3.03-6.76,6.74c0,3.72,3.04,6.75,6.76,6.75c3.72,0,6.75-3.03,6.75-6.75
			C69.48,5.62,66.45,2.59,62.73,2.59z M62.73,14.08c-2.62,0-4.76-2.13-4.76-4.75c0-2.61,2.14-4.74,4.76-4.74
			c2.62,0,4.75,2.13,4.75,4.74C67.48,11.95,65.35,14.08,62.73,14.08z"/>
		<path class="st1" d="M149.68,0.34V0h-7.23v13.07h-27.46V0h-7.33v0.34h5.33v3.65h-5.33v2h5.33v3.65h-5.33v2h5.33v3.43h4.45v13.38
			l-3.17,3.56H96.65c-0.46-2.12-2.34-3.71-4.6-3.71c-2.59,0-4.71,2.11-4.71,4.71c0,2.6,2.12,4.71,4.71,4.71
			c2.26,0,4.14-1.59,4.6-3.71h18.51l4.28-4.8V15.07h5.11v20.31l-7.77,7.02h-11.12c-0.46-2.12-2.34-3.72-4.6-3.72
			c-2.6,0-4.71,2.12-4.71,4.72c0,2.59,2.11,4.71,4.71,4.71c2.26,0,4.14-1.59,4.6-3.71h11.89l9-8.13v-21.2h5.11v27.29l-12.4,10.42
			H96.65c-0.46-2.12-2.34-3.71-4.6-3.71c-2.59,0-4.71,2.11-4.71,4.71c0,2.6,2.12,4.71,4.71,4.71c2.26,0,4.14-1.59,4.6-3.71h23.34
			l13.67-11.49V15.07h4.29v34.29l-16.24,13.81h-16.05c-0.46-2.12-2.34-3.71-4.6-3.71c-2.6,0-4.71,2.11-4.71,4.71
			c0,2.6,2.11,4.71,4.71,4.71c2.26,0,4.14-1.59,4.6-3.71h16.78l17.51-14.89V15.07h4.5v-3.43h5.23v-2h-5.23V5.99h5.23v-2h-5.23V0.34
			H149.68z M92.05,35.72c-1.49,0-2.71-1.21-2.71-2.71c0-1.49,1.22-2.71,2.71-2.71c1.5,0,2.72,1.22,2.72,2.71
			C94.77,34.51,93.55,35.72,92.05,35.72z M101.06,46.11c-1.49,0-2.71-1.22-2.71-2.71c0-1.5,1.22-2.72,2.71-2.72
			c1.5,0,2.71,1.22,2.71,2.72C103.77,44.89,102.56,46.11,101.06,46.11z M92.05,56.49c-1.49,0-2.71-1.21-2.71-2.71
			c0-1.49,1.22-2.71,2.71-2.71c1.5,0,2.72,1.22,2.72,2.71C94.77,55.28,93.55,56.49,92.05,56.49z M101.06,66.88
			c-1.49,0-2.71-1.22-2.71-2.71c0-1.5,1.22-2.71,2.71-2.71c1.5,0,2.71,1.21,2.71,2.71C103.77,65.66,102.56,66.88,101.06,66.88z"/>
		<path class="st1" d="M149.68,389.04v-2h-5.23v-3.44h-7v-15.06l-14.65-14.65h-20.17v-6.28h-5.55v-30.27l3.61-4.05h19.84
			c0.46,2.36,2.55,4.15,5.04,4.15c2.84,0,5.15-2.31,5.15-5.15c0-2.84-2.31-5.15-5.15-5.15c-2.49,0-4.58,1.79-5.04,4.15H99.79
			l-4.71,5.29v31.03h-4.12v-38.09l6.99-7.84h12.5c0.47,2.36,2.56,4.15,5.05,4.15c2.84,0,5.15-2.31,5.15-5.15
			c0-2.84-2.31-5.15-5.15-5.15c-2.49,0-4.58,1.78-5.05,4.15h-13.4l-8.09,9.08v38.85h-4.12V301.7l10.36-11.63h25.33
			c0.46,2.36,2.55,4.15,5.04,4.15c2.84,0,5.15-2.31,5.15-5.15c0-2.84-2.31-5.16-5.15-5.16c-2.49,0-4.58,1.79-5.04,4.16H94.31
			l-11.47,12.86v46.68h-4.12v-53.74l13.74-15.42h17.99c0.47,2.37,2.56,4.15,5.05,4.15c2.84,0,5.15-2.31,5.15-5.15
			c0-2.84-2.31-5.15-5.15-5.15c-2.49,0-4.58,1.79-5.05,4.15H91.56l-14.84,16.66v54.5h-5.55v1.97h-8.5l-7.51-7.51H0v2h54.33
			l7.51,7.51h9.33v4.11H60.16l-7.51-7.51H0v2h51.82l7.51,7.51h11.84v4.1H57.65l-7.51-7.5H0v2h49.31l7.51,7.5h14.35v4.11H54.3
			l-7.51-7.5H0v2h45.97l7.5,7.5h17.7v4.11H51.79l-7.51-7.51H0v2h43.46l7.5,7.51h20.21v3.06h31.46v-6.28h14.96l2.4,2.39v8.42h-7v3.44
			h-5.33v2h5.33v3.65h-5.33v2h5.33v3.65h-5.33V400h7.33v-14.4h27.46V400h7.23v-1.66h-5.23v-3.65h5.23v-2h-5.23v-3.65H149.68z
			 M125.57,309.14c1.74,0,3.15,1.41,3.15,3.15c0,1.73-1.41,3.15-3.15,3.15c-1.73,0-3.15-1.42-3.15-3.15
			C122.42,310.55,123.84,309.14,125.57,309.14z M115.5,297.53c1.74,0,3.15,1.41,3.15,3.15c0,1.73-1.41,3.15-3.15,3.15
			c-1.73,0-3.15-1.42-3.15-3.15C112.35,298.94,113.77,297.53,115.5,297.53z M125.57,285.91c1.74,0,3.15,1.42,3.15,3.16
			c0,1.73-1.41,3.15-3.15,3.15c-1.73,0-3.15-1.42-3.15-3.15C122.42,287.33,123.84,285.91,125.57,285.91z M115.5,274.3
			c1.74,0,3.15,1.42,3.15,3.15c0,1.74-1.41,3.15-3.15,3.15c-1.73,0-3.15-1.41-3.15-3.15C112.35,275.72,113.77,274.3,115.5,274.3z
			 M100.63,377.07H73.17v-27.46h27.46V377.07z M125.14,383.6h-3.15v-9.25l-3.57-3.56h-15.79v-4.28h15.53l6.98,6.21V383.6z
			 M130.29,383.6h-3.15v-11.77l-8.22-7.32h-16.29v-3.28h17.05l10.61,9.82V383.6z M135.45,383.6h-3.16v-13.42l-11.82-10.95h-17.84
			v-3.34h19.34l13.48,13.48V383.6z"/>
		<path class="st1" d="M93.84,385.49c-3.73,0-6.77,3.02-6.77,6.74c0,3.72,3.04,6.74,6.77,6.74c3.71,0,6.74-3.02,6.74-6.74
			C100.58,388.51,97.55,385.49,93.84,385.49z M93.84,396.97c-2.63,0-4.77-2.13-4.77-4.74c0-2.62,2.14-4.74,4.77-4.74
			c2.61,0,4.74,2.12,4.74,4.74C98.58,394.84,96.45,396.97,93.84,396.97z"/>
		<path class="st1" d="M78.28,385.49c-3.72,0-6.76,3.02-6.76,6.74c0,3.72,3.04,6.74,6.76,6.74c3.72,0,6.75-3.02,6.75-6.74
			C85.03,388.51,82,385.49,78.28,385.49z M78.28,396.97c-2.62,0-4.76-2.13-4.76-4.74c0-2.62,2.14-4.74,4.76-4.74
			s4.75,2.12,4.75,4.74C83.03,394.84,80.9,396.97,78.28,396.97z"/>
		<path class="st1" d="M62.73,385.49c-3.72,0-6.76,3.02-6.76,6.74c0,3.72,3.04,6.74,6.76,6.74c3.72,0,6.75-3.02,6.75-6.74
			C69.48,388.51,66.45,385.49,62.73,385.49z M62.73,396.97c-2.62,0-4.76-2.13-4.76-4.74c0-2.62,2.14-4.74,4.76-4.74
			c2.62,0,4.75,2.12,4.75,4.74C67.48,394.84,65.35,396.97,62.73,396.97z"/>
		<path class="st1" d="M383.88,342.07c-0.44-1.47-1.79-2.56-3.4-2.56c-1.97,0-3.57,1.6-3.57,3.56c0,1.97,1.6,3.57,3.57,3.57
			c1.61,0,2.96-1.09,3.4-2.57H400v-2H383.88z M380.48,344.64c-0.87,0-1.57-0.7-1.57-1.57c0-0.86,0.7-1.56,1.57-1.56
			c0.86,0,1.56,0.7,1.56,1.56C382.04,343.94,381.34,344.64,380.48,344.64z M393.1,348.18c-0.43-1.48-1.79-2.56-3.4-2.56
			c-1.97,0-3.57,1.6-3.57,3.56c0,1.97,1.6,3.56,3.57,3.56c1.61,0,2.97-1.08,3.4-2.56h6.9v-2H393.1z M389.7,350.74
			c-0.86,0-1.57-0.7-1.57-1.56s0.71-1.56,1.57-1.56s1.56,0.7,1.56,1.56S390.56,350.74,389.7,350.74z M378.74,354.29
			c-0.44-1.48-1.79-2.57-3.4-2.57c-1.97,0-3.57,1.6-3.57,3.57c0,1.96,1.6,3.56,3.57,3.56c1.61,0,2.96-1.08,3.4-2.56H400v-2H378.74z
			 M375.34,356.85c-0.86,0-1.57-0.7-1.57-1.56c0-0.86,0.71-1.57,1.57-1.57s1.56,0.71,1.56,1.57
			C376.9,356.15,376.2,356.85,375.34,356.85z M393.1,360.4c-0.43-1.48-1.79-2.57-3.4-2.57c-1.97,0-3.57,1.6-3.57,3.57
			c0,1.96,1.6,3.56,3.57,3.56c1.61,0,2.97-1.09,3.4-2.56h6.9v-2H393.1z M389.7,362.96c-0.86,0-1.57-0.7-1.57-1.56
			c0-0.87,0.71-1.57,1.57-1.57s1.56,0.7,1.56,1.57C391.26,362.26,390.56,362.96,389.7,362.96z M383.45,366.5
			c-0.44-1.47-1.79-2.56-3.41-2.56c-1.96,0-3.56,1.6-3.56,3.56c0,1.97,1.6,3.57,3.56,3.57c1.62,0,2.97-1.09,3.41-2.57H400v-2H383.45
			z M380.04,369.07c-0.86,0-1.56-0.7-1.56-1.57c0-0.86,0.7-1.56,1.56-1.56c0.87,0,1.57,0.7,1.57,1.56
			C381.61,368.37,380.91,369.07,380.04,369.07z"/>
	</g>
</g>
</svg>
