<?xml version="1.0" encoding="utf-8"?>
<!-- Generator: Adobe Illustrator 23.0.0, SVG Export Plug-In . SVG Version: 6.00 Build 0)  -->
<svg version="1.1" id="Layer_1" xmlns="http://www.w3.org/2000/svg" xmlns:xlink="http://www.w3.org/1999/xlink" x="0px" y="0px"
	 viewBox="0 0 400 400" style="enable-background:new 0 0 400 400;" xml:space="preserve">
<style type="text/css">
	<!-- .st0{fill:rgba(3,52,147,1);} -->
	.st0{fill:rgba(8, 119, 34, 0.76);}
	.st1{fill:rgba(0,0,0,.4);}
	.st2{fill:rgba(0,0,0,.16);}
</style>
<g>
	<rect class="st0" width="400" height="400"/>
	<g>
		<path class="st1" d="M65.94,394.12c-0.55,0-1-0.45-1-1v-21.8l-19.37-19.38H16.51c-0.55,0-1-0.45-1-1s0.45-1,1-1h29.46
			c0.27,0,0.52,0.11,0.71,0.29l19.96,19.96c0.19,0.19,0.29,0.44,0.29,0.71v22.21C66.94,393.68,66.49,394.12,65.94,394.12z"/>
		<path class="st1" d="M58.62,394.12c-0.55,0-1-0.45-1-1V373.7L42.3,359.52H16.51c-0.55,0-1-0.45-1-1s0.45-1,1-1H42.7
			c0.25,0,0.49,0.1,0.68,0.27l15.93,14.75c0.2,0.19,0.32,0.46,0.32,0.73v19.86C59.62,393.68,59.17,394.12,58.62,394.12z"/>
		<path class="st1" d="M51.31,394.12c-0.55,0-1-0.45-1-1v-17.05l-10.17-9.06H16.51c-0.55,0-1-0.45-1-1s0.45-1,1-1h24.01
			c0.25,0,0.48,0.09,0.67,0.25l10.79,9.61c0.21,0.19,0.33,0.46,0.33,0.75v17.5C52.31,393.68,51.86,394.12,51.31,394.12z"/>
		<path class="st1" d="M43.99,394.12c-0.55,0-1-0.45-1-1v-13.55l-3.64-3.64H16.51c-0.55,0-1-0.45-1-1s0.45-1,1-1h23.25
			c0.27,0,0.52,0.11,0.71,0.29l4.23,4.23c0.19,0.19,0.29,0.44,0.29,0.71v13.96C44.99,393.68,44.54,394.12,43.99,394.12z"/>
		<path class="st1" d="M33.91,398.99h-8.84c-0.55,0-1-0.45-1-1s0.45-1,1-1h8.84c0.55,0,1,0.45,1,1S34.46,398.99,33.91,398.99z"/>
		<path class="st1" d="M84.72,398.99h-8.84c-0.55,0-1-0.45-1-1s0.45-1,1-1h8.84c0.55,0,1,0.45,1,1S85.27,398.99,84.72,398.99z"/>
		<path class="st1" d="M45.62,279c0,0.56-0.46,1-1,1H7.2L0,288.08v-3l6-6.74c0.2-0.22,0.46-0.34,0.76-0.34h37.86
			C45.16,278,45.62,278.44,45.62,279z"/>
		<path class="st1" d="M8.63,343.03c-0.55,0-1-0.45-1-1V318.6c0-0.25,0.09-0.48,0.25-0.67l5.91-6.63c0.19-0.21,0.46-0.33,0.75-0.33
			h30.07c0.55,0,1,0.45,1,1s-0.45,1-1,1H14.99l-5.36,6.02v23.05C9.63,342.58,9.18,343.03,8.63,343.03z"/>
		<path class="st1" d="M31.32,262.52c0,0.54-0.46,1-1,1H3.3l-3.3,3.7v-3l2.12-2.38c0.18-0.2,0.46-0.32,0.74-0.32h27.46
			C30.86,261.52,31.32,261.96,31.32,262.52z"/>
		<path class="st1" d="M31.32,295.48c0,0.56-0.46,1-1,1H11.1l-10.16,11.4v34.14c0,0.54-0.4,0.96-0.94,1v-37.1l9.9-11.1
			c0.18-0.22,0.46-0.34,0.74-0.34h19.68C30.86,294.48,31.32,294.92,31.32,295.48z"/>
		<path class="st1" d="M0,391.36v2.1c2.82,1,4.92,3.5,5.36,6.54h2.02C6.9,395.86,3.92,392.46,0,391.36z"/>
		<path class="st1" d="M374.69,380.08h-32.3c-0.27,0-0.52-0.11-0.71-0.29l-11.37-11.37h-79.88c-0.55,0-1-0.45-1-1s0.45-1,1-1h80.3
			c0.27,0,0.52,0.11,0.71,0.29l11.37,11.37h31.89c0.55,0,1,0.45,1,1S375.24,380.08,374.69,380.08z"/>
		<path class="st1" d="M374.69,372.01h-28.4c-0.27,0-0.52-0.11-0.71-0.29l-11.37-11.37h-83.78c-0.55,0-1-0.45-1-1s0.45-1,1-1h84.19
			c0.27,0,0.52,0.11,0.71,0.29l11.37,11.37h27.99c0.55,0,1,0.45,1,1S375.24,372.01,374.69,372.01z"/>
		<path class="st1" d="M374.69,363.94h-23.2c-0.27,0-0.52-0.11-0.71-0.29l-11.37-11.37h-88.98c-0.55,0-1-0.45-1-1s0.45-1,1-1h89.39
			c0.27,0,0.52,0.11,0.71,0.29l11.37,11.37h22.79c0.55,0,1,0.45,1,1S375.24,363.94,374.69,363.94z"/>
		<path class="st1" d="M374.69,355.87h-19.3c-0.27,0-0.52-0.11-0.71-0.29l-11.37-11.37h-92.88c-0.55,0-1-0.45-1-1s0.45-1,1-1h93.29
			c0.27,0,0.52,0.11,0.71,0.29l11.37,11.37h18.89c0.55,0,1,0.45,1,1S375.24,355.87,374.69,355.87z"/>
		<path class="st1" d="M374.69,347.8h-15.4c-0.27,0-0.52-0.11-0.71-0.29l-11.37-11.37h-96.78c-0.55,0-1-0.45-1-1s0.45-1,1-1h97.19
			c0.27,0,0.52,0.11,0.71,0.29l11.37,11.37h14.99c0.55,0,1,0.45,1,1S375.24,347.8,374.69,347.8z"/>
		<path class="st1" d="M390.52,295.72l9.48-10.64v3l-7.74,8.68v45.26c0,0.56-0.44,1-1,1c-0.56,0-1-0.44-1-1v-45.64
			C390.26,296.14,390.36,295.9,390.52,295.72z"/>
		<path class="st1" d="M381.82,284.62l18.18-20.4v3l-16.42,18.44v56.36c0,0.56-0.46,1-1,1c-0.56,0-1-0.44-1-1v-56.74
			C381.58,285.04,381.66,284.8,381.82,284.62z"/>
		<path class="st1" d="M400,305.92v37.1h-0.06c-0.54,0-1-0.44-1-1V307.5c0-0.26,0.1-0.5,0.26-0.68L400,305.92z"/>
		<path class="st1" d="M397.2,390.96c-5.26,0-9.6,3.96-10.2,9.04h2.02c0.58-3.98,4.04-7.04,8.18-7.04c0.98,0,1.92,0.18,2.8,0.5v-2.1
			C399.1,391.1,398.18,390.96,397.2,390.96z"/>
		<path class="st1" d="M372.14,390.96c-5.26,0-9.62,3.96-10.22,9.04h2.02c0.58-3.98,4.04-7.04,8.2-7.04c4.14,0,7.56,3.06,8.14,7.04
			h2.02C381.7,394.92,377.38,390.96,372.14,390.96z"/>
		<path class="st1" d="M347.06,390.96c-5.26,0-9.6,3.96-10.2,9.04h2.02c0.58-3.98,4.04-7.04,8.18-7.04c4.14,0,7.58,3.06,8.16,7.04
			h2.02C356.64,394.92,352.32,390.96,347.06,390.96z"/>
		<path class="st1" d="M33.91,31.08h-8.84c-0.55,0-1-0.45-1-1s0.45-1,1-1h8.84c0.55,0,1,0.45,1,1S34.46,31.08,33.91,31.08z"/>
		<path class="st1" d="M33.91,23.05h-8.84c-0.55,0-1-0.45-1-1s0.45-1,1-1h8.84c0.55,0,1,0.45,1,1S34.46,23.05,33.91,23.05z"/>
		<path class="st1" d="M33.91,15.03h-8.84c-0.55,0-1-0.45-1-1s0.45-1,1-1h8.84c0.55,0,1,0.45,1,1S34.46,15.03,33.91,15.03z"/>
		<path class="st1" d="M33.91,7.01h-8.84c-0.55,0-1-0.45-1-1s0.45-1,1-1h8.84c0.55,0,1,0.45,1,1S34.46,7.01,33.91,7.01z"/>
		<path class="st1" d="M84.72,31.08h-8.84c-0.55,0-1-0.45-1-1s0.45-1,1-1h8.84c0.55,0,1,0.45,1,1S85.27,31.08,84.72,31.08z"/>
		<path class="st1" d="M84.72,23.05h-8.84c-0.55,0-1-0.45-1-1s0.45-1,1-1h8.84c0.55,0,1,0.45,1,1S85.27,23.05,84.72,23.05z"/>
		<path class="st1" d="M84.72,15.03h-8.84c-0.55,0-1-0.45-1-1s0.45-1,1-1h8.84c0.55,0,1,0.45,1,1S85.27,15.03,84.72,15.03z"/>
		<path class="st1" d="M84.72,7.01h-8.84c-0.55,0-1-0.45-1-1s0.45-1,1-1h8.84c0.55,0,1,0.45,1,1S85.27,7.01,84.72,7.01z"/>
		<path class="st1" d="M42.05,92.32H8.19c-0.55,0-1-0.45-1-1s0.45-1,1-1h33.5L59.56,75.3V34.94c0-0.55,0.45-1,1-1s1,0.45,1,1v40.82
			c0,0.29-0.13,0.58-0.36,0.77L42.7,92.09C42.52,92.24,42.29,92.32,42.05,92.32z"/>
		<path class="st1" d="M35.09,62.84H8.19c-0.55,0-1-0.45-1-1s0.45-1,1-1h26.45l4.73-5.32V34.94c0-0.55,0.45-1,1-1s1,0.45,1,1V55.9
			c0,0.25-0.09,0.48-0.25,0.67l-5.29,5.94C35.64,62.72,35.37,62.84,35.09,62.84z"/>
		<path class="st1" d="M45.54,107.06H20.98c-0.55,0-1-0.45-1-1s0.45-1,1-1h24.19l23.32-19.83V34.94c0-0.55,0.45-1,1-1s1,0.45,1,1
			V85.7c0,0.29-0.13,0.57-0.35,0.76l-23.95,20.36C46,106.98,45.77,107.06,45.54,107.06z"/>
		<path class="st1" d="M38.57,77.58H20.98c-0.55,0-1-0.45-1-1s0.45-1,1-1h17.21l11.28-10.19V34.94c0-0.55,0.45-1,1-1s1,0.45,1,1
			v30.89c0,0.28-0.12,0.55-0.33,0.74l-11.9,10.74C39.06,77.49,38.82,77.58,38.57,77.58z"/>
		<path class="st1" d="M7.38,0H5.36c0.08,0.4,0.1,0.8,0.1,1.2c0,3.58-2.28,6.62-5.46,7.76v2.1C4.3,9.86,7.46,5.9,7.46,1.2
			C7.46,0.8,7.44,0.38,7.38,0z"/>
		<path class="st1" d="M0,18.92v2.1c3.18,1.14,5.46,4.18,5.46,7.76c0,3.56-2.28,6.62-5.46,7.76v2.1c4.3-1.2,7.46-5.16,7.46-9.86
			C7.46,24.08,4.3,20.12,0,18.92z"/>
		<path class="st1" d="M397.2,9.46c-4.56,0-8.28-3.7-8.28-8.26c0-0.4,0.02-0.8,0.1-1.2H387c-0.06,0.38-0.08,0.8-0.08,1.2
			c0,5.66,4.6,10.26,10.28,10.26c0.98,0,1.9-0.14,2.8-0.4v-2.1C399.12,9.28,398.18,9.46,397.2,9.46z"/>
		<path class="st1" d="M397.2,20.52c0.98,0,1.92,0.18,2.8,0.5v-2.1c-0.9-0.26-1.82-0.4-2.8-0.4c-5.68,0-10.28,4.6-10.28,10.26
			c0,5.66,4.6,10.26,10.28,10.26c0.98,0,1.9-0.14,2.8-0.4v-2.1c-0.88,0.32-1.82,0.5-2.8,0.5c-4.56,0-8.28-3.72-8.28-8.26
			C388.92,24.22,392.64,20.52,397.2,20.52z"/>
		<path class="st1" d="M382.3,0h-2.02c0.08,0.4,0.1,0.8,0.1,1.2c0,4.56-3.7,8.26-8.24,8.26c-4.58,0-8.3-3.7-8.3-8.26
			c0-0.4,0.02-0.8,0.1-1.2h-2.02c-0.06,0.38-0.08,0.8-0.08,1.2c0,5.66,4.62,10.26,10.3,10.26c5.64,0,10.24-4.6,10.24-10.26
			C382.38,0.8,382.36,0.38,382.3,0z"/>
		<path class="st1" d="M372.14,18.52c-5.68,0-10.3,4.6-10.3,10.26c0,5.66,4.62,10.26,10.3,10.26c5.64,0,10.24-4.6,10.24-10.26
			C382.38,23.12,377.78,18.52,372.14,18.52z M372.14,37.04c-4.58,0-8.3-3.72-8.3-8.26c0-4.56,3.72-8.26,8.3-8.26
			c4.54,0,8.24,3.7,8.24,8.26C380.38,33.32,376.68,37.04,372.14,37.04z"/>
		<path class="st1" d="M357.24,0h-2.02c0.08,0.4,0.1,0.8,0.1,1.2c0,4.56-3.7,8.26-8.26,8.26c-4.56,0-8.28-3.7-8.28-8.26
			c0-0.4,0.04-0.8,0.1-1.2h-2.02c-0.06,0.38-0.08,0.8-0.08,1.2c0,5.66,4.62,10.26,10.28,10.26s10.26-4.6,10.26-10.26
			C357.32,0.8,357.3,0.38,357.24,0z"/>
		<path class="st1" d="M347.06,18.52c-5.66,0-10.28,4.6-10.28,10.26c0,5.66,4.62,10.26,10.28,10.26s10.26-4.6,10.26-10.26
			C357.32,23.12,352.72,18.52,347.06,18.52z M347.06,37.04c-4.56,0-8.28-3.72-8.28-8.26c0-4.56,3.72-8.26,8.28-8.26
			c4.56,0,8.26,3.7,8.26,8.26C355.32,33.32,351.62,37.04,347.06,37.04z"/>
		<path class="st2" d="M16.52,359.52c-0.56,0-1-0.44-1-1v16.4c0-0.54,0.44-1,1-1h1v-14.4H16.52z M16.52,359.52c-0.56,0-1-0.44-1-1
			v16.4c0-0.54,0.44-1,1-1h1v-14.4H16.52z M16.52,359.52c-0.56,0-1-0.44-1-1v16.4c0-0.54,0.44-1,1-1h1v-14.4H16.52z M16.52,359.52
			c-0.56,0-1-0.44-1-1v16.4c0-0.54,0.44-1,1-1h1v-14.4H16.52z M16.52,359.52c-0.56,0-1-0.44-1-1v16.4c0-0.54,0.44-1,1-1h1v-14.4
			H16.52z M16.52,359.52c-0.56,0-1-0.44-1-1v16.4c0-0.54,0.44-1,1-1h1v-14.4H16.52z M16.52,359.52c-0.56,0-1-0.44-1-1v16.4
			c0-0.54,0.44-1,1-1h1v-14.4H16.52z M16.52,359.52c-0.56,0-1-0.44-1-1v16.4c0-0.54,0.44-1,1-1h1v-14.4H16.52z M16.52,359.52
			c-0.56,0-1-0.44-1-1v16.4c0-0.54,0.44-1,1-1h1v-14.4H16.52z M16.52,359.52c-0.56,0-1-0.44-1-1v16.4c0-0.54,0.44-1,1-1h1v-14.4
			H16.52z M16.52,341.02H0v2h15.52v39.82H0v2h16.52c0.54,0,1-0.44,1-1v-41.82C17.52,341.48,17.06,341.02,16.52,341.02z
			 M16.52,359.52c-0.56,0-1-0.44-1-1v16.4c0-0.54,0.44-1,1-1h1v-14.4H16.52z M16.52,359.52c-0.56,0-1-0.44-1-1v16.4
			c0-0.54,0.44-1,1-1h1v-14.4H16.52z M16.52,359.52c-0.56,0-1-0.44-1-1v16.4c0-0.54,0.44-1,1-1h1v-14.4H16.52z M16.52,359.52
			c-0.56,0-1-0.44-1-1v16.4c0-0.54,0.44-1,1-1h1v-14.4H16.52z M16.52,359.52c-0.56,0-1-0.44-1-1v16.4c0-0.54,0.44-1,1-1h1v-14.4
			H16.52z M16.52,359.52c-0.56,0-1-0.44-1-1v16.4c0-0.54,0.44-1,1-1h1v-14.4H16.52z M16.52,359.52c-0.56,0-1-0.44-1-1v16.4
			c0-0.54,0.44-1,1-1h1v-14.4H16.52z M16.52,359.52c-0.56,0-1-0.44-1-1v16.4c0-0.54,0.44-1,1-1h1v-14.4H16.52z M16.52,359.52
			c-0.56,0-1-0.44-1-1v16.4c0-0.54,0.44-1,1-1h1v-14.4H16.52z M16.52,359.52c-0.56,0-1-0.44-1-1v16.4c0-0.54,0.44-1,1-1h1v-14.4
			H16.52z"/>
		<path class="st2" d="M64.94,393.12v-1H45v1c0,0.56-0.46,1-1,1h21.94C65.38,394.12,64.94,393.68,64.94,393.12z M64.94,393.12v-1H45
			v1c0,0.56-0.46,1-1,1h21.94C65.38,394.12,64.94,393.68,64.94,393.12z M64.94,393.12v-1H45v1c0,0.56-0.46,1-1,1h21.94
			C65.38,394.12,64.94,393.68,64.94,393.12z M64.94,393.12v-1H45v1c0,0.56-0.46,1-1,1h21.94C65.38,394.12,64.94,393.68,64.94,393.12
			z M64.94,393.12v-1H45v1c0,0.56-0.46,1-1,1h21.94C65.38,394.12,64.94,393.68,64.94,393.12z M64.94,393.12v-1H45v1
			c0,0.56-0.46,1-1,1h21.94C65.38,394.12,64.94,393.68,64.94,393.12z M64.94,393.12v-1H45v1c0,0.56-0.46,1-1,1h21.94
			C65.38,394.12,64.94,393.68,64.94,393.12z M64.94,393.12v-1H45v1c0,0.56-0.46,1-1,1h21.94C65.38,394.12,64.94,393.68,64.94,393.12
			z M64.94,393.12v-1H45v1c0,0.56-0.46,1-1,1h21.94C65.38,394.12,64.94,393.68,64.94,393.12z M64.94,393.12v-1H45v1
			c0,0.56-0.46,1-1,1h21.94C65.38,394.12,64.94,393.68,64.94,393.12z M64.94,393.12v-1H45v1c0,0.56-0.46,1-1,1h21.94
			C65.38,394.12,64.94,393.68,64.94,393.12z M64.94,393.12v-1H45v1c0,0.56-0.46,1-1,1h21.94C65.38,394.12,64.94,393.68,64.94,393.12
			z M75.88,392.12H34.06c-0.56,0-1,0.44-1,1V400h2v-5.88h39.82V400h2v-6.88C76.88,392.56,76.42,392.12,75.88,392.12z M64.94,393.12
			v-1H45v1c0,0.56-0.46,1-1,1h21.94C65.38,394.12,64.94,393.68,64.94,393.12z M64.94,393.12v-1H45v1c0,0.56-0.46,1-1,1h21.94
			C65.38,394.12,64.94,393.68,64.94,393.12z M64.94,393.12v-1H45v1c0,0.56-0.46,1-1,1h21.94C65.38,394.12,64.94,393.68,64.94,393.12
			z M64.94,393.12v-1H45v1c0,0.56-0.46,1-1,1h21.94C65.38,394.12,64.94,393.68,64.94,393.12z M64.94,393.12v-1H45v1
			c0,0.56-0.46,1-1,1h21.94C65.38,394.12,64.94,393.68,64.94,393.12z M64.94,393.12v-1H45v1c0,0.56-0.46,1-1,1h21.94
			C65.38,394.12,64.94,393.68,64.94,393.12z M64.94,393.12v-1H45v1c0,0.56-0.46,1-1,1h21.94C65.38,394.12,64.94,393.68,64.94,393.12
			z M64.94,393.12v-1H45v1c0,0.56-0.46,1-1,1h21.94C65.38,394.12,64.94,393.68,64.94,393.12z M64.94,393.12v-1H45v1
			c0,0.56-0.46,1-1,1h21.94C65.38,394.12,64.94,393.68,64.94,393.12z M64.94,393.12v-1H45v1c0,0.56-0.46,1-1,1h21.94
			C65.38,394.12,64.94,393.68,64.94,393.12z M64.94,393.12v-1H45v1c0,0.56-0.46,1-1,1h21.94C65.38,394.12,64.94,393.68,64.94,393.12
			z"/>
		<path class="st2" d="M400,343.02v-2h-25.3c-0.56,0-1,0.46-1,1v41.82c0,0.56,0.44,1,1,1H400v-2h-24.3v-39.82H400z"/>
		<path class="st2" d="M74.88,0v33.94H35.06V0h-2v34.94c0,0.56,0.44,1,1,1h41.82c0.54,0,1-0.44,1-1V0H74.88z"/>
		<path class="st2" d="M50.5,305.08c-3.46,0-6.32,2.56-6.8,5.88c-0.06,0.32-0.08,0.66-0.08,1c0,0.34,0.02,0.68,0.08,1
			c0.48,3.34,3.34,5.9,6.8,5.9c3.8,0,6.9-3.1,6.9-6.9C57.4,308.16,54.3,305.08,50.5,305.08z M50.5,316.86c-2.7,0-4.88-2.2-4.88-4.9
			c0-2.7,2.18-4.88,4.88-4.88s4.9,2.18,4.9,4.88C55.4,314.66,53.2,316.86,50.5,316.86z"/>
		<path class="st2" d="M36.2,288.58c-3.46,0-6.32,2.56-6.8,5.9c-0.06,0.32-0.08,0.66-0.08,1s0.02,0.68,0.08,1
			c0.48,3.34,3.34,5.9,6.8,5.9c3.8,0,6.9-3.1,6.9-6.9S40,288.58,36.2,288.58z M36.2,300.38c-2.7,0-4.88-2.2-4.88-4.9
			s2.18-4.9,4.88-4.9c2.7,0,4.9,2.2,4.9,4.9S38.9,300.38,36.2,300.38z"/>
		<path class="st2" d="M50.5,272.1c-3.46,0-6.32,2.56-6.8,5.9c-0.06,0.32-0.08,0.66-0.08,1c0,0.34,0.02,0.68,0.08,1
			c0.48,3.32,3.34,5.88,6.8,5.88c3.8,0,6.9-3.08,6.9-6.88C57.4,275.2,54.3,272.1,50.5,272.1z M50.5,283.88
			c-2.7,0-4.88-2.18-4.88-4.88c0-2.7,2.18-4.9,4.88-4.9s4.9,2.2,4.9,4.9C55.4,281.7,53.2,283.88,50.5,283.88z"/>
		<path class="st2" d="M36.2,255.62c-3.46,0-6.32,2.56-6.8,5.9c-0.06,0.32-0.08,0.66-0.08,1s0.02,0.68,0.08,1
			c0.48,3.32,3.34,5.88,6.8,5.88c3.8,0,6.9-3.08,6.9-6.88S40,255.62,36.2,255.62z M36.2,267.4c-2.7,0-4.88-2.18-4.88-4.88
			s2.18-4.9,4.88-4.9c2.7,0,4.9,2.2,4.9,4.9S38.9,267.4,36.2,267.4z"/>
		<path class="st2" d="M9.1,60.84c-0.48-2.98-3.06-5.28-6.18-5.28c-1.06,0-2.04,0.26-2.92,0.74v2.42c0.76-0.72,1.78-1.16,2.92-1.16
			c2.36,0,4.26,1.92,4.26,4.28c0,2.36-1.9,4.26-4.26,4.26c-1.14,0-2.16-0.44-2.92-1.14v2.4c0.88,0.48,1.86,0.74,2.92,0.74
			c3.12,0,5.7-2.28,6.18-5.26c0.06-0.32,0.08-0.66,0.08-1C9.18,61.5,9.16,61.16,9.1,60.84z"/>
		<path class="st2" d="M21.9,75.58c-0.48-2.98-3.08-5.28-6.2-5.28c-3.46,0-6.26,2.82-6.26,6.28s2.8,6.26,6.26,6.26
			c3.12,0,5.72-2.28,6.2-5.26c0.06-0.32,0.08-0.66,0.08-1C21.98,76.24,21.96,75.9,21.9,75.58z M15.7,80.84
			c-2.34,0-4.26-1.9-4.26-4.26s1.92-4.28,4.26-4.28c2.36,0,4.28,1.92,4.28,4.28S18.06,80.84,15.7,80.84z"/>
		<path class="st2" d="M9.1,90.32c-0.48-2.98-3.06-5.26-6.18-5.26c-1.06,0-2.04,0.26-2.92,0.74v2.4c0.76-0.7,1.78-1.14,2.92-1.14
			c2.36,0,4.26,1.9,4.26,4.26c0,2.36-1.9,4.28-4.26,4.28c-1.14,0-2.16-0.44-2.92-1.16v2.42c0.88,0.48,1.86,0.74,2.92,0.74
			c3.12,0,5.7-2.3,6.18-5.28c0.06-0.32,0.08-0.66,0.08-1C9.18,90.98,9.16,90.64,9.1,90.32z"/>
		<path class="st2" d="M21.9,105.06c-0.48-2.98-3.08-5.26-6.2-5.26c-3.46,0-6.26,2.8-6.26,6.26s2.8,6.28,6.26,6.28
			c3.12,0,5.72-2.3,6.2-5.28c0.06-0.32,0.08-0.66,0.08-1S21.96,105.38,21.9,105.06z M15.7,110.34c-2.34,0-4.26-1.92-4.26-4.28
			c0-2.34,1.92-4.26,4.26-4.26c2.36,0,4.28,1.92,4.28,4.26C19.98,108.42,18.06,110.34,15.7,110.34z"/>
		<path class="st2" d="M400,56.3c-1.98,1.04-3.34,3.14-3.34,5.54c0,2.4,1.36,4.48,3.34,5.52v-2.4c-0.82-0.78-1.34-1.9-1.34-3.12
			c0-1.22,0.52-2.34,1.34-3.12V56.3z"/>
		<path class="st2" d="M400,85.8c-1.98,1.04-3.34,3.12-3.34,5.52c0,2.4,1.36,4.5,3.34,5.54v-2.42c-0.82-0.78-1.34-1.9-1.34-3.12
			c0-1.22,0.52-2.34,1.34-3.12V85.8z"/>
		<g>
			<path class="st1" d="M23.86,194.72c0,0.54-0.44,1-1,1H0v-2h22.86C23.42,193.72,23.86,194.16,23.86,194.72z"/>
			<path class="st1" d="M23.86,203.16c0,0.54-0.44,1-1,1H0v-2h22.86C23.42,202.16,23.86,202.6,23.86,203.16z"/>
			<path class="st1" d="M23.86,210.56c0,0.56-0.44,1-1,1H0v-2h22.86C23.42,209.56,23.86,210,23.86,210.56z"/>
			<path class="st1" d="M23.86,219.52c0,0.54-0.44,1-1,1H0v-2h22.86C23.42,218.52,23.86,218.96,23.86,219.52z"/>
			<path class="st1" d="M23.86,227.26c0,0.56-0.44,1-1,1H0v-2h22.86C23.42,226.26,23.86,226.72,23.86,227.26z"/>
			<path class="st1" d="M71.81,196.5h-8.54c-0.55,0-1-0.45-1-1s0.45-1,1-1h8.54c0.55,0,1,0.45,1,1S72.36,196.5,71.81,196.5z"/>
			<path class="st1" d="M84.36,204.25h-21.1c-0.55,0-1-0.45-1-1s0.45-1,1-1h21.1c0.55,0,1,0.45,1,1S84.91,204.25,84.36,204.25z"/>
			<path class="st1" d="M71.81,211.99h-8.54c-0.55,0-1-0.45-1-1s0.45-1,1-1h8.54c0.55,0,1,0.45,1,1S72.36,211.99,71.81,211.99z"/>
			<path class="st1" d="M84.36,219.74h-21.1c-0.55,0-1-0.45-1-1s0.45-1,1-1h21.1c0.55,0,1,0.45,1,1S84.91,219.74,84.36,219.74z"/>
			<path class="st1" d="M71.81,227.49h-8.54c-0.55,0-1-0.45-1-1s0.45-1,1-1h8.54c0.55,0,1,0.45,1,1S72.36,227.49,71.81,227.49z"/>
			<path class="st1" d="M27.57,240.73c-0.55,0-1-0.45-1-1v-8.54c0-0.55,0.45-1,1-1s1,0.45,1,1v8.54
				C28.57,240.28,28.13,240.73,27.57,240.73z"/>
			<path class="st1" d="M35.32,240.73c-0.55,0-1-0.45-1-1v-8.54c0-0.55,0.45-1,1-1s1,0.45,1,1v8.54
				C36.32,240.28,35.87,240.73,35.32,240.73z"/>
			<path class="st1" d="M43.07,240.73c-0.55,0-1-0.45-1-1v-8.54c0-0.55,0.45-1,1-1s1,0.45,1,1v8.54
				C44.07,240.28,43.62,240.73,43.07,240.73z"/>
			<path class="st1" d="M50.81,240.73c-0.55,0-1-0.45-1-1v-8.54c0-0.55,0.45-1,1-1s1,0.45,1,1v8.54
				C51.81,240.28,51.37,240.73,50.81,240.73z"/>
			<path class="st1" d="M58.56,240.73c-0.55,0-1-0.45-1-1v-8.54c0-0.55,0.45-1,1-1s1,0.45,1,1v8.54
				C59.56,240.28,59.11,240.73,58.56,240.73z"/>
			<g>
				<g>
					<g>
						<g>
							<path class="st1" d="M37.66,191.79c-0.55,0-1-0.45-1-1v-39.43c0-0.29,0.13-0.58,0.36-0.77l17.87-15.02
								c0.18-0.15,0.41-0.23,0.64-0.23h32.71c0.55,0,1,0.45,1,1s-0.45,1-1,1H55.9l-17.24,14.49v38.96
								C38.66,191.35,38.22,191.79,37.66,191.79z"/>
						</g>
					</g>
					<g>
						<g>
							<path class="st1" d="M57.16,191.79c-0.55,0-1-0.45-1-1v-20.24c0-0.25,0.09-0.48,0.25-0.67l5.11-5.73
								c0.19-0.21,0.46-0.33,0.75-0.33h25.98c0.55,0,1,0.45,1,1s-0.45,1-1,1H62.72l-4.55,5.11v19.86
								C58.16,191.35,57.71,191.79,57.16,191.79z"/>
						</g>
					</g>
					<g>
						<g>
							<path class="st1" d="M29.04,191.79c-0.55,0-1-0.45-1-1v-49.02c0-0.29,0.13-0.57,0.35-0.76l23.14-19.67
								c0.18-0.15,0.41-0.24,0.65-0.24H75.9c0.55,0,1,0.45,1,1s-0.45,1-1,1H52.54l-22.5,19.13v48.56
								C30.04,191.35,29.59,191.79,29.04,191.79z"/>
						</g>
					</g>
					<g>
						<g>
							<path class="st1" d="M47.41,191.79c-0.55,0-1-0.45-1-1v-29.83c0-0.28,0.12-0.55,0.33-0.74l11.49-10.38
								c0.18-0.17,0.42-0.26,0.67-0.26H75.9c0.55,0,1,0.45,1,1s-0.45,1-1,1H59.29l-10.87,9.82v29.39
								C48.41,191.35,47.96,191.79,47.41,191.79z"/>
						</g>
					</g>
				</g>
			</g>
			<path class="st2" d="M63.26,189.8h-40.4c-0.54,0-1,0.44-1,1v40.38c0,0.56,0.46,1,1,1h40.4c0.56,0,1-0.44,1-1V190.8
				C64.26,190.24,63.82,189.8,63.26,189.8z M62.26,230.18h-38.4V191.8h38.4V230.18z"/>
			<path class="st2" d="M88.24,213.86c-2.34,0-4.32,1.66-4.78,3.88c-0.06,0.32-0.1,0.66-0.1,1c0,0.34,0.04,0.68,0.1,1
				c0.46,2.22,2.44,3.88,4.78,3.88c2.7,0,4.88-2.18,4.88-4.88C93.12,216.04,90.94,213.86,88.24,213.86z M88.24,221.62
				c-1.58,0-2.88-1.3-2.88-2.88c0-1.6,1.3-2.88,2.88-2.88c1.6,0,2.88,1.28,2.88,2.88C91.12,220.32,89.84,221.62,88.24,221.62z"/>
			<path class="st2" d="M88.24,198.36c-2.34,0-4.32,1.68-4.78,3.88c-0.06,0.32-0.1,0.66-0.1,1c0,0.34,0.04,0.68,0.1,1
				c0.46,2.22,2.44,3.9,4.78,3.9c2.7,0,4.88-2.2,4.88-4.9C93.12,200.56,90.94,198.36,88.24,198.36z M88.24,206.14
				c-1.58,0-2.88-1.3-2.88-2.9c0-1.58,1.3-2.88,2.88-2.88c1.6,0,2.88,1.3,2.88,2.88C91.12,204.84,89.84,206.14,88.24,206.14z"/>
			<g>
				<path class="st2" d="M93.34,158.74c-3.02,0-5.54,2.2-6,5.08c-0.08,0.32-0.1,0.66-0.1,1c0,0.34,0.02,0.68,0.1,1
					c0.46,2.9,2.98,5.1,6,5.1c3.36,0,6.08-2.74,6.08-6.1C99.42,161.46,96.7,158.74,93.34,158.74z M93.34,168.92
					c-2.26,0-4.1-1.84-4.1-4.1c0-2.26,1.84-4.08,4.1-4.08s4.08,1.82,4.08,4.08C97.42,167.08,95.6,168.92,93.34,168.92z"/>
			</g>
			<g>
				<path class="st2" d="M80.98,144.5c-3.02,0-5.52,2.2-5.98,5.08c-0.08,0.32-0.1,0.66-0.1,1c0,0.34,0.02,0.68,0.1,1
					c0.46,2.9,2.96,5.1,5.98,5.1c3.36,0,6.1-2.74,6.1-6.1S84.34,144.5,80.98,144.5z M80.98,154.68c-2.26,0-4.08-1.84-4.08-4.1
					s1.82-4.08,4.08-4.08c2.26,0,4.1,1.82,4.1,4.08S83.24,154.68,80.98,154.68z"/>
			</g>
			<g>
				<path class="st2" d="M93.34,130.26c-3.02,0-5.54,2.2-6,5.08c-0.08,0.32-0.1,0.66-0.1,1c0,0.34,0.02,0.68,0.1,1
					c0.46,2.9,2.98,5.1,6,5.1c3.36,0,6.08-2.74,6.08-6.1C99.42,132.98,96.7,130.26,93.34,130.26z M93.34,140.44
					c-2.26,0-4.1-1.84-4.1-4.1c0-2.26,1.84-4.08,4.1-4.08s4.08,1.82,4.08,4.08C97.42,138.6,95.6,140.44,93.34,140.44z"/>
			</g>
			<g>
				<path class="st2" d="M80.98,116.02c-3.02,0-5.52,2.2-5.98,5.08c-0.08,0.32-0.1,0.66-0.1,1s0.02,0.68,0.1,1
					c0.46,2.9,2.96,5.1,5.98,5.1c3.36,0,6.1-2.74,6.1-6.1C87.08,118.74,84.34,116.02,80.98,116.02z M80.98,126.2
					c-2.26,0-4.08-1.84-4.08-4.1s1.82-4.08,4.08-4.08c2.26,0,4.1,1.82,4.1,4.08S83.24,126.2,80.98,126.2z"/>
			</g>
		</g>
		<g>
			<path class="st1" d="M371.32,193.72H400v2h-28.28l-12.88,12.88c-0.18,0.18-0.44,0.3-0.7,0.3h-16.62c-0.26,0-0.52-0.12-0.7-0.3
				l-7.94-7.94h-8.06c-0.56,0-1-0.44-1-1c0-0.54,0.44-1,1-1h8.48c0.26,0,0.52,0.12,0.7,0.3l7.94,7.94h15.78L370.6,194
				C370.8,193.82,371.04,193.72,371.32,193.72z"/>
			<path class="st1" d="M373.9,202.16H400v2h-25.7l-11.5,11.5c-0.18,0.18-0.44,0.3-0.7,0.3h-31.08c-0.56,0-1-0.46-1-1
				c0-0.56,0.44-1,1-1h30.66l11.5-11.52C373.38,202.26,373.62,202.16,373.9,202.16z"/>
			<path class="st1" d="M379.06,209.56H400v2h-20.52l-12.62,12.62c-0.2,0.2-0.44,0.3-0.72,0.3h-29.1c-0.56,0-1-0.44-1-1s0.44-1,1-1
				h28.7l12.62-12.62C378.54,209.66,378.8,209.56,379.06,209.56z"/>
			<path class="st1" d="M383.36,218.52H400v2h-16.22L371.5,232.8c-0.18,0.18-0.44,0.28-0.7,0.28h-44.78c-0.56,0-1-0.44-1-1
				c0-0.54,0.44-1,1-1h44.36l12.28-12.26C382.84,218.62,383.1,218.52,383.36,218.52z"/>
			<path class="st1" d="M386.98,226.26H400v2h-12.6l-12.8,12.8c-0.18,0.2-0.44,0.3-0.7,0.3h-20.08l-5.14,5.12
				c-0.18,0.2-0.44,0.3-0.7,0.3H334.8c-0.56,0-1-0.44-1-1c0-0.56,0.44-1,1-1h12.76l5.14-5.14c0.18-0.18,0.44-0.28,0.7-0.28h20.08
				l12.8-12.8C386.46,226.38,386.72,226.26,386.98,226.26z"/>
			<path class="st2" d="M325.74,198.66c-0.48-2.92-3.04-5.16-6.1-5.16c-3.4,0-6.16,2.78-6.16,6.16c0,3.4,2.76,6.18,6.16,6.18
				c3.06,0,5.62-2.24,6.1-5.18c0.06-0.32,0.08-0.66,0.08-1C325.82,199.32,325.8,198.98,325.74,198.66z M319.64,203.84
				c-2.28,0-4.16-1.88-4.16-4.18c0-2.28,1.88-4.16,4.16-4.16c2.3,0,4.18,1.88,4.18,4.16C323.82,201.96,321.94,203.84,319.64,203.84z
				"/>
			<path class="st2" d="M331.94,213.96c-0.48-2.92-3.04-5.16-6.1-5.16c-3.4,0-6.16,2.76-6.16,6.16s2.76,6.16,6.16,6.16
				c3.06,0,5.62-2.24,6.1-5.16c0.06-0.32,0.08-0.66,0.08-1C332.02,214.62,332,214.28,331.94,213.96z M325.84,219.12
				c-2.28,0-4.16-1.88-4.16-4.16c0-2.3,1.88-4.16,4.16-4.16c2.3,0,4.18,1.86,4.18,4.16C330.02,217.24,328.14,219.12,325.84,219.12z"
				/>
			<path class="st2" d="M326.94,231.08c-0.48-2.92-3.02-5.16-6.08-5.16c-3.4,0-6.16,2.78-6.16,6.16c0,3.4,2.76,6.18,6.16,6.18
				c3.06,0,5.6-2.24,6.08-5.18c0.06-0.32,0.08-0.66,0.08-1C327.02,231.74,327,231.4,326.94,231.08z M320.86,236.26
				c-2.3,0-4.16-1.88-4.16-4.18c0-2.28,1.86-4.16,4.16-4.16c2.28,0,4.16,1.88,4.16,4.16C325.02,234.38,323.14,236.26,320.86,236.26z
				"/>
			<path class="st2" d="M335.72,244.78c-0.48-2.92-3.02-5.16-6.08-5.16c-3.4,0-6.16,2.76-6.16,6.16c0,3.4,2.76,6.16,6.16,6.16
				c3.06,0,5.6-2.24,6.08-5.16c0.06-0.32,0.08-0.66,0.08-1C335.8,245.44,335.78,245.1,335.72,244.78z M329.64,249.94
				c-2.3,0-4.16-1.86-4.16-4.16c0-2.3,1.86-4.16,4.16-4.16c2.3,0,4.16,1.86,4.16,4.16C333.8,248.08,331.94,249.94,329.64,249.94z"/>
		</g>
		<path class="st1" d="M212.42,366.36c-0.55,0-1-0.45-1-1v-51.14l-12.88-12.88c-0.19-0.19-0.29-0.44-0.29-0.71v-16.62
			c0-0.27,0.11-0.52,0.29-0.71l7.93-7.93v-8.07c0-0.55,0.45-1,1-1s1,0.45,1,1v8.48c0,0.27-0.11,0.52-0.29,0.71l-7.93,7.93v15.79
			l12.88,12.88c0.19,0.19,0.29,0.44,0.29,0.71v51.56C213.42,365.91,212.98,366.36,212.42,366.36z"/>
		<path class="st1" d="M203.98,366.36c-0.55,0-1-0.45-1-1V316.8l-11.5-11.5c-0.19-0.19-0.29-0.44-0.29-0.71V273.5c0-0.55,0.45-1,1-1
			s1,0.45,1,1v30.67l11.5,11.5c0.19,0.19,0.29,0.44,0.29,0.71v48.97C204.98,365.91,204.54,366.36,203.98,366.36z"/>
		<path class="st1" d="M196.58,366.36c-0.55,0-1-0.45-1-1v-43.39l-12.62-12.62c-0.19-0.19-0.29-0.44-0.29-0.71v-29.11
			c0-0.55,0.45-1,1-1s1,0.45,1,1v28.69l12.62,12.62c0.19,0.19,0.29,0.44,0.29,0.71v43.81C197.58,365.91,197.13,366.36,196.58,366.36
			z"/>
		<path class="st1" d="M187.62,366.36c-0.55,0-1-0.45-1-1v-39.09l-12.28-12.28c-0.19-0.19-0.29-0.44-0.29-0.71v-44.78
			c0-0.55,0.45-1,1-1s1,0.45,1,1v44.36l12.28,12.28c0.19,0.19,0.29,0.44,0.29,0.71v39.5C188.62,365.91,188.18,366.36,187.62,366.36z
			"/>
		<path class="st1" d="M179.87,366.36c-0.55,0-1-0.45-1-1v-35.47l-12.8-12.8c-0.19-0.19-0.29-0.44-0.29-0.71V296.3l-5.13-5.13
			c-0.19-0.19-0.29-0.44-0.29-0.71v-13.17c0-0.55,0.45-1,1-1s1,0.45,1,1v12.76l5.13,5.13c0.19,0.19,0.29,0.44,0.29,0.71v20.08
			l12.8,12.8c0.19,0.19,0.29,0.44,0.29,0.71v35.88C180.87,365.91,180.43,366.36,179.87,366.36z"/>
		<path class="st2" d="M207.48,255.98c-3.4,0-6.18,2.76-6.18,6.16c0,3.06,2.24,5.6,5.18,6.08c0.32,0.06,0.66,0.08,1,0.08
			c0.34,0,0.68-0.02,1-0.08c2.92-0.48,5.16-3.02,5.16-6.08C213.64,258.74,210.88,255.98,207.48,255.98z M207.48,266.3
			c-2.3,0-4.18-1.86-4.18-4.16s1.88-4.16,4.18-4.16c2.28,0,4.16,1.86,4.16,4.16S209.76,266.3,207.48,266.3z"/>
		<path class="st2" d="M192.18,262.18c-3.4,0-6.16,2.76-6.16,6.16c0,3.06,2.24,5.6,5.16,6.08c0.32,0.06,0.66,0.08,1,0.08
			s0.68-0.02,1-0.08c2.94-0.48,5.18-3.02,5.18-6.08C198.36,264.94,195.58,262.18,192.18,262.18z M192.18,272.5
			c-2.28,0-4.16-1.86-4.16-4.16c0-2.3,1.88-4.16,4.16-4.16c2.3,0,4.18,1.86,4.18,4.16C196.36,270.64,194.48,272.5,192.18,272.5z"/>
		<path class="st2" d="M175.06,257.18c-3.4,0-6.18,2.76-6.18,6.16c0,3.06,2.24,5.6,5.18,6.08c0.32,0.06,0.66,0.08,1,0.08
			s0.68-0.02,1-0.08c2.92-0.48,5.16-3.02,5.16-6.08C181.22,259.94,178.44,257.18,175.06,257.18z M175.06,267.5
			c-2.3,0-4.18-1.86-4.18-4.16c0-2.3,1.88-4.16,4.18-4.16c2.28,0,4.16,1.86,4.16,4.16C179.22,265.64,177.34,267.5,175.06,267.5z"/>
		<path class="st2" d="M161.36,265.96c-3.4,0-6.16,2.76-6.16,6.16c0,3.06,2.24,5.6,5.16,6.08c0.32,0.06,0.66,0.08,1,0.08
			c0.34,0,0.68-0.02,1-0.08c2.92-0.48,5.16-3.02,5.16-6.08C167.52,268.72,164.76,265.96,161.36,265.96z M161.36,276.28
			c-2.3,0-4.16-1.86-4.16-4.16c0-2.3,1.86-4.16,4.16-4.16c2.3,0,4.16,1.86,4.16,4.16C165.52,274.42,163.66,276.28,161.36,276.28z"/>
		<g>
			<g>
				<g>
					<path class="st1" d="M119.05,389.95h-13.18c-0.55,0-1-0.45-1-1s0.45-1,1-1h12.76l5.13-5.13c0.19-0.19,0.44-0.29,0.71-0.29
						h20.08l12.8-12.8c0.19-0.19,0.44-0.29,0.71-0.29h18.89c0.55,0,1,0.45,1,1s-0.45,1-1,1h-18.47l-12.8,12.8
						c-0.19,0.19-0.44,0.29-0.71,0.29h-20.08l-5.13,5.13C119.57,389.84,119.31,389.95,119.05,389.95z"/>
				</g>
			</g>
		</g>
		<g>
			<path class="st2" d="M106.8,387.94c-0.48-2.92-3.04-5.16-6.08-5.16c-3.4,0-6.18,2.76-6.18,6.16c0,3.4,2.78,6.18,6.18,6.18
				c3.04,0,5.6-2.24,6.08-5.18c0.06-0.32,0.08-0.66,0.08-1S106.86,388.26,106.8,387.94z M100.72,393.12c-2.3,0-4.18-1.88-4.18-4.18
				c0-2.28,1.88-4.16,4.18-4.16c2.28,0,4.16,1.88,4.16,4.16C104.88,391.24,103,393.12,100.72,393.12z"/>
		</g>
		<path class="st1" d="M225.39,371.43h-8.05c-0.55,0-1-0.45-1-1s0.45-1,1-1h8.05c0.55,0,1,0.45,1,1S225.94,371.43,225.39,371.43z"/>
		<path class="st1" d="M225.39,383.14h-8.05c-0.55,0-1-0.45-1-1s0.45-1,1-1h8.05c0.55,0,1,0.45,1,1S225.94,383.14,225.39,383.14z"/>
		<path class="st1" d="M225.39,394.85h-8.05c-0.55,0-1-0.45-1-1s0.45-1,1-1h8.05c0.55,0,1,0.45,1,1S225.94,394.85,225.39,394.85z"/>
		<path class="st1" d="M176.94,383.14h-8.05c-0.55,0-1-0.45-1-1s0.45-1,1-1h8.05c0.55,0,1,0.45,1,1S177.5,383.14,176.94,383.14z"/>
		<path class="st1" d="M176.94,394.85h-8.05c-0.55,0-1-0.45-1-1s0.45-1,1-1h8.05c0.55,0,1,0.45,1,1S177.5,394.85,176.94,394.85z"/>
		<g>
			<path class="st1" d="M133.17,18.35h-22.09c-0.55,0-1-0.45-1-1s0.45-1,1-1h21.67l11.5-11.5c0.19-0.19,0.44-0.29,0.71-0.29h31.98
				c0.55,0,1,0.45,1,1s-0.45,1-1,1h-31.56l-11.5,11.5C133.69,18.25,133.44,18.35,133.17,18.35z"/>
		</g>
		<g>
			<path class="st2" d="M112,16.36c-0.48-2.94-3.02-5.18-6.08-5.18c-3.4,0-6.16,2.78-6.16,6.18c0,3.4,2.76,6.16,6.16,6.16
				c3.06,0,5.6-2.24,6.08-5.16c0.06-0.32,0.08-0.66,0.08-1C112.08,17.02,112.06,16.68,112,16.36z M105.92,21.52
				c-2.3,0-4.16-1.88-4.16-4.16c0-2.3,1.86-4.18,4.16-4.18s4.16,1.88,4.16,4.18C110.08,19.64,108.22,21.52,105.92,21.52z"/>
		</g>
		<g>
			<g>
				<g>
					<path class="st1" d="M141.87,54.25h-25.78c-0.55,0-1-0.45-1-1s0.45-1,1-1h25.36l12.28-12.28c0.19-0.19,0.44-0.29,0.71-0.29
						h22.5c0.55,0,1,0.45,1,1s-0.45,1-1,1h-22.09l-12.28,12.28C142.39,54.14,142.13,54.25,141.87,54.25z"/>
				</g>
			</g>
		</g>
		<g>
			<path class="st2" d="M117.02,52.24c-0.48-2.92-3.04-5.16-6.1-5.16c-3.4,0-6.16,2.78-6.16,6.16c0,3.4,2.76,6.18,6.16,6.18
				c3.06,0,5.62-2.24,6.1-5.18c0.06-0.32,0.08-0.66,0.08-1C117.1,52.9,117.08,52.56,117.02,52.24z M110.92,57.42
				c-2.28,0-4.16-1.88-4.16-4.18c0-2.28,1.88-4.16,4.16-4.16c2.3,0,4.18,1.88,4.18,4.16C115.1,55.54,113.22,57.42,110.92,57.42z"/>
		</g>
		<path class="st1" d="M181.65,55.29c-0.55,0-1-0.45-1-1v-8.54c0-0.55,0.45-1,1-1s1,0.45,1,1v8.54
			C182.65,54.85,182.2,55.29,181.65,55.29z"/>
		<path class="st1" d="M191.98,55.29c-0.55,0-1-0.45-1-1v-8.54c0-0.55,0.45-1,1-1s1,0.45,1,1v8.54
			C192.98,54.85,192.53,55.29,191.98,55.29z"/>
		<path class="st1" d="M202.31,55.29c-0.55,0-1-0.45-1-1v-8.54c0-0.55,0.45-1,1-1s1,0.45,1,1v8.54
			C203.31,54.85,202.86,55.29,202.31,55.29z"/>
		<path class="st1" d="M212.64,55.29c-0.55,0-1-0.45-1-1v-8.54c0-0.55,0.45-1,1-1s1,0.45,1,1v8.54
			C213.64,54.85,213.19,55.29,212.64,55.29z"/>
		<path class="st1" d="M225.39,18.26h-8.05c-0.55,0-1-0.45-1-1s0.45-1,1-1h8.05c0.55,0,1,0.45,1,1S225.94,18.26,225.39,18.26z"/>
		<path class="st1" d="M225.39,29.97h-8.05c-0.55,0-1-0.45-1-1s0.45-1,1-1h8.05c0.55,0,1,0.45,1,1S225.94,29.97,225.39,29.97z"/>
		<path class="st1" d="M225.39,41.68h-8.05c-0.55,0-1-0.45-1-1s0.45-1,1-1h8.05c0.55,0,1,0.45,1,1S225.94,41.68,225.39,41.68z"/>
		<path class="st1" d="M225.39,6.56h-8.05c-0.55,0-1-0.45-1-1s0.45-1,1-1h8.05c0.55,0,1,0.45,1,1S225.94,6.56,225.39,6.56z"/>
		<path class="st1" d="M176.94,18.26h-8.05c-0.55,0-1-0.45-1-1s0.45-1,1-1h8.05c0.55,0,1,0.45,1,1S177.5,18.26,176.94,18.26z"/>
		<path class="st1" d="M176.94,29.97h-8.05c-0.55,0-1-0.45-1-1s0.45-1,1-1h8.05c0.55,0,1,0.45,1,1S177.5,29.97,176.94,29.97z"/>
		<path class="st2" d="M217.34,364.36h-40.4c-0.54,0-1,0.44-1,1V400h2v-33.64h38.4V400h2v-34.64
			C218.34,364.8,217.9,364.36,217.34,364.36z"/>
		<path class="st2" d="M216.34,0v44.76h-38.4V0h-2v45.76c0,0.54,0.46,1,1,1h40.4c0.56,0,1-0.46,1-1V0H216.34z"/>
		<g>
			<g>
				<g>
					<g>
						<g>
							<path class="st1" d="M84.75,252.77h-9.08c-0.55,0-1-0.45-1-1s0.45-1,1-1h9.08c0.55,0,1,0.45,1,1S85.3,252.77,84.75,252.77z"
								/>
						</g>
					</g>
					<g>
						<g>
							<path class="st1" d="M84.75,263.28h-9.08c-0.55,0-1-0.45-1-1s0.45-1,1-1h9.08c0.55,0,1,0.45,1,1S85.3,263.28,84.75,263.28z"
								/>
						</g>
					</g>
					<g>
						<g>
							<path class="st1" d="M84.75,273.79h-9.08c-0.55,0-1-0.45-1-1s0.45-1,1-1h9.08c0.55,0,1,0.45,1,1S85.3,273.79,84.75,273.79z"
								/>
						</g>
					</g>
					<g>
						<g>
							<path class="st1" d="M84.75,284.31h-9.08c-0.55,0-1-0.45-1-1s0.45-1,1-1h9.08c0.55,0,1,0.45,1,1S85.3,284.31,84.75,284.31z"
								/>
						</g>
					</g>
				</g>
				<g>
					<g>
						<g>
							<path class="st1" d="M120.11,248.95c-0.55,0-1-0.45-1-1v-9.08c0-0.55,0.45-1,1-1s1,0.45,1,1v9.08
								C121.11,248.5,120.66,248.95,120.11,248.95z"/>
						</g>
					</g>
					<g>
						<g>
							<path class="st1" d="M109.59,248.95c-0.55,0-1-0.45-1-1v-9.08c0-0.55,0.45-1,1-1s1,0.45,1,1v9.08
								C110.59,248.5,110.15,248.95,109.59,248.95z"/>
						</g>
					</g>
					<g>
						<g>
							<path class="st1" d="M99.08,248.95c-0.55,0-1-0.45-1-1v-9.08c0-0.55,0.45-1,1-1s1,0.45,1,1v9.08
								C100.08,248.5,99.63,248.95,99.08,248.95z"/>
						</g>
					</g>
					<g>
						<g>
							<path class="st1" d="M88.56,248.95c-0.55,0-1-0.45-1-1v-9.08c0-0.55,0.45-1,1-1s1,0.45,1,1v9.08
								C89.56,248.5,89.12,248.95,88.56,248.95z"/>
						</g>
					</g>
				</g>
				<g>
					<g>
						<g>
							<path class="st1" d="M133,284.31h-9.08c-0.55,0-1-0.45-1-1s0.45-1,1-1H133c0.55,0,1,0.45,1,1S133.55,284.31,133,284.31z"/>
						</g>
					</g>
					<g>
						<g>
							<path class="st1" d="M133,273.79h-9.08c-0.55,0-1-0.45-1-1s0.45-1,1-1H133c0.55,0,1,0.45,1,1S133.55,273.79,133,273.79z"/>
						</g>
					</g>
					<g>
						<g>
							<path class="st1" d="M133,263.28h-9.08c-0.55,0-1-0.45-1-1s0.45-1,1-1H133c0.55,0,1,0.45,1,1S133.55,263.28,133,263.28z"/>
						</g>
					</g>
					<g>
						<g>
							<path class="st1" d="M133,252.77h-9.08c-0.55,0-1-0.45-1-1s0.45-1,1-1H133c0.55,0,1,0.45,1,1S133.55,252.77,133,252.77z"/>
						</g>
					</g>
				</g>
				<g>
					<g>
						<g>
							<path class="st1" d="M78.24,331.63c-0.55,0-1-0.45-1-1v-17.18c0-0.27,0.11-0.52,0.29-0.71l10.03-10.03v-15.59
								c0-0.55,0.45-1,1-1s1,0.45,1,1v16.01c0,0.27-0.11,0.52-0.29,0.71l-10.03,10.03v16.76C79.24,331.18,78.79,331.63,78.24,331.63
								z"/>
						</g>
					</g>
					<g>
						<g>
							<path class="st1" d="M92.3,352.39c-0.55,0-1-0.45-1-1v-38.02c0-0.27,0.11-0.52,0.29-0.71l6.49-6.49v-19.06c0-0.55,0.45-1,1-1
								s1,0.45,1,1v19.48c0,0.27-0.11,0.52-0.29,0.71l-6.49,6.49v37.6C93.3,351.95,92.85,352.39,92.3,352.39z"/>
						</g>
					</g>
					<g>
						<g>
							<path class="st1" d="M101.53,334.94c-0.55,0-1-0.45-1-1V317.7c0-0.27,0.11-0.52,0.29-0.71l7.77-7.77v-22.1c0-0.55,0.45-1,1-1
								s1,0.45,1,1v22.52c0,0.27-0.11,0.52-0.29,0.71l-7.77,7.77v15.83C102.53,334.49,102.09,334.94,101.53,334.94z"/>
						</g>
					</g>
					<g>
						<g>
							<path class="st1" d="M119.32,350.27c-0.55,0-1-0.45-1-1v-7.97l-5.91-5.91c-0.19-0.19-0.29-0.44-0.29-0.71v-17.17
								c0-0.27,0.11-0.52,0.29-0.71l6.69-6.69v-22.99c0-0.55,0.45-1,1-1s1,0.45,1,1v23.41c0,0.27-0.11,0.52-0.29,0.71l-6.69,6.69
								v16.34l5.91,5.91c0.19,0.19,0.29,0.44,0.29,0.71v8.38C120.32,349.82,119.88,350.27,119.32,350.27z"/>
						</g>
					</g>
				</g>
				<g>
					<g>
						<g>
							<path class="st2" d="M79.24,329.7c-0.32-0.06-0.66-0.08-1-0.08c-0.34,0-0.68,0.02-1,0.08c-3.52,0.48-6.24,3.52-6.24,7.16
								c0,4,3.24,7.24,7.24,7.24s7.24-3.24,7.24-7.24C85.48,333.22,82.76,330.18,79.24,329.7z M78.24,342.1
								c-2.88,0-5.24-2.34-5.24-5.24c0-2.88,2.36-5.24,5.24-5.24s5.24,2.36,5.24,5.24C83.48,339.76,81.12,342.1,78.24,342.1z"/>
						</g>
					</g>
				</g>
				<g>
					<g>
						<g>
							<path class="st2" d="M93.3,350.48c-0.32-0.06-0.66-0.08-1-0.08s-0.68,0.02-1,0.08c-3.52,0.48-6.24,3.5-6.24,7.16
								c0,3.98,3.24,7.22,7.24,7.22c3.98,0,7.24-3.24,7.24-7.22C99.54,353.98,96.82,350.96,93.3,350.48z M92.3,362.86
								c-2.88,0-5.24-2.34-5.24-5.22c0-2.9,2.36-5.24,5.24-5.24s5.24,2.34,5.24,5.24C97.54,360.52,95.18,362.86,92.3,362.86z"/>
						</g>
					</g>
				</g>
				<g>
					<g>
						<g>
							<path class="st2" d="M120.32,348.34c-0.32-0.06-0.66-0.08-1-0.08c-0.34,0-0.68,0.02-1,0.08c-3.52,0.48-6.24,3.52-6.24,7.16
								c0,4,3.26,7.24,7.24,7.24c4,0,7.24-3.24,7.24-7.24C126.56,351.86,123.84,348.82,120.32,348.34z M119.32,360.74
								c-2.88,0-5.24-2.34-5.24-5.24c0-2.88,2.36-5.24,5.24-5.24c2.9,0,5.24,2.36,5.24,5.24
								C124.56,358.4,122.22,360.74,119.32,360.74z"/>
						</g>
					</g>
				</g>
				<g>
					<g>
						<g>
							<g>
								<path class="st2" d="M123.92,246.94H84.74c-0.54,0-1,0.46-1,1v39.18c0,0.56,0.46,1,1,1h39.18c0.56,0,1-0.44,1-1v-39.18
									C124.92,247.4,124.48,246.94,123.92,246.94z M122.92,286.12H85.74v-37.18h37.18V286.12z"/>
							</g>
						</g>
					</g>
				</g>
			</g>
		</g>
		<g>
			<g>
				<g>
					<g>
						<g>
							<path class="st1" d="M235.44,177.15c-0.55,0-1-0.45-1-1V163.5c0-0.55,0.45-1,1-1s1,0.45,1,1v12.64
								C236.44,176.7,235.99,177.15,235.44,177.15z"/>
						</g>
					</g>
					<g>
						<g>
							<path class="st1" d="M245.01,177.15c-0.55,0-1-0.45-1-1V163.5c0-0.55,0.45-1,1-1s1,0.45,1,1v12.64
								C246.01,176.7,245.56,177.15,245.01,177.15z"/>
						</g>
					</g>
					<g>
						<g>
							<path class="st1" d="M254.58,177.15c-0.55,0-1-0.45-1-1V163.5c0-0.55,0.45-1,1-1s1,0.45,1,1v12.64
								C255.58,176.7,255.13,177.15,254.58,177.15z"/>
						</g>
					</g>
					<g>
						<g>
							<path class="st1" d="M264.14,177.15c-0.55,0-1-0.45-1-1V163.5c0-0.55,0.45-1,1-1s1,0.45,1,1v12.64
								C265.14,176.7,264.69,177.15,264.14,177.15z"/>
						</g>
					</g>
					<g>
						<g>
							<g>
								<path class="st1" d="M273.71,177.15c-0.55,0-1-0.45-1-1V163.5c0-0.55,0.45-1,1-1s1,0.45,1,1v12.64
									C274.71,176.7,274.26,177.15,273.71,177.15z"/>
							</g>
						</g>
					</g>
				</g>
				<g>
					<g>
						<g>
							<path class="st1" d="M326.28,173.35H307.8c-0.27,0-0.52-0.11-0.71-0.29l-13.14-13.13h-16.89c-0.55,0-1-0.45-1-1s0.45-1,1-1
								h17.3c0.27,0,0.52,0.11,0.71,0.29l13.14,13.13h18.06c0.55,0,1,0.45,1,1S326.83,173.35,326.28,173.35z"/>
						</g>
					</g>
					<g>
						<g>
							<path class="st1" d="M337.18,159.56h-29.64c-0.27,0-0.52-0.11-0.71-0.29l-8.36-8.36h-21.4c-0.55,0-1-0.45-1-1s0.45-1,1-1
								h21.81c0.27,0,0.52,0.11,0.71,0.29l8.36,8.36h29.23c0.55,0,1,0.45,1,1S337.73,159.56,337.18,159.56z"/>
						</g>
					</g>
					<g>
						<g>
							<path class="st1" d="M293.47,141.89h-16.4c-0.55,0-1-0.45-1-1s0.45-1,1-1h15.99l21.52-21.52c0.19-0.19,0.44-0.29,0.71-0.29
								h22.43c0.55,0,1,0.45,1,1s-0.45,1-1,1H315.7l-21.52,21.52C293.99,141.79,293.74,141.89,293.47,141.89z"/>
						</g>
					</g>
					<g>
						<g>
							<path class="st1" d="M285.18,123.87h-8.11c-0.55,0-1-0.45-1-1s0.45-1,1-1h7.7l22.24-22.24c0.19-0.19,0.44-0.29,0.71-0.29
								h18.03c0.55,0,1,0.45,1,1s-0.45,1-1,1h-17.61l-22.24,22.24C285.7,123.76,285.45,123.87,285.18,123.87z"/>
						</g>
					</g>
					<g>
						<g>
							<path class="st1" d="M288.4,132.95h-11.33c-0.55,0-1-0.45-1-1s0.45-1,1-1h11.33c0.55,0,1,0.45,1,1
								S288.95,132.95,288.4,132.95z"/>
						</g>
					</g>
					<g>
						<g>
							<g>
								<path class="st1" d="M294.38,159.92h-17.3c-0.55,0-1-0.45-1-1s0.45-1,1-1h17.3c0.55,0,1,0.45,1,1
									S294.93,159.92,294.38,159.92z"/>
							</g>
						</g>
					</g>
					<g>
						<g>
							<path class="st1" d="M285.18,123.87h-8.11c-0.55,0-1-0.45-1-1s0.45-1,1-1h8.11c0.55,0,1,0.45,1,1
								S285.74,123.87,285.18,123.87z"/>
						</g>
					</g>
					<g>
						<g>
							<path class="st1" d="M288.4,132.88h-11.33c-0.55,0-1-0.45-1-1s0.45-1,1-1h11.33c0.55,0,1,0.45,1,1
								S288.95,132.88,288.4,132.88z"/>
						</g>
					</g>
				</g>
				<g>
					<g>
						<g>
							<path class="st1" d="M232.08,160.32H220.4c-0.55,0-1-0.45-1-1s0.45-1,1-1h11.68c0.55,0,1,0.45,1,1
								S232.63,160.32,232.08,160.32z"/>
						</g>
					</g>
					<g>
						<g>
							<path class="st1" d="M232.08,151.16h-9.38c-0.55,0-1-0.45-1-1s0.45-1,1-1h9.38c0.55,0,1,0.45,1,1
								S232.63,151.16,232.08,151.16z"/>
						</g>
					</g>
					<g>
						<g>
							<path class="st1" d="M232.08,141.99H202.3c-0.55,0-1-0.45-1-1s0.45-1,1-1h29.78c0.55,0,1,0.45,1,1
								S232.63,141.99,232.08,141.99z"/>
						</g>
					</g>
					<g>
						<g>
							<path class="st1" d="M232.08,123.65h-9.38c-0.27,0-0.52-0.11-0.71-0.29l-8.48-8.48H201.4c-0.55,0-1-0.45-1-1s0.45-1,1-1
								h12.52c0.27,0,0.52,0.11,0.71,0.29l8.48,8.48h8.97c0.55,0,1,0.45,1,1S232.63,123.65,232.08,123.65z"/>
						</g>
					</g>
					<g>
						<g>
							<path class="st1" d="M232.08,132.82h-18.89c-0.55,0-1-0.45-1-1s0.45-1,1-1h18.89c0.55,0,1,0.45,1,1
								S232.63,132.82,232.08,132.82z"/>
						</g>
					</g>
				</g>
				<g>
					<g>
						<path class="st1" d="M236.03,119.47c-0.55,0-1-0.45-1-1v-8.44l-7.94-7.94h-43.82c-0.55,0-1-0.45-1-1s0.45-1,1-1h44.24
							c0.27,0,0.52,0.11,0.71,0.29l8.52,8.52c0.19,0.19,0.29,0.44,0.29,0.71v8.85C237.03,119.03,236.58,119.47,236.03,119.47z"/>
					</g>
				</g>
				<g>
					<g>
						<path class="st1" d="M245.45,118.63c-0.55,0-1-0.45-1-1v-12.56c0-0.55,0.45-1,1-1s1,0.45,1,1v12.56
							C246.45,118.19,246,118.63,245.45,118.63z"/>
					</g>
				</g>
				<g>
					<g>
						<path class="st1" d="M254.87,118.63c-0.55,0-1-0.45-1-1v-12.56c0-0.55,0.45-1,1-1s1,0.45,1,1v12.56
							C255.87,118.19,255.42,118.63,254.87,118.63z"/>
					</g>
				</g>
				<g>
					<g>
						<path class="st1" d="M264.29,118.63c-0.55,0-1-0.45-1-1v-12.56c0-0.55,0.45-1,1-1s1,0.45,1,1v12.56
							C265.29,118.19,264.84,118.63,264.29,118.63z"/>
					</g>
				</g>
				<g>
					<g>
						<path class="st1" d="M273.71,118.63c-0.55,0-1-0.45-1-1v-12.56c0-0.55,0.45-1,1-1s1,0.45,1,1v12.56
							C274.71,118.19,274.26,118.63,273.71,118.63z"/>
					</g>
				</g>
				<g>
					<g>
						<g>
							<path class="st2" d="M277.08,117.48h-45c-0.56,0-1,0.44-1,1v45.02c0,0.56,0.44,1,1,1h45c0.54,0,1-0.44,1-1v-45.02
								C278.08,117.92,277.62,117.48,277.08,117.48z M276.08,162.5h-43v-43.02h43V162.5z"/>
						</g>
					</g>
				</g>
				<g>
					<g>
						<g>
							<path class="st2" d="M329.86,95.22c-2.48,0-4.54,1.78-5.02,4.12c-0.06,0.32-0.1,0.66-0.1,1c0,0.34,0.04,0.68,0.1,1
								c0.48,2.34,2.54,4.1,5.02,4.1c2.8,0,5.1-2.28,5.1-5.1C334.96,97.52,332.66,95.22,329.86,95.22z M329.86,103.44
								c-1.72,0-3.12-1.38-3.12-3.1c0-1.72,1.4-3.12,3.12-3.12c1.7,0,3.1,1.4,3.1,3.12C332.96,102.06,331.56,103.44,329.86,103.44z"
								/>
						</g>
					</g>
				</g>
				<g>
					<g>
						<g>
							<path class="st2" d="M184.18,100.1c-0.48-2.34-2.54-4.12-5.02-4.12c-2.82,0-5.1,2.3-5.1,5.12c0,2.82,2.28,5.12,5.1,5.12
								c2.48,0,4.54-1.78,5.02-4.12c0.06-0.32,0.1-0.66,0.1-1S184.24,100.42,184.18,100.1z M179.16,104.22c-1.72,0-3.1-1.4-3.1-3.12
								c0-1.72,1.38-3.12,3.1-3.12s3.12,1.4,3.12,3.12C182.28,102.82,180.88,104.22,179.16,104.22z"/>
						</g>
					</g>
				</g>
				<g>
					<g>
						<g>
							<path class="st2" d="M202.3,112.88c-0.46-2.34-2.54-4.1-5.02-4.1c-2.8,0-5.1,2.28-5.1,5.1c0,2.82,2.3,5.12,5.1,5.12
								c2.48,0,4.56-1.78,5.02-4.12c0.06-0.32,0.1-0.66,0.1-1C202.4,113.54,202.36,113.2,202.3,112.88z M197.28,117
								c-1.7,0-3.1-1.4-3.1-3.12c0-1.72,1.4-3.1,3.1-3.1c1.72,0,3.12,1.38,3.12,3.1C200.4,115.6,199,117,197.28,117z"/>
						</g>
					</g>
				</g>
				<g>
					<g>
						<g>
							<g>
								<path class="st2" d="M203.2,139.98c-0.48-2.32-2.54-4.1-5-4.1c-2.82,0-5.12,2.3-5.12,5.1c0,2.82,2.3,5.12,5.12,5.12
									c2.46,0,4.52-1.78,5-4.12c0.06-0.32,0.1-0.66,0.1-1S203.26,140.3,203.2,139.98z M198.2,144.1c-1.72,0-3.12-1.4-3.12-3.12
									c0-1.7,1.4-3.1,3.12-3.1c1.7,0,3.1,1.4,3.1,3.1C201.3,142.7,199.9,144.1,198.2,144.1z"/>
							</g>
						</g>
					</g>
				</g>
				<g>
					<g>
						<g>
							<path class="st2" d="M341.84,113.98c-2.48,0-4.56,1.76-5.02,4.1c-0.06,0.32-0.1,0.66-0.1,1c0,0.34,0.04,0.68,0.1,1
								c0.46,2.34,2.54,4.12,5.02,4.12c2.8,0,5.1-2.3,5.1-5.12S344.64,113.98,341.84,113.98z M341.84,122.2
								c-1.72,0-3.12-1.4-3.12-3.12s1.4-3.1,3.12-3.1c1.7,0,3.1,1.38,3.1,3.1S343.54,122.2,341.84,122.2z"/>
						</g>
					</g>
				</g>
				<g>
					<g>
						<g>
							<path class="st2" d="M341.28,153.44c-2.46,0-4.54,1.78-5,4.12c-0.06,0.32-0.1,0.66-0.1,1s0.04,0.68,0.1,1
								c0.46,2.34,2.54,4.1,5,4.1c2.82,0,5.12-2.28,5.12-5.1C346.4,155.74,344.1,153.44,341.28,153.44z M341.28,161.66
								c-1.7,0-3.1-1.38-3.1-3.1s1.4-3.12,3.1-3.12c1.72,0,3.12,1.4,3.12,3.12S343,161.66,341.28,161.66z"/>
						</g>
					</g>
				</g>
				<g>
					<g>
						<g>
							<path class="st2" d="M330.4,167.24c-2.48,0-4.54,1.78-5.02,4.1c-0.06,0.32-0.1,0.66-0.1,1c0,0.34,0.04,0.68,0.1,1
								c0.48,2.34,2.54,4.12,5.02,4.12c2.8,0,5.1-2.3,5.1-5.12C335.5,169.54,333.2,167.24,330.4,167.24z M330.4,175.46
								c-1.72,0-3.12-1.4-3.12-3.12c0-1.7,1.4-3.1,3.12-3.1c1.7,0,3.1,1.4,3.1,3.1C333.5,174.06,332.1,175.46,330.4,175.46z"/>
						</g>
					</g>
				</g>
			</g>
		</g>
		<g>
			<path class="st1" d="M188.66,159.76c-13.36,0-24.22,10.86-24.22,24.22c0,13.34,10.86,24.22,24.22,24.22
				c13.34,0,24.22-10.88,24.22-24.22C212.88,170.62,202,159.76,188.66,159.76z M188.66,206.2c-12.24,0-22.22-9.98-22.22-22.22
				c0-12.26,9.98-22.22,22.22-22.22c12.24,0,22.22,9.96,22.22,22.22C210.88,196.22,200.9,206.2,188.66,206.2z"/>
		</g>
		<g>
			<path class="st1" d="M188.66,172.44c-6.36,0-11.54,5.18-11.54,11.54c0,6.36,5.18,11.54,11.54,11.54
				c6.36,0,11.54-5.18,11.54-11.54C200.2,177.62,195.02,172.44,188.66,172.44z M188.66,193.52c-5.26,0-9.54-4.28-9.54-9.54
				s4.28-9.54,9.54-9.54c5.26,0,9.54,4.28,9.54,9.54S193.92,193.52,188.66,193.52z"/>
		</g>
		<g>
			<g>
				<path class="st1" d="M119.14,205.83c-0.55,0-1-0.45-1-1v-76.53l-25.85-25.85H82.24c-0.55,0-1-0.45-1-1s0.45-1,1-1H92.7
					c0.27,0,0.52,0.11,0.71,0.29l26.44,26.44c0.19,0.19,0.29,0.44,0.29,0.71v76.94C120.14,205.38,119.69,205.83,119.14,205.83z"/>
			</g>
			<g>
				<path class="st2" d="M120.14,203.88c-0.32-0.08-0.66-0.1-1-0.1s-0.68,0.02-1,0.1c-2.82,0.46-5,2.94-5,5.92c0,3.32,2.7,6,6,6
					c3.3,0,6-2.68,6-6C125.14,206.82,122.96,204.34,120.14,203.88z M119.14,213.8c-2.2,0-4-1.8-4-4c0-2.12,1.64-3.86,3.72-4h0.02
					c0.08-0.02,0.16-0.02,0.26-0.02c0.1,0,0.18,0,0.26,0.02h0.02c2.08,0.14,3.72,1.88,3.72,4C123.14,212,121.34,213.8,119.14,213.8z
					"/>
			</g>
			<g>
				<path class="st1" d="M178.57,244.41h-22.3c-0.27,0-0.52-0.11-0.71-0.29l-21.24-21.24c-0.19-0.19-0.29-0.44-0.29-0.71V119
					l-33.44-33.44h-7.26c-0.55,0-1-0.45-1-1s0.45-1,1-1h7.67c0.27,0,0.52,0.11,0.71,0.29l34.03,34.03c0.19,0.19,0.29,0.44,0.29,0.71
					v103.17l20.65,20.65h21.89c0.55,0,1,0.45,1,1S179.13,244.41,178.57,244.41z"/>
			</g>
			<g>
				<path class="st1" d="M174.25,235.87h-9.41c-0.27,0-0.52-0.11-0.71-0.29l-14.55-14.55c-0.19-0.19-0.29-0.44-0.29-0.71V112.76
					l-36.53-36.54c-0.39-0.39-0.39-1.02,0-1.41c0.39-0.39,1.02-0.39,1.41,0L151,111.64c0.19,0.19,0.29,0.44,0.29,0.71v107.57
					l13.96,13.96h8.58l4.8-4.8c0.19-0.19,0.44-0.29,0.71-0.29h28.13c0.55,0,1,0.45,1,1s-0.45,1-1,1h-27.71l-4.8,4.8
					C174.77,235.77,174.52,235.87,174.25,235.87z"/>
			</g>
			<g>
				<path class="st2" d="M183.66,237.54c-2.92,0-5.36,2.1-5.9,4.88c-0.06,0.38-0.1,0.76-0.1,1.14c0,0.3,0.02,0.58,0.08,0.86
					c0.4,2.9,2.92,5.14,5.92,5.14c3.3,0,6-2.7,6-6C189.66,240.24,186.96,237.54,183.66,237.54z M183.66,247.56c-2.2,0-4-1.8-4-4
					c0-2.22,1.8-4.02,4-4.02s4,1.8,4,4.02C187.66,245.76,185.86,247.56,183.66,247.56z"/>
			</g>
			<g>
				<path class="st2" d="M212.64,223.84c-2.94,0-5.38,2.14-5.9,4.94c-0.06,0.36-0.1,0.72-0.1,1.1c0,0.3,0.02,0.6,0.08,0.9
					c0.42,2.88,2.9,5.1,5.92,5.1c3.3,0,6-2.7,6-6C218.64,226.56,215.94,223.84,212.64,223.84z M212.64,233.88c-2.2,0-4-1.8-4-4
					c0-2.22,1.8-4.04,4-4.04c2.2,0,4,1.82,4,4.04C216.64,232.08,214.84,233.88,212.64,233.88z"/>
			</g>
			<g>
				<path class="st2" d="M83.14,100.46c-0.46-2.84-2.94-5.02-5.9-5.02c-3.3,0-6,2.7-6,6.02s2.7,6,6,6c2.96,0,5.44-2.16,5.9-5
					c0.08-0.32,0.1-0.66,0.1-1C83.24,101.12,83.22,100.78,83.14,100.46z M77.24,105.46c-2.2,0-4-1.78-4-4s1.8-4.02,4-4.02
					s4,1.8,4,4.02S79.44,105.46,77.24,105.46z"/>
			</g>
			<g>
				<path class="st2" d="M93.14,83.58c-0.46-2.84-2.94-5.02-5.9-5.02c-3.3,0-6,2.7-6,6.02c0,3.3,2.7,6,6,6
					c2.96,0,5.46-2.18,5.92-5.04c0.06-0.3,0.08-0.64,0.08-0.96C93.24,84.24,93.22,83.9,93.14,83.58z M87.24,88.58c-2.2,0-4-1.8-4-4
					c0-2.22,1.8-4.02,4-4.02s4,1.8,4,4.02C91.24,86.78,89.44,88.58,87.24,88.58z"/>
			</g>
			<g>
				<path class="st2" d="M109.88,66.08c-3.32,0-6,2.7-6,6.02c0,3.32,2.68,6,6,6c1.32,0,2.58-0.44,3.58-1.18
					c0.54-0.4,1-0.88,1.4-1.44c0.64-0.96,1.02-2.12,1.02-3.38C115.88,68.78,113.18,66.08,109.88,66.08z M105.88,72.1
					c0-2.22,1.8-4.02,4-4.02s4,1.8,4,4.02c0,1-0.36,1.9-0.96,2.6c-0.02,0-0.02,0.02-0.02,0.02c-0.1,0.1-0.18,0.2-0.3,0.32
					c-0.7,0.66-1.66,1.06-2.72,1.06C107.68,76.1,105.88,74.32,105.88,72.1z"/>
			</g>
		</g>
		<g>
			<g>
				<path class="st1" d="M348.2,57.05h-47.94c-0.27,0-0.52-0.11-0.71-0.29l-26.44-26.44c-0.19-0.19-0.29-0.44-0.29-0.71V19.15
					c0-0.55,0.45-1,1-1s1,0.45,1,1V29.2l25.85,25.85h47.53c0.55,0,1,0.45,1,1S348.76,57.05,348.2,57.05z"/>
			</g>
			<g>
				<path class="st1" d="M386.78,116.48c-0.55,0-1-0.45-1-1V93.59l-20.65-20.65h-74.17c-0.27,0-0.52-0.11-0.71-0.29l-34.03-34.03
					c-0.19-0.19-0.29-0.44-0.29-0.71v-7.67c0-0.55,0.45-1,1-1s1,0.45,1,1v7.26l33.44,33.44h74.17c0.27,0,0.52,0.11,0.71,0.29
					l21.24,21.24c0.19,0.19,0.29,0.44,0.29,0.71v22.3C387.78,116.03,387.33,116.48,386.78,116.48z"/>
			</g>
			<g>
				<path class="st1" d="M373.15,145.38c-0.55,0-1-0.45-1-1v-28.13c0-0.27,0.11-0.52,0.29-0.71l4.8-4.8v-8.58l-13.96-13.96h-78.57
					c-0.27,0-0.52-0.11-0.71-0.29l-36.83-36.83c-0.39-0.39-0.39-1.02,0-1.41c0.39-0.39,1.02-0.39,1.41,0l36.54,36.53h78.57
					c0.27,0,0.52,0.11,0.71,0.29l14.55,14.55c0.19,0.19,0.29,0.44,0.29,0.71v9.41c0,0.27-0.11,0.52-0.29,0.71l-4.8,4.8v27.71
					C374.15,144.94,373.7,145.38,373.15,145.38z"/>
			</g>
			<g>
				<path class="st2" d="M273.84,8.16c-3.32,0-6.02,2.68-6.02,6c0,2.96,2.16,5.42,5,5.88c0.34,0.08,0.68,0.1,1.02,0.1
					s0.66-0.02,0.98-0.1c2.84-0.46,5.02-2.92,5.02-5.88C279.84,10.84,277.14,8.16,273.84,8.16z M273.84,18.14h-0.02
					c-2.22-0.02-4-1.78-4-3.98c0-2.22,1.8-4,4.02-4c2.2,0,4,1.78,4,4C277.84,16.36,276.04,18.14,273.84,18.14z"/>
			</g>
			<g>
				<path class="st2" d="M256.94,18.14c-3.32,0-6.02,2.7-6.02,6c0,2.98,2.18,5.46,5.04,5.92c0.32,0.06,0.64,0.08,0.98,0.08
					c0.34,0,0.66-0.02,0.98-0.08c2.84-0.46,5.02-2.94,5.02-5.92C262.94,20.84,260.26,18.14,256.94,18.14z M256.94,28.14
					c-2.22,0-4.02-1.78-4.02-4c0-2.2,1.8-4,4.02-4c2.22,0,4,1.8,4,4C260.94,26.36,259.16,28.14,256.94,28.14z"/>
			</g>
			<g>
				<path class="st2" d="M244.48,40.78c-3.32,0-6.02,2.7-6.02,6c0,3.32,2.7,6,6.02,6c1.24,0,2.4-0.38,3.36-1.02h0.02
					c0.54-0.4,1.04-0.86,1.42-1.4c0.76-1,1.2-2.24,1.2-3.58C250.48,43.48,247.78,40.78,244.48,40.78z M240.46,46.78
					c0-2.2,1.8-4,4.02-4c2.2,0,4,1.8,4,4c0,1.1-0.44,2.1-1.18,2.82c-0.04,0-0.06,0.02-0.08,0.06c-0.02,0-0.02,0.02-0.02,0.02
					c0,0.02,0,0.02-0.02,0.02c-0.04,0.02-0.06,0.04-0.06,0.06c-0.7,0.64-1.62,1.02-2.64,1.02
					C242.26,50.78,240.46,48.98,240.46,46.78z"/>
			</g>
			<g>
				<path class="st2" d="M353.18,50.06c-2.98,0-5.48,2.16-5.94,5c-0.08,0.32-0.1,0.66-0.1,1s0.02,0.68,0.1,1
					c0.48,2.82,2.96,4.98,5.94,4.98c3.3,0,6-2.68,6-5.98C359.18,52.74,356.48,50.06,353.18,50.06z M353.18,60.04
					c-2.12,0-3.88-1.62-4.02-3.7v-0.02c-0.02-0.08-0.02-0.16-0.02-0.26s0-0.16,0.02-0.26v-0.02c0.14-2.08,1.9-3.72,4.02-3.72
					c2.2,0,4,1.78,4,4C357.18,58.26,355.38,60.04,353.18,60.04z"/>
			</g>
			<g>
				<path class="st2" d="M387.78,114.66c-0.28-0.06-0.56-0.08-0.84-0.08c-0.4,0-0.78,0.04-1.16,0.12c-2.78,0.52-4.88,2.96-4.88,5.88
					c0,3.3,2.7,5.98,6.04,5.98c3.3,0,5.98-2.68,5.98-5.98C392.92,117.54,390.68,115.04,387.78,114.66z M386.94,124.56
					c-2.22,0-4.04-1.78-4.04-3.98c0-2.22,1.82-4,4.04-4c2.2,0,3.98,1.78,3.98,4C390.92,122.78,389.14,124.56,386.94,124.56z"/>
			</g>
			<g>
				<path class="st2" d="M374.16,143.62c-0.3-0.06-0.6-0.08-0.92-0.08c-0.36,0-0.72,0.04-1.08,0.1c-2.8,0.5-4.94,2.96-4.94,5.9
					c0,3.32,2.7,6,6.02,6c3.32,0,6-2.68,6-6C379.24,146.54,377.04,144.06,374.16,143.62z M373.24,153.54c-2.22,0-4.02-1.8-4.02-4
					s1.8-4,4.02-4c2.22,0,4,1.8,4,4S375.46,153.54,373.24,153.54z"/>
			</g>
		</g>
		<g>
			<g>
				<g>
					<g>
						<g>
							<path class="st1" d="M244.31,321.42c-0.55,0-1-0.45-1-1v-9.61c0-0.55,0.45-1,1-1s1,0.45,1,1v9.61
								C245.31,320.97,244.87,321.42,244.31,321.42z"/>
						</g>
					</g>
					<g>
						<g>
							<path class="st1" d="M255.44,321.42c-0.55,0-1-0.45-1-1v-9.61c0-0.55,0.45-1,1-1s1,0.45,1,1v9.61
								C256.44,320.97,256,321.42,255.44,321.42z"/>
						</g>
					</g>
					<g>
						<g>
							<path class="st1" d="M266.58,321.42c-0.55,0-1-0.45-1-1v-9.61c0-0.55,0.45-1,1-1s1,0.45,1,1v9.61
								C267.58,320.97,267.13,321.42,266.58,321.42z"/>
						</g>
					</g>
					<g>
						<g>
							<path class="st1" d="M277.71,321.42c-0.55,0-1-0.45-1-1v-9.61c0-0.55,0.45-1,1-1s1,0.45,1,1v9.61
								C278.71,320.97,278.26,321.42,277.71,321.42z"/>
						</g>
					</g>
				</g>
			</g>
			<g>
				<g>
					<g>
						<g>
							<path class="st1" d="M240.27,274.38h-9.61c-0.55,0-1-0.45-1-1s0.45-1,1-1h9.61c0.55,0,1,0.45,1,1
								S240.83,274.38,240.27,274.38z"/>
						</g>
					</g>
					<g>
						<g>
							<path class="st1" d="M240.27,285.51h-9.61c-0.55,0-1-0.45-1-1s0.45-1,1-1h9.61c0.55,0,1,0.45,1,1
								S240.83,285.51,240.27,285.51z"/>
						</g>
					</g>
					<g>
						<g>
							<path class="st1" d="M240.27,296.64h-9.61c-0.55,0-1-0.45-1-1s0.45-1,1-1h9.61c0.55,0,1,0.45,1,1
								S240.83,296.64,240.27,296.64z"/>
						</g>
					</g>
					<g>
						<g>
							<path class="st1" d="M240.27,307.77h-9.61c-0.55,0-1-0.45-1-1s0.45-1,1-1h9.61c0.55,0,1,0.45,1,1
								S240.83,307.77,240.27,307.77z"/>
						</g>
					</g>
				</g>
			</g>
			<g>
				<g>
					<g>
						<g>
							<path class="st1" d="M277.71,270.34c-0.55,0-1-0.45-1-1v-9.61c0-0.23,0.08-0.45,0.22-0.63l11.44-14.25v-40.57
								c0-0.55,0.45-1,1-1s1,0.45,1,1v40.92c0,0.23-0.08,0.45-0.22,0.63l-11.44,14.25v9.26
								C278.71,269.89,278.26,270.34,277.71,270.34z"/>
						</g>
					</g>
					<g>
						<g>
							<path class="st1" d="M266.58,270.34c-0.55,0-1-0.45-1-1v-9.61c0-0.16,0.04-0.32,0.11-0.46l7.48-14.31v-15.2
								c0-0.55,0.45-1,1-1s1,0.45,1,1v15.45c0,0.16-0.04,0.32-0.11,0.46l-7.48,14.31v9.36
								C267.58,269.89,267.13,270.34,266.58,270.34z"/>
						</g>
					</g>
					<g>
						<g>
							<path class="st1" d="M255.44,270.34c-0.55,0-1-0.45-1-1v-9.61c0-0.55,0.45-1,1-1s1,0.45,1,1v9.61
								C256.44,269.89,256,270.34,255.44,270.34z"/>
						</g>
					</g>
					<g>
						<g>
							<path class="st1" d="M244.31,270.34c-0.55,0-1-0.45-1-1v-9.61c0-0.27,0.11-0.52,0.29-0.71l12.54-12.54v-20.47l-10.23-10.23
								c-0.19-0.19-0.29-0.44-0.29-0.71v-14.91c0-0.55,0.45-1,1-1s1,0.45,1,1v14.49l10.23,10.23c0.19,0.19,0.29,0.44,0.29,0.71v21.3
								c0,0.27-0.11,0.52-0.29,0.71l-12.54,12.54v9.19C245.31,269.89,244.87,270.34,244.31,270.34z"/>
						</g>
					</g>
				</g>
			</g>
			<g>
				<g>
					<g>
						<g>
							<path class="st1" d="M338.39,318.7h-18.19c-0.27,0-0.52-0.11-0.71-0.29l-10.64-10.64h-27.12c-0.55,0-1-0.45-1-1s0.45-1,1-1
								h27.53c0.27,0,0.52,0.11,0.71,0.29l10.64,10.64h17.77c0.55,0,1,0.45,1,1S338.95,318.7,338.39,318.7z"/>
						</g>
					</g>
					<g>
						<g>
							<path class="st1" d="M360.38,303.82h-40.25c-0.27,0-0.52-0.11-0.71-0.29l-6.89-6.89h-30.79c-0.55,0-1-0.45-1-1s0.45-1,1-1
								h31.21c0.27,0,0.52,0.11,0.71,0.29l6.89,6.89h39.83c0.55,0,1,0.45,1,1S360.93,303.82,360.38,303.82z"/>
						</g>
					</g>
					<g>
						<g>
							<path class="st1" d="M341.9,294.04H324.7c-0.27,0-0.52-0.11-0.71-0.29l-8.24-8.24h-34.01c-0.55,0-1-0.45-1-1s0.45-1,1-1
								h34.43c0.27,0,0.52,0.11,0.71,0.29l8.24,8.24h16.78c0.55,0,1,0.45,1,1S342.45,294.04,341.9,294.04z"/>
						</g>
					</g>
					<g>
						<g>
							<path class="st1" d="M342.69,281.77h-18.18c-0.27,0-0.52-0.11-0.71-0.29l-7.1-7.1h-34.95c-0.55,0-1-0.45-1-1s0.45-1,1-1
								h35.37c0.27,0,0.52,0.11,0.71,0.29l7.1,7.1h17.35l6.27-6.27c0.19-0.19,0.44-0.29,0.71-0.29h8.87c0.55,0,1,0.45,1,1
								s-0.45,1-1,1h-8.46l-6.27,6.27C343.21,281.67,342.95,281.77,342.69,281.77z"/>
						</g>
					</g>
				</g>
			</g>
			<g>
				<g>
					<g>
						<g>
							<path class="st2" d="M345,310.1c-3.86,0-7.04,2.88-7.52,6.6c-0.06,0.32-0.08,0.66-0.08,1c0,0.34,0.02,0.68,0.08,1
								c0.48,3.72,3.66,6.6,7.52,6.6c4.2,0,7.6-3.4,7.6-7.6C352.6,313.5,349.2,310.1,345,310.1z M345,323.3c-3.1,0-5.6-2.5-5.6-5.6
								c0-3.08,2.5-5.6,5.6-5.6c3.08,0,5.6,2.52,5.6,5.6C350.6,320.8,348.08,323.3,345,323.3z"/>
						</g>
					</g>
				</g>
			</g>
			<g>
				<g>
					<g>
						<g>
							<path class="st2" d="M366.98,295.22c-3.86,0-7.04,2.88-7.52,6.6c-0.06,0.32-0.08,0.66-0.08,1c0,0.34,0.02,0.68,0.08,1
								c0.48,3.72,3.66,6.6,7.52,6.6c4.2,0,7.6-3.4,7.6-7.6C374.58,298.62,371.18,295.22,366.98,295.22z M366.98,308.42
								c-3.08,0-5.6-2.5-5.6-5.6c0-3.1,2.52-5.6,5.6-5.6c3.1,0,5.6,2.5,5.6,5.6C372.58,305.92,370.08,308.42,366.98,308.42z"/>
						</g>
					</g>
				</g>
			</g>
			<g>
				<g>
					<g>
						<g>
							<path class="st2" d="M364.72,266.6c-3.84,0-7.04,2.88-7.52,6.6c-0.06,0.32-0.08,0.66-0.08,1c0,0.34,0.02,0.68,0.08,1
								c0.48,3.72,3.68,6.62,7.52,6.62c4.2,0,7.62-3.42,7.62-7.62C372.34,270.02,368.92,266.6,364.72,266.6z M364.72,279.82
								c-3.08,0-5.6-2.52-5.6-5.62c0-3.08,2.52-5.6,5.6-5.6c3.1,0,5.62,2.52,5.62,5.6C370.34,277.3,367.82,279.82,364.72,279.82z"/>
						</g>
					</g>
				</g>
			</g>
			<g>
				<g>
					<g>
						<g>
							<path class="st2" d="M289.38,189.92c-4.2,0-7.62,3.4-7.62,7.6c0,3.86,2.9,7.04,6.62,7.52c0.32,0.06,0.66,0.08,1,0.08
								s0.68-0.02,1-0.08c3.72-0.48,6.6-3.66,6.6-7.52C296.98,193.32,293.56,189.92,289.38,189.92z M289.38,203.12
								c-3.1,0-5.62-2.5-5.62-5.6c0-3.08,2.52-5.6,5.62-5.6c3.08,0,5.6,2.52,5.6,5.6C294.98,200.62,292.46,203.12,289.38,203.12z"/>
						</g>
					</g>
				</g>
			</g>
			<g>
				<path class="st2" d="M246.62,185.96c-4.2,0-7.6,3.42-7.6,7.6c0,3.86,2.88,7.06,6.6,7.54c0.32,0.06,0.66,0.08,1,0.08
					s0.68-0.02,1-0.08c3.72-0.48,6.6-3.68,6.6-7.54C254.22,189.38,250.82,185.96,246.62,185.96z M246.62,199.18
					c-3.08,0-5.6-2.52-5.6-5.62c0-3.08,2.52-5.6,5.6-5.6s5.6,2.52,5.6,5.6C252.22,196.66,249.7,199.18,246.62,199.18z"/>
			</g>
			<g>
				<g>
					<g>
						<g>
							<path class="st2" d="M274.18,215.44c-4.2,0-7.6,3.4-7.6,7.6c0,3.86,2.88,7.04,6.6,7.52c0.32,0.06,0.66,0.08,1,0.08
								s0.68-0.02,1-0.08c3.72-0.48,6.6-3.66,6.6-7.52C281.78,218.84,278.36,215.44,274.18,215.44z M274.18,228.64
								c-3.1,0-5.6-2.5-5.6-5.6c0-3.08,2.5-5.6,5.6-5.6c3.08,0,5.6,2.52,5.6,5.6C279.78,226.14,277.26,228.64,274.18,228.64z"/>
						</g>
					</g>
				</g>
			</g>
			<g>
				<g>
					<g>
						<g>
							<path class="st2" d="M281.74,268.34h-41.46c-0.56,0-1,0.44-1,1v41.48c0,0.54,0.44,1,1,1h41.46c0.56,0,1-0.46,1-1v-41.48
								C282.74,268.78,282.3,268.34,281.74,268.34z M280.74,309.82h-39.46v-39.48h39.46V309.82z"/>
						</g>
					</g>
				</g>
			</g>
		</g>
	</g>
</g>
</svg>
