<?xml version="1.0" encoding="utf-8"?>
<!-- Generator: Adobe Illustrator 23.0.0, SVG Export Plug-In . SVG Version: 6.00 Build 0)  -->
<svg version="1.1" id="Layer_1" xmlns="http://www.w3.org/2000/svg" xmlns:xlink="http://www.w3.org/1999/xlink" x="0px" y="0px"
	 viewBox="0 0 400 400" style="enable-background:new 0 0 400 400;" xml:space="preserve">
<style type="text/css">
	.st0{fill:#7AC5CB;}
	.st1{fill:#246D8D;}
	.st2{fill:#063F5A;}
</style>
<g>
	<rect class="st0" width="400" height="400"/>
	<g>
		<path class="st1" d="M241.03,234.31c-2.26,0-4.1,1.84-4.1,4.11c0,1.91,1.33,3.51,3.11,3.96v59.32l-16.36,16.35h-47.36
			l-16.35-16.35v-59.32c1.77-0.44,3.1-2.05,3.1-3.96c0-2.27-1.84-4.11-4.1-4.11c-2.27,0-4.11,1.84-4.11,4.11
			c0,1.91,1.33,3.51,3.11,3.96v60.15l17.52,17.52H199v55.79c-1.78,0.46-3.1,2.06-3.1,3.97c0,2.27,1.84,4.1,4.11,4.1
			c2.26,0,4.1-1.83,4.1-4.1c0-1.92-1.33-3.52-3.11-3.97v-55.79h23.51l17.53-17.52v-60.15c1.78-0.45,3.1-2.05,3.1-3.96
			C245.14,236.15,243.3,234.31,241.03,234.31z M156.86,238.42c0-1.16,0.95-2.11,2.11-2.11c1.16,0,2.1,0.95,2.1,2.11
			c0,1.16-0.94,2.1-2.1,2.1C157.81,240.52,156.86,239.58,156.86,238.42z M202.11,379.81c0,1.16-0.95,2.1-2.1,2.1
			c-1.17,0-2.11-0.94-2.11-2.1c0-1.16,0.94-2.11,2.11-2.11C201.16,377.7,202.11,378.65,202.11,379.81z M241.03,240.52
			c-1.16,0-2.1-0.94-2.1-2.1c0-1.16,0.94-2.11,2.1-2.11c1.17,0,2.11,0.95,2.11,2.11C243.14,239.58,242.2,240.52,241.03,240.52z"/>
		<path class="st1" d="M191.67,233.24c-2.27,0-4.11,1.84-4.11,4.11c0,1.91,1.32,3.51,3.1,3.96v13.09l-5.63,5.64
			c-0.66-0.46-1.46-0.73-2.32-0.73c-2.27,0-4.11,1.85-4.11,4.11s1.84,4.1,4.11,4.1c2.26,0,4.1-1.84,4.1-4.1
			c0-0.68-0.18-1.31-0.47-1.87l6.32-6.32v-13.92c1.78-0.45,3.11-2.05,3.11-3.96C195.77,235.08,193.93,233.24,191.67,233.24z
			 M182.71,265.52c-1.16,0-2.11-0.94-2.11-2.1c0-1.16,0.95-2.11,2.11-2.11s2.1,0.95,2.1,2.11
			C184.81,264.58,183.87,265.52,182.71,265.52z M191.67,239.45c-1.17,0-2.11-0.95-2.11-2.1c0-1.17,0.94-2.11,2.11-2.11
			c1.15,0,2.1,0.94,2.1,2.11C193.77,238.5,192.82,239.45,191.67,239.45z"/>
		<path class="st1" d="M215.13,287.46c-1.92,0-3.52,1.33-3.97,3.11h-22.32c-0.45-1.78-2.05-3.11-3.96-3.11
			c-2.27,0-4.11,1.85-4.11,4.11s1.84,4.1,4.11,4.1c1.91,0,3.51-1.32,3.96-3.1h22.32c0.45,1.78,2.05,3.1,3.97,3.1
			c2.26,0,4.11-1.84,4.11-4.1S217.39,287.46,215.13,287.46z M184.88,293.67c-1.17,0-2.11-0.94-2.11-2.1c0-1.16,0.94-2.11,2.11-2.11
			c1.16,0,2.1,0.95,2.1,2.11C186.98,292.73,186.04,293.67,184.88,293.67z M215.13,293.67c-1.16,0-2.1-0.94-2.1-2.1
			c0-1.16,0.94-2.11,2.1-2.11c1.16,0,2.11,0.95,2.11,2.11C217.24,292.73,216.29,293.67,215.13,293.67z"/>
		<path class="st1" d="M200,262.9c-6,0-10.88,4.88-10.88,10.87c0,6,4.88,10.88,10.88,10.88s10.88-4.88,10.88-10.88
			C210.88,267.78,206,262.9,200,262.9z M200,282.65c-4.89,0-8.88-3.98-8.88-8.88c0-4.89,3.99-8.87,8.88-8.87
			c4.9,0,8.88,3.98,8.88,8.87C208.88,278.67,204.9,282.65,200,282.65z"/>
		
			<ellipse transform="matrix(0.9732 -0.2298 0.2298 0.9732 -57.55 53.2744)" class="st2" cx="200" cy="273.77" rx="5.25" ry="5.25"/>
		<path class="st1" d="M217.29,259.31c-0.86,0-1.65,0.27-2.31,0.73l-5.64-5.64v-13.09c1.78-0.45,3.11-2.05,3.11-3.96
			c0-2.27-1.85-4.11-4.11-4.11s-4.1,1.84-4.1,4.11c0,1.91,1.32,3.51,3.1,3.96v13.92l6.32,6.32c-0.29,0.56-0.47,1.19-0.47,1.87
			c0,2.26,1.84,4.1,4.1,4.1c2.27,0,4.11-1.84,4.11-4.1S219.56,259.31,217.29,259.31z M206.24,237.35c0-1.17,0.94-2.11,2.1-2.11
			c1.16,0,2.11,0.94,2.11,2.11c0,1.15-0.95,2.1-2.11,2.1C207.18,239.45,206.24,238.5,206.24,237.35z M217.29,265.52
			c-1.15,0-2.1-0.94-2.1-2.1c0-1.16,0.95-2.11,2.1-2.11c1.17,0,2.11,0.95,2.11,2.11C219.4,264.58,218.46,265.52,217.29,265.52z"/>
		<path class="st1" d="M220.6,254.55v-13.24c1.78-0.46,3.1-2.05,3.1-3.96c0-2.27-1.84-4.11-4.11-4.11c-2.26,0-4.1,1.84-4.1,4.11
			c0,1.91,1.33,3.51,3.11,3.96v14.07l13.39,13.39v28.16l-10.94,10.93h-42.1l-10.93-10.93v-28.16l13.38-13.39v-14.07
			c1.78-0.45,3.11-2.05,3.11-3.96c0-2.27-1.84-4.11-4.1-4.11s-4.11,1.84-4.11,4.11c0,1.91,1.33,3.5,3.1,3.96v13.24l-13.38,13.39
			v29.82l12.1,12.1h43.76l12.11-12.1v-29.82L220.6,254.55z M217.49,237.35c0-1.17,0.94-2.11,2.1-2.11c1.17,0,2.11,0.94,2.11,2.11
			c0,1.15-0.94,2.1-2.11,2.1C218.43,239.45,217.49,238.5,217.49,237.35z M178.3,237.35c0-1.17,0.95-2.11,2.11-2.11
			c1.16,0,2.1,0.94,2.1,2.11c0,1.15-0.94,2.1-2.1,2.1C179.25,239.45,178.3,238.5,178.3,237.35z"/>
		<path class="st1" d="M223.75,279.55c-2.26,0-4.1,1.84-4.1,4.11c0,1.91,1.33,3.51,3.11,3.96v5.02l-5.38,5.38h-34.75l-5.38-5.38
			v-5.02c1.77-0.45,3.1-2.05,3.1-3.96c0-2.27-1.84-4.11-4.1-4.11c-2.27,0-4.11,1.84-4.11,4.11c0,1.91,1.33,3.51,3.11,3.96v5.85
			l6.55,6.55h36.41l6.55-6.55v-5.85c1.78-0.45,3.1-2.05,3.1-3.96C227.86,281.39,226.02,279.55,223.75,279.55z M174.14,283.66
			c0-1.17,0.95-2.11,2.11-2.11c1.16,0,2.1,0.94,2.1,2.11c0,1.16-0.94,2.1-2.1,2.1C175.09,285.76,174.14,284.82,174.14,283.66z
			 M223.75,285.76c-1.16,0-2.1-0.94-2.1-2.1c0-1.17,0.94-2.11,2.1-2.11c1.17,0,2.11,0.94,2.11,2.11
			C225.86,284.82,224.92,285.76,223.75,285.76z"/>
		<path class="st1" d="M131.19,321.76c-2.26,0-4.1,1.84-4.1,4.11c0,0.79,0.24,1.53,0.63,2.16l-6.92,6.93H65.91l-8.28,8.28H38.54
			l-24.78-24.79H0v2h12.93l24.78,24.79h20.75l8.28-8.28h54.89l7.54-7.55c0.6,0.35,1.28,0.56,2.02,0.56c2.27,0,4.11-1.84,4.11-4.1
			C135.3,323.6,133.46,321.76,131.19,321.76z M131.19,327.97c-1.16,0-2.1-0.94-2.1-2.1c0-1.17,0.94-2.11,2.1-2.11
			c1.16,0,2.11,0.94,2.11,2.11C133.3,327.03,132.35,327.97,131.19,327.97z"/>
		<path class="st1" d="M53.07,320.67c-1.91,0-3.51,1.32-3.96,3.1H38.45l-14.41-14.41H0v2h23.21l14.41,14.41h11.49
			c0.44,1.78,2.04,3.11,3.96,3.11c2.27,0,4.11-1.84,4.11-4.1C57.18,322.51,55.34,320.67,53.07,320.67z M53.07,326.88
			c-1.16,0-2.1-0.94-2.1-2.1c0-1.17,0.94-2.11,2.1-2.11c1.16,0,2.11,0.94,2.11,2.11C55.18,325.94,54.23,326.88,53.07,326.88z"/>
		<path class="st1" d="M43.29,312.24c-0.79,0-1.52,0.24-2.15,0.63l-12-12H0v2h28.31l11.44,11.44c-0.35,0.6-0.56,1.3-0.56,2.04
			c0,2.26,1.84,4.1,4.1,4.1s4.11-1.84,4.11-4.1S45.55,312.24,43.29,312.24z M43.29,318.45c-1.16,0-2.1-0.94-2.1-2.1
			c0-1.16,0.94-2.11,2.1-2.11c1.16,0,2.11,0.95,2.11,2.11C45.4,317.51,44.45,318.45,43.29,318.45z"/>
		<path class="st1" d="M110.31,348.18c-1.91,0-3.51,1.32-3.96,3.1h-39.9l-5.49,5.49c-0.64-0.41-1.39-0.65-2.21-0.65
			c-2.26,0-4.1,1.84-4.1,4.11c0,2.26,1.84,4.1,4.1,4.1c2.27,0,4.11-1.84,4.11-4.1c0-0.73-0.2-1.4-0.54-1.99l4.96-4.96h39.07
			c0.45,1.78,2.05,3.11,3.96,3.11c2.27,0,4.11-1.84,4.11-4.1C114.42,350.02,112.58,348.18,110.31,348.18z M58.75,362.33
			c-1.16,0-2.1-0.94-2.1-2.1c0-1.17,0.94-2.11,2.1-2.11c1.16,0,2.11,0.94,2.11,2.11C60.86,361.39,59.91,362.33,58.75,362.33z
			 M110.31,354.39c-1.16,0-2.1-0.95-2.1-2.1c0-1.17,0.94-2.11,2.1-2.11c1.17,0,2.11,0.94,2.11,2.11
			C112.42,353.44,111.48,354.39,110.31,354.39z"/>
		<path class="st1" d="M105.54,373.15c-1.91,0-3.51,1.33-3.96,3.11H62.86l-7.88,7.87c-0.57-0.3-1.22-0.49-1.91-0.49
			c-2.26,0-4.1,1.84-4.1,4.11c0,2.26,1.84,4.1,4.1,4.1c2.27,0,4.11-1.84,4.11-4.1c0-0.85-0.26-1.63-0.7-2.29l7.21-7.2h37.89
			c0.45,1.78,2.05,3.1,3.96,3.1c2.27,0,4.11-1.84,4.11-4.1S107.81,373.15,105.54,373.15z M53.07,389.85c-1.16,0-2.1-0.94-2.1-2.1
			c0-1.16,0.94-2.11,2.1-2.11c1.16,0,2.11,0.95,2.11,2.11C55.18,388.91,54.23,389.85,53.07,389.85z M105.54,379.36
			c-1.16,0-2.1-0.94-2.1-2.1c0-1.16,0.94-2.11,2.1-2.11c1.17,0,2.11,0.95,2.11,2.11C107.65,378.42,106.71,379.36,105.54,379.36z"/>
		<path class="st1" d="M128.86,352.6c-7.92,0-14.41,6.19-14.92,13.98H53.18l-18.04,18.05c-0.58-0.31-1.23-0.51-1.93-0.51
			c-2.26,0-4.1,1.85-4.1,4.11s1.84,4.1,4.1,4.1c2.27,0,4.11-1.84,4.11-4.1c0-0.84-0.25-1.62-0.69-2.27l17.38-17.38h59.93
			c0.51,7.79,7,13.98,14.92,13.98c8.26,0,14.98-6.72,14.98-14.98S137.12,352.6,128.86,352.6z M33.21,390.33
			c-1.16,0-2.1-0.94-2.1-2.1c0-1.16,0.94-2.11,2.1-2.11s2.11,0.95,2.11,2.11C35.32,389.39,34.37,390.33,33.21,390.33z
			 M128.86,380.56c-7.15,0-12.97-5.82-12.97-12.98c0-7.16,5.82-12.98,12.97-12.98c7.16,0,12.98,5.82,12.98,12.98
			C141.84,374.74,136.02,380.56,128.86,380.56z"/>
		<path class="st1" d="M162.37,384.97v-41.82l-25.19-25.19h-22.9c-0.45-1.78-2.05-3.1-3.97-3.1c-2.26,0-4.1,1.84-4.1,4.11
			c0,2.26,1.84,4.1,4.1,4.1c1.92,0,3.53-1.33,3.98-3.11h22.06l24.02,24.02v40.99c-1.78,0.44-3.11,2.05-3.11,3.97
			c0,2.26,1.84,4.1,4.1,4.1c2.27,0,4.11-1.84,4.11-4.1C165.47,387.02,164.15,385.42,162.37,384.97z M110.31,321.07
			c-1.16,0-2.1-0.95-2.1-2.1c0-1.17,0.94-2.11,2.1-2.11c1.17,0,2.11,0.94,2.11,2.11C112.42,320.12,111.48,321.07,110.31,321.07z
			 M161.36,391.04c-1.15,0-2.1-0.94-2.1-2.1c0-1.16,0.95-2.11,2.1-2.11c1.17,0,2.11,0.95,2.11,2.11
			C163.47,390.1,162.53,391.04,161.36,391.04z"/>
		<path class="st1" d="M175.1,384.65v-43.33l-34.8-34.81h-29.55c-0.45-1.78-2.05-3.1-3.97-3.1c-2.26,0-4.1,1.84-4.1,4.11
			c0,2.26,1.84,4.1,4.1,4.1c1.92,0,3.52-1.33,3.97-3.11h28.72l33.63,33.63v42.51c-1.78,0.45-3.1,2.05-3.1,3.97
			c0,2.27,1.84,4.1,4.1,4.1s4.11-1.83,4.11-4.1C178.21,386.71,176.88,385.11,175.1,384.65z M106.78,309.62c-1.16,0-2.1-0.94-2.1-2.1
			c0-1.17,0.94-2.11,2.1-2.11c1.16,0,2.11,0.94,2.11,2.11C108.89,308.68,107.94,309.62,106.78,309.62z M174.1,390.72
			c-1.16,0-2.1-0.94-2.1-2.1c0-1.16,0.94-2.11,2.1-2.11c1.16,0,2.11,0.95,2.11,2.11C176.21,389.78,175.26,390.72,174.1,390.72z"/>
		<path class="st1" d="M185.71,384.65v-45.42l-43.6-43.6h-25.48c-0.45-1.78-2.05-3.1-3.97-3.1c-2.26,0-4.1,1.84-4.1,4.11
			c0,2.26,1.84,4.1,4.1,4.1c1.92,0,3.53-1.33,3.98-3.11h24.65l42.42,42.43v44.59c-1.78,0.45-3.1,2.05-3.1,3.97
			c0,2.27,1.84,4.1,4.1,4.1s4.11-1.83,4.11-4.1C188.82,386.71,187.49,385.1,185.71,384.65z M112.66,298.74c-1.15,0-2.1-0.95-2.1-2.1
			c0-1.17,0.95-2.11,2.1-2.11c1.17,0,2.11,0.94,2.11,2.11C114.77,297.79,113.83,298.74,112.66,298.74z M184.71,390.72
			c-1.16,0-2.1-0.94-2.1-2.1c0-1.16,0.94-2.11,2.1-2.11s2.11,0.95,2.11,2.11C186.82,389.78,185.87,390.72,184.71,390.72z"/>
		<path class="st1" d="M99.48,255.58c-1.91,0-3.51,1.32-3.96,3.1H77.69l-5.84-5.84c0.45-0.65,0.71-1.45,0.71-2.3
			c0-2.26-1.84-4.11-4.11-4.11c-2.26,0-4.1,1.85-4.1,4.11c0,2.27,1.84,4.1,4.1,4.1c0.69,0,1.32-0.18,1.89-0.48l6.53,6.52h18.65
			c0.44,1.78,2.04,3.11,3.96,3.11c2.27,0,4.11-1.84,4.11-4.1C103.59,257.42,101.75,255.58,99.48,255.58z M68.45,252.64
			c-1.16,0-2.1-0.94-2.1-2.1c0-1.16,0.94-2.11,2.1-2.11c1.16,0,2.11,0.95,2.11,2.11C70.56,251.7,69.61,252.64,68.45,252.64z
			 M99.48,261.79c-1.16,0-2.1-0.94-2.1-2.1c0-1.17,0.94-2.11,2.1-2.11c1.16,0,2.11,0.94,2.11,2.11
			C101.59,260.85,100.64,261.79,99.48,261.79z"/>
		<path class="st1" d="M64.2,272.04c0.39-0.62,0.62-1.35,0.62-2.13c0-2.26-1.85-4.11-4.11-4.11s-4.1,1.85-4.1,4.11s1.84,4.1,4.1,4.1
			c0.75,0,1.45-0.22,2.06-0.57l8.35,8.35v6.51l-2.5,2.51h-3.01c-0.48-1.74-2.05-3.03-3.94-3.03c-2.26,0-4.1,1.85-4.1,4.11
			c0,2.27,1.84,4.1,4.1,4.1c1.95,0,3.58-1.36,4-3.18h3.77l3.68-3.68v-8.17L64.2,272.04z M60.71,272.01c-1.16,0-2.1-0.94-2.1-2.1
			c0-1.16,0.94-2.11,2.1-2.11s2.11,0.95,2.11,2.11C62.82,271.07,61.87,272.01,60.71,272.01z M61.67,293.99c-1.16,0-2.1-0.94-2.1-2.1
			c0-1.16,0.94-2.11,2.1-2.11c1.16,0,2.11,0.95,2.11,2.11C63.78,293.05,62.83,293.99,61.67,293.99z"/>
		<path class="st1" d="M27.79,232.65c-0.86,0-1.65,0.27-2.31,0.72l-5.64-5.63v-13.09c1.78-0.45,3.11-2.05,3.11-3.96
			c0-2.27-1.85-4.11-4.11-4.11s-4.1,1.84-4.1,4.11c0,1.91,1.32,3.51,3.1,3.96v13.92l6.32,6.32c-0.29,0.56-0.47,1.19-0.47,1.87
			c0,2.26,1.84,4.1,4.1,4.1c2.27,0,4.11-1.84,4.11-4.1C31.9,234.49,30.06,232.65,27.79,232.65z M16.74,210.69
			c0-1.17,0.94-2.11,2.1-2.11c1.16,0,2.11,0.94,2.11,2.11c0,1.15-0.95,2.1-2.11,2.1C17.68,212.79,16.74,211.84,16.74,210.69z
			 M27.79,238.86c-1.15,0-2.1-0.94-2.1-2.1c0-1.16,0.95-2.11,2.1-2.11c1.17,0,2.11,0.95,2.11,2.11
			C29.9,237.92,28.96,238.86,27.79,238.86z"/>
		<path class="st1" d="M58.56,311.55c-0.8,0-1.54,0.24-2.17,0.64l-6.74-6.75v-15.89l6.27-6.27c0.61,0.35,1.3,0.57,2.06,0.57
			c2.26,0,4.11-1.84,4.11-4.1c0-2.26-1.85-4.11-4.11-4.11s-4.1,1.85-4.1,4.11c0,0.78,0.23,1.51,0.61,2.13l-6.84,6.84v17.55
			l7.36,7.37c-0.34,0.6-0.55,1.28-0.55,2.02c0,2.26,1.84,4.1,4.1,4.1c2.27,0,4.11-1.84,4.11-4.1
			C62.67,313.39,60.83,311.55,58.56,311.55z M57.98,277.64c1.16,0,2.11,0.95,2.11,2.11c0,1.16-0.95,2.1-2.11,2.1
			c-1.16,0-2.1-0.94-2.1-2.1C55.88,278.59,56.82,277.64,57.98,277.64z M58.56,317.76c-1.16,0-2.1-0.94-2.1-2.1
			c0-1.17,0.94-2.11,2.1-2.11c1.17,0,2.11,0.94,2.11,2.11C60.67,316.82,59.73,317.76,58.56,317.76z"/>
		<path class="st1" d="M64.12,322.92c-2.26,0-4.1,1.85-4.1,4.11c0,0.76,0.22,1.46,0.58,2.07l-8.09,8.09H41.49l-16.83-16.83
			c0.4-0.64,0.64-1.39,0.64-2.19c0-2.27-1.84-4.11-4.11-4.11c-2.26,0-4.1,1.84-4.1,4.11c0,2.26,1.84,4.1,4.1,4.1
			c0.73,0,1.41-0.21,2.01-0.54l17.46,17.46h12.68l8.66-8.66c0.62,0.37,1.34,0.6,2.12,0.6c2.26,0,4.11-1.84,4.11-4.1
			S66.38,322.92,64.12,322.92z M21.19,320.27c-1.16,0-2.1-0.94-2.1-2.1c0-1.17,0.94-2.11,2.1-2.11c1.17,0,2.11,0.94,2.11,2.11
			C23.3,319.33,22.36,320.27,21.19,320.27z M64.12,329.13c-1.16,0-2.1-0.94-2.1-2.1c0-1.16,0.94-2.11,2.1-2.11
			c1.16,0,2.11,0.95,2.11,2.11C66.23,328.19,65.28,329.13,64.12,329.13z"/>
		
			<ellipse transform="matrix(0.9871 -0.1602 0.1602 0.9871 -57.2157 25.388)" class="st2" cx="128.86" cy="367.58" rx="6.41" ry="6.41"/>
		<path class="st1" d="M84.11,305.08c-7.21,0-13.07,5.87-13.07,13.08c0,7.21,5.86,13.08,13.07,13.08c7.22,0,13.08-5.87,13.08-13.08
			C97.19,310.95,91.33,305.08,84.11,305.08z M84.11,329.24c-6.1,0-11.07-4.97-11.07-11.08s4.97-11.08,11.07-11.08
			c6.11,0,11.08,4.97,11.08,11.08S90.22,329.24,84.11,329.24z"/>
		<circle class="st2" cx="84.11" cy="318.16" r="6.41"/>
		<path class="st1" d="M13.28,237.7c-6.34,0-11.49,5.15-11.49,11.49c0,6.34,5.15,11.49,11.49,11.49c6.34,0,11.49-5.15,11.49-11.49
			C24.77,242.85,19.62,237.7,13.28,237.7z M13.28,258.68c-5.23,0-9.49-4.25-9.49-9.49c0-5.23,4.26-9.49,9.49-9.49
			s9.49,4.26,9.49,9.49C22.77,254.43,18.51,258.68,13.28,258.68z"/>
		<circle class="st2" cx="13.28" cy="249.19" r="5.57"/>
		<path class="st1" d="M64.64,259.51c0.26-0.54,0.42-1.14,0.42-1.78c0-2.27-1.84-4.11-4.11-4.11c-2.26,0-4.1,1.84-4.1,4.11
			c0,2.26,1.84,4.1,4.1,4.1c0.9,0,1.72-0.29,2.4-0.78l17.98,17.98v13.95l-7.92,7.92H60.22c-0.43-1.79-2.05-3.14-3.98-3.14
			c-2.26,0-4.1,1.85-4.1,4.11c0,2.26,1.84,4.1,4.1,4.1c1.91,0,3.5-1.31,3.96-3.07h14.04l9.09-9.09V278.2L64.64,259.51z
			 M60.95,259.83c-1.16,0-2.1-0.94-2.1-2.1c0-1.16,0.94-2.11,2.1-2.11c1.17,0,2.11,0.95,2.11,2.11
			C63.06,258.89,62.12,259.83,60.95,259.83z M56.24,303.97c-1.16,0-2.1-0.94-2.1-2.1c0-1.16,0.94-2.11,2.1-2.11
			c1.17,0,2.11,0.95,2.11,2.11C58.35,303.03,57.41,303.97,56.24,303.97z"/>
		<path class="st1" d="M51.53,207.65c-2.26,0-4.1,1.84-4.1,4.11c0,1.91,1.33,3.51,3.11,3.96v59.32l-16.36,16.35H0v2h35.01
			l17.53-17.52v-60.15c1.78-0.45,3.1-2.05,3.1-3.96C55.64,209.49,53.8,207.65,51.53,207.65z M51.53,213.86c-1.16,0-2.1-0.94-2.1-2.1
			c0-1.17,0.94-2.11,2.1-2.11c1.17,0,2.11,0.94,2.11,2.11C53.64,212.92,52.7,213.86,51.53,213.86z"/>
		<path class="st1" d="M31.1,227.89v-13.24c1.78-0.46,3.1-2.05,3.1-3.96c0-2.27-1.84-4.11-4.11-4.11c-2.26,0-4.1,1.84-4.1,4.11
			c0,1.91,1.33,3.51,3.11,3.96v14.07l13.39,13.38v28.17L31.55,281.2H0v2h32.38l12.11-12.1v-29.82L31.1,227.89z M27.99,210.69
			c0-1.17,0.94-2.11,2.1-2.11c1.17,0,2.11,0.94,2.11,2.11c0,1.15-0.94,2.1-2.11,2.1C28.93,212.79,27.99,211.84,27.99,210.69z"/>
		<path class="st1" d="M34.25,252.89c-2.26,0-4.1,1.84-4.1,4.11c0,1.91,1.33,3.51,3.11,3.96v5.02l-5.38,5.38H0v2h28.71l6.55-6.55
			v-5.85c1.78-0.45,3.1-2.05,3.1-3.96C38.36,254.73,36.52,252.89,34.25,252.89z M34.25,259.1c-1.16,0-2.1-0.94-2.1-2.1
			c0-1.17,0.94-2.11,2.1-2.11c1.17,0,2.11,0.94,2.11,2.11C36.36,258.16,35.42,259.1,34.25,259.1z"/>
		<path class="st1" d="M25.63,260.8c-1.92,0-3.52,1.33-3.97,3.11H0v2h21.66c0.45,1.77,2.05,3.1,3.97,3.1c2.26,0,4.11-1.84,4.11-4.1
			C29.74,262.64,27.89,260.8,25.63,260.8z M25.63,267.01c-1.16,0-2.1-0.94-2.1-2.1c0-1.16,0.94-2.11,2.1-2.11
			c1.16,0,2.11,0.95,2.11,2.11C27.74,266.07,26.79,267.01,25.63,267.01z"/>
		<path class="st1" d="M386.25,318.45l-24.79,24.79h-19.09l-8.28-8.28h-54.88l-6.93-6.93c0.39-0.63,0.63-1.37,0.63-2.16
			c0-2.27-1.84-4.11-4.1-4.11c-2.26,0-4.11,1.84-4.11,4.11c0,2.26,1.85,4.1,4.11,4.1c0.74,0,1.42-0.21,2.02-0.56l7.55,7.55h54.88
			l8.28,8.28h20.75l24.79-24.79H400v-2H386.25z M268.81,327.97c-1.16,0-2.11-0.94-2.11-2.1c0-1.17,0.95-2.11,2.11-2.11
			c1.16,0,2.1,0.94,2.1,2.11C270.91,327.03,269.97,327.97,268.81,327.97z"/>
		<path class="st1" d="M378.81,314.06c-2.27,0-4.11,1.84-4.11,4.11c0,0.8,0.24,1.55,0.65,2.19l-16.84,16.83h-11.02l-8.08-8.09
			c0.36-0.61,0.58-1.31,0.58-2.07c0-2.26-1.84-4.11-4.1-4.11c-2.27,0-4.11,1.85-4.11,4.11s1.84,4.1,4.11,4.1
			c0.77,0,1.49-0.23,2.11-0.6l8.67,8.66h12.67l17.47-17.46c0.59,0.33,1.27,0.54,2,0.54c2.26,0,4.1-1.84,4.1-4.1
			C382.91,315.9,381.07,314.06,378.81,314.06z M335.89,329.13c-1.17,0-2.11-0.94-2.11-2.1c0-1.16,0.94-2.11,2.11-2.11
			c1.16,0,2.1,0.95,2.1,2.11C337.99,328.19,337.05,329.13,335.89,329.13z M378.81,320.27c-1.16,0-2.11-0.94-2.11-2.1
			c0-1.17,0.95-2.11,2.11-2.11c1.16,0,2.1,0.94,2.1,2.11C380.91,319.33,379.97,320.27,378.81,320.27z"/>
		<path class="st1" d="M375.96,309.36l-14.41,14.41H350.9c-0.45-1.78-2.05-3.1-3.97-3.1c-2.26,0-4.11,1.84-4.11,4.11
			c0,2.26,1.85,4.1,4.11,4.1c1.92,0,3.52-1.33,3.97-3.11h11.48l14.41-14.41H400v-2H375.96z M346.93,326.88
			c-1.16,0-2.11-0.94-2.11-2.1c0-1.17,0.95-2.11,2.11-2.11c1.16,0,2.1,0.94,2.1,2.11C349.03,325.94,348.09,326.88,346.93,326.88z"/>
		<path class="st1" d="M370.86,300.87l-12,12c-0.62-0.39-1.36-0.63-2.14-0.63c-2.27,0-4.11,1.85-4.11,4.11s1.84,4.1,4.11,4.1
			c2.26,0,4.1-1.84,4.1-4.1c0-0.74-0.22-1.44-0.57-2.04l11.44-11.44H400v-2H370.86z M356.72,318.45c-1.17,0-2.11-0.94-2.11-2.1
			c0-1.16,0.94-2.11,2.11-2.11c1.15,0,2.1,0.95,2.1,2.11C358.82,317.51,357.87,318.45,356.72,318.45z"/>
		<path class="st1" d="M289.69,314.86c-1.92,0-3.52,1.32-3.97,3.1h-22.9l-25.18,25.19v41.82c-1.78,0.45-3.11,2.05-3.11,3.97
			c0,2.26,1.84,4.1,4.11,4.1c2.26,0,4.1-1.84,4.1-4.1c0-1.92-1.33-3.53-3.1-3.97v-40.99l24.01-24.02h22.07
			c0.45,1.78,2.05,3.11,3.97,3.11c2.26,0,4.1-1.84,4.1-4.1C293.79,316.7,291.95,314.86,289.69,314.86z M240.74,388.94
			c0,1.16-0.94,2.1-2.1,2.1c-1.16,0-2.11-0.94-2.11-2.1c0-1.16,0.95-2.11,2.11-2.11C239.8,386.83,240.74,387.78,240.74,388.94z
			 M289.69,321.07c-1.16,0-2.11-0.95-2.11-2.1c0-1.17,0.95-2.11,2.11-2.11c1.16,0,2.1,0.94,2.1,2.11
			C291.79,320.12,290.85,321.07,289.69,321.07z"/>
		<path class="st1" d="M293.23,303.41c-1.92,0-3.52,1.32-3.98,3.1H259.7l-34.8,34.81v43.33c-1.78,0.46-3.1,2.06-3.1,3.97
			c0,2.27,1.84,4.1,4.11,4.1c2.26,0,4.1-1.83,4.1-4.1c0-1.92-1.33-3.52-3.11-3.97v-42.51l33.63-33.63h28.72
			c0.45,1.78,2.05,3.11,3.98,3.11c2.26,0,4.1-1.84,4.1-4.1C297.33,305.25,295.49,303.41,293.23,303.41z M228.01,388.62
			c0,1.16-0.94,2.1-2.1,2.1c-1.17,0-2.11-0.94-2.11-2.1c0-1.16,0.94-2.11,2.11-2.11C227.07,386.51,228.01,387.46,228.01,388.62z
			 M293.23,309.62c-1.17,0-2.11-0.94-2.11-2.1c0-1.17,0.94-2.11,2.11-2.11c1.15,0,2.1,0.94,2.1,2.11
			C295.33,308.68,294.38,309.62,293.23,309.62z"/>
		<path class="st1" d="M287.34,292.53c-1.92,0-3.52,1.32-3.97,3.1h-25.48l-43.6,43.6v45.42c-1.78,0.46-3.1,2.06-3.1,3.97
			c0,2.27,1.84,4.1,4.11,4.1c2.26,0,4.1-1.83,4.1-4.1c0-1.92-1.33-3.52-3.11-3.97v-44.59l42.43-42.43h24.65
			c0.45,1.78,2.05,3.11,3.97,3.11c2.26,0,4.1-1.84,4.1-4.1C291.44,294.37,289.6,292.53,287.34,292.53z M217.4,388.62
			c0,1.16-0.94,2.1-2.1,2.1c-1.17,0-2.11-0.94-2.11-2.1c0-1.16,0.94-2.11,2.11-2.11C216.46,386.51,217.4,387.46,217.4,388.62z
			 M287.34,298.74c-1.16,0-2.11-0.95-2.11-2.1c0-1.17,0.95-2.11,2.11-2.11c1.16,0,2.1,0.94,2.1,2.11
			C289.44,297.79,288.5,298.74,287.34,298.74z"/>
		<path class="st1" d="M346.93,383.64c-0.69,0-1.33,0.19-1.91,0.49l-7.87-7.87h-38.73c-0.45-1.78-2.05-3.11-3.96-3.11
			c-2.27,0-4.11,1.85-4.11,4.11s1.84,4.1,4.11,4.1c1.92,0,3.52-1.32,3.96-3.1h37.9l7.2,7.2c-0.44,0.66-0.7,1.44-0.7,2.29
			c0,2.26,1.85,4.1,4.11,4.1c2.26,0,4.1-1.84,4.1-4.1C351.03,385.48,349.19,383.64,346.93,383.64z M294.46,379.36
			c-1.16,0-2.11-0.94-2.11-2.1c0-1.16,0.95-2.11,2.11-2.11s2.1,0.95,2.1,2.11C296.56,378.42,295.62,379.36,294.46,379.36z
			 M346.93,389.85c-1.16,0-2.11-0.94-2.11-2.1c0-1.16,0.95-2.11,2.11-2.11c1.16,0,2.1,0.95,2.1,2.11
			C349.03,388.91,348.09,389.85,346.93,389.85z"/>
		<path class="st1" d="M366.79,384.12c-0.7,0-1.35,0.2-1.92,0.5l-18.05-18.04h-60.75c-0.52-7.79-7.01-13.98-14.93-13.98
			c-8.26,0-14.98,6.72-14.98,14.98s6.72,14.98,14.98,14.98c7.92,0,14.41-6.19,14.93-13.98h59.92l17.38,17.38
			c-0.43,0.65-0.69,1.43-0.69,2.27c0,2.26,1.85,4.1,4.11,4.1s4.1-1.84,4.1-4.1S369.05,384.12,366.79,384.12z M271.14,380.56
			c-7.16,0-12.98-5.82-12.98-12.98c0-7.16,5.82-12.98,12.98-12.98c7.16,0,12.98,5.82,12.98,12.98
			C284.12,374.74,278.3,380.56,271.14,380.56z M366.79,390.33c-1.16,0-2.11-0.94-2.11-2.1c0-1.16,0.95-2.11,2.11-2.11
			c1.16,0,2.1,0.95,2.1,2.11C368.89,389.39,367.95,390.33,366.79,390.33z"/>
		<path class="st1" d="M341.25,356.12c-0.81,0-1.57,0.24-2.21,0.65l-5.49-5.49h-39.9c-0.45-1.78-2.05-3.1-3.96-3.1
			c-2.27,0-4.11,1.84-4.11,4.11c0,2.26,1.84,4.1,4.11,4.1c1.92,0,3.52-1.33,3.96-3.11h39.07l4.96,4.96
			c-0.33,0.59-0.54,1.26-0.54,1.99c0,2.26,1.85,4.1,4.11,4.1c2.26,0,4.1-1.84,4.1-4.1C345.35,357.96,343.51,356.12,341.25,356.12z
			 M289.69,354.39c-1.16,0-2.11-0.95-2.11-2.1c0-1.17,0.95-2.11,2.11-2.11c1.16,0,2.1,0.94,2.1,2.11
			C291.79,353.44,290.85,354.39,289.69,354.39z M341.25,362.33c-1.16,0-2.11-0.94-2.11-2.1c0-1.17,0.95-2.11,2.11-2.11
			c1.16,0,2.1,0.94,2.1,2.11C343.35,361.39,342.41,362.33,341.25,362.33z"/>
		<path class="st1" d="M331.55,246.43c-2.26,0-4.11,1.85-4.11,4.11c0,0.85,0.27,1.65,0.71,2.3l-5.84,5.84h-17.82
			c-0.45-1.78-2.05-3.1-3.97-3.1c-2.26,0-4.11,1.84-4.11,4.11c0,2.26,1.85,4.1,4.11,4.1c1.92,0,3.52-1.33,3.97-3.11h18.65l6.52-6.52
			c0.57,0.3,1.21,0.48,1.89,0.48c2.26,0,4.1-1.83,4.1-4.1C335.65,248.28,333.81,246.43,331.55,246.43z M300.52,261.79
			c-1.16,0-2.11-0.94-2.11-2.1c0-1.17,0.95-2.11,2.11-2.11s2.1,0.94,2.1,2.11C302.62,260.85,301.68,261.79,300.52,261.79z
			 M331.55,252.64c-1.16,0-2.11-0.94-2.11-2.1c0-1.16,0.95-2.11,2.11-2.11c1.16,0,2.1,0.95,2.1,2.11
			C333.65,251.7,332.71,252.64,331.55,252.64z"/>
		<path class="st1" d="M352.35,288.72l-6.84-6.84c0.38-0.62,0.62-1.35,0.62-2.13c0-2.26-1.84-4.11-4.1-4.11
			c-2.27,0-4.11,1.85-4.11,4.11c0,2.26,1.84,4.1,4.11,4.1c0.75,0,1.45-0.22,2.05-0.57l6.27,6.27v15.89l-6.74,6.75
			c-0.63-0.4-1.37-0.64-2.17-0.64c-2.27,0-4.11,1.84-4.11,4.11c0,2.26,1.84,4.1,4.11,4.1c2.26,0,4.1-1.84,4.1-4.1
			c0-0.74-0.21-1.42-0.55-2.02l7.36-7.37V288.72z M342.03,281.85c-1.17,0-2.11-0.94-2.11-2.1c0-1.16,0.94-2.11,2.11-2.11
			c1.15,0,2.1,0.95,2.1,2.11C344.13,280.91,343.18,281.85,342.03,281.85z M341.44,317.76c-1.16,0-2.11-0.94-2.11-2.1
			c0-1.17,0.95-2.11,2.11-2.11c1.16,0,2.1,0.94,2.1,2.11C343.54,316.82,342.6,317.76,341.44,317.76z"/>
		<circle class="st2" cx="271.14" cy="367.58" r="6.41"/>
		<path class="st1" d="M315.89,305.08c-7.21,0-13.08,5.87-13.08,13.08c0,7.21,5.87,13.08,13.08,13.08s13.08-5.87,13.08-13.08
			C328.97,310.95,323.1,305.08,315.89,305.08z M315.89,329.24c-6.11,0-11.08-4.97-11.08-11.08s4.97-11.08,11.08-11.08
			s11.08,4.97,11.08,11.08S322,329.24,315.89,329.24z"/>
		
			<ellipse transform="matrix(0.9732 -0.2298 0.2298 0.9732 -64.6487 81.088)" class="st2" cx="315.89" cy="318.16" rx="6.41" ry="6.41"/>
		<path class="st1" d="M386.72,237.7c-6.33,0-11.49,5.15-11.49,11.49c0,6.34,5.16,11.49,11.49,11.49c6.34,0,11.5-5.15,11.5-11.49
			C398.22,242.85,393.06,237.7,386.72,237.7z M386.72,258.68c-5.23,0-9.49-4.25-9.49-9.49c0-5.23,4.26-9.49,9.49-9.49
			c5.24,0,9.5,4.26,9.5,9.49C396.22,254.43,391.96,258.68,386.72,258.68z"/>
		<circle class="st2" cx="386.72" cy="249.19" r="5.57"/>
		<path class="st1" d="M343.76,297.76c-1.93,0-3.54,1.35-3.98,3.14H326.6l-7.93-7.92v-13.95l17.99-17.98
			c0.67,0.49,1.5,0.78,2.39,0.78c2.26,0,4.1-1.84,4.1-4.1c0-2.27-1.84-4.11-4.1-4.11c-2.27,0-4.11,1.84-4.11,4.11
			c0,0.64,0.16,1.24,0.43,1.78l-18.7,18.69v15.61l9.1,9.09h14.03c0.46,1.76,2.05,3.07,3.96,3.07c2.26,0,4.1-1.84,4.1-4.1
			C347.86,299.61,346.02,297.76,343.76,297.76z M339.05,255.62c1.16,0,2.1,0.95,2.1,2.11c0,1.16-0.94,2.1-2.1,2.1
			c-1.16,0-2.11-0.94-2.11-2.1C336.94,256.57,337.89,255.62,339.05,255.62z M343.76,303.97c-1.16,0-2.11-0.94-2.11-2.1
			c0-1.16,0.95-2.11,2.11-2.11c1.16,0,2.1,0.95,2.1,2.11C345.86,303.03,344.92,303.97,343.76,303.97z"/>
		<path class="st1" d="M338.34,287.78c-1.89,0-3.47,1.29-3.95,3.03h-3l-2.51-2.51v-6.51l8.35-8.35c0.61,0.35,1.31,0.57,2.07,0.57
			c2.26,0,4.1-1.84,4.1-4.1s-1.84-4.11-4.1-4.11c-2.27,0-4.11,1.85-4.11,4.11c0,0.78,0.23,1.51,0.61,2.13l-8.92,8.92v8.17l3.68,3.68
			h3.78c0.42,1.82,2.05,3.18,4,3.18c2.26,0,4.1-1.83,4.1-4.1C342.44,289.63,340.6,287.78,338.34,287.78z M339.3,267.8
			c1.15,0,2.1,0.95,2.1,2.11c0,1.16-0.95,2.1-2.1,2.1c-1.17,0-2.11-0.94-2.11-2.1C337.19,268.75,338.13,267.8,339.3,267.8z
			 M338.34,293.99c-1.17,0-2.11-0.94-2.11-2.1c0-1.16,0.94-2.11,2.11-2.11c1.15,0,2.1,0.95,2.1,2.11
			C340.44,293.05,339.49,293.99,338.34,293.99z"/>
		<path class="st1" d="M365.82,291.39l-16.35-16.35v-59.32c1.77-0.45,3.1-2.05,3.1-3.96c0-2.27-1.84-4.11-4.1-4.11
			c-2.27,0-4.11,1.84-4.11,4.11c0,1.91,1.33,3.51,3.11,3.96v60.15l17.52,17.52H400v-2H365.82z M346.36,211.76
			c0-1.17,0.95-2.11,2.11-2.11c1.16,0,2.1,0.94,2.1,2.11c0,1.16-0.94,2.1-2.1,2.1C347.31,213.86,346.36,212.92,346.36,211.76z"/>
		<path class="st1" d="M368.45,281.2l-10.93-10.93V242.1l13.38-13.38v-14.07c1.78-0.45,3.11-2.05,3.11-3.96
			c0-2.27-1.84-4.11-4.1-4.11s-4.11,1.84-4.11,4.11c0,1.91,1.33,3.5,3.1,3.96v13.24l-13.38,13.39v29.82l12.1,12.1H400v-2H368.45z
			 M367.8,210.69c0-1.17,0.95-2.11,2.11-2.11c1.16,0,2.1,0.94,2.1,2.11c0,1.15-0.94,2.1-2.1,2.1
			C368.75,212.79,367.8,211.84,367.8,210.69z"/>
		<path class="st1" d="M372.13,271.36l-5.38-5.38v-5.02c1.77-0.45,3.1-2.05,3.1-3.96c0-2.27-1.84-4.11-4.1-4.11
			c-2.27,0-4.11,1.84-4.11,4.11c0,1.91,1.33,3.51,3.11,3.96v5.85l6.55,6.55H400v-2H372.13z M363.64,257c0-1.17,0.95-2.11,2.11-2.11
			c1.16,0,2.1,0.94,2.1,2.11c0,1.16-0.94,2.1-2.1,2.1C364.59,259.1,363.64,258.16,363.64,257z"/>
		<path class="st1" d="M378.34,263.91c-0.45-1.78-2.05-3.11-3.96-3.11c-2.27,0-4.11,1.84-4.11,4.11c0,2.26,1.84,4.1,4.11,4.1
			c1.91,0,3.51-1.33,3.96-3.1H400v-2H378.34z M374.38,267.01c-1.17,0-2.11-0.94-2.11-2.1c0-1.16,0.94-2.11,2.11-2.11
			c1.16,0,2.1,0.95,2.1,2.11C376.48,266.07,375.54,267.01,374.38,267.01z"/>
		<path class="st1" d="M381.17,206.58c-2.27,0-4.11,1.84-4.11,4.11c0,1.91,1.32,3.51,3.1,3.96v13.09l-5.63,5.63
			c-0.66-0.45-1.46-0.72-2.32-0.72c-2.27,0-4.11,1.84-4.11,4.11c0,2.26,1.84,4.1,4.11,4.1c2.26,0,4.1-1.84,4.1-4.1
			c0-0.68-0.18-1.31-0.47-1.87l6.32-6.32v-13.92c1.78-0.45,3.11-2.05,3.11-3.96C385.27,208.42,383.43,206.58,381.17,206.58z
			 M372.21,238.86c-1.16,0-2.11-0.94-2.11-2.1c0-1.16,0.95-2.11,2.11-2.11s2.1,0.95,2.1,2.11
			C374.31,237.92,373.37,238.86,372.21,238.86z M381.17,212.79c-1.17,0-2.11-0.95-2.11-2.1c0-1.17,0.94-2.11,2.11-2.11
			c1.15,0,2.1,0.94,2.1,2.11C383.27,211.84,382.32,212.79,381.17,212.79z"/>
		<path class="st1" d="M134.65,283.48v-16.06l-10.23-10.23v-14.48c1.78-0.45,3.1-2.06,3.1-3.97c0-2.26-1.84-4.1-4.11-4.1
			c-2.26,0-4.1,1.84-4.1,4.1c0,1.92,1.33,3.52,3.11,3.97v15.31l10.23,10.23v15.23c-1.78,0.44-3.1,2.04-3.1,3.96
			c0,2.27,1.83,4.11,4.1,4.11c2.26,0,4.11-1.84,4.11-4.11C137.76,285.53,136.43,283.93,134.65,283.48z M121.31,238.74
			c0-1.16,0.95-2.1,2.1-2.1c1.17,0,2.11,0.94,2.11,2.1c0,1.16-0.94,2.11-2.11,2.11C122.26,240.85,121.31,239.9,121.31,238.74z
			 M133.65,289.55c-1.16,0-2.1-0.95-2.1-2.11c0-1.16,0.94-2.1,2.1-2.1s2.11,0.94,2.11,2.1C135.76,288.6,134.81,289.55,133.65,289.55
			z"/>
		<path class="st1" d="M134.11,251.18v-17.32l-4.54-4.54h-10.75l-6.9,6.9v23.27l10.54,10.54c-0.28,0.54-0.45,1.16-0.45,1.81
			c0,2.27,1.84,4.11,4.1,4.11c2.27,0,4.11-1.84,4.11-4.11c0-2.26-1.84-4.1-4.11-4.1c-0.88,0-1.69,0.28-2.36,0.76l-9.83-9.84v-21.61
			l5.73-5.73h9.09l3.37,3.37v16.48c-1.78,0.45-3.11,2.05-3.11,3.97c0,2.26,1.84,4.11,4.1,4.11c2.27,0,4.11-1.85,4.11-4.11
			C137.21,253.23,135.89,251.63,134.11,251.18z M126.11,269.74c1.17,0,2.11,0.94,2.11,2.1s-0.94,2.11-2.11,2.11
			c-1.16,0-2.1-0.95-2.1-2.11S124.95,269.74,126.11,269.74z M133.1,257.25c-1.16,0-2.1-0.95-2.1-2.11c0-1.16,0.94-2.1,2.1-2.1
			c1.17,0,2.11,0.94,2.11,2.1C135.21,256.3,134.27,257.25,133.1,257.25z"/>
		<path class="st1" d="M123.82,278.98c-0.77,0-1.48,0.22-2.09,0.59l-8.58-8.57h-17.5c-0.44-1.78-2.05-3.11-3.97-3.11
			c-2.26,0-4.1,1.84-4.1,4.1c0,2.27,1.84,4.11,4.1,4.11c1.92,0,3.52-1.32,3.97-3.1h16.67l7.99,7.99c-0.36,0.61-0.59,1.32-0.59,2.09
			c0,2.26,1.84,4.11,4.1,4.11c2.27,0,4.11-1.85,4.11-4.11S126.09,278.98,123.82,278.98z M91.68,274.1c-1.16,0-2.1-0.94-2.1-2.11
			c0-1.15,0.94-2.1,2.1-2.1c1.16,0,2.11,0.95,2.11,2.1C93.79,273.16,92.84,274.1,91.68,274.1z M123.82,285.19
			c-1.16,0-2.1-0.95-2.1-2.11c0-1.16,0.94-2.1,2.1-2.1c1.16,0,2.11,0.94,2.11,2.1C125.93,284.24,124.98,285.19,123.82,285.19z"/>
		<path class="st1" d="M279.69,234.64c-2.26,0-4.11,1.84-4.11,4.1c0,1.91,1.33,3.52,3.11,3.97v14.48l-10.23,10.23v16.06
			c-1.78,0.45-3.11,2.05-3.11,3.96c0,2.27,1.85,4.11,4.11,4.11s4.1-1.84,4.1-4.11c0-1.92-1.32-3.52-3.1-3.96v-15.23l10.23-10.23
			v-15.31c1.78-0.45,3.1-2.05,3.1-3.97C283.79,236.48,281.95,234.64,279.69,234.64z M271.56,287.44c0,1.16-0.94,2.11-2.1,2.11
			s-2.11-0.95-2.11-2.11c0-1.16,0.95-2.1,2.11-2.1S271.56,286.28,271.56,287.44z M279.69,240.85c-1.16,0-2.11-0.95-2.11-2.11
			c0-1.16,0.95-2.1,2.11-2.1c1.16,0,2.1,0.94,2.1,2.1C281.79,239.9,280.85,240.85,279.69,240.85z"/>
		<path class="st1" d="M291.19,236.22l-6.9-6.9h-10.75l-4.54,4.54v17.32c-1.78,0.45-3.1,2.05-3.1,3.96c0,2.26,1.84,4.11,4.11,4.11
			c2.26,0,4.1-1.85,4.1-4.11c0-1.92-1.33-3.52-3.11-3.97v-16.48l3.37-3.37h9.09l5.73,5.73v21.61l-9.84,9.84
			c-0.66-0.48-1.48-0.76-2.35-0.76c-2.27,0-4.11,1.84-4.11,4.1c0,2.27,1.84,4.11,4.11,4.11c2.26,0,4.1-1.84,4.1-4.11
			c0-0.65-0.17-1.27-0.45-1.81l10.54-10.54V236.22z M272.11,255.14c0,1.16-0.95,2.11-2.1,2.11c-1.17,0-2.11-0.95-2.11-2.11
			c0-1.16,0.94-2.1,2.11-2.1C271.16,253.04,272.11,253.98,272.11,255.14z M277,273.95c-1.17,0-2.11-0.95-2.11-2.11
			s0.94-2.1,2.11-2.1c1.15,0,2.1,0.94,2.1,2.1S278.15,273.95,277,273.95z"/>
		<path class="st1" d="M311.43,267.89c-1.92,0-3.53,1.33-3.98,3.11h-17.49l-8.58,8.57c-0.61-0.37-1.32-0.59-2.09-0.59
			c-2.27,0-4.11,1.84-4.11,4.1s1.84,4.11,4.11,4.11c2.26,0,4.1-1.85,4.1-4.11c0-0.77-0.23-1.48-0.59-2.09l7.98-7.99h16.68
			c0.45,1.78,2.05,3.1,3.97,3.1c2.26,0,4.1-1.84,4.1-4.11C315.53,269.73,313.69,267.89,311.43,267.89z M279.29,285.19
			c-1.17,0-2.11-0.95-2.11-2.11c0-1.16,0.94-2.1,2.11-2.1c1.16,0,2.1,0.94,2.1,2.1C281.39,284.24,280.45,285.19,279.29,285.19z
			 M311.43,274.1c-1.17,0-2.11-0.94-2.11-2.11c0-1.15,0.94-2.1,2.11-2.1c1.16,0,2.1,0.95,2.1,2.1
			C313.53,273.16,312.59,274.1,311.43,274.1z"/>
		<path class="st1" d="M148.44,259.89v-38.22l-12.8-12.8h-23.28l-5.42,5.43c-0.63-0.39-1.36-0.62-2.15-0.62
			c-2.26,0-4.1,1.84-4.1,4.11c0,2.26,1.84,4.1,4.1,4.1s4.11-1.84,4.11-4.1c0-0.75-0.22-1.45-0.57-2.06l4.86-4.86h21.62l11.63,11.63
			v37.39c-1.78,0.44-3.1,2.05-3.1,3.97c0,2.26,1.84,4.1,4.1,4.1s4.11-1.84,4.11-4.1C151.55,261.94,150.22,260.34,148.44,259.89z
			 M104.79,219.89c-1.16,0-2.1-0.95-2.1-2.1c0-1.17,0.94-2.11,2.1-2.11c1.16,0,2.11,0.94,2.11,2.11
			C106.9,218.94,105.95,219.89,104.79,219.89z M147.44,265.96c-1.16,0-2.1-0.94-2.1-2.1c0-1.16,0.94-2.11,2.1-2.11
			c1.16,0,2.11,0.95,2.11,2.11C149.55,265.02,148.6,265.96,147.44,265.96z"/>
		<path class="st1" d="M138.9,222.27c-0.93,0-1.77,0.32-2.46,0.84l-6.33-6.33h-12.3l-9.06,9.06c-0.6-0.34-1.28-0.55-2.02-0.55
			c-2.26,0-4.1,1.84-4.1,4.11c0,2.26,1.84,4.1,4.1,4.1s4.11-1.84,4.11-4.1c0-0.8-0.24-1.54-0.64-2.18l8.44-8.44h10.64l5.9,5.9
			c-0.24,0.52-0.38,1.09-0.38,1.7c0,2.26,1.84,4.1,4.1,4.1c2.27,0,4.11-1.84,4.11-4.1C143.01,224.11,141.17,222.27,138.9,222.27z
			 M106.73,231.5c-1.16,0-2.1-0.94-2.1-2.1c0-1.17,0.94-2.11,2.1-2.11c1.16,0,2.11,0.94,2.11,2.11
			C108.84,230.56,107.89,231.5,106.73,231.5z M138.9,228.48c-1.16,0-2.1-0.94-2.1-2.1c0-1.16,0.94-2.11,2.1-2.11
			c1.17,0,2.11,0.95,2.11,2.11C141.01,227.54,140.07,228.48,138.9,228.48z"/>
		<path class="st1" d="M298.88,210.57c-0.79,0-1.52,0.24-2.14,0.62l-5.43-5.43h-23.28l-12.8,12.81v38.21
			c-1.78,0.45-3.11,2.06-3.11,3.97c0,2.26,1.85,4.1,4.11,4.1s4.1-1.84,4.1-4.1c0-1.92-1.32-3.52-3.1-3.97V219.4l11.63-11.64h21.62
			l4.86,4.87c-0.35,0.6-0.57,1.3-0.57,2.05c0,2.26,1.85,4.1,4.11,4.1s4.1-1.84,4.1-4.1C302.98,212.42,301.14,210.57,298.88,210.57z
			 M258.33,260.75c0,1.16-0.94,2.1-2.1,2.1c-1.16,0-2.11-0.94-2.11-2.1c0-1.16,0.95-2.11,2.11-2.11
			C257.39,258.64,258.33,259.59,258.33,260.75z M298.88,216.78c-1.16,0-2.11-0.94-2.11-2.1c0-1.16,0.95-2.11,2.11-2.11
			c1.16,0,2.1,0.95,2.1,2.11C300.98,215.84,300.04,216.78,298.88,216.78z"/>
		<path class="st1" d="M296.95,222.18c-0.74,0-1.43,0.21-2.03,0.56l-9.06-9.06h-12.3l-6.33,6.33c-0.69-0.52-1.53-0.84-2.46-0.84
			c-2.27,0-4.11,1.84-4.11,4.11c0,2.26,1.84,4.1,4.11,4.1c2.26,0,4.1-1.84,4.1-4.1c0-0.61-0.14-1.18-0.38-1.7l5.9-5.9h10.64
			l8.44,8.44c-0.4,0.63-0.63,1.37-0.63,2.17c0,2.26,1.84,4.1,4.11,4.1c2.26,0,4.1-1.84,4.1-4.1S299.21,222.18,296.95,222.18z
			 M264.77,225.38c-1.16,0-2.11-0.95-2.11-2.1c0-1.17,0.95-2.11,2.11-2.11s2.1,0.94,2.1,2.11
			C266.87,224.43,265.93,225.38,264.77,225.38z M296.95,228.39c-1.17,0-2.11-0.94-2.11-2.1c0-1.16,0.94-2.11,2.11-2.11
			c1.15,0,2.1,0.95,2.1,2.11C299.05,227.45,298.1,228.39,296.95,228.39z"/>
		<path class="st1" d="M242.04,157.62V97.48l-17.53-17.53H201V24.16c1.78-0.45,3.11-2.05,3.11-3.97c0-2.26-1.85-4.1-4.11-4.1
			c-2.26,0-4.1,1.84-4.1,4.1c0,1.92,1.32,3.52,3.1,3.97v55.79h-23.51l-17.52,17.53v60.14c-1.78,0.46-3.11,2.05-3.11,3.97
			c0,2.26,1.84,4.11,4.11,4.11c2.26,0,4.1-1.85,4.1-4.11c0-1.92-1.33-3.52-3.1-3.97V98.31l16.35-16.36h47.36l16.36,16.36v59.31
			c-1.78,0.45-3.11,2.05-3.11,3.97c0,2.26,1.84,4.11,4.1,4.11c2.27,0,4.11-1.85,4.11-4.11
			C245.14,159.67,243.82,158.07,242.04,157.62z M161.07,161.59c0,1.16-0.94,2.11-2.1,2.11c-1.16,0-2.11-0.95-2.11-2.11
			s0.95-2.1,2.11-2.1C160.13,159.49,161.07,160.43,161.07,161.59z M197.9,20.19c0-1.16,0.94-2.1,2.1-2.1c1.16,0,2.11,0.94,2.11,2.1
			c0,1.16-0.95,2.11-2.11,2.11C198.84,22.3,197.9,21.35,197.9,20.19z M241.03,163.7c-1.16,0-2.1-0.95-2.1-2.11s0.94-2.1,2.1-2.1
			c1.17,0,2.11,0.94,2.11,2.1S242.2,163.7,241.03,163.7z"/>
		<path class="st1" d="M217.29,132.48c-2.26,0-4.1,1.84-4.1,4.1c0,0.68,0.18,1.31,0.47,1.87l-6.32,6.32v13.93
			c-1.78,0.44-3.1,2.04-3.1,3.96c0,2.27,1.84,4.11,4.1,4.11s4.11-1.84,4.11-4.11c0-1.91-1.33-3.51-3.11-3.96v-13.1l5.64-5.63
			c0.66,0.45,1.45,0.72,2.31,0.72c2.27,0,4.11-1.84,4.11-4.11C221.4,134.32,219.56,132.48,217.29,132.48z M210.45,162.66
			c0,1.16-0.95,2.11-2.11,2.11c-1.16,0-2.1-0.95-2.1-2.11c0-1.16,0.94-2.1,2.1-2.1C209.5,160.56,210.45,161.5,210.45,162.66z
			 M217.29,138.69c-1.15,0-2.1-0.94-2.1-2.11c0-1.16,0.95-2.1,2.1-2.1c1.17,0,2.11,0.94,2.11,2.1
			C219.4,137.75,218.46,138.69,217.29,138.69z"/>
		<path class="st1" d="M215.13,104.33c-1.92,0-3.52,1.33-3.97,3.11h-22.32c-0.45-1.78-2.05-3.11-3.96-3.11
			c-2.27,0-4.11,1.84-4.11,4.1c0,2.27,1.84,4.11,4.11,4.11c1.91,0,3.51-1.32,3.96-3.1h22.32c0.45,1.78,2.05,3.1,3.97,3.1
			c2.26,0,4.11-1.84,4.11-4.11C219.24,106.17,217.39,104.33,215.13,104.33z M184.88,110.54c-1.17,0-2.11-0.94-2.11-2.11
			c0-1.16,0.94-2.1,2.11-2.1c1.16,0,2.1,0.94,2.1,2.1C186.98,109.6,186.04,110.54,184.88,110.54z M215.13,110.54
			c-1.16,0-2.1-0.94-2.1-2.11c0-1.16,0.94-2.1,2.1-2.1c1.16,0,2.11,0.94,2.11,2.1C217.24,109.6,216.29,110.54,215.13,110.54z"/>
		<path class="st1" d="M200,115.35c-6,0-10.88,4.88-10.88,10.88S194,137.11,200,137.11s10.88-4.88,10.88-10.88
			S206,115.35,200,115.35z M200,135.11c-4.89,0-8.88-3.98-8.88-8.88c0-4.9,3.99-8.88,8.88-8.88c4.9,0,8.88,3.98,8.88,8.88
			C208.88,131.13,204.9,135.11,200,135.11z"/>
		
			<ellipse transform="matrix(0.7071 -0.7071 0.7071 0.7071 -30.679 178.3945)" class="st2" cx="200" cy="126.23" rx="5.25" ry="5.25"/>
		<path class="st1" d="M192.66,158.7v-13.93l-6.32-6.32c0.29-0.56,0.47-1.19,0.47-1.87c0-2.26-1.84-4.1-4.1-4.1
			c-2.27,0-4.11,1.84-4.11,4.1c0,2.27,1.84,4.11,4.11,4.11c0.86,0,1.66-0.27,2.32-0.72l5.63,5.63v13.1c-1.78,0.45-3.1,2.05-3.1,3.96
			c0,2.27,1.84,4.11,4.11,4.11c2.26,0,4.1-1.84,4.1-4.11C195.77,160.74,194.44,159.14,192.66,158.7z M182.71,138.69
			c-1.16,0-2.11-0.94-2.11-2.11c0-1.16,0.95-2.1,2.11-2.1s2.1,0.94,2.1,2.1C184.81,137.75,183.87,138.69,182.71,138.69z
			 M191.67,164.77c-1.17,0-2.11-0.95-2.11-2.11c0-1.16,0.94-2.1,2.11-2.1c1.15,0,2.1,0.94,2.1,2.1
			C193.77,163.82,192.82,164.77,191.67,164.77z"/>
		<path class="st1" d="M233.99,132.07v-29.82l-12.11-12.11h-43.76l-12.1,12.11v29.82l13.38,13.38v13.25
			c-1.77,0.45-3.1,2.05-3.1,3.96c0,2.27,1.85,4.11,4.11,4.11s4.1-1.84,4.1-4.11c0-1.92-1.33-3.52-3.11-3.97v-14.07l-13.38-13.38
			v-28.16l10.93-10.94h42.1l10.94,10.94v28.16l-13.39,13.38v14.07c-1.78,0.45-3.11,2.05-3.11,3.97c0,2.27,1.84,4.11,4.1,4.11
			c2.27,0,4.11-1.84,4.11-4.11c0-1.91-1.32-3.51-3.1-3.96v-13.25L233.99,132.07z M182.51,162.66c0,1.16-0.94,2.11-2.1,2.11
			c-1.16,0-2.11-0.95-2.11-2.11c0-1.16,0.95-2.1,2.11-2.1C181.57,160.56,182.51,161.5,182.51,162.66z M221.7,162.66
			c0,1.16-0.94,2.11-2.11,2.11c-1.16,0-2.1-0.95-2.1-2.11c0-1.16,0.94-2.1,2.1-2.1C220.76,160.56,221.7,161.5,221.7,162.66z"/>
		<path class="st1" d="M224.76,112.39v-5.85l-6.55-6.56H181.8l-6.55,6.56v5.85c-1.78,0.45-3.11,2.04-3.11,3.96
			c0,2.26,1.84,4.11,4.11,4.11c2.26,0,4.1-1.85,4.1-4.11c0-1.92-1.33-3.52-3.1-3.97v-5.02l5.38-5.38h34.75l5.38,5.38v5.02
			c-1.78,0.45-3.11,2.05-3.11,3.97c0,2.26,1.84,4.11,4.1,4.11c2.27,0,4.11-1.85,4.11-4.11
			C227.86,114.43,226.54,112.84,224.76,112.39z M178.35,116.35c0,1.16-0.94,2.11-2.1,2.11c-1.16,0-2.11-0.95-2.11-2.11
			c0-1.16,0.95-2.1,2.11-2.1C177.41,114.25,178.35,115.19,178.35,116.35z M223.75,118.46c-1.16,0-2.1-0.95-2.1-2.11
			c0-1.16,0.94-2.1,2.1-2.1c1.17,0,2.11,0.94,2.11,2.1C225.86,117.51,224.92,118.46,223.75,118.46z"/>
		<path class="st1" d="M387.08,79.55l-24.79-24.78h-20.75l-8.28,8.28h-54.88l-7.55,7.54c-0.6-0.34-1.28-0.55-2.02-0.55
			c-2.26,0-4.11,1.84-4.11,4.1s1.85,4.11,4.11,4.11c2.26,0,4.1-1.85,4.1-4.11c0-0.8-0.24-1.54-0.63-2.17l6.93-6.92h54.88l8.28-8.28
			h19.09l24.79,24.78H400v-2H387.08z M268.81,76.25c-1.16,0-2.11-0.95-2.11-2.11c0-1.16,0.95-2.1,2.11-2.1c1.16,0,2.1,0.94,2.1,2.1
			C270.91,75.3,269.97,76.25,268.81,76.25z"/>
		<path class="st1" d="M376.79,88.64l-14.41-14.41H350.9c-0.45-1.78-2.05-3.1-3.97-3.1c-2.26,0-4.11,1.84-4.11,4.1
			s1.85,4.11,4.11,4.11c1.92,0,3.52-1.33,3.97-3.11h10.65l14.41,14.41H400v-2H376.79z M346.93,77.34c-1.16,0-2.11-0.95-2.11-2.11
			c0-1.16,0.95-2.1,2.11-2.1c1.16,0,2.1,0.94,2.1,2.1C349.03,76.39,348.09,77.34,346.93,77.34z"/>
		<path class="st1" d="M371.69,97.14L360.25,85.7c0.35-0.61,0.57-1.3,0.57-2.05c0-2.26-1.84-4.1-4.1-4.1c-2.27,0-4.11,1.84-4.11,4.1
			c0,2.27,1.84,4.11,4.11,4.11c0.78,0,1.52-0.23,2.14-0.62l12,12H400v-2H371.69z M356.72,85.76c-1.17,0-2.11-0.94-2.11-2.11
			c0-1.16,0.94-2.1,2.11-2.1c1.15,0,2.1,0.94,2.1,2.1C358.82,84.82,357.87,85.76,356.72,85.76z"/>
		<path class="st1" d="M341.25,35.68c-2.26,0-4.11,1.84-4.11,4.1c0,0.72,0.21,1.4,0.54,1.99l-4.96,4.95h-39.07
			c-0.44-1.77-2.04-3.1-3.96-3.1c-2.27,0-4.11,1.84-4.11,4.1c0,2.27,1.84,4.11,4.11,4.11c1.91,0,3.51-1.33,3.96-3.11h39.9l5.49-5.49
			c0.64,0.41,1.4,0.66,2.21,0.66c2.26,0,4.1-1.85,4.1-4.11S343.51,35.68,341.25,35.68z M289.69,49.83c-1.16,0-2.11-0.95-2.11-2.11
			c0-1.16,0.95-2.1,2.11-2.1c1.16,0,2.1,0.94,2.1,2.1C291.79,48.88,290.85,49.83,289.69,49.83z M341.25,41.89
			c-1.16,0-2.11-0.95-2.11-2.11c0-1.16,0.95-2.1,2.11-2.1c1.16,0,2.1,0.94,2.1,2.1C343.35,40.94,342.41,41.89,341.25,41.89z"/>
		<path class="st1" d="M366.79,7.67c-2.26,0-4.11,1.84-4.11,4.1c0,0.84,0.26,1.62,0.69,2.28l-17.38,17.37h-59.92
			c-0.52-7.79-7.01-13.97-14.93-13.97c-8.26,0-14.98,6.71-14.98,14.97s6.72,14.98,14.98,14.98c7.92,0,14.41-6.18,14.93-13.98h60.75
			l18.05-18.04c0.57,0.31,1.22,0.5,1.92,0.5c2.26,0,4.1-1.84,4.1-4.11C370.89,9.51,369.05,7.67,366.79,7.67z M271.14,45.4
			c-7.16,0-12.98-5.82-12.98-12.98c0-7.15,5.82-12.97,12.98-12.97c7.16,0,12.98,5.82,12.98,12.97
			C284.12,39.58,278.3,45.4,271.14,45.4z M366.79,13.88c-1.16,0-2.11-0.95-2.11-2.11c0-1.16,0.95-2.1,2.11-2.1
			c1.16,0,2.1,0.94,2.1,2.1C368.89,12.93,367.95,13.88,366.79,13.88z"/>
		<path class="st1" d="M346.93,8.15c-2.26,0-4.11,1.84-4.11,4.1c0,0.85,0.26,1.64,0.7,2.29l-7.2,7.21h-37.9
			c-0.44-1.78-2.04-3.11-3.96-3.11c-2.27,0-4.11,1.84-4.11,4.1c0,2.27,1.84,4.11,4.11,4.11c1.91,0,3.51-1.32,3.96-3.1h38.73
			l7.87-7.88c0.58,0.31,1.22,0.49,1.91,0.49c2.26,0,4.1-1.84,4.1-4.11C351.03,9.99,349.19,8.15,346.93,8.15z M294.46,24.85
			c-1.16,0-2.11-0.94-2.11-2.11c0-1.16,0.95-2.1,2.11-2.1s2.1,0.94,2.1,2.1C296.56,23.91,295.62,24.85,294.46,24.85z M346.93,14.36
			c-1.16,0-2.11-0.94-2.11-2.11c0-1.15,0.95-2.1,2.11-2.1c1.16,0,2.1,0.95,2.1,2.1C349.03,13.42,348.09,14.36,346.93,14.36z"/>
		<path class="st1" d="M289.69,76.94c-1.92,0-3.52,1.33-3.97,3.1h-22.07l-24.01-24.01V15.04c1.77-0.45,3.1-2.05,3.1-3.97
			c0-2.26-1.84-4.1-4.1-4.1c-2.27,0-4.11,1.84-4.11,4.1c0,1.91,1.33,3.52,3.11,3.97v41.82l25.18,25.18h22.9
			c0.45,1.78,2.05,3.11,3.97,3.11c2.26,0,4.1-1.84,4.1-4.11C293.79,78.78,291.95,76.94,289.69,76.94z M236.53,11.07
			c0-1.16,0.95-2.1,2.11-2.1c1.16,0,2.1,0.94,2.1,2.1c0,1.16-0.94,2.11-2.1,2.11C237.48,13.18,236.53,12.23,236.53,11.07z
			 M289.69,83.15c-1.16,0-2.11-0.95-2.11-2.11c0-1.16,0.95-2.1,2.11-2.1c1.16,0,2.1,0.94,2.1,2.1
			C291.79,82.2,290.85,83.15,289.69,83.15z"/>
		<path class="st1" d="M293.23,88.39c-1.93,0-3.53,1.32-3.98,3.1h-28.72L226.9,57.86V15.35c1.78-0.44,3.11-2.05,3.11-3.97
			c0-2.26-1.84-4.1-4.1-4.1c-2.27,0-4.11,1.84-4.11,4.1c0,1.92,1.32,3.52,3.1,3.97v43.34l34.8,34.8h29.55
			c0.46,1.78,2.06,3.11,3.98,3.11c2.26,0,4.1-1.85,4.1-4.11C297.33,90.23,295.49,88.39,293.23,88.39z M223.8,11.38
			c0-1.16,0.94-2.1,2.11-2.1c1.16,0,2.1,0.94,2.1,2.1c0,1.16-0.94,2.11-2.1,2.11C224.74,13.49,223.8,12.54,223.8,11.38z
			 M293.23,94.6c-1.17,0-2.11-0.95-2.11-2.11c0-1.16,0.94-2.1,2.11-2.1c1.15,0,2.1,0.94,2.1,2.1
			C295.33,93.65,294.38,94.6,293.23,94.6z"/>
		<path class="st1" d="M287.34,99.27c-1.92,0-3.52,1.32-3.97,3.1h-24.65l-42.43-42.42v-44.6c1.78-0.45,3.11-2.05,3.11-3.97
			c0-2.26-1.84-4.1-4.1-4.1c-2.27,0-4.11,1.84-4.11,4.1c0,1.92,1.32,3.52,3.1,3.97v45.43l43.6,43.59h25.48
			c0.45,1.78,2.05,3.11,3.97,3.11c2.26,0,4.1-1.85,4.1-4.11C291.44,101.11,289.6,99.27,287.34,99.27z M213.19,11.38
			c0-1.16,0.94-2.1,2.11-2.1c1.16,0,2.1,0.94,2.1,2.1c0,1.16-0.94,2.11-2.1,2.11C214.13,13.49,213.19,12.54,213.19,11.38z
			 M287.34,105.48c-1.16,0-2.11-0.95-2.11-2.11c0-1.16,0.95-2.1,2.11-2.1c1.16,0,2.1,0.94,2.1,2.1
			C289.44,104.53,288.5,105.48,287.34,105.48z"/>
		<path class="st1" d="M331.55,145.36c-0.68,0-1.32,0.19-1.89,0.48l-6.52-6.52h-18.65c-0.45-1.78-2.05-3.1-3.97-3.1
			c-2.26,0-4.11,1.84-4.11,4.1s1.85,4.11,4.11,4.11c1.92,0,3.52-1.33,3.97-3.11h17.82l5.84,5.84c-0.44,0.66-0.71,1.45-0.71,2.3
			c0,2.27,1.85,4.11,4.11,4.11c2.26,0,4.1-1.84,4.1-4.11C335.65,147.2,333.81,145.36,331.55,145.36z M300.52,142.43
			c-1.16,0-2.11-0.95-2.11-2.11c0-1.16,0.95-2.1,2.11-2.1s2.1,0.94,2.1,2.1C302.62,141.48,301.68,142.43,300.52,142.43z
			 M331.55,151.57c-1.16,0-2.11-0.95-2.11-2.11s0.95-2.1,2.11-2.1c1.16,0,2.1,0.94,2.1,2.1S332.71,151.57,331.55,151.57z"/>
		<path class="st1" d="M339.3,125.99c-0.76,0-1.46,0.22-2.07,0.58l-8.35-8.35v-6.52l2.51-2.5h3c0.48,1.73,2.06,3.02,3.95,3.02
			c2.26,0,4.1-1.84,4.1-4.11c0-2.26-1.84-4.1-4.1-4.1c-1.95,0-3.58,1.37-4,3.19h-3.78l-3.68,3.67v8.18l8.92,8.91
			c-0.38,0.63-0.61,1.35-0.61,2.13c0,2.27,1.84,4.11,4.11,4.11c2.26,0,4.1-1.84,4.1-4.11C343.4,127.83,341.56,125.99,339.3,125.99z
			 M338.34,106.01c1.15,0,2.1,0.94,2.1,2.1c0,1.16-0.95,2.11-2.1,2.11c-1.17,0-2.11-0.95-2.11-2.11
			C336.23,106.95,337.17,106.01,338.34,106.01z M339.3,132.2c-1.17,0-2.11-0.94-2.11-2.11c0-1.16,0.94-2.1,2.11-2.1
			c1.15,0,2.1,0.94,2.1,2.1C341.4,131.26,340.45,132.2,339.3,132.2z"/>
		<path class="st1" d="M382.16,185.36v-13.92l-6.32-6.33c0.29-0.56,0.47-1.19,0.47-1.87c0-2.26-1.84-4.1-4.1-4.1
			c-2.27,0-4.11,1.84-4.11,4.1c0,2.27,1.84,4.11,4.11,4.11c0.86,0,1.66-0.27,2.32-0.72l5.63,5.63v13.1c-1.78,0.45-3.1,2.05-3.1,3.96
			c0,2.27,1.84,4.11,4.11,4.11c2.26,0,4.1-1.84,4.1-4.11C385.27,187.4,383.94,185.8,382.16,185.36z M372.21,165.35
			c-1.16,0-2.11-0.94-2.11-2.11c0-1.15,0.95-2.1,2.11-2.1s2.1,0.95,2.1,2.1C374.31,164.41,373.37,165.35,372.21,165.35z
			 M381.17,191.43c-1.17,0-2.11-0.95-2.11-2.11c0-1.16,0.94-2.1,2.11-2.1c1.15,0,2.1,0.94,2.1,2.1
			C383.27,190.48,382.32,191.43,381.17,191.43z"/>
		<path class="st1" d="M352.35,93.73l-7.36-7.36c0.34-0.6,0.55-1.28,0.55-2.02c0-2.26-1.84-4.1-4.1-4.1c-2.27,0-4.11,1.84-4.11,4.1
			s1.84,4.11,4.11,4.11c0.8,0,1.54-0.24,2.17-0.64l6.74,6.74v15.9l-6.27,6.27c-0.6-0.36-1.3-0.58-2.05-0.58
			c-2.27,0-4.11,1.84-4.11,4.1c0,2.27,1.84,4.11,4.11,4.11c2.26,0,4.1-1.84,4.1-4.11c0-0.78-0.24-1.5-0.62-2.12l6.84-6.84V93.73z
			 M341.44,86.46c-1.16,0-2.11-0.95-2.11-2.11c0-1.16,0.95-2.1,2.11-2.1c1.16,0,2.1,0.94,2.1,2.1
			C343.54,85.51,342.6,86.46,341.44,86.46z M342.03,122.36c-1.17,0-2.11-0.95-2.11-2.11c0-1.16,0.94-2.1,2.11-2.1
			c1.15,0,2.1,0.94,2.1,2.1C344.13,121.41,343.18,122.36,342.03,122.36z"/>
		<path class="st1" d="M378.81,77.74c-0.73,0-1.41,0.2-2,0.54l-17.47-17.47h-12.67L338,69.48c-0.62-0.38-1.34-0.61-2.11-0.61
			c-2.27,0-4.11,1.84-4.11,4.1c0,2.27,1.84,4.11,4.11,4.11c2.26,0,4.1-1.84,4.1-4.11c0-0.76-0.22-1.46-0.58-2.07l8.08-8.09h11.02
			l16.84,16.84c-0.41,0.63-0.65,1.38-0.65,2.19c0,2.26,1.84,4.11,4.11,4.11c2.26,0,4.1-1.85,4.1-4.11S381.07,77.74,378.81,77.74z
			 M335.89,75.08c-1.17,0-2.11-0.94-2.11-2.11c0-1.16,0.94-2.1,2.11-2.1c1.16,0,2.1,0.94,2.1,2.1
			C337.99,74.14,337.05,75.08,335.89,75.08z M378.81,83.95c-1.16,0-2.11-0.95-2.11-2.11s0.95-2.1,2.11-2.1c1.16,0,2.1,0.94,2.1,2.1
			S379.97,83.95,378.81,83.95z"/>
		<circle class="st2" cx="271.14" cy="32.42" r="6.41"/>
		<path class="st1" d="M315.89,68.76c-7.21,0-13.08,5.87-13.08,13.08s5.87,13.08,13.08,13.08s13.08-5.87,13.08-13.08
			S323.1,68.76,315.89,68.76z M315.89,92.92c-6.11,0-11.08-4.97-11.08-11.08s4.97-11.08,11.08-11.08s11.08,4.97,11.08,11.08
			S322,92.92,315.89,92.92z"/>
		
			<ellipse transform="matrix(0.9871 -0.1602 0.1602 0.9871 -9.0307 51.6565)" class="st2" cx="315.89" cy="81.84" rx="6.41" ry="6.41"/>
		<path class="st1" d="M386.72,139.32c-6.33,0-11.49,5.16-11.49,11.49c0,6.34,5.16,11.5,11.49,11.5c6.34,0,11.5-5.16,11.5-11.5
			C398.22,144.48,393.06,139.32,386.72,139.32z M386.72,160.31c-5.23,0-9.49-4.26-9.49-9.5c0-5.23,4.26-9.49,9.49-9.49
			c5.24,0,9.5,4.26,9.5,9.49C396.22,156.05,391.96,160.31,386.72,160.31z"/>
		<circle class="st2" cx="386.72" cy="150.81" r="5.57"/>
		<path class="st1" d="M343.76,94.03c-1.91,0-3.5,1.31-3.96,3.07h-14.03l-9.1,9.09v15.61l18.7,18.69c-0.27,0.54-0.43,1.14-0.43,1.78
			c0,2.27,1.84,4.11,4.11,4.11c2.26,0,4.1-1.84,4.1-4.11c0-2.26-1.84-4.1-4.1-4.1c-0.89,0-1.72,0.3-2.39,0.79l-17.99-17.99v-13.95
			l7.93-7.92h13.18c0.44,1.8,2.05,3.14,3.98,3.14c2.26,0,4.1-1.84,4.1-4.11C347.86,95.87,346.02,94.03,343.76,94.03z M339.05,140.17
			c1.16,0,2.1,0.95,2.1,2.1c0,1.17-0.94,2.11-2.1,2.11c-1.16,0-2.11-0.94-2.11-2.11C336.94,141.12,337.89,140.17,339.05,140.17z
			 M343.76,100.24c-1.16,0-2.11-0.94-2.11-2.11c0-1.16,0.95-2.1,2.11-2.1c1.16,0,2.1,0.94,2.1,2.1
			C345.86,99.3,344.92,100.24,343.76,100.24z"/>
		<path class="st1" d="M364.99,106.61l-17.52,17.53v60.15c-1.78,0.45-3.11,2.04-3.11,3.96c0,2.26,1.84,4.11,4.11,4.11
			c2.26,0,4.1-1.85,4.1-4.11c0-1.92-1.33-3.52-3.1-3.97v-59.31l16.35-16.36H400v-2H364.99z M350.57,188.25
			c0,1.16-0.94,2.11-2.1,2.11c-1.16,0-2.11-0.95-2.11-2.11c0-1.16,0.95-2.1,2.11-2.1C349.63,186.15,350.57,187.09,350.57,188.25z"/>
		<path class="st1" d="M368.45,118.8H400v-2h-32.38l-12.1,12.11v29.82l13.38,13.38v13.25c-1.77,0.45-3.1,2.05-3.1,3.96
			c0,2.27,1.85,4.11,4.11,4.11s4.1-1.84,4.1-4.11c0-1.92-1.33-3.52-3.11-3.97v-14.06l-13.38-13.39v-28.16L368.45,118.8z
			 M372.01,189.32c0,1.16-0.94,2.11-2.1,2.11c-1.16,0-2.11-0.95-2.11-2.11c0-1.16,0.95-2.1,2.11-2.1
			C371.07,187.22,372.01,188.16,372.01,189.32z"/>
		<path class="st1" d="M371.3,126.64l-6.55,6.56v5.85c-1.78,0.45-3.11,2.04-3.11,3.96c0,2.26,1.84,4.11,4.11,4.11
			c2.26,0,4.1-1.85,4.1-4.11c0-1.92-1.33-3.52-3.1-3.97v-5.02l5.38-5.38H400v-2H371.3z M367.85,143.01c0,1.16-0.94,2.11-2.1,2.11
			c-1.16,0-2.11-0.95-2.11-2.11c0-1.16,0.95-2.1,2.11-2.1C366.91,140.91,367.85,141.85,367.85,143.01z"/>
		<path class="st1" d="M378.34,134.1c-0.45-1.78-2.05-3.11-3.96-3.11c-2.27,0-4.11,1.84-4.11,4.1c0,2.27,1.84,4.11,4.11,4.11
			c1.91,0,3.51-1.32,3.96-3.1H400v-2H378.34z M374.38,137.2c-1.17,0-2.11-0.94-2.11-2.11c0-1.15,0.94-2.1,2.11-2.1
			c1.16,0,2.1,0.95,2.1,2.1C376.48,136.26,375.54,137.2,374.38,137.2z"/>
		<path class="st1" d="M131.19,70.04c-0.74,0-1.42,0.21-2.02,0.55l-7.54-7.54H66.74l-8.28-8.28H37.71L12.93,79.55H0v2h13.76
			l24.78-24.78h19.09l8.28,8.28h54.89l6.92,6.92c-0.39,0.63-0.63,1.37-0.63,2.17c0,2.26,1.84,4.11,4.1,4.11
			c2.27,0,4.11-1.85,4.11-4.11S133.46,70.04,131.19,70.04z M131.19,76.25c-1.16,0-2.1-0.95-2.1-2.11c0-1.16,0.94-2.1,2.1-2.1
			c1.16,0,2.11,0.94,2.11,2.1C133.3,75.3,132.35,76.25,131.19,76.25z"/>
		<path class="st1" d="M64.12,68.87c-0.78,0-1.5,0.23-2.12,0.61l-8.66-8.67H40.66L23.2,78.28c-0.6-0.34-1.28-0.54-2.01-0.54
			c-2.26,0-4.1,1.84-4.1,4.1s1.84,4.11,4.1,4.11c2.27,0,4.11-1.85,4.11-4.11c0-0.81-0.24-1.56-0.64-2.19l16.83-16.84h11.02
			l8.09,8.09c-0.36,0.61-0.58,1.31-0.58,2.07c0,2.27,1.84,4.11,4.1,4.11c2.26,0,4.11-1.84,4.11-4.11
			C68.23,70.71,66.38,68.87,64.12,68.87z M21.19,83.95c-1.16,0-2.1-0.95-2.1-2.11s0.94-2.1,2.1-2.1c1.17,0,2.11,0.94,2.11,2.1
			S22.36,83.95,21.19,83.95z M64.12,75.08c-1.16,0-2.1-0.94-2.1-2.11c0-1.16,0.94-2.1,2.1-2.1c1.16,0,2.11,0.94,2.11,2.1
			C66.23,74.14,65.28,75.08,64.12,75.08z"/>
		<path class="st1" d="M53.07,71.13c-1.92,0-3.52,1.32-3.96,3.1H37.62L23.21,88.64H0v2h24.04l14.41-14.41h10.66
			c0.45,1.78,2.05,3.11,3.96,3.11c2.27,0,4.11-1.85,4.11-4.11S55.34,71.13,53.07,71.13z M53.07,77.34c-1.16,0-2.1-0.95-2.1-2.11
			c0-1.16,0.94-2.1,2.1-2.1c1.16,0,2.11,0.94,2.11,2.1C55.18,76.39,54.23,77.34,53.07,77.34z"/>
		<path class="st1" d="M43.29,79.55c-2.26,0-4.1,1.84-4.1,4.1c0,0.75,0.21,1.44,0.56,2.05L28.31,97.14H0v2h29.14l12-12
			c0.63,0.39,1.36,0.62,2.15,0.62c2.26,0,4.11-1.84,4.11-4.11C47.4,81.39,45.55,79.55,43.29,79.55z M43.29,85.76
			c-1.16,0-2.1-0.94-2.1-2.11c0-1.16,0.94-2.1,2.1-2.1c1.16,0,2.11,0.94,2.11,2.1C45.4,84.82,44.45,85.76,43.29,85.76z"/>
		<path class="st1" d="M161.36,6.97c-2.26,0-4.1,1.84-4.1,4.1c0,1.92,1.33,3.52,3.11,3.97v40.99l-24.02,24.01h-22.06
			c-0.45-1.77-2.06-3.1-3.98-3.1c-2.26,0-4.1,1.84-4.1,4.1c0,2.27,1.84,4.11,4.1,4.11c1.92,0,3.52-1.33,3.97-3.11h22.9l25.19-25.18
			V15.04c1.78-0.45,3.1-2.06,3.1-3.97C165.47,8.81,163.63,6.97,161.36,6.97z M110.31,83.15c-1.16,0-2.1-0.95-2.1-2.11
			c0-1.16,0.94-2.1,2.1-2.1c1.17,0,2.11,0.94,2.11,2.1C112.42,82.2,111.48,83.15,110.31,83.15z M161.36,13.18
			c-1.15,0-2.1-0.95-2.1-2.11c0-1.16,0.95-2.1,2.1-2.1c1.17,0,2.11,0.94,2.11,2.1C163.47,12.23,162.53,13.18,161.36,13.18z"/>
		<path class="st1" d="M174.1,7.28c-2.26,0-4.1,1.84-4.1,4.1c0,1.92,1.32,3.52,3.1,3.97v42.51l-33.63,33.63h-28.72
			c-0.45-1.78-2.05-3.1-3.97-3.1c-2.26,0-4.1,1.84-4.1,4.1c0,2.26,1.84,4.11,4.1,4.11c1.92,0,3.52-1.33,3.97-3.11h29.55l34.8-34.8
			V15.35c1.78-0.45,3.11-2.05,3.11-3.97C178.21,9.12,176.36,7.28,174.1,7.28z M106.78,94.6c-1.16,0-2.1-0.95-2.1-2.11
			c0-1.16,0.94-2.1,2.1-2.1c1.16,0,2.11,0.94,2.11,2.1C108.89,93.65,107.94,94.6,106.78,94.6z M174.1,13.49
			c-1.16,0-2.1-0.95-2.1-2.11c0-1.16,0.94-2.1,2.1-2.1c1.16,0,2.11,0.94,2.11,2.1C176.21,12.54,175.26,13.49,174.1,13.49z"/>
		<path class="st1" d="M184.71,7.28c-2.26,0-4.1,1.84-4.1,4.1c0,1.92,1.32,3.52,3.1,3.97v44.6l-42.42,42.42h-24.65
			c-0.45-1.78-2.06-3.1-3.98-3.1c-2.26,0-4.1,1.84-4.1,4.1c0,2.26,1.84,4.11,4.1,4.11c1.92,0,3.52-1.33,3.97-3.11h25.48l43.6-43.59
			V15.35c1.78-0.45,3.11-2.05,3.11-3.97C188.82,9.12,186.97,7.28,184.71,7.28z M112.66,105.48c-1.15,0-2.1-0.95-2.1-2.11
			c0-1.16,0.95-2.1,2.1-2.1c1.17,0,2.11,0.94,2.11,2.1C114.77,104.53,113.83,105.48,112.66,105.48z M184.71,13.49
			c-1.16,0-2.1-0.95-2.1-2.11c0-1.16,0.94-2.1,2.1-2.1s2.11,0.94,2.11,2.1C186.82,12.54,185.87,13.49,184.71,13.49z"/>
		<path class="st1" d="M105.54,18.64c-1.91,0-3.51,1.33-3.96,3.11H63.69l-7.21-7.21c0.44-0.65,0.7-1.44,0.7-2.29
			c0-2.26-1.84-4.1-4.11-4.1c-2.26,0-4.1,1.84-4.1,4.1c0,2.27,1.84,4.11,4.1,4.11c0.69,0,1.34-0.18,1.91-0.49l7.88,7.88h38.72
			c0.45,1.78,2.05,3.1,3.96,3.1c2.27,0,4.11-1.84,4.11-4.11C109.65,20.48,107.81,18.64,105.54,18.64z M53.07,14.36
			c-1.16,0-2.1-0.94-2.1-2.11c0-1.15,0.94-2.1,2.1-2.1c1.16,0,2.11,0.95,2.11,2.1C55.18,13.42,54.23,14.36,53.07,14.36z
			 M105.54,24.85c-1.16,0-2.1-0.94-2.1-2.11c0-1.16,0.94-2.1,2.1-2.1c1.17,0,2.11,0.94,2.11,2.1
			C107.65,23.91,106.71,24.85,105.54,24.85z"/>
		<path class="st1" d="M128.86,17.45c-7.92,0-14.41,6.18-14.92,13.97H54.01L36.63,14.05c0.44-0.66,0.69-1.44,0.69-2.28
			c0-2.26-1.84-4.1-4.11-4.1c-2.26,0-4.1,1.84-4.1,4.1c0,2.27,1.84,4.11,4.1,4.11c0.7,0,1.35-0.19,1.93-0.5l18.04,18.04h60.76
			c0.51,7.8,7,13.98,14.92,13.98c8.26,0,14.98-6.72,14.98-14.98S137.12,17.45,128.86,17.45z M33.21,13.88c-1.16,0-2.1-0.95-2.1-2.11
			c0-1.16,0.94-2.1,2.1-2.1s2.11,0.94,2.11,2.1C35.32,12.93,34.37,13.88,33.21,13.88z M128.86,45.4c-7.15,0-12.97-5.82-12.97-12.98
			c0-7.15,5.82-12.97,12.97-12.97c7.16,0,12.98,5.82,12.98,12.97C141.84,39.58,136.02,45.4,128.86,45.4z"/>
		<path class="st1" d="M110.31,43.62c-1.91,0-3.51,1.33-3.96,3.1H67.28l-4.96-4.95c0.34-0.59,0.54-1.27,0.54-1.99
			c0-2.26-1.84-4.1-4.11-4.1c-2.26,0-4.1,1.84-4.1,4.1s1.84,4.11,4.1,4.11c0.82,0,1.57-0.25,2.21-0.66l5.49,5.49h39.9
			c0.45,1.78,2.05,3.11,3.96,3.11c2.27,0,4.11-1.84,4.11-4.11C114.42,45.46,112.58,43.62,110.31,43.62z M58.75,41.89
			c-1.16,0-2.1-0.95-2.1-2.11c0-1.16,0.94-2.1,2.1-2.1c1.16,0,2.11,0.94,2.11,2.1C60.86,40.94,59.91,41.89,58.75,41.89z
			 M110.31,49.83c-1.16,0-2.1-0.95-2.1-2.11c0-1.16,0.94-2.1,2.1-2.1c1.17,0,2.11,0.94,2.11,2.1
			C112.42,48.88,111.48,49.83,110.31,49.83z"/>
		<path class="st1" d="M99.48,136.22c-1.92,0-3.52,1.32-3.96,3.1H76.87l-6.53,6.52c-0.57-0.29-1.2-0.48-1.89-0.48
			c-2.26,0-4.1,1.84-4.1,4.1c0,2.27,1.84,4.11,4.1,4.11c2.27,0,4.11-1.84,4.11-4.11c0-0.85-0.26-1.64-0.71-2.3l5.84-5.84h17.83
			c0.45,1.78,2.05,3.11,3.96,3.11c2.27,0,4.11-1.85,4.11-4.11S101.75,136.22,99.48,136.22z M68.45,151.57c-1.16,0-2.1-0.95-2.1-2.11
			s0.94-2.1,2.1-2.1c1.16,0,2.11,0.94,2.11,2.1S69.61,151.57,68.45,151.57z M99.48,142.43c-1.16,0-2.1-0.95-2.1-2.11
			c0-1.16,0.94-2.1,2.1-2.1c1.16,0,2.11,0.94,2.11,2.1C101.59,141.48,100.64,142.43,99.48,142.43z"/>
		<path class="st1" d="M57.98,116.15c-0.76,0-1.45,0.22-2.06,0.58l-6.27-6.27v-15.9l6.74-6.74c0.63,0.4,1.37,0.64,2.17,0.64
			c2.27,0,4.11-1.85,4.11-4.11s-1.84-4.1-4.11-4.1c-2.26,0-4.1,1.84-4.1,4.1c0,0.74,0.21,1.42,0.55,2.02l-7.36,7.36v17.56l6.84,6.84
			c-0.38,0.62-0.61,1.34-0.61,2.12c0,2.27,1.84,4.11,4.1,4.11s4.11-1.84,4.11-4.11C62.09,117.99,60.24,116.15,57.98,116.15z
			 M58.56,82.25c1.17,0,2.11,0.94,2.11,2.1c0,1.16-0.94,2.11-2.11,2.11c-1.16,0-2.1-0.95-2.1-2.11
			C56.46,83.19,57.4,82.25,58.56,82.25z M57.98,122.36c-1.16,0-2.1-0.95-2.1-2.11c0-1.16,0.94-2.1,2.1-2.1
			c1.16,0,2.11,0.94,2.11,2.1C60.09,121.41,59.14,122.36,57.98,122.36z"/>
		
			<ellipse transform="matrix(0.9732 -0.2298 0.2298 0.9732 -4.0024 30.4744)" class="st2" cx="128.86" cy="32.42" rx="6.41" ry="6.41"/>
		<path class="st1" d="M84.11,68.76c-7.21,0-13.07,5.87-13.07,13.08s5.86,13.08,13.07,13.08c7.22,0,13.08-5.87,13.08-13.08
			S91.33,68.76,84.11,68.76z M84.11,92.92c-6.1,0-11.07-4.97-11.07-11.08s4.97-11.08,11.07-11.08c6.11,0,11.08,4.97,11.08,11.08
			S90.22,92.92,84.11,92.92z"/>
		<circle class="st2" cx="84.11" cy="81.84" r="6.41"/>
		<path class="st1" d="M13.28,139.32c-6.34,0-11.49,5.16-11.49,11.49c0,6.34,5.15,11.5,11.49,11.5c6.34,0,11.49-5.16,11.49-11.5
			C24.77,144.48,19.62,139.32,13.28,139.32z M13.28,160.31c-5.23,0-9.49-4.26-9.49-9.5c0-5.23,4.26-9.49,9.49-9.49
			s9.49,4.26,9.49,9.49C22.77,156.05,18.51,160.31,13.28,160.31z"/>
		
			<ellipse transform="matrix(0.3827 -0.9239 0.9239 0.3827 -131.1355 105.3687)" class="st2" cx="13.28" cy="150.81" rx="5.57" ry="5.57"/>
		<path class="st1" d="M83.33,106.19l-9.09-9.09H60.2c-0.46-1.76-2.05-3.07-3.96-3.07c-2.26,0-4.1,1.84-4.1,4.1
			c0,2.27,1.84,4.11,4.1,4.11c1.93,0,3.55-1.34,3.98-3.14h13.19l7.92,7.92v13.95l-17.98,17.99c-0.68-0.49-1.5-0.79-2.4-0.79
			c-2.26,0-4.1,1.84-4.1,4.1c0,2.27,1.84,4.11,4.1,4.11c2.27,0,4.11-1.84,4.11-4.11c0-0.64-0.16-1.24-0.42-1.78l18.69-18.69V106.19z
			 M56.24,100.24c-1.16,0-2.1-0.94-2.1-2.11c0-1.16,0.94-2.1,2.1-2.1c1.17,0,2.11,0.94,2.11,2.1
			C58.35,99.3,57.41,100.24,56.24,100.24z M60.95,144.38c-1.16,0-2.1-0.94-2.1-2.11c0-1.15,0.94-2.1,2.1-2.1
			c1.17,0,2.11,0.95,2.11,2.1C63.06,143.44,62.12,144.38,60.95,144.38z"/>
		<path class="st1" d="M73.12,110.87l-3.68-3.67h-3.77c-0.42-1.82-2.05-3.19-4-3.19c-2.26,0-4.1,1.84-4.1,4.1
			c0,2.27,1.84,4.11,4.1,4.11c1.89,0,3.46-1.29,3.94-3.02h3.01l2.5,2.5v6.52l-8.35,8.35c-0.61-0.36-1.31-0.58-2.06-0.58
			c-2.26,0-4.1,1.84-4.1,4.1c0,2.27,1.84,4.11,4.1,4.11s4.11-1.84,4.11-4.11c0-0.78-0.23-1.5-0.62-2.13l8.92-8.91V110.87z
			 M61.67,110.22c-1.16,0-2.1-0.95-2.1-2.11c0-1.16,0.94-2.1,2.1-2.1c1.16,0,2.11,0.94,2.11,2.1
			C63.78,109.27,62.83,110.22,61.67,110.22z M60.71,132.2c-1.16,0-2.1-0.94-2.1-2.11c0-1.16,0.94-2.1,2.1-2.1s2.11,0.94,2.11,2.1
			C62.82,131.26,61.87,132.2,60.71,132.2z"/>
		<path class="st1" d="M52.54,184.29v-60.15l-17.53-17.53H0v2h34.18l16.36,16.36v59.31c-1.78,0.45-3.11,2.05-3.11,3.97
			c0,2.26,1.84,4.11,4.1,4.11c2.27,0,4.11-1.85,4.11-4.11C55.64,186.33,54.32,184.74,52.54,184.29z M51.53,190.36
			c-1.16,0-2.1-0.95-2.1-2.11c0-1.16,0.94-2.1,2.1-2.1c1.17,0,2.11,0.94,2.11,2.1C53.64,189.41,52.7,190.36,51.53,190.36z"/>
		<path class="st1" d="M44.49,158.73v-29.82L32.38,116.8H0v2h31.55l10.94,10.94v28.16L29.1,171.29v14.06
			c-1.78,0.45-3.11,2.05-3.11,3.97c0,2.27,1.84,4.11,4.1,4.11c2.27,0,4.11-1.84,4.11-4.11c0-1.91-1.32-3.51-3.1-3.96v-13.25
			L44.49,158.73z M32.2,189.32c0,1.16-0.94,2.11-2.11,2.11c-1.16,0-2.1-0.95-2.1-2.11c0-1.16,0.94-2.1,2.1-2.1
			C31.26,187.22,32.2,188.16,32.2,189.32z"/>
		<path class="st1" d="M35.26,139.05v-5.85l-6.55-6.56H0v2h27.88l5.38,5.38v5.02c-1.78,0.45-3.11,2.05-3.11,3.97
			c0,2.26,1.84,4.11,4.1,4.11c2.27,0,4.11-1.85,4.11-4.11C38.36,141.09,37.04,139.5,35.26,139.05z M34.25,145.12
			c-1.16,0-2.1-0.95-2.1-2.11c0-1.16,0.94-2.1,2.1-2.1c1.17,0,2.11,0.94,2.11,2.1C36.36,144.17,35.42,145.12,34.25,145.12z"/>
		<path class="st1" d="M25.63,130.99c-1.92,0-3.52,1.33-3.97,3.11H0v2h21.66c0.45,1.78,2.05,3.1,3.97,3.1
			c2.26,0,4.11-1.84,4.11-4.11C29.74,132.83,27.89,130.99,25.63,130.99z M25.63,137.2c-1.16,0-2.1-0.94-2.1-2.11
			c0-1.15,0.94-2.1,2.1-2.1c1.16,0,2.11,0.95,2.11,2.1C27.74,136.26,26.79,137.2,25.63,137.2z"/>
		<path class="st1" d="M27.79,159.14c-2.26,0-4.1,1.84-4.1,4.1c0,0.68,0.18,1.31,0.47,1.87l-6.32,6.33v13.92
			c-1.78,0.44-3.1,2.04-3.1,3.96c0,2.27,1.84,4.11,4.1,4.11s4.11-1.84,4.11-4.11c0-1.91-1.33-3.51-3.11-3.96v-13.1l5.64-5.63
			c0.66,0.45,1.45,0.72,2.31,0.72c2.27,0,4.11-1.84,4.11-4.11C31.9,160.98,30.06,159.14,27.79,159.14z M20.95,189.32
			c0,1.16-0.95,2.11-2.11,2.11c-1.16,0-2.1-0.95-2.1-2.11c0-1.16,0.94-2.1,2.1-2.1C20,187.22,20.95,188.16,20.95,189.32z
			 M27.79,165.35c-1.15,0-2.1-0.94-2.1-2.11c0-1.15,0.95-2.1,2.1-2.1c1.17,0,2.11,0.95,2.11,2.1
			C29.9,164.41,28.96,165.35,27.79,165.35z"/>
		<path class="st1" d="M277.58,157.3v-15.31l-10.23-10.23v-15.23c1.78-0.45,3.11-2.05,3.11-3.97c0-2.26-1.84-4.11-4.1-4.11
			c-2.27,0-4.11,1.85-4.11,4.11c0,1.92,1.32,3.51,3.1,3.97v16.06l10.23,10.23v14.48c-1.78,0.45-3.1,2.05-3.1,3.97
			c0,2.26,1.84,4.1,4.11,4.1c2.26,0,4.1-1.84,4.1-4.1C280.69,159.35,279.36,157.74,277.58,157.3z M264.25,112.56
			c0-1.16,0.94-2.11,2.11-2.11c1.16,0,2.1,0.95,2.1,2.11c0,1.16-0.94,2.1-2.1,2.1C265.19,114.66,264.25,113.72,264.25,112.56z
			 M276.59,163.37c-1.16,0-2.11-0.94-2.11-2.1c0-1.16,0.95-2.11,2.11-2.11c1.16,0,2.1,0.95,2.1,2.11
			C278.69,162.43,277.75,163.37,276.59,163.37z"/>
		<path class="st1" d="M277.55,129.98c0.27-0.55,0.44-1.16,0.44-1.82c0-2.26-1.84-4.11-4.1-4.11c-2.27,0-4.11,1.85-4.11,4.11
			c0,2.27,1.84,4.1,4.11,4.1c0.88,0,1.69-0.28,2.36-0.75l9.84,9.83v21.61l-5.73,5.73h-9.1l-3.36-3.36v-16.49
			c1.77-0.45,3.1-2.05,3.1-3.96c0-2.27-1.84-4.11-4.1-4.11c-2.27,0-4.11,1.84-4.11,4.11c0,1.91,1.33,3.51,3.11,3.96v17.32l4.53,4.53
			h10.75l6.91-6.9v-23.26L277.55,129.98z M273.89,130.26c-1.16,0-2.11-0.94-2.11-2.1c0-1.16,0.95-2.11,2.11-2.11
			c1.16,0,2.1,0.95,2.1,2.11C275.99,129.32,275.05,130.26,273.89,130.26z M264.79,144.87c0-1.17,0.95-2.11,2.11-2.11
			s2.1,0.94,2.1,2.11c0,1.15-0.94,2.1-2.1,2.1S264.79,146.02,264.79,144.87z"/>
		<path class="st1" d="M308.32,123.9c-1.92,0-3.52,1.33-3.97,3.11h-16.67l-7.99-7.99c0.37-0.62,0.59-1.33,0.59-2.09
			c0-2.27-1.84-4.11-4.1-4.11c-2.26,0-4.11,1.84-4.11,4.11c0,2.26,1.85,4.1,4.11,4.1c0.77,0,1.48-0.23,2.1-0.6l8.57,8.58h17.5
			c0.45,1.77,2.05,3.1,3.97,3.1c2.26,0,4.1-1.84,4.1-4.1C312.42,125.74,310.58,123.9,308.32,123.9z M276.18,119.03
			c-1.16,0-2.11-0.94-2.11-2.1c0-1.17,0.95-2.11,2.11-2.11c1.16,0,2.1,0.94,2.1,2.11C278.28,118.09,277.34,119.03,276.18,119.03z
			 M308.32,130.11c-1.16,0-2.11-0.94-2.11-2.1c0-1.16,0.95-2.11,2.11-2.11c1.16,0,2.1,0.95,2.1,2.11
			C310.42,129.17,309.48,130.11,308.32,130.11z"/>
		<path class="st1" d="M130.54,108.45c-2.26,0-4.1,1.85-4.1,4.11c0,1.92,1.33,3.52,3.11,3.97v15.23l-10.24,10.23v15.31
			c-1.77,0.44-3.1,2.05-3.1,3.97c0,2.26,1.84,4.1,4.1,4.1c2.27,0,4.11-1.84,4.11-4.1c0-1.92-1.33-3.52-3.11-3.97v-14.48l10.24-10.23
			v-16.06c1.77-0.45,3.1-2.05,3.1-3.97C134.65,110.3,132.81,108.45,130.54,108.45z M122.42,161.27c0,1.16-0.95,2.1-2.11,2.1
			c-1.16,0-2.1-0.94-2.1-2.1c0-1.16,0.94-2.11,2.1-2.11C121.47,159.16,122.42,160.11,122.42,161.27z M130.54,114.66
			c-1.16,0-2.1-0.94-2.1-2.1c0-1.16,0.94-2.11,2.1-2.11c1.16,0,2.11,0.95,2.11,2.11C132.65,113.72,131.7,114.66,130.54,114.66z"/>
		<path class="st1" d="M130,140.76c-2.26,0-4.1,1.84-4.1,4.11c0,1.91,1.32,3.51,3.1,3.96v16.49l-3.36,3.36h-9.1l-5.73-5.73v-21.61
			l9.84-9.83c0.67,0.47,1.48,0.75,2.36,0.75c2.26,0,4.11-1.83,4.11-4.1c0-2.26-1.85-4.11-4.11-4.11s-4.1,1.85-4.1,4.11
			c0,0.66,0.17,1.27,0.44,1.82l-10.54,10.54v23.26l6.91,6.9h10.74l4.54-4.53v-17.32c1.78-0.45,3.11-2.05,3.11-3.96
			C134.11,142.6,132.26,140.76,130,140.76z M123.01,126.05c1.16,0,2.11,0.95,2.11,2.11c0,1.16-0.95,2.1-2.11,2.1
			c-1.16,0-2.1-0.94-2.1-2.1C120.91,127,121.85,126.05,123.01,126.05z M130,146.97c-1.16,0-2.1-0.95-2.1-2.1
			c0-1.17,0.94-2.11,2.1-2.11c1.16,0,2.11,0.94,2.11,2.11C132.11,146.02,131.16,146.97,130,146.97z"/>
		<path class="st1" d="M120.72,112.82c-2.27,0-4.1,1.84-4.1,4.11c0,0.76,0.22,1.47,0.59,2.09l-7.99,7.99H92.55
			c-0.45-1.78-2.06-3.11-3.97-3.11c-2.26,0-4.1,1.84-4.1,4.11c0,2.26,1.84,4.1,4.1,4.1c1.92,0,3.52-1.33,3.97-3.1h17.5l8.57-8.58
			c0.62,0.37,1.33,0.6,2.1,0.6c2.26,0,4.11-1.84,4.11-4.1C124.83,114.66,122.98,112.82,120.72,112.82z M88.58,130.11
			c-1.16,0-2.1-0.94-2.1-2.1c0-1.16,0.94-2.11,2.1-2.11c1.16,0,2.11,0.95,2.11,2.11C90.69,129.17,89.74,130.11,88.58,130.11z
			 M120.72,119.03c-1.16,0-2.1-0.94-2.1-2.1c0-1.17,0.94-2.11,2.1-2.11c1.16,0,2.11,0.94,2.11,2.11
			C122.83,118.09,121.88,119.03,120.72,119.03z"/>
		<path class="st1" d="M295.22,178.12c-2.27,0-4.11,1.84-4.11,4.1c0,0.75,0.21,1.44,0.57,2.05l-4.87,4.87h-21.62l-11.63-11.64
			v-37.38c1.78-0.45,3.11-2.05,3.11-3.97c0-2.26-1.84-4.1-4.1-4.1c-2.27,0-4.11,1.84-4.11,4.1c0,1.91,1.32,3.52,3.1,3.97v38.21
			l12.8,12.81h23.28l5.43-5.43c0.63,0.38,1.36,0.62,2.15,0.62c2.26,0,4.1-1.85,4.1-4.11S297.48,178.12,295.22,178.12z
			 M250.46,136.15c0-1.16,0.94-2.1,2.11-2.1c1.15,0,2.1,0.94,2.1,2.1s-0.95,2.11-2.1,2.11C251.4,138.26,250.46,137.31,250.46,136.15
			z M295.22,184.33c-1.17,0-2.11-0.95-2.11-2.11c0-1.16,0.94-2.1,2.11-2.1c1.15,0,2.1,0.94,2.1,2.1
			C297.32,183.38,296.37,184.33,295.22,184.33z"/>
		<path class="st1" d="M293.28,166.51c-2.27,0-4.11,1.84-4.11,4.1c0,0.8,0.24,1.54,0.63,2.17l-8.44,8.44h-10.64l-5.9-5.9
			c0.24-0.52,0.38-1.09,0.38-1.7c0-2.26-1.84-4.1-4.1-4.1s-4.11,1.84-4.11,4.1c0,2.27,1.85,4.11,4.11,4.11
			c0.93,0,1.78-0.32,2.46-0.84l6.34,6.33h12.29l9.06-9.06c0.6,0.35,1.29,0.56,2.03,0.56c2.26,0,4.1-1.85,4.1-4.11
			C297.38,168.35,295.54,166.51,293.28,166.51z M261.1,175.73c-1.16,0-2.11-0.94-2.11-2.11c0-1.15,0.95-2.1,2.11-2.1
			c1.16,0,2.1,0.95,2.1,2.1C263.2,174.79,262.26,175.73,261.1,175.73z M293.28,172.72c-1.17,0-2.11-0.95-2.11-2.11
			c0-1.16,0.94-2.1,2.11-2.1c1.16,0,2.1,0.94,2.1,2.1C295.38,171.77,294.44,172.72,293.28,172.72z"/>
		<path class="st1" d="M143.77,135.15c-2.26,0-4.1,1.84-4.1,4.1c0,1.92,1.33,3.53,3.1,3.97v37.39l-11.63,11.63h-21.62l-4.86-4.86
			c0.35-0.61,0.57-1.31,0.57-2.06c0-2.26-1.84-4.1-4.11-4.1c-2.26,0-4.1,1.84-4.1,4.1c0,2.27,1.84,4.11,4.1,4.11
			c0.79,0,1.52-0.23,2.15-0.62l5.43,5.43h23.27l12.8-12.8v-38.22c1.78-0.45,3.11-2.05,3.11-3.97
			C147.88,136.99,146.04,135.15,143.77,135.15z M101.12,187.43c-1.16,0-2.1-0.94-2.1-2.11c0-1.15,0.94-2.1,2.1-2.1
			c1.16,0,2.11,0.95,2.11,2.1C103.23,186.49,102.28,187.43,101.12,187.43z M143.77,141.36c-1.16,0-2.1-0.95-2.1-2.11
			c0-1.16,0.94-2.1,2.1-2.1s2.11,0.94,2.11,2.1C145.88,140.41,144.93,141.36,143.77,141.36z"/>
		<path class="st1" d="M135.23,172.63c-2.26,0-4.1,1.84-4.1,4.1c0,0.61,0.14,1.18,0.38,1.7l-5.9,5.9h-10.64l-8.44-8.44
			c0.4-0.64,0.64-1.38,0.64-2.18c0-2.26-1.85-4.1-4.11-4.1c-2.26,0-4.1,1.84-4.1,4.1c0,2.27,1.84,4.11,4.1,4.11
			c0.74,0,1.42-0.21,2.02-0.55l9.06,9.06h12.3l6.33-6.33c0.69,0.52,1.54,0.84,2.46,0.84c2.27,0,4.11-1.84,4.11-4.11
			C139.34,174.47,137.5,172.63,135.23,172.63z M103.06,175.82c-1.16,0-2.1-0.94-2.1-2.11c0-1.16,0.94-2.1,2.1-2.1
			c1.16,0,2.11,0.94,2.11,2.1C105.17,174.88,104.22,175.82,103.06,175.82z M135.23,178.84c-1.15,0-2.1-0.95-2.1-2.11
			c0-1.16,0.95-2.1,2.1-2.1c1.17,0,2.11,0.94,2.11,2.1C137.34,177.89,136.4,178.84,135.23,178.84z"/>
		<path class="st1" d="M202.75,171.77c-1.92,0-3.52,1.32-3.97,3.1h-38.22l-12.8,12.8v19.78l5.43,5.43
			c-0.39,0.62-0.63,1.36-0.63,2.14c0,2.27,1.85,4.1,4.11,4.1c2.27,0,4.1-1.83,4.1-4.1c0-2.26-1.83-4.11-4.1-4.11
			c-0.75,0-1.44,0.22-2.05,0.57l-4.86-4.86V188.5l11.63-11.63h37.38c0.45,1.78,2.06,3.11,3.98,3.11c2.26,0,4.1-1.84,4.1-4.11
			C206.85,173.61,205.01,171.77,202.75,171.77z M156.67,212.91c1.16,0,2.1,0.95,2.1,2.11c0,1.16-0.94,2.1-2.1,2.1
			c-1.16,0-2.11-0.94-2.11-2.1C154.56,213.86,155.51,212.91,156.67,212.91z M202.75,177.98c-1.17,0-2.11-0.95-2.11-2.11
			c0-1.16,0.94-2.1,2.11-2.1c1.15,0,2.1,0.94,2.1,2.1C204.85,177.03,203.9,177.98,202.75,177.98z"/>
		<path class="st1" d="M168.29,208.98c-0.8,0-1.55,0.24-2.18,0.63l-8.44-8.44v-7.14l5.9-5.9c0.52,0.24,1.09,0.38,1.7,0.38
			c2.26,0,4.1-1.84,4.1-4.1c0-2.27-1.84-4.11-4.1-4.11c-2.27,0-4.11,1.84-4.11,4.11c0,0.93,0.32,1.77,0.84,2.46l-6.33,6.34V202
			l9.06,9.06c-0.34,0.6-0.55,1.29-0.55,2.03c0,2.26,1.84,4.1,4.11,4.1c2.26,0,4.1-1.84,4.1-4.1
			C172.39,210.82,170.55,208.98,168.29,208.98z M165.27,182.3c1.16,0,2.1,0.95,2.1,2.11c0,1.16-0.94,2.1-2.1,2.1
			s-2.11-0.94-2.11-2.1C163.16,183.25,164.11,182.3,165.27,182.3z M168.29,215.19c-1.17,0-2.11-0.95-2.11-2.1
			c0-1.17,0.94-2.11,2.11-2.11c1.15,0,2.1,0.94,2.1,2.11C170.39,214.24,169.44,215.19,168.29,215.19z"/>
		<path class="st1" d="M244.77,187.13c0.39-0.63,0.62-1.36,0.62-2.15c0-2.26-1.84-4.1-4.11-4.1c-2.26,0-4.1,1.84-4.1,4.1
			c0,2.27,1.84,4.11,4.1,4.11c0.75,0,1.45-0.22,2.05-0.57l4.87,4.86v18.12l-11.63,11.63h-37.39c-0.45-1.77-2.05-3.1-3.97-3.1
			c-2.26,0-4.1,1.84-4.1,4.1c0,2.27,1.84,4.11,4.1,4.11c1.92,0,3.52-1.33,3.97-3.11h38.21l12.81-12.8v-19.77L244.77,187.13z
			 M241.28,187.09c-1.16,0-2.1-0.95-2.1-2.11c0-1.16,0.94-2.1,2.1-2.1c1.16,0,2.11,0.94,2.11,2.1
			C243.39,186.14,242.44,187.09,241.28,187.09z M195.21,226.24c-1.16,0-2.1-0.95-2.1-2.11c0-1.16,0.94-2.1,2.1-2.1
			s2.11,0.94,2.11,2.1C197.32,225.29,196.37,226.24,195.21,226.24z"/>
		<path class="st1" d="M242.29,198.01l-9.07-9.07c0.35-0.6,0.56-1.28,0.56-2.02c0-2.26-1.84-4.1-4.11-4.1c-2.26,0-4.1,1.84-4.1,4.1
			c0,2.27,1.84,4.11,4.1,4.11c0.8,0,1.54-0.24,2.17-0.64l8.45,8.44v7.14l-5.9,5.9c-0.52-0.24-1.1-0.38-1.7-0.38
			c-2.26,0-4.1,1.84-4.1,4.1c0,2.27,1.84,4.11,4.1,4.11s4.11-1.84,4.11-4.11c0-0.92-0.33-1.77-0.85-2.46l6.34-6.33V198.01z
			 M229.67,189.03c-1.16,0-2.1-0.95-2.1-2.11c0-1.16,0.94-2.1,2.1-2.1c1.16,0,2.11,0.94,2.11,2.1
			C231.78,188.08,230.83,189.03,229.67,189.03z M232.69,217.7c-1.16,0-2.1-0.94-2.1-2.11c0-1.15,0.94-2.1,2.1-2.1
			c1.16,0,2.11,0.95,2.11,2.1C234.8,216.76,233.85,217.7,232.69,217.7z"/>
		<path class="st1" d="M221.32,201.01c-1.91,0-3.51,1.33-3.96,3.11h-15.23l-10.23-10.23h-11.31c-0.45-1.78-2.05-3.11-3.97-3.11
			c-2.26,0-4.1,1.84-4.1,4.1c0,2.27,1.84,4.11,4.1,4.11c1.92,0,3.52-1.32,3.97-3.1h10.48l10.23,10.23h16.06
			c0.45,1.78,2.05,3.1,3.96,3.1c2.27,0,4.11-1.84,4.11-4.11C225.43,202.85,223.59,201.01,221.32,201.01z M176.62,196.99
			c-1.16,0-2.1-0.94-2.1-2.11c0-1.16,0.94-2.1,2.1-2.1c1.16,0,2.11,0.94,2.11,2.1C178.73,196.05,177.78,196.99,176.62,196.99z
			 M221.32,207.22c-1.15,0-2.1-0.94-2.1-2.11c0-1.16,0.95-2.1,2.1-2.1c1.17,0,2.11,0.94,2.11,2.1
			C223.43,206.28,222.49,207.22,221.32,207.22z"/>
		<path class="st1" d="M337.01,172.61l-8.97-8.98h-10.75l-7.73,7.73v26.82c-1.78,0.45-3.1,2.05-3.1,3.96c0,2.27,1.84,4.11,4.11,4.11
			c2.26,0,4.1-1.84,4.1-4.11c0-1.92-1.33-3.52-3.11-3.96v-25.99l6.56-6.56h9.09l7.8,7.81v33.61l-8.05,8.05
			c-0.67-0.47-1.48-0.75-2.36-0.75c-2.26,0-4.11,1.84-4.11,4.1s1.85,4.11,4.11,4.11s4.1-1.85,4.1-4.11c0-0.66-0.17-1.27-0.44-1.82
			l8.75-8.75V172.61z M312.67,202.14c0,1.16-0.95,2.11-2.1,2.11c-1.17,0-2.11-0.95-2.11-2.11c0-1.16,0.94-2.1,2.11-2.1
			C311.72,200.04,312.67,200.98,312.67,202.14z M324.6,220.56c-1.16,0-2.11-0.95-2.11-2.11c0-1.16,0.95-2.1,2.11-2.1
			c1.16,0,2.1,0.94,2.1,2.1C326.7,219.61,325.76,220.56,324.6,220.56z"/>
		<path class="st1" d="M324.44,170.95c-2.26,0-4.11,1.84-4.11,4.1c0,1.92,1.33,3.52,3.11,3.97v24.48l-12.24,12.24v22.56
			c-1.78,0.45-3.11,2.05-3.11,3.96c0,2.27,1.85,4.11,4.11,4.11s4.1-1.84,4.1-4.11c0-1.91-1.32-3.51-3.1-3.96v-21.73l12.24-12.24
			v-25.31c1.78-0.45,3.1-2.05,3.1-3.97C328.54,172.79,326.7,170.95,324.44,170.95z M314.3,242.26c0,1.17-0.94,2.11-2.1,2.11
			c-1.16,0-2.11-0.94-2.11-2.11c0-1.16,0.95-2.1,2.11-2.1C313.36,240.16,314.3,241.1,314.3,242.26z M324.44,177.16
			c-1.16,0-2.11-0.95-2.11-2.11c0-1.16,0.95-2.1,2.11-2.1c1.16,0,2.1,0.94,2.1,2.1C326.54,176.21,325.6,177.16,324.44,177.16z"/>
		<path class="st1" d="M88.81,238.3v-22.56L76.57,203.5v-24.48c1.78-0.45,3.1-2.05,3.1-3.97c0-2.26-1.84-4.1-4.11-4.1
			c-2.26,0-4.1,1.84-4.1,4.1c0,1.92,1.33,3.52,3.11,3.97v25.31l12.24,12.24v21.73c-1.78,0.45-3.11,2.05-3.11,3.96
			c0,2.27,1.84,4.11,4.1,4.11c2.27,0,4.11-1.84,4.11-4.11C91.91,240.35,90.59,238.75,88.81,238.3z M73.46,175.05
			c0-1.16,0.94-2.1,2.1-2.1c1.16,0,2.11,0.94,2.11,2.1c0,1.16-0.95,2.11-2.11,2.11C74.4,177.16,73.46,176.21,73.46,175.05z
			 M87.8,244.37c-1.16,0-2.1-0.94-2.1-2.11c0-1.16,0.94-2.1,2.1-2.1c1.16,0,2.11,0.94,2.11,2.1
			C89.91,243.43,88.96,244.37,87.8,244.37z"/>
		<path class="st1" d="M90.44,198.18v-26.82l-7.72-7.73H71.97l-8.98,8.98v35.27l8.75,8.75c-0.27,0.55-0.44,1.16-0.44,1.82
			c0,2.26,1.84,4.11,4.1,4.11c2.27,0,4.11-1.85,4.11-4.11s-1.84-4.1-4.11-4.1c-0.88,0-1.69,0.28-2.36,0.75l-8.05-8.05v-33.61
			l7.8-7.81h9.1l6.55,6.56v25.99c-1.78,0.44-3.1,2.04-3.1,3.96c0,2.27,1.84,4.11,4.1,4.11s4.11-1.84,4.11-4.11
			C93.55,200.23,92.22,198.63,90.44,198.18z M75.4,216.35c1.17,0,2.11,0.94,2.11,2.1c0,1.16-0.94,2.11-2.11,2.11
			c-1.16,0-2.1-0.95-2.1-2.11C73.3,217.29,74.24,216.35,75.4,216.35z M89.44,204.25c-1.16,0-2.1-0.95-2.1-2.11
			c0-1.16,0.94-2.1,2.1-2.1c1.16,0,2.11,0.94,2.11,2.1C91.55,203.3,90.6,204.25,89.44,204.25z"/>
		<path class="st1" d="M388.62,354.43c-0.45-1.78-2.05-3.11-3.97-3.11c-2.26,0-4.1,1.84-4.1,4.1c0,2.27,1.84,4.11,4.1,4.11
			c1.92,0,3.52-1.32,3.97-3.1H400v-2H388.62z M384.65,357.53c-1.16,0-2.1-0.94-2.1-2.11c0-1.15,0.94-2.1,2.1-2.1s2.11,0.95,2.11,2.1
			C386.76,356.59,385.81,357.53,384.65,357.53z"/>
		<path class="st1" d="M383.04,344.85H400v-2h-17.79l-8.98,8.98v10.75l7.73,7.73H400v-2h-18.21l-6.56-6.56v-9.09L383.04,344.85z"/>
		<path class="st1" d="M41.86,363.56c-1.91,0-3.51,1.33-3.96,3.11H26.17l-12.24-12.24H0v2h13.1l12.24,12.24H37.9
			c0.45,1.78,2.05,3.1,3.96,3.1c2.27,0,4.11-1.84,4.11-4.11C45.97,365.4,44.13,363.56,41.86,363.56z M41.86,369.77
			c-1.16,0-2.1-0.94-2.1-2.11c0-1.15,0.94-2.1,2.1-2.1c1.17,0,2.11,0.95,2.11,2.1C43.97,368.83,43.03,369.77,41.86,369.77z"/>
		<path class="st1" d="M28.05,351.17c-0.66,0-1.27,0.16-1.82,0.44l-8.75-8.76H0v2h16.65l8.05,8.06c-0.47,0.67-0.75,1.48-0.75,2.36
			c0,2.26,1.84,4.11,4.1,4.11c2.26,0,4.11-1.85,4.11-4.11C32.16,353,30.31,351.17,28.05,351.17z M28.05,357.38
			c-1.16,0-2.1-0.95-2.1-2.11c0-1.16,0.94-2.1,2.1-2.1c1.16,0,2.11,0.94,2.11,2.1C30.16,356.43,29.21,357.38,28.05,357.38z
			 M11.74,365.2c-1.92,0-3.52,1.33-3.96,3.11H0v2h7.78c0.45,1.77,2.05,3.1,3.96,3.1c2.27,0,4.11-1.84,4.11-4.11
			C15.85,367.04,14.01,365.2,11.74,365.2z M11.74,371.41c-1.16,0-2.1-0.95-2.1-2.11c0-1.16,0.94-2.1,2.1-2.1
			c1.16,0,2.11,0.94,2.11,2.1C13.85,370.46,12.9,371.41,11.74,371.41z"/>
		<path class="st1" d="M376.79,33.71H400v-2h-24.04l-7.73,7.73v10.75l8.98,8.98H400v-2h-21.96l-7.81-7.81v-9.09L376.79,33.71z"/>
		<path class="st1" d="M383.62,45.59c-0.45-1.78-2.05-3.11-3.97-3.11c-2.26,0-4.1,1.85-4.1,4.12c0,2.26,1.84,4.1,4.1,4.1
			c1.92,0,3.52-1.33,3.97-3.11H400v-2H383.62z M379.65,48.7c-1.16,0-2.1-0.95-2.1-2.1c0-1.17,0.94-2.12,2.1-2.12
			s2.11,0.95,2.11,2.12C381.76,47.75,380.81,48.7,379.65,48.7z"/>
		<path class="st1" d="M23.05,42.64c-2.26,0-4.1,1.85-4.1,4.11c0,0.88,0.28,1.69,0.75,2.36l-8.05,8.06H0v2h12.48l8.75-8.76
			c0.55,0.27,1.16,0.44,1.82,0.44c2.26,0,4.11-1.84,4.11-4.1C27.16,44.49,25.31,42.64,23.05,42.64z M23.05,48.85
			c-1.16,0-2.1-0.94-2.1-2.1c0-1.16,0.94-2.11,2.1-2.11c1.16,0,2.11,0.95,2.11,2.11C25.16,47.91,24.21,48.85,23.05,48.85z
			 M6.74,36.82c2.27,0,4.11-1.84,4.11-4.1c0-2.27-1.84-4.11-4.11-4.11c-1.91,0-3.51,1.32-3.96,3.1H0v2h2.78
			C3.22,35.49,4.82,36.82,6.74,36.82z M6.74,30.61c1.16,0,2.11,0.94,2.11,2.11c0,1.16-0.95,2.1-2.11,2.1c-1.16,0-2.1-0.94-2.1-2.1
			C4.64,31.55,5.58,30.61,6.74,30.61z"/>
		<path class="st1" d="M36.86,30.24c-1.91,0-3.51,1.33-3.96,3.11H20.34L8.1,45.59H0v2h8.93l12.24-12.24H32.9
			c0.45,1.78,2.05,3.11,3.96,3.11c2.27,0,4.11-1.84,4.11-4.11C40.97,32.09,39.13,30.24,36.86,30.24z M36.86,36.46
			c-1.16,0-2.1-0.95-2.1-2.11c0-1.16,0.94-2.11,2.1-2.11c1.17,0,2.11,0.95,2.11,2.11C38.97,35.51,38.03,36.46,36.86,36.46z"/>
		<path class="st1" d="M259.64,337.78c-2.26,0-4.11,1.84-4.11,4.1c0,0.82,0.25,1.57,0.66,2.21l-5.49,5.49V400h2v-49.59l4.95-4.95
			c0.59,0.33,1.27,0.53,1.99,0.53c2.26,0,4.1-1.84,4.1-4.11C263.74,339.62,261.9,337.78,259.64,337.78z M259.64,343.99
			c-1.16,0-2.11-0.94-2.11-2.11c0-1.15,0.95-2.1,2.11-2.1c1.16,0,2.1,0.95,2.1,2.1C261.74,343.05,260.8,343.99,259.64,343.99z"/>
		<path class="st1" d="M252.7,44.48V0h-2v44.49c-1.78,0.45-3.11,2.05-3.11,3.96c0,2.27,1.84,4.11,4.11,4.11
			c2.26,0,4.1-1.84,4.1-4.11C255.8,46.53,254.47,44.93,252.7,44.48z M251.7,50.56c-1.16,0-2.11-0.95-2.11-2.11
			c0-1.16,0.95-2.1,2.11-2.1c1.16,0,2.1,0.94,2.1,2.1C253.8,49.61,252.86,50.56,251.7,50.56z"/>
		<path class="st1" d="M151.53,44.49V0h-2v44.48c-1.77,0.45-3.1,2.05-3.1,3.97c0,2.27,1.84,4.11,4.1,4.11
			c2.27,0,4.11-1.84,4.11-4.11C154.64,46.54,153.31,44.94,151.53,44.49z M150.53,50.56c-1.16,0-2.1-0.95-2.1-2.11
			c0-1.16,0.94-2.1,2.1-2.1c1.16,0,2.11,0.94,2.11,2.1C152.64,49.61,151.69,50.56,150.53,50.56z"/>
		<path class="st1" d="M146.04,344.1c0.41-0.64,0.66-1.4,0.66-2.21c0-2.26-1.85-4.1-4.11-4.1s-4.1,1.84-4.1,4.1s1.84,4.11,4.1,4.11
			c0.72,0,1.4-0.21,1.99-0.54l4.95,4.96V400h2v-50.41L146.04,344.1z M142.59,344c-1.16,0-2.1-0.95-2.1-2.11c0-1.16,0.94-2.1,2.1-2.1
			c1.16,0,2.11,0.94,2.11,2.1C144.7,343.05,143.75,344,142.59,344z"/>
		<path class="st1" d="M315.91,389.26h-48.72c-0.45-1.78-2.05-3.11-3.96-3.11c-2.27,0-4.11,1.85-4.11,4.11s1.84,4.1,4.11,4.1
			c1.91,0,3.51-1.32,3.96-3.1h47.89l8.75,8.74h2.83L315.91,389.26z M263.23,392.36c-1.17,0-2.11-0.94-2.11-2.1
			c0-1.16,0.94-2.11,2.11-2.11c1.16,0,2.1,0.95,2.1,2.11C265.33,391.42,264.39,392.36,263.23,392.36z"/>
		<path class="st1" d="M334.21,5.15c-0.7,0-1.34,0.19-1.91,0.49L326.66,0h-2.83l6.97,6.97c-0.44,0.65-0.7,1.44-0.7,2.29
			c0,2.26,1.84,4.1,4.11,4.1c2.26,0,4.1-1.84,4.1-4.1C338.31,6.99,336.47,5.15,334.21,5.15z M334.21,11.36
			c-1.16,0-2.11-0.94-2.11-2.1c0-1.17,0.95-2.11,2.11-2.11s2.1,0.94,2.1,2.11C336.31,10.42,335.37,11.36,334.21,11.36z"/>
		<path class="st1" d="M138.77,386.15c-1.91,0-3.51,1.33-3.96,3.11H86.08L75.34,400h2.83l8.74-8.74h47.89
			c0.45,1.78,2.05,3.1,3.97,3.1c2.26,0,4.11-1.84,4.11-4.1S141.03,386.15,138.77,386.15z M138.77,392.36c-1.16,0-2.1-0.94-2.1-2.1
			c0-1.16,0.94-2.11,2.1-2.11s2.11,0.95,2.11,2.11C140.88,391.42,139.93,392.36,138.77,392.36z"/>
		<path class="st1" d="M78.17,0h-2.83L69.7,5.64c-0.57-0.3-1.22-0.49-1.91-0.49c-2.26,0-4.1,1.84-4.1,4.11c0,2.26,1.84,4.1,4.1,4.1
			s4.11-1.84,4.11-4.1c0-0.85-0.26-1.64-0.7-2.29L78.17,0z M67.79,11.36c-1.16,0-2.1-0.94-2.1-2.1c0-1.17,0.94-2.11,2.1-2.11
			c1.16,0,2.11,0.94,2.11,2.11C69.9,10.42,68.95,11.36,67.79,11.36z"/>
		<path class="st1" d="M390.57,388.69c-1.36-1.35-3.43-1.55-5-0.61l-25.79-25.79c0.92-1.57,0.72-3.62-0.63-4.97
			c-1.6-1.6-4.2-1.6-5.8,0c-1.6,1.6-1.61,4.2-0.01,5.8c0.8,0.8,1.86,1.2,2.91,1.2c0.74,0,1.47-0.21,2.13-0.6l25.78,25.78
			c-0.94,1.58-0.75,3.64,0.6,5c0.78,0.77,1.81,1.2,2.91,1.2c1.1,0,2.13-0.43,2.9-1.2c0.78-0.78,1.2-1.81,1.2-2.9
			C391.77,390.5,391.34,389.47,390.57,388.69z M357.74,361.71c-0.82,0.82-2.16,0.82-2.98,0s-0.82-2.16,0-2.98
			c0.41-0.41,0.95-0.61,1.49-0.61c0.54,0,1.07,0.2,1.48,0.61C358.56,359.55,358.56,360.89,357.74,361.71z M389.16,393.08
			c-0.8,0.8-2.18,0.8-2.98,0c-0.82-0.82-0.82-2.15,0-2.97c0.41-0.41,0.95-0.62,1.49-0.62c0.54,0,1.07,0.21,1.48,0.62
			c0.4,0.39,0.62,0.92,0.62,1.49C389.77,392.16,389.56,392.69,389.16,393.08z"/>
		<path class="st1" d="M384.35,11.02c-0.77-0.78-1.8-1.2-2.9-1.2c-1.09,0-2.12,0.42-2.9,1.2c-0.77,0.77-1.2,1.8-1.2,2.9
			c0,0.74,0.21,1.45,0.57,2.07l-25.79,25.79c-1.57-0.94-3.64-0.74-4.99,0.61c-1.61,1.6-1.61,4.21-0.01,5.81
			c0.8,0.8,1.85,1.2,2.9,1.2c1.06,0,2.11-0.4,2.91-1.2c1.35-1.36,1.55-3.42,0.61-5l25.78-25.78c0.65,0.39,1.38,0.6,2.12,0.6
			c1.06,0,2.11-0.4,2.91-1.2C385.96,15.22,385.96,12.62,384.35,11.02z M351.53,46.78c-0.83,0.82-2.17,0.82-2.99,0
			s-0.81-2.15,0.01-2.98c0.41-0.41,0.95-0.61,1.48-0.61c0.54,0,1.08,0.2,1.49,0.61C352.34,44.63,352.34,45.96,351.53,46.78z
			 M382.95,15.41c-0.83,0.82-2.17,0.82-2.99,0c-0.39-0.4-0.61-0.93-0.61-1.49s0.22-1.09,0.62-1.49c0.39-0.4,0.92-0.61,1.48-0.61
			c0.57,0,1.09,0.21,1.49,0.61C383.76,13.25,383.76,14.59,382.95,15.41z"/>
		<path class="st1" d="M319.87,5.39c-0.77-0.77-1.8-1.2-2.9-1.2c-1.09,0-2.12,0.42-2.9,1.2c-0.52,0.52-0.88,1.17-1.06,1.87h-36.47
			c-0.45-1.77-2.05-3.1-3.96-3.1c-2.27-0.01-4.12,1.84-4.12,4.1c0,1.13,0.46,2.16,1.2,2.9c0.75,0.75,1.77,1.21,2.91,1.21
			c1.92-0.01,3.51-1.32,3.97-3.1H313c0.18,0.74,0.55,1.4,1.07,1.92c0.75,0.75,1.77,1.21,2.91,1.21c2.26,0,4.1-1.84,4.09-4.11
			C321.08,7.19,320.65,6.17,319.87,5.39z M272.58,10.37c-1.17-0.01-2.11-0.95-2.11-2.11s0.95-2.09,2.11-2.1
			c0.58,0,1.1,0.24,1.48,0.61c0.38,0.38,0.62,0.91,0.62,1.49C274.68,9.42,273.73,10.36,272.58,10.37z M316.98,10.4
			c-1.17-0.01-2.11-0.95-2.11-2.11c0.01-0.56,0.23-1.09,0.62-1.48s0.93-0.62,1.49-0.62c0.56-0.01,1.08,0.22,1.48,0.62
			c0.4,0.4,0.62,0.92,0.62,1.48C319.08,9.45,318.13,10.4,316.98,10.4z"/>
		<g>
			<path class="st1" d="M230.37,164.52c-1.09,0-2.12,0.42-2.9,1.2c-0.77,0.77-1.2,1.8-1.2,2.9c0,0.74,0.21,1.45,0.57,2.07
				l-18.72,18.72c-1.57-0.94-3.64-0.74-4.99,0.61c-1.61,1.6-1.61,4.21-0.01,5.81c0.8,0.8,1.85,1.2,2.9,1.2c1.06,0,2.11-0.4,2.91-1.2
				c1.35-1.36,1.55-3.42,0.61-5l18.71-18.71c0.65,0.39,1.38,0.6,2.12,0.6c1.06,0,2.11-0.4,2.91-1.2c1.6-1.6,1.6-4.2-0.01-5.8
				C232.5,164.94,231.47,164.52,230.37,164.52z M207.52,194.41c-0.83,0.82-2.17,0.82-2.99,0s-0.81-2.15,0.01-2.98
				c0.41-0.41,0.95-0.61,1.48-0.61c0.54,0,1.08,0.2,1.49,0.61C208.33,192.26,208.33,193.59,207.52,194.41z M231.87,170.11
				c-0.83,0.82-2.17,0.82-2.99,0c-0.39-0.4-0.61-0.93-0.61-1.49c0-0.56,0.22-1.09,0.62-1.49c0.39-0.4,0.92-0.61,1.48-0.61
				c0.57,0,1.09,0.21,1.49,0.61C232.68,167.95,232.68,169.29,231.87,170.11z"/>
			<path class="st1" d="M191.92,202.97c-1.09,0-2.12,0.42-2.9,1.2c-0.77,0.77-1.2,1.8-1.2,2.9c0,0.74,0.21,1.45,0.57,2.07
				l-18.72,18.72c-1.57-0.94-3.64-0.74-4.99,0.61c-1.61,1.6-1.61,4.21-0.01,5.81c0.8,0.8,1.85,1.2,2.9,1.2c1.06,0,2.11-0.4,2.91-1.2
				c1.35-1.36,1.55-3.42,0.61-5l18.71-18.71c0.65,0.39,1.38,0.6,2.12,0.6c1.06,0,2.11-0.4,2.91-1.2c1.6-1.6,1.6-4.2-0.01-5.8
				C194.05,203.39,193.02,202.97,191.92,202.97z M169.07,232.86c-0.83,0.82-2.17,0.82-2.99,0c-0.82-0.82-0.81-2.15,0.01-2.98
				c0.41-0.41,0.95-0.61,1.48-0.61c0.54,0,1.08,0.2,1.49,0.61C169.88,230.71,169.88,232.04,169.07,232.86z M193.42,208.56
				c-0.83,0.82-2.17,0.82-2.99,0c-0.39-0.4-0.61-0.93-0.61-1.49s0.22-1.09,0.62-1.49c0.39-0.4,0.92-0.61,1.48-0.61
				c0.57,0,1.09,0.21,1.49,0.61C194.23,206.4,194.23,207.74,193.42,208.56z"/>
			<path class="st1" d="M80.05,239.6c0-1.09-0.42-2.12-1.2-2.9c-0.77-0.77-1.8-1.2-2.9-1.2c-0.74,0-1.45,0.21-2.07,0.57
				l-10.85-10.85c0.94-1.57,0.74-3.64-0.61-4.99c-1.6-1.61-4.21-1.61-5.81-0.01c-0.8,0.8-1.2,1.85-1.2,2.9c0,1.06,0.4,2.11,1.2,2.91
				c1.36,1.35,3.42,1.55,5,0.61l10.84,10.84c-0.39,0.65-0.6,1.38-0.6,2.12c0,1.06,0.4,2.11,1.2,2.91c1.6,1.6,4.2,1.6,5.8-0.01
				C79.63,241.73,80.05,240.7,80.05,239.6z M58.03,224.62c-0.82-0.83-0.82-2.17,0-2.99c0.82-0.82,2.15-0.81,2.98,0.01
				c0.41,0.41,0.61,0.95,0.61,1.48c0,0.54-0.2,1.08-0.61,1.49C60.18,225.43,58.85,225.43,58.03,224.62z M74.46,241.1
				c-0.82-0.83-0.82-2.17,0-2.99c0.4-0.39,0.93-0.61,1.49-0.61c0.56,0,1.09,0.22,1.49,0.62c0.4,0.39,0.61,0.92,0.61,1.48
				c0,0.57-0.21,1.09-0.61,1.49C76.62,241.91,75.28,241.91,74.46,241.1z"/>
			<path class="st1" d="M31.17,24.26c0-1.09-0.42-2.12-1.2-2.9c-0.77-0.77-1.8-1.2-2.9-1.2c-0.74,0-1.45,0.21-2.07,0.57L14.14,9.88
				c0.94-1.57,0.74-3.64-0.61-4.99c-1.6-1.61-4.21-1.61-5.81-0.01c-0.8,0.8-1.2,1.85-1.2,2.9c0,1.06,0.4,2.11,1.2,2.91
				c1.36,1.35,3.42,1.55,5,0.61l10.84,10.84c-0.39,0.65-0.6,1.38-0.6,2.12c0,1.06,0.4,2.11,1.2,2.91c1.6,1.6,4.2,1.6,5.8-0.01
				C30.75,26.39,31.17,25.36,31.17,24.26z M9.14,9.28c-0.82-0.83-0.82-2.17,0-2.99c0.82-0.82,2.15-0.81,2.98,0.01
				c0.41,0.41,0.61,0.95,0.61,1.48c0,0.54-0.2,1.08-0.61,1.49C11.29,10.09,9.96,10.09,9.14,9.28z M25.58,25.76
				c-0.82-0.83-0.82-2.17,0-2.99c0.4-0.39,0.93-0.61,1.49-0.61c0.56,0,1.09,0.22,1.49,0.62c0.4,0.39,0.61,0.92,0.61,1.48
				c0,0.57-0.21,1.09-0.61,1.49C27.74,26.57,26.4,26.57,25.58,25.76z"/>
			<path class="st1" d="M7.72,396.63c1.6,1.61,4.2,1.61,5.8,0.01c0.8-0.8,1.2-1.85,1.2-2.91c0-0.74-0.21-1.47-0.6-2.12l10.84-10.84
				c1.58,0.94,3.64,0.74,5-0.61c0.8-0.8,1.2-1.85,1.2-2.91c0-1.05-0.4-2.1-1.2-2.9c-1.6-1.6-4.21-1.6-5.81,0.01
				c-1.35,1.35-1.55,3.42-0.61,4.99L12.69,390.2c-0.62-0.36-1.33-0.57-2.07-0.57c-1.1,0-2.13,0.43-2.9,1.2
				c-0.78,0.78-1.2,1.81-1.2,2.9C6.52,394.83,6.94,395.86,7.72,396.63z M25.57,378.74c-0.41-0.41-0.61-0.95-0.61-1.49
				c0-0.53,0.2-1.07,0.61-1.48c0.83-0.82,2.16-0.83,2.98-0.01s0.82,2.16,0,2.99C27.73,379.56,26.4,379.56,25.57,378.74z
				 M9.13,395.22c-0.4-0.4-0.61-0.92-0.61-1.49c0-0.56,0.21-1.09,0.61-1.48c0.4-0.4,0.93-0.62,1.49-0.62s1.09,0.22,1.49,0.61
				c0.82,0.82,0.82,2.16,0,2.99C11.29,396.04,9.95,396.04,9.13,395.22z"/>
			<path class="st1" d="M44.22,224.58c0.77-0.77,1.2-1.8,1.2-2.9c0-1.09-0.42-2.12-1.2-2.9c-0.52-0.52-1.17-0.88-1.87-1.06v-35.35
				c1.77-0.45,3.1-2.05,3.1-3.96c0.01-2.27-1.84-4.12-4.1-4.12c-1.13,0-2.16,0.46-2.9,1.2c-0.75,0.75-1.21,1.77-1.21,2.91
				c0.01,1.92,1.32,3.51,3.1,3.97v35.34c-0.74,0.18-1.4,0.55-1.92,1.07c-0.75,0.75-1.21,1.77-1.21,2.91c0,2.26,1.84,4.1,4.11,4.09
				C42.42,225.79,43.44,225.36,44.22,224.58z M39.24,178.41c0.01-1.17,0.95-2.11,2.11-2.11s2.09,0.95,2.1,2.11
				c0,0.58-0.24,1.1-0.61,1.48c-0.38,0.38-0.91,0.62-1.49,0.62C40.19,180.51,39.25,179.56,39.24,178.41z M39.21,221.69
				c0.01-1.17,0.95-2.11,2.11-2.11c0.56,0.01,1.09,0.23,1.48,0.62s0.62,0.93,0.62,1.49c0.01,0.56-0.22,1.08-0.62,1.48
				c-0.4,0.4-0.92,0.62-1.48,0.62C40.16,223.79,39.22,222.84,39.21,221.69z"/>
			<path class="st1" d="M361.71,224.58c0.77-0.77,1.2-1.8,1.2-2.9c0-1.09-0.42-2.12-1.2-2.9c-0.52-0.52-1.17-0.88-1.87-1.06v-35.35
				c1.77-0.45,3.1-2.05,3.1-3.96c0.01-2.27-1.84-4.12-4.1-4.12c-1.13,0-2.16,0.46-2.9,1.2c-0.75,0.75-1.21,1.77-1.21,2.91
				c0.01,1.92,1.32,3.51,3.1,3.97v35.34c-0.74,0.18-1.4,0.55-1.92,1.07c-0.75,0.75-1.21,1.77-1.21,2.91c0,2.26,1.84,4.1,4.11,4.09
				C359.91,225.79,360.93,225.36,361.71,224.58z M356.73,178.41c0.01-1.17,0.95-2.11,2.11-2.11s2.09,0.95,2.1,2.11
				c0,0.58-0.24,1.1-0.61,1.48c-0.38,0.38-0.91,0.62-1.49,0.62C357.68,180.51,356.74,179.56,356.73,178.41z M356.7,221.69
				c0.01-1.17,0.95-2.11,2.11-2.11c0.56,0.01,1.09,0.23,1.48,0.62s0.62,0.93,0.62,1.49c0.01,0.56-0.22,1.08-0.62,1.48
				c-0.4,0.4-0.92,0.62-1.48,0.62C357.65,223.79,356.7,222.84,356.7,221.69z"/>
			<path class="st1" d="M321.69,242.5c1.6,1.61,4.2,1.61,5.8,0.01c0.8-0.8,1.2-1.85,1.2-2.91c0-0.74-0.21-1.47-0.6-2.12l10.84-10.84
				c1.58,0.94,3.64,0.74,5-0.61c0.8-0.8,1.2-1.85,1.2-2.91c0-1.05-0.4-2.1-1.2-2.9c-1.6-1.6-4.21-1.6-5.81,0.01
				c-1.35,1.35-1.55,3.42-0.61,4.99l-10.85,10.85c-0.62-0.36-1.33-0.57-2.07-0.57c-1.1,0-2.13,0.43-2.9,1.2
				c-0.78,0.78-1.2,1.81-1.2,2.9C320.49,240.7,320.91,241.73,321.69,242.5z M339.53,224.61c-0.41-0.41-0.61-0.95-0.61-1.49
				c0-0.53,0.2-1.07,0.61-1.48c0.83-0.82,2.16-0.83,2.98-0.01c0.82,0.82,0.82,2.16,0,2.99
				C341.69,225.43,340.36,225.43,339.53,224.61z M323.1,241.09c-0.4-0.4-0.61-0.92-0.61-1.49c0-0.56,0.21-1.09,0.61-1.48
				c0.4-0.4,0.93-0.62,1.49-0.62s1.09,0.22,1.49,0.61c0.82,0.82,0.82,2.16,0,2.99C325.26,241.91,323.92,241.91,323.1,241.09z"/>
		</g>
		<path class="st1" d="M139.52,5.39c-0.77-0.77-1.8-1.2-2.9-1.2c-1.09,0-2.12,0.42-2.9,1.2c-0.52,0.52-0.88,1.17-1.06,1.87H96.19
			c-0.45-1.77-2.05-3.1-3.96-3.1c-2.27-0.01-4.12,1.84-4.12,4.1c0,1.13,0.46,2.16,1.2,2.9c0.75,0.75,1.77,1.21,2.91,1.21
			c1.92-0.01,3.51-1.32,3.97-3.1h36.46c0.18,0.74,0.55,1.4,1.07,1.92c0.75,0.75,1.77,1.21,2.91,1.21c2.26,0,4.1-1.84,4.09-4.11
			C140.73,7.19,140.3,6.17,139.52,5.39z M92.23,10.37c-1.17-0.01-2.11-0.95-2.11-2.11s0.95-2.09,2.11-2.1c0.58,0,1.1,0.24,1.48,0.61
			c0.38,0.38,0.62,0.91,0.62,1.49C94.32,9.42,93.38,10.36,92.23,10.37z M136.63,10.4c-1.17-0.01-2.11-0.95-2.11-2.11
			c0.01-0.56,0.23-1.09,0.62-1.48s0.93-0.62,1.49-0.62c0.56-0.01,1.08,0.22,1.48,0.62c0.4,0.4,0.62,0.92,0.62,1.48
			C138.73,9.45,137.78,10.4,136.63,10.4z"/>
		<path class="st1" d="M393.3,218.45v-36.89c1.77-0.45,3.1-2.05,3.1-3.96c0-2.27-1.84-4.11-4.1-4.11c-2.27,0-4.11,1.84-4.11,4.11
			c0,1.91,1.33,3.51,3.11,3.96v36.89c-1.78,0.45-3.11,2.05-3.11,3.97c0,2.26,1.84,4.1,4.11,4.1c2.26,0,4.1-1.84,4.1-4.1
			C396.4,220.5,395.07,218.89,393.3,218.45z M390.19,177.6c0-1.17,0.95-2.11,2.11-2.11c1.16,0,2.1,0.94,2.1,2.11
			c0,1.15-0.94,2.1-2.1,2.1C391.14,179.7,390.19,178.75,390.19,177.6z M392.3,224.52c-1.16,0-2.11-0.94-2.11-2.1
			c0-1.17,0.95-2.11,2.11-2.11c1.16,0,2.1,0.94,2.1,2.11C394.4,223.58,393.46,224.52,392.3,224.52z"/>
		<path class="st1" d="M8.71,218.45v-36.89c1.78-0.45,3.1-2.05,3.1-3.96c0-2.27-1.84-4.11-4.1-4.11s-4.11,1.84-4.11,4.11
			c0,1.91,1.33,3.51,3.11,3.96v36.89c-1.78,0.45-3.11,2.05-3.11,3.97c0,2.26,1.85,4.1,4.11,4.1s4.1-1.84,4.1-4.1
			C11.81,220.5,10.49,218.89,8.71,218.45z M5.6,177.6c0-1.17,0.95-2.11,2.11-2.11s2.1,0.94,2.1,2.11c0,1.15-0.94,2.1-2.1,2.1
			S5.6,178.75,5.6,177.6z M7.71,224.52c-1.16,0-2.11-0.94-2.11-2.1c0-1.17,0.95-2.11,2.11-2.11s2.1,0.94,2.1,2.11
			C9.81,223.58,8.87,224.52,7.71,224.52z"/>
	</g>
</g>
</svg>
