<?xml version="1.0" encoding="utf-8"?>
<!-- Generator: Adobe Illustrator 23.0.2, SVG Export Plug-In . SVG Version: 6.00 Build 0)  -->
<svg version="1.1" id="Layer_1" xmlns="http://www.w3.org/2000/svg" xmlns:xlink="http://www.w3.org/1999/xlink" x="0px" y="0px"
	 viewBox="0 0 400 400" style="enable-background:new 0 0 400 400;" xml:space="preserve">
<style type="text/css">
	.st0{fill:#FF3B7B;}
	.st1{fill:#390567;}
</style>
<g>
	<rect x="0.1" y="0.3" class="st0" width="400" height="400"/>
	<g>
		<g>
			<path class="st1" d="M50.2,88.3V0h-2v7.4H36.6V0h-2v73H0v2h36.6V9.4h11.6v76.9h-18v23.6H17.8c-0.5-3.4-3.4-6-6.9-6
				c-3.8,0-6.9,3.1-6.9,7c0,3.8,3.1,6.9,6.9,6.9c3.5,0,6.4-2.6,6.9-5.9h12.5v25.2c-3.4,0.5-6,3.4-6,6.9c0,3.8,3.1,6.9,7,6.9
				c3.8,0,7-3.1,7-6.9c0-3.5-2.6-6.4-6-6.9V88.3H50.2z M10.9,115.9c-2.7,0-4.9-2.2-4.9-4.9c0-2.7,2.2-5,4.9-5s5,2.2,5,5
				C15.9,113.7,13.6,115.9,10.9,115.9z M36.2,144c0,2.7-2.2,4.9-5,4.9s-5-2.2-5-4.9s2.2-4.9,5-4.9S36.2,141.3,36.2,144z M30,173.4
				c-3.5,0-6.4,2.6-6.9,6H11.9v-27.8H0v2h9.9v27.8h13.2c0.5,3.4,3.4,5.9,6.9,5.9c3.8,0,7-3.1,7-6.9C37,176.5,33.9,173.4,30,173.4z
				 M30,185.3c-2.7,0-4.9-2.2-4.9-4.9s2.2-5,5-5c2.7,0,5,2.2,5,5C35,183.1,32.8,185.3,30,185.3z M161.4,52.7c-3.5,0-6.4,2.6-6.9,6
				h-32V35.8h-11.4V24.9h19c0.5,3.4,3.4,5.9,6.9,5.9c3.8,0,6.9-3.1,6.9-7s-3.1-7-6.9-7c-3.5,0-6.4,2.6-6.9,6h-20.9v12.9H65v-13h35.2
				v-15h46.2c0.5,3.4,3.4,5.9,6.9,5.9c3.8,0,7-3.1,7-6.9c0-3.3-2.2-6-5.2-6.7h-3.4c-2.7,0.7-4.7,3-5.1,5.7h-22.8V0h-2v5.7H98.2v14.9
				H65V0h-2v101.8H48.2V124c-3.4,0.5-6,3.4-6,6.9c0,3.8,3.1,7,7,7c3.8,0,7-3.1,7-7c0-3.5-2.6-6.4-6-6.9v-20.2H63v9.6h21.9v34
				c-3.4,0.5-5.9,3.4-5.9,6.9c0,3.8,3.1,6.9,6.9,6.9s6.9-3.1,6.9-6.9c0-3.5-2.6-6.4-5.9-6.9v-36H65V90.2h12.6v10.7h19
				c0.5,3.4,3.4,6,6.9,6c3.8,0,6.9-3.1,6.9-7c0-3.8-3.1-6.9-6.9-6.9c-3.5,0-6.4,2.6-6.9,5.9h-17V88.2H65V37.8h31.5v16h10.6v16.1
				c-3.4,0.5-5.9,3.4-5.9,6.9c0,3.8,3.1,6.9,6.9,6.9s7-3.1,7-6.9c0-3.5-2.6-6.4-6-6.9V51.8H98.5v-14h22.1v22.9h34
				c0.5,3.4,3.4,6,6.9,6c3.8,0,6.9-3.1,6.9-7S165.3,52.7,161.4,52.7z M137,18.9c2.7,0,4.9,2.2,4.9,4.9s-2.2,5-4.9,5s-4.9-2.2-4.9-5
				S134.3,18.9,137,18.9z M153.3,1.8c2.7,0,5,2.2,5,5c0,2.7-2.2,4.9-5,4.9c-2.7,0-4.9-2.2-4.9-4.9C148.3,4,150.5,1.8,153.3,1.8z
				 M54.2,130.9c0,2.7-2.2,5-5,5c-2.7,0-5-2.2-5-5s2.2-4.9,5-4.9C52,125.9,54.2,128.1,54.2,130.9z M90.8,154.2
				c0,2.7-2.2,4.9-4.9,4.9s-4.9-2.2-4.9-4.9s2.2-5,4.9-5S90.8,151.5,90.8,154.2z M103.4,94.9c2.7,0,4.9,2.2,4.9,4.9
				c0,2.7-2.2,5-4.9,5c-2.7,0-5-2.2-5-5C98.5,97.2,100.7,94.9,103.4,94.9z M113,76.8c0,2.7-2.2,4.9-5,4.9c-2.7,0-4.9-2.2-4.9-4.9
				s2.2-4.9,4.9-4.9C110.8,71.9,113,74.1,113,76.8z M161.4,64.6c-2.7,0-5-2.2-5-5s2.2-5,5-5c2.7,0,4.9,2.2,4.9,5
				S164.2,64.6,161.4,64.6z"/>
			<path class="st1" d="M362.8,221.4v-15H400v-2h-13.8V192c3.4-0.5,6-3.4,6-6.9c0-3.8-3.1-6.9-7-6.9c-3.8,0-7,3.1-7,6.9
				c0,3.5,2.6,6.4,6,6.9v12.5h-23.4v15h-33.2v-31.7h15.8c0.5,3.4,3.4,6,6.9,6c3.8,0,7-3.1,7-7c0-3.8-3.1-6.9-7-6.9
				c-3.5,0-6.4,2.6-6.9,5.9h-17.8v8.6h-12.7v-20.2h21.5v-40.4h11.2c0.5,3.4,3.4,5.9,6.9,5.9c3.8,0,7-3.1,7-6.9s-3.1-6.9-7-6.9
				c-3.5,0-6.4,2.6-6.9,5.9h-13.2v40.4h-11.1v-63.9c3.4-0.5,6-3.4,6-6.9c0-3.8-3.1-7-7-7c-3.8,0-7,3.1-7,7c0,3.5,2.6,6.4,6,6.9v63.9
				H311v6.8h-14.1V90c3.4-0.5,6-3.4,6-6.9c0-3.8-3.1-6.9-7-6.9c-3.8,0-7,3.1-7,6.9c0,3.5,2.6,6.4,6,6.9v91H311v25.1h-11.7v-15.4h-18
				v-75.5c3.4-0.5,6-3.4,6-6.9c0-1.9-0.7-3.6-2-4.9s-3.1-2-4.9-2c-3.8,0-7,3.1-7,6.9c0,3.5,2.6,6.4,6,6.9v54.4h-12.5
				c-0.5-3.4-3.4-6-6.9-6c-3.8,0-6.9,3.1-6.9,7c0,3.8,3.1,6.9,6.9,6.9c3.5,0,6.4-2.6,6.9-5.9h12.5v21.1h18v78.9h-43v80.6h18.4V380
				H286c0.5,3.4,3.4,6,6.9,6c3.8,0,7-3.1,7-7c0-3.8-3.1-7-7-7c-3.5,0-6.4,2.6-6.9,6h-11.2v-27.8h-18.4v-76.6h43V208h11.7v76.9h-18
				v23.6h-12.5c-0.5-3.4-3.4-6-6.9-6c-3.8,0-7,3.1-7,7c0,3.8,3.1,7,7,7c3.5,0,6.4-2.6,6.9-6h12.5v25.2c-3.4,0.5-6,3.4-6,6.9
				c0,3.8,3.1,7,7,7c3.8,0,7-3.1,7-7c0-3.5-2.6-6.4-6-6.9v-48.8h18v-90.7h12.7v104.1h-14.7v22.2c-3.4,0.5-6,3.4-6,6.9
				c0,3.8,3.1,7,7,7c3.8,0,7-3.1,7-7c0-3.5-2.6-6.4-6-6.9v-20.2h12.7v9.6h21.9v34c-3.4,0.5-6,3.4-6,6.9c0,3.8,3.1,7,7,7
				c3.8,0,7-3.1,7-7c0-3.5-2.6-6.4-6-6.9v-36h-21.9v-21.2h12.6v10.7h19c0.5,3.4,3.4,6,6.9,6c3.8,0,7-3.1,7-7c0-3.8-3.1-7-7-7
				c-3.5,0-6.4,2.6-6.9,6h-17v-10.7h-14.6v-50.4h31.5v16h10.6v16.1c-3.4,0.5-6,3.4-6,6.9c0,3.8,3.1,7,7,7c3.8,0,7-3.1,7-7
				c0-3.5-2.6-6.4-6-6.9v-18.1h-10.6v-14h22v22.9H400v-2h-14.8v-22.9h-11.4v-10.9h19c0.5,3.4,3.4,6,6.9,6c0.1,0,0.3,0,0.4,0v-2
				c-0.1,0-0.3,0-0.4,0c-2.7,0-5-2.2-5-5c0-2.7,2.2-4.9,5-4.9c0.1,0,0.3,0,0.4,0v-2c-0.1,0-0.3,0-0.4,0c-3.5,0-6.4,2.6-6.9,5.9h-21
				v12.9h-44.2v-13.1L362.8,221.4L362.8,221.4z M380.3,185.1c0-2.7,2.2-4.9,5-4.9s5,2.2,5,4.9s-2.2,4.9-5,4.9
				S380.3,187.9,380.3,185.1z M350.3,181.8c2.7,0,5,2.2,5,4.9s-2.2,5-5,5s-5-2.2-5-5S347.6,181.8,350.3,181.8z M352.5,127.9
				c2.7,0,5,2.2,5,4.9s-2.2,4.9-5,4.9s-5-2.2-5-4.9S349.8,127.9,352.5,127.9z M315.3,101.4c0-2.7,2.2-5,5-5c2.7,0,5,2.2,5,5
				s-2.2,4.9-5,4.9C317.5,106.4,315.3,104.2,315.3,101.4z M290.9,83.2c0-2.7,2.2-4.9,5-4.9s5,2.2,5,4.9c0,2.7-2.2,5-5,5
				S290.9,85.9,290.9,83.2z M259.9,175.7c-2.7,0-4.9-2.2-4.9-4.9s2.2-5,4.9-5s5,2.2,5,5C264.8,173.4,262.6,175.7,259.9,175.7z
				 M275.3,108.4c0-2.7,2.2-4.9,5-4.9c1.3,0,2.6,0.5,3.5,1.4s1.5,2.2,1.5,3.5c0,2.7-2.2,4.9-5,4.9S275.3,111.2,275.3,108.4z
				 M292.7,374.1c2.7,0,5,2.2,5,5s-2.2,5-5,5s-5-2.2-5-5S290,374.1,292.7,374.1z M273.6,314.6c-2.7,0-5-2.2-5-5s2.2-5,5-5
				c2.7,0,5,2.2,5,5S276.3,314.6,273.6,314.6z M298.9,342.7c0,2.7-2.2,5-5,5c-2.7,0-5-2.2-5-5c0-2.7,2.2-5,5-5
				C296.7,337.8,298.9,340,298.9,342.7z M316.8,329.6c0,2.7-2.2,5-5,5s-5-2.2-5-5c0-2.7,2.2-5,5-5S316.8,326.9,316.8,329.6z
				 M353.5,353c0,2.7-2.2,5-5,5c-2.7,0-5-2.2-5-5c0-2.7,2.2-5,5-5C351.2,348,353.5,350.3,353.5,353z M366.1,293.7c2.7,0,5,2.2,5,5
				c0,2.7-2.2,5-5,5c-2.7,0-5-2.2-5-5C361.1,295.9,363.3,293.7,366.1,293.7z M375.7,275.6c0,2.7-2.2,5-5,5s-5-2.2-5-5
				c0-2.7,2.2-5,5-5S375.7,272.8,375.7,275.6z"/>
			<path class="st1" d="M0,215.7v2c2.6,0.2,4.6,2.3,4.6,4.9c0,2.6-2,4.8-4.6,4.9v2c3.7-0.2,6.6-3.2,6.6-6.9S3.7,215.9,0,215.7z
				 M15.9,198.5c-3.5,0-6.4,2.6-6.9,5.9H0v2h9c0.5,3.4,3.4,5.9,6.9,5.9c3.8,0,6.9-3.1,6.9-6.9C22.9,201.7,19.7,198.5,15.9,198.5z
				 M15.9,210.4c-2.7,0-5-2.2-5-4.9s2.2-4.9,5-4.9s4.9,2.2,4.9,4.9S18.6,210.4,15.9,210.4z M24.1,251.5c-3.5,0-6.4,2.6-6.9,5.9H0v2
				h17.2c0.5,3.4,3.4,6,6.9,6c3.8,0,7-3.1,7-7C31,254.6,27.9,251.5,24.1,251.5z M24.1,263.4c-2.7,0-4.9-2.2-4.9-5
				c0-2.7,2.2-4.9,5-4.9s5,2.2,5,4.9C29,261.2,26.8,263.4,24.1,263.4z"/>
			<path class="st1" d="M160.2,281.2H144v91c-3.4,0.5-6,3.4-6,6.9c0,3.8,3.1,7,7,7c1.9,0,3.6-0.7,4.9-2c1.3-1.3,2-3.1,2-4.9
				c0-3.5-2.6-6.4-5.9-6.9v-89h14.2 M150,379.1c0,1.3-0.5,2.6-1.4,3.5s-2.2,1.5-3.5,1.5c-2.7,0-5-2.2-5-5s2.2-5,5-5
				S150,376.4,150,379.1z"/>
			<path class="st1" d="M273.3,196.9c-3.5,0-6.4,2.6-6.9,5.9h-34v22.9h-22.1v-14H221v-18.1c3.4-0.5,6-3.4,6-6.9c0-3.8-3.1-6.9-7-6.9
				c-3.8,0-6.9,3.1-6.9,6.9c0,3.5,2.6,6.4,5.9,6.9v16.1h-10.6v16h-31.5v-50.4h14.6v-10.7h17c0.5,3.4,3.4,5.9,6.9,5.9
				c3.8,0,6.9-3.1,6.9-6.9c0-3.8-3.1-7-6.9-7c-3.5,0-6.4,2.6-6.9,6h-19v10.7h-12.6v-21.2h21.9v-36c3.4-0.5,5.9-3.4,5.9-6.9
				c0-3.8-3.1-6.9-6.9-6.9c-3.8,0-6.9,3.1-6.9,6.9c0,3.5,2.6,6.4,5.9,6.9v34h-21.9v9.6h-12.7v-20.2c3.4-0.5,5.9-3.4,5.9-6.9
				c0-3.8-3.1-7-6.9-7c-3.8,0-7,3.1-7,7c0,3.5,2.6,6.4,6,6.9v22.2h14.7v104.1h-12.7v-90.7h-18v-48.8c3.4-0.5,6-3.4,6-6.9
				c0-3.8-3.1-6.9-7-6.9c-3.8,0-6.9,3.1-6.9,6.9c0,3.5,2.6,6.4,5.9,6.9v25.2h-12.5c-0.5-3.4-3.4-5.9-6.9-5.9c-3.8,0-6.9,3.1-6.9,6.9
				c0,3.8,3.1,7,6.9,7c3.5,0,6.4-2.6,6.9-6h12.5v23.6h18V254h-11.7v-65.6h-43v-76.6h18.4V84.2H135c0.5,3.4,3.4,6,6.9,6
				c3.8,0,7-3.1,7-7c0-3.8-3.1-6.9-7-6.9c-3.5,0-6.4,2.6-6.9,5.9h-13.2V110h-18.4v80.6h43v23.7H111v-15H87.7v-12.5
				c3.4-0.5,6-3.4,6-6.9c0-3.8-3.1-6.9-7-6.9c-3.8,0-6.9,3.1-6.9,6.9c0,3.5,2.6,6.4,5.9,6.9v12.5H62.9c-0.5-3.4-3.4-5.9-6.9-5.9
				c-3.8,0-7,3.1-7,6.9c0,3.8,3.1,7,7,7c3.5,0,6.4-2.6,6.9-6h46.2v15h37.4v13.1h-46.4v-12.9H79.2c-0.5-3.4-3.4-6-6.9-6
				c-3.8,0-6.9,3.1-6.9,7c0,3.8,3.1,6.9,6.9,6.9c3.5,0,6.4-2.6,6.9-5.9h18.9v10.9H86.8v22.9h-27c-0.5-3.4-3.4-6-6.9-6
				c-3.8,0-7,3.1-7,7c0,3.8,3.1,7,7,7c3.5,0,6.4-2.6,6.9-5.9h29v-22.9h22.1v14h-10.6v18.1c-3.4,0.5-6,3.4-6,6.9c0,3.8,3.1,7,7,7
				c3.8,0,6.9-3.1,6.9-7c0-3.5-2.6-6.4-5.9-6.9v-16.1h10.6v-16h33.7v38.1h-18v21.1H116c-0.5-3.4-3.4-6-6.9-6c-3.8,0-7,3.1-7,7
				c0,3.8,3.1,7,7,7c3.5,0,6.4-2.6,6.9-6h12.5V347c-3.4,0.5-6,3.4-6,6.9c0,3.8,3.1,7,7,7c3.8,0,6.9-3.1,6.9-7c0-3.5-2.6-6.4-5.9-6.9
				v-75.5h18v-15.4h11.7V290h21.5v40.4h13.2c0.5,3.4,3.4,6,6.9,6c1.9,0,3.6-0.7,4.9-2c1.3-1.3,2-3.1,2-4.9c0-3.8-3.1-7-7-7
				c-3.5,0-6.4,2.6-6.9,6h-11.2V288h-21.5v-20.2h12.7v8.6h17.8c0.5,3.4,3.4,6,6.9,6c3.8,0,7-3.1,7-7c0-3.8-3.1-7-7-7
				c-3.5,0-6.4,2.6-6.9,6h-15.8v-31.6H210v15h23.4v12.5c-3.4,0.5-6,3.4-6,6.9c0,3.8,3.1,7,7,7c3.8,0,6.9-3.1,6.9-7
				c0-3.5-2.6-6.4-5.9-6.9v-12.5h22.8c0.5,3.4,3.4,6,6.9,6c3.8,0,7-3.1,7-7c0-3.8-3.1-6.9-7-6.9c-3.5,0-6.4,2.6-6.9,5.9H212v-14.9
				h-35.2v-13.1H221v12.9h21c0.5,3.4,3.4,5.9,6.9,5.9c3.8,0,6.9-3.1,6.9-6.9c0-3.8-3.1-7-6.9-7c-3.5,0-6.4,2.6-6.9,6h-18.9v-10.9
				h11.4v-22.9h32c0.5,3.4,3.4,5.9,6.9,5.9c3.8,0,7-3.1,7-6.9C280.3,200,277.2,196.9,273.3,196.9z M215,186.7c0-2.7,2.2-4.9,4.9-4.9
				s5,2.2,5,4.9s-2.2,4.9-5,4.9C217.2,191.6,215,189.4,215,186.7z M215.3,158.7c2.7,0,4.9,2.2,4.9,5c0,2.7-2.2,4.9-4.9,4.9
				s-5-2.2-5-4.9C210.4,160.9,212.6,158.7,215.3,158.7z M192.8,109.3c0-2.7,2.2-4.9,4.9-4.9s4.9,2.2,4.9,4.9c0,2.7-2.2,4.9-4.9,4.9
				S192.8,112,192.8,109.3z M156.2,132.6c0-2.7,2.2-5,5-5c2.7,0,4.9,2.2,4.9,5s-2.2,4.9-4.9,4.9
				C158.4,137.6,156.2,135.4,156.2,132.6z M122.8,157.6c-2.7,0-4.9-2.2-4.9-5s2.2-4.9,4.9-4.9s5,2.2,5,4.9S125.5,157.6,122.8,157.6z
				 M138.2,119.5c0-2.7,2.2-4.9,4.9-4.9s5,2.2,5,4.9s-2.2,4.9-5,4.9S138.2,122.3,138.2,119.5z M141.9,78.2c2.7,0,5,2.2,5,4.9
				c0,2.7-2.2,5-5,5c-2.7,0-4.9-2.2-4.9-5C137,80.4,139.2,78.2,141.9,78.2z M56,205.2c-2.7,0-5-2.2-5-5c0-2.7,2.2-4.9,5-4.9
				c2.7,0,5,2.2,5,4.9C61,203,58.8,205.2,56,205.2z M81.7,179.9c0-2.7,2.2-4.9,4.9-4.9c2.7,0,5,2.2,5,4.9s-2.2,5-5,5
				C84,184.9,81.7,182.6,81.7,179.9z M72.3,222.4c-2.7,0-4.9-2.2-4.9-4.9s2.2-5,4.9-5s4.9,2.2,4.9,5S75,222.4,72.3,222.4z
				 M52.8,258.2c-2.7,0-5-2.2-5-4.9c0-2.7,2.2-5,5-5c2.7,0,5,2.2,5,5C57.8,256,55.6,258.2,52.8,258.2z M106.2,270.4
				c0,2.7-2.2,5-4.9,5s-5-2.2-5-5c0-2.7,2.2-5,5-5S106.2,267.6,106.2,270.4z M109.1,296.5c-2.7,0-5-2.2-5-5s2.2-5,5-5
				c2.7,0,4.9,2.2,4.9,5C114.1,294.3,111.9,296.5,109.1,296.5z M134.4,353.8c0,2.7-2.2,5-4.9,5s-5-2.2-5-5s2.2-5,5-5
				S134.4,351.1,134.4,353.8z M201.7,324.5c2.7,0,5,2.2,5,5c0,1.3-0.5,2.6-1.4,3.5s-2.2,1.5-3.5,1.5c-2.7,0-4.9-2.2-4.9-5
				S199,324.5,201.7,324.5z M199.5,270.5c2.7,0,5,2.2,5,5s-2.2,5-5,5c-2.7,0-4.9-2.2-4.9-5S196.8,270.5,199.5,270.5z M265.1,251.8
				c2.7,0,5,2.2,5,5c0,2.7-2.2,5-5,5c-2.7,0-5-2.2-5-5C260.2,254,262.4,251.8,265.1,251.8z M239.4,277.1c0,2.7-2.2,5-4.9,5
				s-5-2.2-5-5s2.2-5,5-5S239.4,274.4,239.4,277.1z M248.9,234.7c2.7,0,4.9,2.2,4.9,5s-2.2,4.9-4.9,4.9s-4.9-2.2-4.9-4.9
				S246.1,234.7,248.9,234.7z M273.3,208.8c-2.7,0-5-2.2-5-4.9s2.2-4.9,5-4.9c2.7,0,5,2.2,5,4.9S276.1,208.8,273.3,208.8z"/>
			<path class="st1" d="M71.7,375.5v-40.4H83c0.5,3.4,3.4,6,6.9,6c3.8,0,7-3.1,7-7c0-3.8-3.1-7-7-7c-3.5,0-6.4,2.6-6.9,6H69.7v40.4
				H58.4v-63.9c3.4-0.5,6-3.4,6-6.9c0-3.8-3.1-7-7-7c-3.8,0-7,3.1-7,7c0,3.5,2.6,6.4,6,6.9v63.9h-8.2v6.8h-14v-89
				c3.4-0.5,6-3.4,6-6.9c0-3.8-3.1-7-7-7c-3.8,0-7,3.1-7,7c0,3.5,2.6,6.4,6,6.9v91h16.1V400h2v-2.3H63v2.3h2v-11h15.8
				c0.5,3.4,3.4,6,6.9,6c3.8,0,7-3.1,7-7c0-3.8-3.1-7-7-7c-3.5,0-6.4,2.6-6.9,6H63v8.6H50.2v-20.2h21.5V375.5z M89.8,329.1
				c2.7,0,5,2.2,5,5c0,2.7-2.2,5-5,5c-2.7,0-4.9-2.2-4.9-5C84.9,331.4,87.1,329.1,89.8,329.1z M52.5,302.8c0-2.7,2.2-5,5-5
				s5,2.2,5,5s-2.2,5-5,5S52.5,305.5,52.5,302.8z M28.2,284.4c0-2.7,2.2-5,5-5s5,2.2,5,5s-2.2,5-5,5S28.2,287.1,28.2,284.4z
				 M87.6,383.1c2.7,0,5,2.2,5,5s-2.2,5-5,5c-2.7,0-4.9-2.2-4.9-5S84.9,383.1,87.6,383.1z M122.6,379.4c-3.8,0-7,3.1-7,7
				c0,3.5,2.6,6.4,6,6.9v6.8h2v-6.8c3.4-0.5,5.9-3.4,5.9-6.9C129.5,382.5,126.4,379.4,122.6,379.4z M122.6,391.3c-2.7,0-5-2.2-5-5
				c0-2.7,2.2-5,5-5c2.7,0,4.9,2.2,4.9,5C127.5,389.1,125.3,391.3,122.6,391.3z M153.3,399.8c-0.6,0-1.2,0.1-1.7,0.2h3.4
				C154.4,399.9,153.8,399.8,153.3,399.8z M18.6,392v-75.5c3.4-0.5,5.9-3.4,5.9-6.9c0-3.8-3.1-7-7-7c-3.8,0-7,3.1-7,7
				c0,3.5,2.6,6.4,6,6.9V371H4.1c-0.3-2.4-1.9-4.4-4.1-5.4v2.3c1.3,0.9,2.2,2.4,2.2,4.1s-0.9,3.2-2.2,4.1v2.3c2.2-0.9,3.8-3,4.1-5.4
				h12.5v21h18v6h2v-8H18.6z M12.6,309.7c0-2.7,2.2-5,5-5s4.9,2.2,4.9,5c0,2.7-2.2,5-5,5S12.6,312.4,12.6,309.7z"/>
			<path class="st1" d="M237.5,377.2c-3.8,0-6.9,3.1-6.9,7c0,3.5,2.6,6.4,5.9,6.9v9h2v-9c3.4-0.5,6-3.4,6-6.9
				C244.4,380.3,241.3,377.2,237.5,377.2z M237.5,389.1c-2.7,0-4.9-2.2-4.9-5s2.2-5,4.9-5s5,2.2,5,5S240.2,389.1,237.5,389.1z"/>
			<path class="st1" d="M220.3,393.4c-3.7,0-6.7,2.9-6.9,6.6h2c0.2-2.5,2.4-4.6,4.9-4.6s4.7,2,4.9,4.6h2
				C227.1,396.3,224,393.4,220.3,393.4z M184.5,369c-3.8,0-6.9,3.1-6.9,7c0,3.5,2.6,6.4,5.9,6.9V400h2v-17.2
				c3.4-0.5,5.9-3.4,5.9-6.9C191.5,372.1,188.3,369,184.5,369z M184.5,380.9c-2.7,0-4.9-2.2-4.9-5s2.2-5,4.9-5s4.9,2.2,4.9,5
				S187.2,380.9,184.5,380.9z"/>
			<path class="st1" d="M369.2,375.3c-3.8,0-7,3.1-7,7c0,3.5,2.6,6.4,6,6.9V400h2v-10.9c3.4-0.5,6-3.4,6-6.9
				C376.1,378.4,373,375.3,369.2,375.3z M369.2,387.2c-2.7,0-5-2.2-5-5c0-2.7,2.2-5,5-5c2.7,0,5,2.2,5,5
				C374.1,385,371.9,387.2,369.2,387.2z"/>
			<path class="st1" d="M316.2,367.1c-3.8,0-7,3.1-7,7c0,3.5,2.6,6.4,6,6.9v19h2v-19c3.4-0.5,6-3.4,6-6.9
				C323.2,370.3,320,367.1,316.2,367.1z M316.2,379c-2.7,0-5-2.2-5-5s2.2-5,5-5s5,2.2,5,5S318.9,379,316.2,379z M352,391.6
				c-3.8,0-7,3.1-7,7c0,0.5,0,1,0.2,1.5h2.1c-0.1-0.5-0.2-1-0.2-1.5c0-2.7,2.2-5,5-5s5,2.2,5,5c0,0.5-0.1,1-0.2,1.5h2.1
				c0.1-0.5,0.2-1,0.2-1.5C359,394.7,355.9,391.6,352,391.6z"/>
			<path class="st1" d="M389.5,6c-3.5,0-6.4,2.6-6.9,6h-12.5V0h-2v35.3h-15v47.2h13.7V111c-3.4,0.5-6,3.4-6,6.9c0,3.8,3.1,7,7,7
				c3.8,0,7-3.1,7-7c0-3.5-2.6-6.4-5.9-6.9V80.5h-13.7V37.3h15V13.9h12.5c0.5,3.4,3.4,6,6.9,6c3.8,0,7-3.1,7-6.9
				C396.5,9.1,393.4,6,389.5,6z M372.9,118c0,2.7-2.2,5-5,5s-5-2.2-5-5c0-2.7,2.2-4.9,5-4.9S372.9,115.2,372.9,118z M389.5,17.9
				c-2.7,0-5-2.2-5-4.9s2.2-4.9,5-4.9c2.7,0,5,2.2,5,4.9S392.3,17.9,389.5,17.9z"/>
			<path class="st1" d="M356.8,0c-0.6,2-2.5,3.5-4.7,3.5S347.9,2,347.3,0h-2.1c0.6,2.8,2.9,5,5.8,5.4v19h-10.9V13h-22.9V0h-2v15
				h22.9v22h-14V26.4H306c-0.5-3.4-3.4-5.9-6.9-5.9c-3.8,0-7,3.1-7,7c0,3.8,3.1,7,7,7c3.5,0,6.4-2.6,6.9-6h16.1v10.6h16v31.6
				c-3.4,0.5-6,3.4-6,6.9c0,3.8,3.1,7,7,7c3.8,0,7-3.1,7-7c0-3.5-2.6-6.4-6-6.9V26.4H353v-21c2.9-0.4,5.2-2.6,5.8-5.4
				C358.8,0,356.8,0,356.8,0z M299.1,32.4c-2.7,0-5-2.2-5-5c0-2.7,2.2-5,5-5s5,2.2,5,5C304,30.2,301.8,32.4,299.1,32.4z M344.1,77.5
				c0,2.7-2.2,5-5,5c-2.7,0-5-2.2-5-5c0-2.7,2.2-4.9,5-4.9C341.8,72.5,344.1,74.8,344.1,77.5z"/>
			<path class="st1" d="M257.8,7.8c-3.5,0-6.4,2.6-6.9,5.9h-12.5V0h-2v37.2h-14.9v47.2h13.7v28.5c-3.4,0.5-6,3.4-6,6.9
				c0,3.8,3.1,7,7,7c3.8,0,6.9-3.1,6.9-7c0-3.5-2.6-6.4-5.9-6.9V82.4h-13.7V39.2h14.9V15.8H251c0.5,3.4,3.4,5.9,6.9,5.9
				c3.8,0,7-3.1,7-6.9S261.7,7.8,257.8,7.8z M241.1,119.8c0,2.7-2.2,5-4.9,5s-5-2.2-5-5s2.2-4.9,5-4.9S241.1,117.1,241.1,119.8z
				 M257.8,19.7c-2.7,0-4.9-2.2-4.9-4.9s2.2-4.9,4.9-4.9c2.7,0,5,2.2,5,4.9S260.5,19.7,257.8,19.7z"/>
			<path class="st1" d="M227.3,0h-2c0,0.1,0,0.3,0,0.4c0,2.7-2.2,4.9-4.9,4.9s-5-2.2-5-4.9c0-0.1,0-0.3,0-0.4h-2c0,0.1,0,0.3,0,0.4
				c0,3.5,2.6,6.4,6,6.9v19h-10.9V14.9h-22.9V0h-2v16.9h22.9V39h-14V28.3h-18.1c-0.5-3.4-3.4-6-6.9-6c-3.8,0-6.9,3.1-6.9,7
				c0,3.8,3.1,7,6.9,7c3.5,0,6.4-2.6,6.9-6h16.1v10.6h16v31.6c-3.4,0.5-5.9,3.4-5.9,6.9c0,3.8,3.1,7,6.9,7c3.8,0,7-3.1,7-7
				c0-3.5-2.6-6.4-6-6.9V28.2h12.9V7.3c3.4-0.5,5.9-3.4,5.9-6.9C227.3,0.3,227.3,0.1,227.3,0z M167.4,34.3c-2.7,0-4.9-2.2-4.9-5
				c0-2.7,2.2-5,4.9-5s4.9,2.2,4.9,5C172.3,32,170.1,34.3,167.4,34.3z M212.4,79.3c0,2.7-2.2,5-5,5c-2.7,0-4.9-2.2-4.9-5
				c0-2.7,2.2-4.9,4.9-4.9C210.1,74.4,212.4,76.6,212.4,79.3z"/>
			<path class="st1" d="M400,75v-2h-8.4v80.6h8.4v-2h-6.4V75H400z"/>
			<path class="st1" d="M397.2,367c1,0,2,0.3,2.8,0.8v-2.3c-0.9-0.4-1.8-0.6-2.8-0.6c-3.8,0-7,3.1-7,7c0,3.8,3.1,7,7,7
				c1,0,1.9-0.2,2.8-0.6V376c-0.8,0.5-1.7,0.9-2.8,0.9c-2.7,0-5-2.2-5-5C392.3,369.2,394.5,367,397.2,367z"/>
		</g>
	</g>
</g>
</svg>
