<?xml version="1.0" encoding="utf-8"?>
<!-- Generator: Adobe Illustrator 23.0.3, SVG Export Plug-In . SVG Version: 6.00 Build 0)  -->
<svg version="1.1" id="Layer_1" xmlns:serif="http://www.serif.com/"
	 xmlns="http://www.w3.org/2000/svg" xmlns:xlink="http://www.w3.org/1999/xlink" x="0px" y="0px" viewBox="0 0 308.7 176.3"
	 style="enable-background:new 0 0 308.7 176.3;" xml:space="preserve">
<style type="text/css">
	.st0{display:none;fill:#8AA4C8;}
	.st1{fill:#E4EDF7;}
	.st2{fill:#C2D7F9;}
	.st3{fill:#D7E4F8;}
</style>
<rect id="Rectangle-1" serif:id="Rectangle 1" class="st0" width="308.7" height="176.3">
</rect>
<rect id="Rectangle-11" serif:id="Rectangle 1" class="st1" width="308.7" height="176.3">
</rect>
<g id="servers">
	<path id="Layer-5" serif:id="Layer 5" class="st2" d="M82.8,108.4l-1.6-1.4l-0.1-0.1l0-0.2l0-0.2l0.1-0.1l2.5-3l-1.8-1.5
		c-0.1-0.1-0.1-0.1-0.2-0.3l0-0.2l0.1-0.1l7.4-8.9c0.1-0.1,0.1-0.1,0.3-0.2l0.2,0l0.1,0.1l1.8,1.5l1.6-1.9l-1.8-1.5
		c-0.1-0.1-0.1-0.1-0.2-0.3l0-0.2l0.1-0.1l7.4-8.9c0.1-0.1,0.1-0.1,0.3-0.2l0.2,0l0.1,0.1l1.8,1.5c0,0,0-0.1,0.1-0.1l1.7-2l-1.8-1.5
		c-0.1-0.1-0.1-0.1-0.2-0.3l0-0.2l0.1-0.1l7.4-8.9c0.1-0.1,0.1-0.1,0.3-0.2l0.2,0l0.1,0.1l1.8,1.5l1.5-1.8l-1.8-1.5l-0.1-0.1l0-0.2
		c0-0.2,0-0.2,0.1-0.3l7.4-8.9c0.1-0.1,0.1-0.1,0.3-0.2l0.2,0l0.1,0.1l31,26c0,0,0.1,0.1,0.1,0.1l0,0.2l0,0.2l-0.1,0.1l-7.4,8.9
		c-0.1,0.1-0.1,0.1-0.3,0.2l-0.2,0l-0.1-0.1l-1.5-1.3l-1.5,1.8l1.5,1.3l0.1,0.1l0,0.2l0,0.2l-0.1,0.1l-7.4,8.9
		c-0.1,0.1-0.1,0.1-0.3,0.2l-0.2,0l-0.1-0.1l-1.5-1.3l-1.7,2c0,0-0.1,0.1-0.1,0.1l1.5,1.3l0.1,0.1l0,0.2l0,0.2l-0.1,0.1l-7.4,8.9
		c-0.1,0.1-0.1,0.1-0.3,0.2l-0.2,0l-0.1-0.1l-1.5-1.3l-1.6,1.9l1.5,1.3l0.1,0.1l0,0.2l0,0.2l-0.1,0.1l-7.4,8.9
		c-0.1,0.1-0.1,0.1-0.3,0.2l-0.2,0l-0.1-0.1l-1.4-1.2l-2.7,3.2c-0.2,0.2-0.3,0.2-0.5,0.1c0,0,0,0,0,0l0,0l0,0c0,0-0.1,0-0.1-0.1l0,0
		l-1.7-1.5l-0.1-0.1l0-0.2l0-0.2l0.1-0.1l0.8-1L84,107.5l-0.6,0.8l-0.1,0.1l-0.2,0l-0.2,0L82.8,108.4z M110.7,126.1L84.3,104
		l-2.2,2.6l1,0.8l0.6-0.8c0.1-0.1,0.2-0.2,0.5-0.1l0.1,0.1l23.7,19.9l0.1,0.1c0,0.1,0,0.1,0,0.2c0,0.2,0,0.2-0.1,0.3l-0.8,1l1.1,0.9
		L110.7,126.1z M119.9,118.7L89.6,93.3l-6.9,8.2L113,127L119.9,118.7z M113.7,116.9c1.1,0.9,1.4,2.7,0.7,4c-0.7,1.2-2.3,1.8-3.7,1.4
		c-1.7-0.6-2.7-2.8-1.8-4.5C109.8,116.2,112.1,115.6,113.7,116.9C113.7,116.9,113.7,116.9,113.7,116.9z M113.1,117.6
		c-0.8-0.7-2-0.7-2.9,0c-1,0.8-1.1,2.6,0,3.5c0.8,0.7,2.1,0.7,2.9,0C114.1,120.2,114.2,118.5,113.1,117.6z M120.2,114.6L93.9,92.5
		l-1.6,1.9l26.3,22.1L120.2,114.6z M106.8,114.3c0.3,0.2,0.3,0.7,0.1,1c-0.2,0.3-0.7,0.3-1,0.1c-0.3-0.2-0.3-0.7-0.1-1
		C106.1,114.1,106.5,114,106.8,114.3z M129.5,107.3L99.2,81.9l-6.9,8.2l30.3,25.4L129.5,107.3z M104.7,112.5c0.3,0.2,0.3,0.7,0.1,1
		c-0.2,0.3-0.7,0.3-1,0.1c-0.3-0.2-0.3-0.7-0.1-1C104,112.3,104.4,112.3,104.7,112.5z M102.4,110.6c0.3,0.2,0.3,0.7,0.1,1
		c-0.2,0.3-0.7,0.3-1,0.1c-0.3-0.2-0.3-0.7-0.1-1C101.7,110.4,102.1,110.4,102.4,110.6z M123.3,105.5c1.1,0.9,1.4,2.7,0.7,4
		c-0.7,1.2-2.3,1.8-3.7,1.4c-1.7-0.6-2.7-2.8-1.8-4.5C119.4,104.8,121.7,104.2,123.3,105.5C123.3,105.4,123.3,105.4,123.3,105.5z
		 M122.7,106.1c-0.8-0.7-2.1-0.7-2.9,0c-1,0.8-1,2.6,0,3.5c0.8,0.7,2.1,0.7,2.9,0C123.7,108.7,123.8,107,122.7,106.1z M100.2,106.8
		c0.1,0.1,0.1,0.1,0.1,0.1c0.1,0.2,0.1,0.3-0.1,0.5l-2,2.4c-0.3,0.3-1-0.1-0.7-0.6l2-2.4c0.1-0.1,0.1-0.1,0.1-0.1
		C99.8,106.7,100,106.7,100.2,106.8C100.2,106.8,100.2,106.8,100.2,106.8z M97.7,104.7c0.1,0.1,0.1,0.1,0.1,0.1
		c0.1,0.2,0.1,0.3-0.1,0.5l-2,2.4c-0.3,0.3-1.1-0.1-0.7-0.6l2-2.4c0.1-0.2,0.2-0.1,0.3-0.2C97.5,104.6,97.7,104.7,97.7,104.7z
		 M95.2,102.6c0.1,0.1,0.1,0.1,0.1,0.1c0.1,0.2,0.1,0.3-0.1,0.5l-2,2.4c-0.1,0.2-0.2,0.1-0.3,0.2c-0.3,0-0.6-0.4-0.4-0.7l2-2.4
		c0.2-0.2,0.2-0.1,0.3-0.2C95.1,102.5,95.2,102.6,95.2,102.6z M130,102.9l-26.3-22.1l-1.7,2c0,0-0.1,0.1-0.1,0.1l26.4,22.1
		c0,0,0-0.1,0.1-0.1L130,102.9z M116.4,102.8c0.3,0.2,0.3,0.7,0.1,1c-0.2,0.3-0.7,0.3-1,0.1c-0.3-0.2-0.3-0.7-0.1-1
		C115.7,102.6,116.1,102.6,116.4,102.8z M139.3,95.6L109,70.2l-6.9,8.2l30.3,25.4L139.3,95.6z M92.8,100.6c0.1,0.1,0.1,0.1,0.1,0.1
		c0.1,0.2,0.1,0.3-0.1,0.5l-2,2.4c-0.3,0.3-1.1-0.1-0.7-0.6l2-2.4c0.1-0.2,0.2-0.1,0.3-0.2C92.5,100.4,92.7,100.5,92.8,100.6z
		 M114.4,101.1c0.3,0.2,0.3,0.7,0.1,1c-0.2,0.3-0.7,0.3-1,0.1c-0.3-0.2-0.3-0.7-0.1-1C113.6,100.9,114.1,100.8,114.4,101.1z
		 M90.3,98.5c0.1,0.1,0.1,0.1,0.1,0.1c0.1,0.2,0.1,0.3-0.1,0.5l-2,2.4c-0.1,0.2-0.2,0.1-0.3,0.2c-0.3,0-0.6-0.4-0.4-0.7l2-2.4
		c0.1-0.1,0.1-0.1,0.1-0.1C89.9,98.3,90.1,98.3,90.3,98.5C90.3,98.5,90.3,98.5,90.3,98.5z M112.1,99.1c0.3,0.2,0.3,0.7,0.1,1
		c-0.2,0.3-0.7,0.3-1,0.1c-0.3-0.2-0.3-0.7-0.1-1C111.3,98.9,111.8,98.9,112.1,99.1z M133.1,93.8c1.1,0.9,1.4,2.7,0.7,4
		c-0.7,1.2-2.3,1.8-3.7,1.4c-1.7-0.5-2.7-2.7-1.8-4.4C129.1,93.1,131.5,92.5,133.1,93.8C133.1,93.8,133.1,93.8,133.1,93.8z
		 M109.8,95.4c0.1,0.1,0.1,0.1,0.1,0.1c0.1,0.2,0.1,0.3-0.1,0.5l-2,2.4c-0.1,0.2-0.2,0.1-0.3,0.2c-0.3,0-0.6-0.4-0.4-0.7l2-2.4
		c0.2-0.2,0.2-0.2,0.3-0.2C109.7,95.2,109.8,95.3,109.8,95.4z M132.5,94.4c-0.8-0.7-2.1-0.7-2.9,0c-1,0.8-1,2.6,0,3.5
		c0.8,0.7,2.1,0.7,2.9,0C133.5,97.1,133.6,95.3,132.5,94.4z M107.4,93.3c0.1,0.1,0.1,0.1,0.1,0.1c0.1,0.2,0.1,0.3-0.1,0.5l-2,2.4
		c-0.3,0.3-1-0.1-0.7-0.6l2-2.4c0-0.1,0.1-0.1,0.1-0.1C107,93.1,107.2,93.1,107.4,93.3C107.3,93.3,107.3,93.3,107.4,93.3z
		 M104.9,91.2c0.1,0.1,0.1,0.1,0.1,0.1c0.1,0.2,0.1,0.3-0.1,0.5l-2,2.4c-0.3,0.3-1.1-0.1-0.7-0.6l2-2.4c0.1-0.1,0.1-0.1,0.1-0.1
		C104.5,91,104.7,91,104.9,91.2C104.9,91.2,104.9,91.2,104.9,91.2z M139.5,91.6l-26.3-22.1l-1.5,1.8L138,93.4L139.5,91.6z
		 M148.8,84.3l-30.3-25.4l-6.9,8.2l30.3,25.4L148.8,84.3z M126.2,91.2c0.3,0.2,0.3,0.7,0.1,1c-0.2,0.3-0.7,0.3-1,0.1
		c-0.3-0.2-0.3-0.7-0.1-1C125.5,90.9,125.9,90.9,126.2,91.2z M102.4,89.1c0.1,0.1,0.1,0.1,0.1,0.1c0.1,0.2,0.1,0.3-0.1,0.5l-2,2.4
		c-0.1,0.2-0.2,0.1-0.3,0.2c-0.3,0-0.6-0.4-0.4-0.7l2-2.4c0.1-0.2,0.2-0.1,0.3-0.2C102.2,88.9,102.3,89.1,102.4,89.1z M124.1,89.4
		c0.3,0.2,0.3,0.7,0.1,1c-0.2,0.3-0.7,0.3-1,0.1c-0.3-0.2-0.3-0.7-0.1-1C123.4,89.2,123.9,89.2,124.1,89.4z M99.9,87
		c0.1,0.1,0.1,0.1,0.1,0.1c0.1,0.2,0.1,0.3-0.1,0.5l-2,2.4c-0.3,0.3-1.1-0.1-0.7-0.6l2-2.4c0.1-0.2,0.2-0.1,0.3-0.2
		C99.7,86.9,99.9,87,99.9,87z M121.8,87.5c0.3,0.2,0.3,0.7,0.1,1c-0.2,0.3-0.7,0.3-1,0.1c-0.3-0.2-0.3-0.7-0.1-1
		C121.1,87.3,121.5,87.2,121.8,87.5z M142.6,82.5c1.1,1,1.4,2.7,0.7,4c-0.7,1.2-2.3,1.8-3.7,1.4c-1.7-0.6-2.7-2.8-1.8-4.5
		C138.7,81.8,141,81.2,142.6,82.5C142.6,82.4,142.6,82.4,142.6,82.5z M142,83.1c-0.8-0.7-2.1-0.7-2.9,0c-1,0.8-1.1,2.6,0,3.5
		c1.1,1,3.2,0.5,3.6-1.1C143,84.7,142.7,83.7,142,83.1C142.1,83.1,142,83.1,142,83.1z M119.6,83.7c0.1,0.1,0.1,0.1,0.1,0.1
		c0.1,0.2,0.1,0.3-0.1,0.5l-2,2.4c-0.1,0.2-0.2,0.1-0.3,0.2c-0.3,0-0.6-0.4-0.4-0.7l2-2.4c0.1-0.2,0.2-0.1,0.3-0.2
		C119.4,83.6,119.6,83.7,119.6,83.7z M117.1,81.6c0.1,0.1,0.1,0.1,0.1,0.1c0.1,0.2,0.1,0.3-0.1,0.5l-2,2.4c-0.3,0.3-1.1-0.1-0.7-0.6
		l2-2.4c0-0.1,0.1-0.1,0.1-0.1C116.8,81.4,116.9,81.4,117.1,81.6C117.1,81.6,117.1,81.6,117.1,81.6z M114.6,79.5
		c0.1,0.1,0.1,0.1,0.1,0.1c0.1,0.2,0.1,0.3-0.1,0.5l-2,2.4c-0.3,0.3-1.1-0.1-0.7-0.6l2-2.4c0.1-0.2,0.2-0.1,0.3-0.2
		C114.4,79.4,114.6,79.5,114.6,79.5z M135.7,79.8c0.3,0.2,0.3,0.7,0.1,1c-0.2,0.3-0.7,0.3-1,0.1c-0.1-0.1-0.2-0.2-0.2-0.3
		c-0.1-0.2,0-0.5,0.1-0.7C135,79.6,135.4,79.6,135.7,79.8z M112.2,77.4c0.1,0.1,0.1,0.1,0.1,0.1c0.1,0.2,0.1,0.3-0.1,0.5l-2,2.4
		c-0.1,0.2-0.2,0.1-0.3,0.2c-0.3,0-0.6-0.4-0.4-0.7l2-2.4c0.1-0.1,0.1-0.1,0.1-0.1C111.8,77.3,112,77.3,112.2,77.4
		C112.1,77.4,112.2,77.4,112.2,77.4z M133.7,78.1c0.3,0.2,0.3,0.7,0.1,1c-0.2,0.3-0.7,0.3-1,0.1c-0.3-0.2-0.3-0.7-0.1-1
		C132.9,77.9,133.4,77.8,133.7,78.1z M109.7,75.3c0.1,0.1,0.1,0.1,0.1,0.1c0.1,0.2,0.1,0.3-0.1,0.5l-2,2.4c-0.3,0.3-1-0.1-0.7-0.6
		l2-2.4c0.1-0.1,0.1-0.1,0.1-0.1C109.3,75.2,109.5,75.2,109.7,75.3C109.7,75.3,109.7,75.3,109.7,75.3z M131.3,76.1
		c0.3,0.2,0.3,0.7,0.1,1c-0.2,0.3-0.7,0.3-1,0.1c-0.3-0.2-0.3-0.7-0.1-1C130.6,75.9,131,75.9,131.3,76.1z M129.1,72.4
		c0.1,0.1,0.1,0.1,0.1,0.1c0.1,0.2,0.1,0.3-0.1,0.5l-2,2.4c-0.1,0.2-0.2,0.1-0.3,0.2c-0.3,0-0.6-0.4-0.4-0.7l2-2.4
		c0.1-0.1,0.1-0.1,0.1-0.1C128.8,72.2,128.9,72.2,129.1,72.4C129.1,72.4,129.1,72.4,129.1,72.4z M126.6,70.3
		c0.1,0.1,0.1,0.1,0.1,0.1c0.1,0.2,0.1,0.3-0.1,0.5l-2,2.4c-0.3,0.3-1-0.1-0.7-0.6l2-2.4c0-0.1,0.1-0.1,0.1-0.1
		C126.3,70.1,126.5,70.1,126.6,70.3C126.6,70.3,126.6,70.3,126.6,70.3z M124.2,68.2c0.1,0.1,0.1,0.1,0.1,0.1
		c0.1,0.2,0.1,0.3-0.1,0.5l-2,2.4c-0.3,0.3-1.1-0.1-0.7-0.6l2-2.4c0.1-0.1,0.1-0.1,0.1-0.1C123.8,68,124,68,124.2,68.2
		C124.1,68.2,124.1,68.2,124.2,68.2z M121.7,66.1c0.1,0.1,0.1,0.1,0.1,0.1c0.1,0.2,0.1,0.3-0.1,0.5l-2,2.4c-0.1,0.2-0.2,0.1-0.3,0.2
		c-0.3,0-0.6-0.4-0.4-0.7l2-2.4c0.1-0.1,0.1-0.1,0.1-0.1C121.3,65.9,121.5,65.9,121.7,66.1C121.7,66.1,121.7,66.1,121.7,66.1z
		 M119.2,64c0.1,0.1,0.1,0.1,0.1,0.1c0.1,0.2,0.1,0.3-0.1,0.5l-2,2.4c-0.1,0.2-0.2,0.1-0.3,0.2c-0.3,0-0.6-0.4-0.4-0.7l2-2.4
		c0.1-0.1,0.1-0.1,0.1-0.1C118.8,63.9,119,63.9,119.2,64C119.2,64,119.2,64,119.2,64z"/>
	<path id="Layer-6" serif:id="Layer 6" class="st2" d="M185.8,121l-1.6-1.4c-0.1-0.1-0.1-0.1-0.2-0.3l0-0.2l0.1-0.1l2.5-3l-1.8-1.5
		c-0.1-0.1-0.1-0.1-0.2-0.3l0-0.2l0.1-0.1l7.4-8.9c0.1-0.1,0.1-0.1,0.3-0.2l0.2,0l0.1,0.1l1.8,1.5l1.6-1.9l-1.8-1.5
		c-0.1-0.1-0.1-0.1-0.2-0.3l0-0.2l0.1-0.1l7.4-8.9c0.1-0.1,0.1-0.1,0.3-0.2l0.2,0l0.1,0.1l1.8,1.5c0,0,0-0.1,0.1-0.1l1.7-2l-1.8-1.5
		c-0.1-0.1-0.1-0.1-0.2-0.3l0-0.2l0.1-0.1l7.4-8.9c0.1-0.1,0.1-0.1,0.3-0.2l0.2,0l0.1,0.1l31,26c0,0,0.1,0.1,0.1,0.1l0,0.2l0,0.2
		l-0.1,0.1l-7.4,8.9c-0.1,0.1-0.1,0.1-0.3,0.2l-0.2,0l-0.1-0.1l-1.5-1.3l-1.7,2c0,0-0.1,0.1-0.1,0.1l1.5,1.3l0.1,0.1l0,0.2l0,0.2
		l-0.1,0.1L226,129c-0.1,0.1-0.1,0.1-0.3,0.2l-0.2,0l-0.1-0.1l-1.5-1.3l-1.6,1.9l1.5,1.3l0.1,0.1l0,0.2l0,0.2l-0.1,0.1l-7.4,8.9
		c-0.1,0.1-0.1,0.1-0.3,0.2l-0.2,0l-0.1-0.1l-1.4-1.2l-2.7,3.2c0,0-0.1,0.1-0.1,0.1l0,0l-0.2,0l-0.2,0l-0.1-0.1l-1.7-1.5
		c-0.1-0.1-0.1-0.1-0.2-0.3l0-0.2l0.1-0.1l0.8-1L187,120.2l-0.6,0.8c-0.1,0.1-0.1,0.1-0.3,0.2l-0.2,0L185.8,121z M213.7,138.8
		l-26.4-22.2l-2.2,2.6l1,0.8l0.6-0.8c0.1-0.1,0.1-0.1,0.3-0.2l0.2,0l0.1,0.1l23.7,19.9l0.1,0.1c0,0.1,0,0.1,0,0.2
		c0,0.2,0,0.2-0.1,0.3l-0.8,1l1.1,0.9L213.7,138.8z M222.9,131.4L192.6,106l-6.9,8.2l30.3,25.4L222.9,131.4z M216.7,129.6
		c1.1,0.9,1.4,2.7,0.7,3.9c-0.7,1.2-2.3,1.9-3.7,1.4c-1.7-0.5-2.7-2.7-1.8-4.4C212.7,128.9,215.1,128.3,216.7,129.6
		C216.7,129.6,216.7,129.6,216.7,129.6z M216.1,130.2c-0.8-0.7-2.1-0.7-2.9,0c-1,0.8-1.1,2.6,0,3.5c0.8,0.7,2,0.7,2.8,0.1
		C217.1,133,217.3,131.2,216.1,130.2C216.2,130.3,216.1,130.3,216.1,130.2z M223.2,127.3l-26.3-22.1l-1.6,1.9l26.3,22.1L223.2,127.3
		z M210.3,127.2c0.3,0.2,0.3,0.7,0.1,0.9c-0.2,0.3-0.7,0.3-0.9,0.1c-0.3-0.2-0.3-0.7-0.1-0.9C209.6,127,210,127,210.3,127.2z
		 M232.5,120l-30.3-25.4l-6.9,8.2l30.3,25.4L232.5,120z M208.2,125.5c0.3,0.2,0.3,0.7,0.1,0.9c-0.2,0.3-0.7,0.3-0.9,0.1
		c-0.3-0.2-0.3-0.7-0.1-0.9C207.5,125.3,207.9,125.3,208.2,125.5z M205.9,123.5c0.3,0.2,0.3,0.7,0.1,0.9c-0.2,0.3-0.7,0.3-0.9,0.1
		c-0.3-0.2-0.3-0.7-0.1-0.9C205.1,123.3,205.6,123.3,205.9,123.5z M226.3,118.1c1.1,0.9,1.4,2.7,0.7,3.9c-0.7,1.2-2.3,1.9-3.7,1.4
		c-1.7-0.5-2.7-2.7-1.8-4.4C222.3,117.5,224.7,116.8,226.3,118.1C226.3,118.1,226.3,118.1,226.3,118.1z M225.7,118.8
		c-0.8-0.7-2.1-0.7-2.9,0c-1,0.8-1.1,2.6,0,3.5c0.8,0.7,2,0.7,2.8,0.1C226.7,121.5,226.9,119.8,225.7,118.8
		C225.8,118.8,225.8,118.8,225.7,118.8z M203.2,119.5c0.1,0.1,0.1,0.1,0.1,0.1c0.1,0.2,0.1,0.3-0.1,0.5l-2,2.4
		c-0.1,0.2-0.2,0.1-0.3,0.2c-0.3,0-0.6-0.4-0.4-0.7l2-2.4c0.2-0.2,0.2-0.1,0.3-0.2C203,119.4,203.2,119.5,203.2,119.5z M200.7,117.4
		c0.1,0.1,0.1,0.1,0.1,0.1c0.1,0.2,0.1,0.3-0.1,0.5l-2,2.4c-0.3,0.3-1.1-0.1-0.7-0.6l2-2.4c0.2-0.2,0.2-0.1,0.3-0.2
		C200.6,117.3,200.7,117.4,200.7,117.4z M198.3,115.3c0.1,0.1,0.1,0.1,0.1,0.1c0.1,0.2,0.1,0.3-0.1,0.5l-2,2.4
		c-0.3,0.3-1.1-0.1-0.7-0.6l2-2.4c0.2-0.2,0.2-0.2,0.3-0.2C198.1,115.2,198.2,115.3,198.3,115.3z M233,115.6l-26.3-22.1l-1.7,2
		c0,0-0.1,0.1-0.1,0.1l26.4,22.1c0,0,0-0.1,0.1-0.1L233,115.6z M219.9,115.7c0.3,0.2,0.3,0.7,0.1,0.9c-0.2,0.3-0.7,0.3-0.9,0.1
		c-0.3-0.2-0.3-0.7-0.1-0.9C219.2,115.5,219.7,115.5,219.9,115.7z M242.3,108.3L212,82.9l-6.9,8.2l30.3,25.4L242.3,108.3z
		 M195.8,113.2c0.1,0.1,0.1,0.1,0.1,0.1c0.1,0.2,0.1,0.3-0.1,0.5l-2,2.4c-0.3,0.3-1.1-0.1-0.7-0.6l2-2.4c0.1-0.1,0.1-0.1,0.1-0.1
		C195.4,113.1,195.6,113.1,195.8,113.2C195.8,113.2,195.8,113.2,195.8,113.2z M217.9,114c0.3,0.2,0.3,0.7,0.1,0.9
		c-0.2,0.3-0.7,0.3-0.9,0.1c-0.3-0.2-0.3-0.7-0.1-0.9C217.2,113.8,217.6,113.7,217.9,114z M193.3,111.1c0.1,0.1,0.1,0.1,0.1,0.1
		c0.1,0.2,0.1,0.3-0.1,0.5l-2,2.4c-0.3,0.3-1-0.1-0.7-0.6l2-2.4c0.1-0.1,0.1-0.1,0.1-0.1C192.9,111,193.1,111,193.3,111.1
		C193.3,111.1,193.3,111.1,193.3,111.1z M215.5,112c0.3,0.2,0.3,0.7,0.1,0.9c-0.2,0.3-0.7,0.3-0.9,0.1c-0.3-0.2-0.3-0.7-0.1-0.9
		C214.8,111.8,215.2,111.8,215.5,112z M236.1,106.5c1.1,0.9,1.4,2.7,0.7,3.9c-0.7,1.2-2.3,1.9-3.7,1.4c-1.7-0.6-2.7-2.8-1.8-4.5
		C232.2,105.8,234.5,105.2,236.1,106.5C236.1,106.4,236.1,106.5,236.1,106.5z M212.9,108c0.1,0.1,0.1,0.1,0.1,0.1
		c0.1,0.2,0.1,0.3-0.1,0.5l-2,2.4c-0.1,0.2-0.2,0.1-0.3,0.2c-0.3,0-0.6-0.4-0.4-0.7l2-2.4c0-0.1,0.1-0.1,0.1-0.1
		C212.5,107.9,212.7,107.9,212.9,108C212.8,108,212.8,108,212.9,108z M235.5,107.1c-0.8-0.7-2.1-0.7-2.9,0c-1,0.8-1.1,2.6,0,3.5
		c0.8,0.7,2,0.7,2.8,0.1C236.5,109.9,236.7,108.1,235.5,107.1C235.6,107.1,235.5,107.1,235.5,107.1z M210.4,105.9
		c0.1,0.1,0.1,0.1,0.1,0.1c0.1,0.2,0.1,0.3-0.1,0.5l-2,2.4c-0.3,0.3-1-0.1-0.7-0.6l2-2.4c0.1-0.1,0.1-0.1,0.1-0.1
		C210,105.8,210.2,105.8,210.4,105.9C210.4,105.9,210.4,105.9,210.4,105.9z M207.9,103.8c0.1,0.1,0.1,0.1,0.1,0.1
		c0.1,0.2,0.1,0.3-0.1,0.5l-2,2.4c-0.3,0.3-1.1-0.1-0.7-0.6l2-2.4c0.1-0.1,0.1-0.1,0.1-0.1C207.5,103.7,207.7,103.7,207.9,103.8
		C207.9,103.8,207.9,103.8,207.9,103.8z M229.8,104c0.3,0.2,0.3,0.7,0.1,0.9c-0.2,0.3-0.7,0.3-0.9,0.1c-0.3-0.2-0.3-0.7-0.1-0.9
		C229.1,103.8,229.5,103.8,229.8,104z M205.4,101.8c0.1,0.1,0.1,0.1,0.1,0.1c0.1,0.2,0.1,0.3-0.1,0.5l-2,2.4c-0.3,0.3-1-0.1-0.7-0.6
		l2-2.4c0.1-0.1,0.1-0.1,0.1-0.1C205,101.6,205.2,101.6,205.4,101.8C205.4,101.7,205.4,101.8,205.4,101.8z M227.7,102.3
		c0.3,0.2,0.3,0.7,0.1,0.9c-0.2,0.3-0.7,0.3-0.9,0.1c-0.3-0.2-0.3-0.7-0.1-0.9C227,102.1,227.4,102.1,227.7,102.3z M202.9,99.7
		c0.1,0.1,0.1,0.1,0.1,0.1c0.1,0.2,0.1,0.3-0.1,0.5l-2,2.4c-0.3,0.3-1-0.1-0.7-0.6l2-2.4c0-0.1,0.1-0.1,0.1-0.1
		C202.5,99.5,202.7,99.5,202.9,99.7C202.9,99.7,202.9,99.7,202.9,99.7z M225.3,100.3c0.3,0.2,0.3,0.7,0.1,0.9
		c-0.2,0.3-0.7,0.3-0.9,0.1c-0.3-0.2-0.3-0.7-0.1-0.9C224.6,100.1,225,100.1,225.3,100.3z M222.6,96.4c0.1,0.1,0.1,0.1,0.1,0.1
		c0.1,0.2,0.1,0.3-0.1,0.5l-2,2.4c-0.3,0.3-1-0.1-0.7-0.6l2-2.4c0-0.1,0.1-0.1,0.1-0.1C222.3,96.2,222.4,96.2,222.6,96.4
		C222.6,96.4,222.6,96.4,222.6,96.4z M220.1,94.3c0.1,0.1,0.1,0.1,0.1,0.1c0.1,0.2,0.1,0.3-0.1,0.5l-2,2.4c-0.3,0.3-1-0.1-0.7-0.6
		l2-2.4c0-0.1,0.1-0.1,0.1-0.1C219.8,94.1,220,94.1,220.1,94.3C220.1,94.3,220.1,94.3,220.1,94.3z M217.7,92.2
		c0.1,0.1,0.1,0.1,0.1,0.1c0.1,0.2,0.1,0.3-0.1,0.5l-2,2.4c-0.3,0.3-1-0.1-0.7-0.6l2-2.4c0.2-0.2,0.2-0.1,0.3-0.2
		C217.5,92.1,217.6,92.2,217.7,92.2z M215.2,90.1c0.1,0.1,0.1,0.1,0.1,0.1c0.1,0.2,0.1,0.3-0.1,0.5l-2,2.4c-0.3,0.3-1-0.1-0.7-0.6
		l2-2.4c0.1-0.2,0.2-0.1,0.3-0.2C215,90,215.1,90.1,215.2,90.1z M212.7,88c0.1,0.1,0.1,0.1,0.1,0.1c0.1,0.2,0.1,0.3-0.1,0.5l-2,2.4
		c-0.1,0.2-0.2,0.1-0.3,0.2c-0.3,0-0.6-0.4-0.4-0.7l2-2.4c0.1-0.2,0.2-0.1,0.3-0.2C212.5,87.9,212.7,88,212.7,88z"/>
	<path id="Layer-10-copy-2" serif:id="Layer 10 copy 2" class="st2" d="M204.3,175.5L204.3,175.5
		C204.3,175.5,204.3,175.5,204.3,175.5l2-2.4l0.1-0.1c0.1,0,0.1,0,0.3,0l0.1,0.1l12.9,10.7c0,0,0.1,0.1,0.1,0.1l0,0.1l0,0.2
		l-0.1,0.1l-1.9,2.3l4.8,4c0.2,0.1,0.1,0.2,0.1,0.3c0,0,0,0.1,0,0.1l0,0l-0.1,0.1l-2.1,2.5c-0.1,0.1-0.1,0.1-0.3,0.1l-0.2,0
		l-0.1-0.1l-1.6-1.3l-28.1,33.8l1.3,1.1c0.1,0.1,0.1,0.1,0.1,0.3l0,0.2l-0.1,0.1l-2,2.4c-0.1,0.1-0.1,0.1-0.3,0.1l-0.2,0l-0.1-0.1
		l-4.5-3.7l-2.3,2.8l-0.1,0.1l-0.1,0c-0.2,0-0.2,0-0.3-0.1l-12.9-10.7l-0.1-0.1l0-0.1l0-0.2l0.1-0.1l2.3-2.8c0,0,0,0,0,0l-3.1-2.6
		l-2.3,2.8l-0.1,0.1l-0.1,0c-0.2,0-0.2,0-0.3-0.1l-12.9-10.7c-0.2-0.2-0.1-0.3-0.1-0.4l0.1-0.1l37.3-45l0.1-0.1l0.1,0l0.2,0l0.1,0.1
		l12.9,10.7c0,0,0.1,0.1,0.1,0.1l0,0.1l0,0.2l-0.1,0.1l-2,2.4L204.3,175.5z M189.6,226.6c0,0-0.3-0.1-0.1-0.6l28.6-34.5
		c0.2-0.2,0.3-0.1,0.4-0.1l0.1,0.1l1.6,1.3l1.6-1.9l-4.5-3.8l-32.1,38.8l4.2,3.5l1.5-1.8L189.6,226.6z M218.9,184.1l-12.3-10.2
		l-36.8,44.4l12.3,10.2L218.9,184.1z M181.3,220.9l-3.5-2.9c-0.2-0.1-0.1-0.2-0.1-0.3c0-0.3,0.4-0.5,0.6-0.3c0,0,0,0,0,0l3.5,2.9
		c0,0,0,0,0,0C182.1,220.6,181.8,221.3,181.3,220.9z M184.3,217.3l-3.5-2.9c-0.2-0.2-0.2-0.3-0.1-0.4c0.1-0.2,0.4-0.4,0.6-0.2
		c0,0,0,0,0,0l3.5,2.9c0,0,0,0,0,0C185.1,217,184.7,217.6,184.3,217.3z M171.8,214.7L171.8,214.7
		C171.8,214.8,171.8,214.8,171.8,214.7l32.1-38.6c0,0,0,0,0,0c0,0,0,0,0,0l-3.1-2.6l-32,38.6L171.8,214.7z M190,160.2l-36.8,44.4
		l12.3,10.2l36.8-44.4C198.2,166.9,194.1,163.6,190,160.2z M187.3,213.7l-3.5-2.9c-0.3-0.3,0.1-0.9,0.5-0.6l3.5,2.9c0,0,0,0,0,0
		C188.1,213.4,187.7,214,187.3,213.7z M190.3,210.1l-3.5-2.9c-0.2-0.1-0.1-0.2-0.1-0.3c0-0.3,0.4-0.5,0.6-0.3c0,0,0,0,0,0l3.5,2.9
		c0,0,0,0,0,0C191.1,209.8,190.7,210.4,190.3,210.1z M164.7,207.2l-3.5-2.9c-0.2-0.1-0.1-0.2-0.1-0.3c0-0.3,0.4-0.5,0.6-0.3
		c0,0,0,0,0,0l3.5,2.9c0,0,0,0,0,0C165.5,206.8,165.1,207.5,164.7,207.2z M193.3,206.5l-3.5-2.9c-0.3-0.3,0.1-1,0.5-0.6l3.5,2.9
		c0,0,0,0,0,0C194.1,206.2,193.8,206.8,193.3,206.5z M167.7,203.5l-3.5-2.9c-0.3-0.3,0-1,0.5-0.6l3.5,2.9c0,0,0,0,0,0
		C168.5,203.2,168.1,203.9,167.7,203.5z M148.4,201.6l-12.9-10.7l-0.1-0.1c0-0.1,0-0.1,0-0.3l0.1-0.1l37.3-45l0.1-0.1l0.1,0l0.2,0
		l0.1,0.1l12.9,10.7c0,0,0.1,0.1,0.1,0.1c0.1,0.2,0,0.3,0,0.4l-2,2.4l3.1,2.6l0,0c0.3,0.3-0.1,0.9-0.5,0.6l-3.1-2.6l-32,38.6
		l3.1,2.6l0,0c0.2,0.2,0.1,0.3,0.1,0.4c-0.1,0.2-0.4,0.3-0.6,0.2c0,0,0,0,0,0l-3.1-2.6l-2.3,2.7l-0.1,0.1l-0.1,0l-0.2,0L148.4,201.6
		z M195.2,199.3c0.4-0.4,1-0.5,1.5-0.1c0.4,0.4,0.5,1,0.1,1.5c-0.4,0.4-1,0.5-1.5,0.1C194.9,200.4,194.8,199.8,195.2,199.3z
		 M185.4,156.3l-12.3-10.2l-36.8,44.4l12.3,10.2L185.4,156.3z M170.7,199.9l-3.5-2.9c-0.3-0.3,0.1-1,0.5-0.6l3.5,2.9c0,0,0,0,0,0
		C171.5,199.6,171.1,200.3,170.7,199.9z M198,195.9c0.4-0.4,1-0.5,1.5-0.1c0.4,0.4,0.5,1,0.1,1.5c-0.4,0.4-1,0.5-1.5,0.1
		C197.7,197,197.7,196.3,198,195.9z M173.7,196.3l-3.5-2.9c-0.3-0.3,0.1-0.9,0.5-0.6l3.5,2.9c0,0,0,0,0,0
		C174.5,196,174.1,196.6,173.7,196.3z M200.6,192.8c0.4-0.4,1-0.5,1.5-0.1c0.4,0.4,0.5,1,0.1,1.5c-0.4,0.4-1,0.5-1.5,0.1
		C200.3,193.9,200.2,193.2,200.6,192.8z M147.8,193.1l-3.5-2.9c-0.3-0.3,0.1-0.9,0.5-0.6l3.5,2.9c0,0,0,0,0,0
		C148.6,192.8,148.2,193.5,147.8,193.1z M176.7,192.7l-3.5-2.9c-0.3-0.3,0.1-0.9,0.5-0.6l3.5,2.9c0,0,0,0,0,0
		C177.5,192.4,177.1,193,176.7,192.7z M210.3,182.9c1.5,1.3,2,3.7,1,5.4c-1.2,2.1-4.4,2.9-6.5,1.2c-1.5-1.2-2-3.5-1.1-5.3
		C204.9,182,208.2,181.1,210.3,182.9C210.3,182.9,210.3,182.9,210.3,182.9z M209.8,183.5c-1.2-1-3.2-1-4.4,0c-1.2,1-1.6,2.9-0.9,4.3
		c0.9,1.8,3.5,2.4,5.2,1.2C211.3,187.8,211.6,185,209.8,183.5C209.8,183.5,209.8,183.5,209.8,183.5z M150.8,189.5l-3.5-2.9
		c-0.3-0.3-0.2-0.3-0.1-0.5c0.1-0.2,0.4-0.2,0.6-0.1l3.5,2.9c0,0,0,0,0,0C151.6,189.2,151.2,189.9,150.8,189.5z M178.6,185.6
		c0.4-0.4,1-0.5,1.5-0.1c0.4,0.4,0.5,1,0.1,1.5c-0.4,0.4-1,0.5-1.5,0.1C178.3,186.7,178.2,186,178.6,185.6z M153.8,185.9l-3.5-2.9
		c-0.3-0.3,0.1-1,0.5-0.6l3.5,2.9c0,0,0,0,0,0C154.6,185.6,154.2,186.2,153.8,185.9z M181.4,182.1c0.4-0.4,1-0.5,1.5-0.1
		c0.4,0.4,0.5,1,0.1,1.5c-0.4,0.4-1,0.5-1.5,0.1C181.1,183.2,181.1,182.6,181.4,182.1z M156.8,182.3l-3.5-2.9
		c-0.3-0.3-0.2-0.3-0.1-0.5c0.1-0.2,0.4-0.2,0.6-0.1l3.5,2.9c0,0,0,0,0,0C157.6,182,157.2,182.6,156.8,182.3z M184,179
		c0.4-0.4,1-0.5,1.5-0.1c0.4,0.4,0.5,1,0.1,1.5s-1,0.5-1.5,0.1C183.7,180.1,183.6,179.5,184,179z M159.8,178.7l-3.5-2.9
		c-0.3-0.3,0.1-0.9,0.5-0.6l3.5,2.9c0,0,0,0,0,0C160.6,178.4,160.2,179,159.8,178.7z M193.7,169.1c1.5,1.3,2,3.6,1,5.4
		c-1.2,2.2-4.4,3-6.5,1.3c-1.5-1.2-2-3.5-1.1-5.3C188.3,168.2,191.5,167.4,193.7,169.1C193.7,169.1,193.7,169.1,193.7,169.1z
		 M193.2,169.7c-1.2-1-3.1-1-4.4,0c-1.3,1-1.7,2.9-1,4.4c0.9,1.8,3.6,2.4,5.2,1.2C194.7,173.9,194.9,171.2,193.2,169.7
		C193.2,169.7,193.2,169.7,193.2,169.7z M161.6,171.5c0.4-0.4,1-0.5,1.5-0.1c0.4,0.4,0.5,1,0.1,1.5c-0.4,0.4-1,0.5-1.5,0.1
		C161.3,172.6,161.2,171.9,161.6,171.5z M164.4,168c0.4-0.4,1-0.5,1.5-0.1c0.4,0.4,0.5,1,0.1,1.5c-0.4,0.4-1,0.5-1.5,0.1
		C164.1,169.1,164.1,168.5,164.4,168z M167,165c0.4-0.4,1-0.5,1.5-0.1c0.4,0.4,0.5,1,0.1,1.5c-0.4,0.4-1,0.5-1.5,0.1
		C166.7,166.1,166.6,165.4,167,165z M176.8,155.1c1.5,1.3,2,3.6,1,5.4c-1.2,2.2-4.4,3-6.5,1.3c-1.5-1.2-2-3.5-1.1-5.2
		C171.3,154.2,174.6,153.4,176.8,155.1C176.8,155.1,176.8,155.1,176.8,155.1z M176.3,155.7c-1.2-1-3.2-1-4.4,0
		c-1.2,1-1.6,2.9-0.9,4.3c0.9,1.8,3.6,2.4,5.2,1.2C177.8,159.9,178,157.2,176.3,155.7C176.3,155.7,176.3,155.7,176.3,155.7z
		 M204.3,3L204.3,3C204.3,3,204.3,3,204.3,3l2-2.4l0.1-0.1c0.1,0,0.1,0,0.3,0l0.1,0.1l12.9,10.7c0,0,0.1,0.1,0.1,0.1l0,0.1l0,0.2
		l-0.1,0.1l-1.9,2.3l4.8,4c0.2,0.1,0.1,0.2,0.1,0.3c0,0,0,0.1,0,0.1l0,0l-0.1,0.1l-2.1,2.5c-0.1,0.1-0.1,0.1-0.3,0.1l-0.2,0
		l-0.1-0.1l-1.6-1.4l-28.1,33.9l1.3,1.1c0.1,0.1,0.1,0.1,0.1,0.3l0,0.2l-0.1,0.1l-2,2.4c-0.1,0.1-0.1,0.1-0.3,0.1l-0.2,0l-0.1-0.1
		l-4.5-3.7l-2.3,2.8l-0.1,0.1l-0.1,0c-0.2,0-0.2,0-0.3-0.1L169,46.3l-0.1-0.1l0-0.1l0-0.2l0.1-0.1l2.3-2.8c0,0,0,0,0,0l-3.1-2.6
		l-2.3,2.8l-0.1,0.1l-0.1,0c-0.2,0-0.2,0-0.3-0.1l-12.9-10.7c-0.2-0.2-0.1-0.3-0.1-0.4l0.1-0.1l37.4-45.1l0.1-0.1l0.1,0l0.2,0
		l0.1,0.1l12.9,10.7c0,0,0.1,0.1,0.1,0.1l0,0.1l0,0.2L203.1-2l-2,2.4L204.3,3z M189.6,54.2c0,0-0.3-0.1-0.1-0.6l28.6-34.5
		c0.2-0.2,0.3-0.1,0.4-0.1l0.1,0.1l1.6,1.4l1.6-1.9l-4.5-3.8l-32.2,38.8l4.2,3.5l1.5-1.8L189.6,54.2z M218.9,11.6L206.6,1.5
		l-36.9,44.5l12.3,10.2L218.9,11.6z M181.3,48.5l-3.5-2.9c-0.2-0.1-0.1-0.2-0.1-0.3c0-0.3,0.4-0.5,0.6-0.3c0,0,0,0,0,0l3.5,2.9
		c0,0,0,0,0,0C182.1,48.2,181.7,48.9,181.3,48.5z M184.3,44.9l-3.5-2.9c-0.2-0.2-0.2-0.3-0.1-0.4c0.1-0.2,0.4-0.4,0.6-0.2
		c0,0,0,0,0,0l3.5,2.9c0,0,0,0,0,0C185.1,44.6,184.7,45.2,184.3,44.9z M171.7,42.3L171.7,42.3C171.7,42.4,171.7,42.4,171.7,42.3
		l32.1-38.7c0,0,0,0,0,0c0,0,0,0,0,0L200.6,1l-32.1,38.7L171.7,42.3z M190-12.4l-36.9,44.5l12.3,10.2l36.9-44.5
		C198.2-5.6,194.1-9,190-12.4z M187.3,41.3l-3.5-2.9c-0.3-0.3,0.1-0.9,0.5-0.6l3.5,2.9c0,0,0,0,0,0C188,41,187.7,41.6,187.3,41.3z
		 M190.3,37.7l-3.5-2.9c-0.2-0.1-0.1-0.2-0.1-0.3c0-0.3,0.4-0.5,0.6-0.3c0,0,0,0,0,0l3.5,2.9c0,0,0,0,0,0
		C191.1,37.3,190.7,38,190.3,37.7z M164.6,34.7l-3.5-2.9c-0.2-0.1-0.1-0.2-0.1-0.3c0-0.3,0.4-0.5,0.6-0.3c0,0,0,0,0,0l3.5,2.9
		c0,0,0,0,0,0C165.4,34.4,165,35.1,164.6,34.7z M193.3,34l-3.5-2.9c-0.3-0.3,0.1-1,0.5-0.6l3.5,2.9c0,0,0,0,0,0
		C194.1,33.7,193.7,34.4,193.3,34z M167.6,31.1l-3.5-2.9c-0.3-0.3,0-1,0.5-0.6l3.5,2.9c0,0,0,0,0,0C168.4,30.8,168,31.4,167.6,31.1z
		 M148.3,29.1l-12.9-10.7l-0.1-0.1c0-0.1,0-0.1,0-0.3l0.1-0.1l37.4-45.1l0.1-0.1l0.1,0l0.2,0l0.1,0.1l12.9,10.7c0,0,0.1,0.1,0.1,0.1
		c0.1,0.2,0,0.3,0,0.4l-2,2.4l3.1,2.6l0,0c0.3,0.3-0.1,0.9-0.5,0.6l-3.1-2.6l-32.1,38.7l3.1,2.6l0,0c0.2,0.2,0.1,0.3,0.1,0.4
		c-0.1,0.2-0.4,0.3-0.6,0.2c0,0,0,0,0,0l-3.1-2.6l-2.3,2.8l-0.1,0.1l-0.1,0l-0.2,0L148.3,29.1z M195.1,26.9c0.4-0.4,1-0.5,1.5-0.1
		c0.4,0.4,0.5,1,0.1,1.5c-0.4,0.4-1,0.5-1.5,0.1C194.8,28,194.7,27.3,195.1,26.9z M185.3-16.2l-12.3-10.2l-36.9,44.5l12.3,10.2
		L185.3-16.2z M170.6,27.5l-3.5-2.9c-0.3-0.3,0.1-1,0.5-0.6l3.5,2.9c0,0,0,0,0,0C171.4,27.2,171,27.8,170.6,27.5z M198,23.4
		c0.4-0.4,1-0.5,1.5-0.1c0.4,0.4,0.5,1,0.1,1.5c-0.4,0.4-1,0.5-1.5,0.1C197.7,24.5,197.6,23.9,198,23.4z M173.6,23.9l-3.5-2.9
		c-0.3-0.3,0.1-0.9,0.5-0.6l3.5,2.9c0,0,0,0,0,0C174.4,23.5,174,24.2,173.6,23.9z M200.6,20.3c0.4-0.4,1-0.5,1.5-0.1
		c0.4,0.4,0.5,1,0.1,1.5c-0.4,0.4-1,0.5-1.5,0.1C200.2,21.4,200.2,20.8,200.6,20.3z M147.7,20.7l-3.5-2.9c-0.3-0.3,0.1-0.9,0.5-0.6
		l3.5,2.9c0,0,0,0,0,0C148.5,20.4,148.1,21,147.7,20.7z M176.6,20.2l-3.5-2.9c-0.3-0.3,0.1-0.9,0.5-0.6l3.5,2.9c0,0,0,0,0,0
		C177.4,19.9,177,20.6,176.6,20.2z M210.3,10.4c1.5,1.3,2,3.7,1,5.4c-1.2,2.1-4.4,2.9-6.5,1.2c-1.5-1.2-2-3.5-1.1-5.3
		C204.9,9.5,208.1,8.7,210.3,10.4C210.3,10.4,210.3,10.4,210.3,10.4z M209.8,11c-1.2-1-3.2-1-4.4,0c-1.2,1-1.6,2.9-0.9,4.3
		c0.9,1.8,3.5,2.4,5.2,1.2C211.3,15.3,211.5,12.5,209.8,11C209.8,11,209.8,11,209.8,11z M150.7,17.1l-3.5-2.9
		c-0.3-0.3-0.2-0.3-0.1-0.5c0.1-0.2,0.4-0.2,0.6-0.1l3.5,2.9c0,0,0,0,0,0C151.5,16.7,151.1,17.4,150.7,17.1z M178.5,13.1
		c0.4-0.4,1-0.5,1.5-0.1c0.4,0.4,0.5,1,0.1,1.5c-0.4,0.4-1,0.5-1.5,0.1C178.2,14.2,178.1,13.6,178.5,13.1z M153.7,13.4l-3.5-2.9
		c-0.3-0.3,0.1-1,0.5-0.6l3.5,2.9c0,0,0,0,0,0C154.5,13.1,154.1,13.8,153.7,13.4z M181.4,9.7c0.4-0.4,1-0.5,1.5-0.1
		c0.4,0.4,0.5,1,0.1,1.5c-0.4,0.4-1,0.5-1.5,0.1C181.1,10.8,181,10.1,181.4,9.7z M156.7,9.8l-3.5-2.9c-0.3-0.3-0.2-0.3-0.1-0.5
		c0.1-0.2,0.4-0.2,0.6-0.1l3.5,2.9c0,0,0,0,0,0C157.5,9.5,157.1,10.2,156.7,9.8z M183.9,6.6c0.4-0.4,1-0.5,1.5-0.1
		c0.4,0.4,0.5,1,0.1,1.5c-0.4,0.4-1,0.5-1.5,0.1C183.6,7.7,183.6,7,183.9,6.6z M159.7,6.2l-3.5-2.9c-0.3-0.3,0.1-0.9,0.5-0.6
		l3.5,2.9c0,0,0,0,0,0C160.5,5.9,160.1,6.5,159.7,6.2z M193.7-3.4c1.5,1.3,2,3.6,1,5.4c-1.2,2.2-4.4,3-6.5,1.3
		c-1.5-1.2-2-3.5-1.1-5.3C188.2-4.3,191.5-5.1,193.7-3.4C193.6-3.4,193.6-3.4,193.7-3.4z M193.1-2.8c-1.2-1-3.1-1-4.4,0
		c-1.3,1-1.7,2.9-1,4.4c0.9,1.8,3.6,2.5,5.2,1.2C194.7,1.4,194.9-1.3,193.1-2.8C193.2-2.8,193.1-2.8,193.1-2.8z M161.5-1
		c0.4-0.4,1-0.5,1.5-0.1c0.4,0.4,0.5,1,0.1,1.5c-0.4,0.4-1,0.5-1.5,0.1C161.2,0.1,161.1-0.6,161.5-1z M164.3-4.5
		c0.4-0.4,1-0.5,1.5-0.1c0.4,0.4,0.5,1,0.1,1.5c-0.4,0.4-1,0.5-1.5,0.1C164-3.4,164-4,164.3-4.5z M166.9-7.6c0.4-0.4,1-0.5,1.5-0.1
		c0.4,0.4,0.5,1,0.1,1.5c-0.4,0.4-1,0.5-1.5,0.1C166.6-6.5,166.5-7.1,166.9-7.6z M176.7-17.4c1.5,1.3,2,3.6,1,5.4
		c-1.2,2.2-4.4,3-6.5,1.3c-1.5-1.2-2-3.5-1.1-5.3C171.3-18.3,174.6-19.2,176.7-17.4C176.7-17.5,176.7-17.4,176.7-17.4z M176.2-16.8
		c-1.2-1-3.2-1-4.5,0c-1.2,1-1.6,2.9-0.9,4.3c0.9,1.8,3.6,2.5,5.2,1.2C177.7-12.6,177.9-15.3,176.2-16.8
		C176.2-16.8,176.2-16.8,176.2-16.8z"/>
	<path id="Layer-8" serif:id="Layer 8" class="st2" d="M25,58.2L25,58.2l-2.9-2.4L20,58.3c-0.1,0.1-0.1,0.1-0.2,0.1l-0.1,0l-0.1-0.1
		L7.6,48.4c-0.1-0.1-0.1-0.1-0.1-0.2l0-0.1l0.1-0.1L42.4,6.5c0.1-0.1,0.1-0.1,0.2-0.1l0.1,0l0.1,0.1l11.9,9.9c0,0,0.1,0.1,0.1,0.1
		l0,0.1l0,0.1l-0.1,0.1L53,19.1l2.9,2.4l0,0l1.6-1.9l0,0l0.2-0.2c0.1-0.1,0.1-0.1,0.2-0.1l0.1,0l0.1,0.1L58,19.5l11.9,9.9
		c0,0,0.1,0.1,0.1,0.1l0,0.1l0,0.1L69.9,30l-1.8,2.2l2.9,2.4l0,0c0,0,0,0,0,0l1.9-2.2c0.1-0.1,0.1-0.1,0.2-0.1l0.1,0l0.1,0.1
		l11.9,9.9c0,0,0.1,0.1,0.1,0.1l0,0.1l0,0.1l-0.1,0.1l-1.7,2.1l4.4,3.8c0.1,0.1,0.1,0.2,0.1,0.3c0,0,0,0.1,0,0.1l0,0L88,49.2l-2,2.3
		c-0.1,0.1-0.1,0.1-0.2,0.1l-0.1,0l-0.1-0.1l-1.5-1.3L57.9,81.4l1.2,1l0.1,0.1l0,0.1c0,0.1,0,0.1-0.1,0.3l-1.8,2.2
		c-0.1,0.1-0.1,0.1-0.2,0.1l-0.1,0l-0.1-0.1l-4.1-3.5l-2.1,2.5c-0.1,0.1-0.1,0.1-0.2,0.1l-0.1,0L50,84.3l-11.9-9.9
		c-0.1-0.1-0.1-0.1-0.1-0.2l0-0.1l0.1-0.1l2.1-2.5c0,0,0,0,0,0l-2.9-2.4l-2.1,2.5c-0.1,0.1-0.1,0.1-0.2,0.1l-0.1,0l-0.1-0.1
		l-11.9-9.9c-0.1-0.1-0.1-0.1-0.1-0.2l0-0.1l0.1-0.1L25,58.2z M87.2,49l-4.2-3.5l-30,35.7l3.9,3.2l1.4-1.6l-1.2-1L57,81.7l0-0.1
		l0-0.1l0.1-0.1l26.7-31.7l0.1-0.1l0.1,0l0.1,0l0.1,0.1l1.5,1.3L87.2,49z M84.5,42.7l-11.3-9.5L38.8,74l11.3,9.5L84.5,42.7z
		 M49.4,76.5l-3.2-2.7c-0.3-0.2-0.2-0.3-0.1-0.5c0.1-0.2,0.4-0.2,0.5-0.1l3.2,2.7c0,0,0,0,0,0C50.2,76.2,49.8,76.8,49.4,76.5z
		 M52.2,73.2L49,70.5c-0.2-0.1-0.1-0.2-0.1-0.3c0-0.3,0.3-0.5,0.6-0.3c0,0,0,0,0,0l3.2,2.7c0,0,0,0,0,0C53,72.9,52.6,73.5,52.2,73.2
		z M40.6,70.7L40.6,70.7C40.6,70.7,40.6,70.7,40.6,70.7l29.9-35.5c0,0,0,0,0,0l-2.9-2.4L37.7,68.3L40.6,70.7z M69.1,29.8l-11.3-9.5
		L23.5,61.2l11.3,9.5l32.4-38.5c0-0.1,0.1-0.1,0.1-0.2L69.1,29.8z M55,69.8l-3.2-2.7c-0.2-0.2-0.2-0.3-0.1-0.5
		c0.1-0.2,0.4-0.2,0.6-0.1l3.2,2.7c0,0,0,0,0,0C55.8,69.6,55.4,70.2,55,69.8z M57.8,66.5l-3.2-2.7c-0.2-0.2-0.2-0.3-0.1-0.5
		c0.1-0.2,0.4-0.2,0.6-0.1l3.2,2.7c0,0,0,0,0,0C58.6,66.2,58.2,66.8,57.8,66.5z M34.1,63.6l-3.2-2.7c-0.3-0.2-0.2-0.3-0.1-0.5
		c0.1-0.2,0.4-0.2,0.5-0.1l3.2,2.7c0,0,0,0,0,0C34.8,63.4,34.5,64,34.1,63.6z M60.6,63.2l-3.2-2.7c-0.3-0.2,0.1-0.9,0.5-0.6l3.2,2.7
		c0,0,0,0,0,0c0.3,0.3,0.2,0.4,0,0.6C61,63.3,60.8,63.3,60.6,63.2z M36.9,60.3l-3.2-2.7c-0.2-0.1-0.1-0.2-0.1-0.3
		c0-0.3,0.3-0.5,0.6-0.3c0,0,0,0,0,0l3.2,2.7c0,0,0,0,0,0C37.6,60,37.3,60.6,36.9,60.3z M62.3,56.8c0.3-0.4,0.9-0.4,1.3-0.1
		c0.4,0.3,0.4,0.9,0.1,1.3c-0.3,0.4-0.9,0.4-1.3,0.1C62,57.8,62,57.2,62.3,56.8z M25.5,57.6L25.5,57.6
		C25.5,57.6,25.5,57.6,25.5,57.6l29.9-35.5c0,0,0,0,0,0l-2.9-2.4L22.6,55.2L25.5,57.6z M54,16.7L42.7,7.2L8.4,48l11.3,9.5L52.1,19
		c0-0.1,0.1-0.1,0.1-0.2L54,16.7z M39.7,57l-3.2-2.7c-0.2-0.2-0.2-0.3-0.1-0.5c0.1-0.2,0.4-0.2,0.6-0.1l3.2,2.7c0,0,0,0,0,0
		C40.4,56.7,40.1,57.3,39.7,57z M64.9,53.7c0.3-0.4,0.9-0.4,1.3-0.1c0.4,0.3,0.4,0.9,0.1,1.3c-0.3,0.4-0.9,0.4-1.3,0.1
		S64.6,54.1,64.9,53.7z M42.5,53.7L39.2,51c-0.2-0.2-0.2-0.3-0.1-0.5c0.1-0.2,0.4-0.2,0.6-0.1l3.2,2.7c0,0,0,0,0,0
		C43.2,53.4,42.9,54,42.5,53.7z M67.2,51c0.3-0.4,0.9-0.4,1.3-0.1c0.4,0.3,0.4,0.9,0.1,1.3c-0.3,0.4-0.9,0.4-1.3,0.1
		C66.9,52,66.9,51.4,67.2,51z M19,50.5l-3.2-2.7c-0.3-0.2-0.2-0.3-0.1-0.5c0.1-0.2,0.4-0.2,0.5-0.1l3.2,2.7c0,0,0,0,0,0
		C19.7,50.2,19.4,50.8,19,50.5z M45.3,50.3L42,47.6c-0.3-0.2,0.1-0.9,0.5-0.6l3.2,2.7c0,0,0,0,0,0C46,50.1,45.7,50.7,45.3,50.3z
		 M76.5,41.5c1.5,1.3,1.8,3.6,0.7,5.2c-1.2,1.8-4,2.4-5.9,0.9c-1.5-1.2-1.9-3.5-0.9-5.1C71.7,40.5,74.6,39.9,76.5,41.5
		C76.5,41.4,76.5,41.5,76.5,41.5z M76,42c-1.2-1-3.2-0.9-4.3,0.2c-1,1-1.3,2.6-0.6,3.8c0.7,1.4,2.5,2.1,4,1.6
		c1.3-0.5,2.2-1.9,2.1-3.3C77.1,43.4,76.7,42.6,76,42C76.1,42,76,42,76,42z M21.8,47.2l-3.2-2.7c-0.2-0.1-0.1-0.2-0.1-0.3
		c0-0.3,0.3-0.5,0.6-0.3c0,0,0,0,0,0l3.2,2.7c0,0,0,0,0,0C22.5,46.9,22.2,47.5,21.8,47.2z M46.9,44c0.3-0.4,0.9-0.4,1.3-0.1
		c0.4,0.3,0.4,0.9,0.1,1.3c-0.3,0.4-0.9,0.4-1.3,0.1C46.7,45,46.6,44.4,46.9,44z M24.6,43.9l-3.2-2.7c-0.2-0.2-0.2-0.3-0.1-0.5
		c0.1-0.2,0.4-0.2,0.6-0.1l3.2,2.7c0,0,0,0,0,0C25.3,43.6,25,44.2,24.6,43.9z M49.5,40.9c0.3-0.4,0.9-0.4,1.3-0.1
		c0.4,0.3,0.4,0.9,0.1,1.3c-0.3,0.4-0.9,0.4-1.3,0.1C49.3,41.9,49.2,41.3,49.5,40.9z M27.4,40.5l-3.2-2.7c-0.2-0.2-0.2-0.3-0.1-0.5
		c0.1-0.2,0.4-0.2,0.6-0.1l3.2,2.7c0,0,0,0,0,0C28.1,40.3,27.8,40.9,27.4,40.5z M51.9,38.1c0.3-0.4,0.9-0.4,1.3-0.1
		c0.4,0.3,0.4,0.9,0.1,1.3c-0.3,0.4-0.9,0.4-1.3,0.1C51.6,39.1,51.5,38.5,51.9,38.1z M30.2,37.2l-3.2-2.7c-0.3-0.2,0.1-0.9,0.5-0.6
		l3.2,2.7c0,0,0,0,0,0C30.9,36.9,30.6,37.5,30.2,37.2z M61.2,28.6c1.4,1.2,1.8,3.3,0.9,4.9c-1.1,2-4.1,2.7-6,1.2
		c-1.5-1.2-1.9-3.5-0.9-5.1C56.4,27.7,59.3,27.1,61.2,28.6C61.1,28.6,61.2,28.6,61.2,28.6z M60.7,29.2c-1.2-1-3.2-0.9-4.3,0.2
		c-1,1-1.3,2.6-0.6,3.8c0.7,1.4,2.5,2.1,4,1.6c1.3-0.5,2.2-1.9,2.1-3.3C61.8,30.6,61.4,29.7,60.7,29.2
		C60.7,29.2,60.7,29.2,60.7,29.2z M31.8,30.9c0.3-0.4,0.9-0.4,1.3-0.1c0.4,0.3,0.4,0.9,0.1,1.3c-0.3,0.4-0.9,0.4-1.3,0.1
		C31.5,31.9,31.5,31.3,31.8,30.9z M34.4,27.8c0.3-0.4,0.9-0.4,1.3-0.1c0.4,0.3,0.4,0.9,0.1,1.3c-0.3,0.4-0.9,0.4-1.3,0.1
		C34.1,28.8,34.1,28.2,34.4,27.8z M36.7,25c0.3-0.4,0.9-0.4,1.3-0.1c0.4,0.3,0.4,0.9,0.1,1.3c-0.3,0.4-0.9,0.4-1.3,0.1
		C36.5,26,36.4,25.4,36.7,25z M46.1,15.5c1.4,1.2,1.8,3.3,0.9,4.9c-1.1,2-4.1,2.7-6,1.2c-1.5-1.2-1.9-3.5-0.9-5.1
		C41.3,14.6,44.1,14,46.1,15.5C46,15.5,46.1,15.5,46.1,15.5z M45.6,16c-1.2-1-3.2-0.9-4.3,0.2c-1,1-1.3,2.6-0.6,3.8
		c0.7,1.4,2.5,2.1,4,1.6c1.3-0.5,2.2-1.9,2.1-3.3C46.7,17.4,46.3,16.6,45.6,16C45.6,16,45.6,16,45.6,16z"/>
	<path id="Layer-9" serif:id="Layer 9" class="st2" d="M240.5,65.5l-9.9-8.4l-0.1-0.1l-0.1-0.2l0-0.2l0.1-0.2l29.2-34.9l0.1-0.1
		l0.2-0.1l0.2,0l0.2,0.1l9.9,8.4c0,0,0.1,0.1,0.1,0.1l0.1,0.2l0,0.2l-0.1,0.2l-1.4,1.7c0.7,0.6,1.5,1.2,2.2,1.8l1.4-1.7
		c0.1-0.1,0.2-0.1,0.3-0.2l0.2,0l0.2,0.1l9.9,8.4c0,0,0.1,0.1,0.1,0.1l0.1,0.2l0,0.2l-0.1,0.2l-1.3,1.6l3.6,3.1
		c0.3,0.3,0.2,0.4,0.1,0.6c0,0,0,0,0,0.1l0,0l-1.6,2c-0.1,0.1-0.2,0.1-0.3,0.2l-0.2,0l-0.2-0.1l-1.1-0.9l-21.7,26l0.9,0.7
		c0.1,0.1,0.1,0.2,0.2,0.3l0,0.2l-0.1,0.2l-1.5,1.8c-0.1,0.1-0.2,0.1-0.3,0.2l-0.2,0l-0.2-0.1l-3.3-2.8l-1.7,2l-0.1,0.1l-0.2,0.1
		l-0.2,0l-0.2-0.1l-9.9-8.4l-0.1-0.1l-0.1-0.2l0-0.2l0.1-0.2l1.7-2l-2.2-1.8l-1.7,2c-0.1,0.1-0.1,0.1-0.3,0.2l-0.2,0L240.5,65.5z
		 M284.5,46.4l-3.2-2.7l-24.9,29.8l3,2.5l0.9-1.1l-0.9-0.7l-0.1-0.1c-0.1-0.2-0.1-0.2,0-0.4l0.1-0.2l22.3-26.7l0.1-0.1
		c0.1,0,0.3-0.1,0.5,0.1l1.1,0.9L284.5,46.4z M282.2,41.1l-9.2-7.8l-28.5,34.2l9.2,7.8L282.2,41.1z M253,69.7l-2.7-2.3
		c-0.4-0.3,0.1-1.2,0.6-0.8c0.9,0.8,1.8,1.5,2.7,2.3c0.2,0.2,0.2,0.2,0.2,0.3C253.8,69.7,253.3,70,253,69.7z M255.3,66.9l-2.7-2.3
		c-0.4-0.3,0.1-1.2,0.6-0.8c0.9,0.8,1.8,1.5,2.7,2.3C256.3,66.5,255.8,67.4,255.3,66.9z M270.5,34.8l-2.2-1.8l-24.8,29.7
		c0.7,0.6,1.5,1.2,2.2,1.8L270.5,34.8z M269.3,30.3l-9.2-7.8l-28.5,34.2l9.2,7.8L269.3,30.3z M257.6,64.1l-2.7-2.3
		c-0.4-0.3,0.1-1.2,0.6-0.8c0.9,0.8,1.8,1.5,2.7,2.3C258.6,63.7,258.2,64.5,257.6,64.1z M260,61.3l-2.7-2.3
		c-0.2-0.2-0.2-0.2-0.2-0.3c0-0.4,0.5-0.7,0.8-0.4c0.9,0.8,1.8,1.5,2.7,2.3c0.2,0.2,0.2,0.2,0.2,0.3C260.8,61.3,260.3,61.6,260,61.3
		z M240.1,58.9l-2.7-2.3c-0.4-0.3,0.1-1.2,0.6-0.8c0.9,0.8,1.8,1.5,2.7,2.3c0.2,0.2,0.2,0.2,0.2,0.3
		C240.9,58.9,240.4,59.2,240.1,58.9z M262.3,58.5l-2.7-2.3c-0.4-0.3,0.1-1.2,0.6-0.8c0.9,0.8,1.8,1.5,2.7,2.3
		c0.2,0.2,0.2,0.2,0.2,0.3C263.1,58.5,262.7,58.8,262.3,58.5z M242.4,56.1l-2.7-2.3c-0.4-0.3,0.1-1.2,0.6-0.8
		c0.9,0.8,1.8,1.5,2.7,2.3C243.4,55.7,243,56.5,242.4,56.1z M263.8,53c0.3-0.3,0.8-0.4,1.1-0.1c0.3,0.3,0.4,0.8,0.1,1.1
		c-0.3,0.3-0.8,0.4-1.1,0.1C263.6,53.9,263.6,53.4,263.8,53z M244.8,53.3l-2.7-2.3c-0.4-0.3,0.1-1.2,0.6-0.8
		c0.9,0.8,1.8,1.5,2.7,2.3c0.2,0.2,0.2,0.2,0.2,0.3C245.6,53.3,245.1,53.6,244.8,53.3z M266,50.4c0.3-0.3,0.8-0.4,1.1-0.1
		c0.3,0.3,0.4,0.8,0.1,1.1c-0.3,0.3-0.8,0.4-1.1,0.1C265.8,51.3,265.7,50.8,266,50.4z M247.1,50.5l-2.7-2.3
		c-0.4-0.3,0.1-1.2,0.6-0.8c0.9,0.8,1.8,1.5,2.7,2.3c0.2,0.2,0.2,0.2,0.2,0.3C247.9,50.5,247.4,50.8,247.1,50.5z M268,48.1
		c0.3-0.3,0.8-0.4,1.1-0.1c0.3,0.3,0.4,0.8,0.1,1.1c-0.3,0.3-0.8,0.4-1.1,0.1C267.7,48.9,267.7,48.4,268,48.1z M249.5,47.7l-2.7-2.3
		c-0.2-0.2-0.2-0.2-0.2-0.3c0-0.4,0.5-0.7,0.8-0.4c0.9,0.8,1.8,1.5,2.7,2.3C250.5,47.3,250,48.1,249.5,47.7z M275.9,39.9
		c1.2,1.1,1.6,3,0.8,4.4c-0.8,1.4-2.6,2.1-4.1,1.6c-1.9-0.6-3-3.1-2-5C271.4,39.2,274.1,38.5,275.9,39.9
		C275.9,39.9,275.9,39.9,275.9,39.9z M275.2,40.7c-0.9-0.7-2.3-0.8-3.3,0c-1.1,1-1.1,2.9,0,3.9c0.9,0.7,2.2,0.8,3.1,0.1
		C276.3,43.8,276.5,41.7,275.2,40.7C275.2,40.7,275.2,40.7,275.2,40.7z M251,42.2c0.3-0.3,0.8-0.4,1.1-0.1c0.3,0.3,0.4,0.8,0.1,1.1
		c-0.3,0.3-0.8,0.4-1.1,0.1C250.7,43,250.7,42.5,251,42.2z M253.1,39.6c0.3-0.3,0.8-0.4,1.1-0.1c0.3,0.3,0.4,0.8,0.1,1.1
		c-0.3,0.3-0.8,0.4-1.1,0.1C252.9,40.4,252.9,39.9,253.1,39.6z M255.1,37.3c0.3-0.3,0.8-0.4,1.1-0.1c0.3,0.3,0.4,0.8,0.1,1.1
		c-0.3,0.3-0.8,0.4-1.1,0.1C254.9,38.1,254.8,37.6,255.1,37.3z M263,29.1c1.2,1.1,1.6,3,0.8,4.4c-0.8,1.4-2.6,2.1-4.1,1.6
		c-1.9-0.6-3-3.1-2-5C258.6,28.3,261.2,27.6,263,29.1C263,29.1,263,29.1,263,29.1z M262.4,29.8c-0.8-0.6-1.9-0.8-2.8-0.3
		c-1.2,0.6-1.8,2.3-1.1,3.5c0.7,1.3,2.6,1.8,3.8,0.8C263.5,32.9,263.6,30.9,262.4,29.8C262.4,29.8,262.4,29.8,262.4,29.8z"/>
	<path id="Layer-9-copy-2" serif:id="Layer 9 copy 2" class="st2" d="M73.7,156.4l7.4-8.8l0.1-0.1l0.2,0l0.2,0l0.1,0.1l30.9,25.8
		l0.1,0.1l0,0.2l0,0.2l-0.1,0.1l-7.4,8.8c0,0-0.1,0.1-0.1,0.1l-0.2,0l-0.2,0l-0.1-0.1l-1.5-1.3c-0.5,0.6-1.1,1.3-1.6,1.9l1.5,1.3
		c0.1,0.1,0.1,0.1,0.2,0.3l0,0.2l-0.1,0.1l-7.4,8.8c0,0-0.1,0.1-0.1,0.1l-0.2,0l-0.2,0l-0.1-0.1l-1.4-1.2l-2.7,3.2
		c-0.3,0.3-0.4,0.2-0.6,0.1c0,0,0,0-0.1,0l0,0l-1.7-1.4c-0.1-0.1-0.1-0.1-0.2-0.3l0-0.2l0.1-0.1l0.8-1l-23-19.2l-0.6,0.8
		c-0.1,0.1-0.1,0.1-0.3,0.2l-0.2,0l-0.1-0.1l-1.6-1.4c-0.1-0.1-0.1-0.1-0.2-0.3l0-0.2l0.1-0.1l2.5-3l-1.8-1.5l-0.1-0.1l0-0.2l0-0.2
		l0.1-0.1l7.4-8.8l0.1-0.1l0.2,0l0.2,0l0.1,0.1l1.8,1.5l1.6-1.9l-1.8-1.5c-0.1-0.1-0.1-0.1-0.2-0.3l0-0.2L73.7,156.4z M90.6,195.3
		l2.4-2.8l-26.4-22l-2.2,2.6l1,0.8l0.6-0.8l0.1-0.1c0.2,0,0.2,0,0.3,0l0.1,0.1l23.7,19.8l0.1,0.1c0,0.1,0.1,0.2-0.1,0.5l-0.8,1
		L90.6,195.3z M95.4,193.3l6.9-8.1L72,159.9l-6.9,8.1L95.4,193.3z M96.4,187.7c-0.9,1.1-2.7,1.4-3.9,0.7c-1.2-0.7-1.9-2.3-1.4-3.7
		c0.5-1.7,2.8-2.7,4.4-1.8C97.1,183.8,97.7,186.2,96.4,187.7C96.4,187.7,96.4,187.7,96.4,187.7z M95.7,187.1c0.7-0.8,0.7-2.1,0-2.9
		c-0.8-1-2.6-1-3.5,0c-0.6,0.8-0.7,2-0.1,2.8C93,188.1,94.8,188.3,95.7,187.1C95.7,187.2,95.7,187.2,95.7,187.1z M100.9,182.9
		l1.6-1.9l-26.3-22c-0.5,0.6-1.1,1.3-1.6,1.9L100.9,182.9z M89.2,180.7c0.3,0.2,0.3,0.7,0.1,1c-0.2,0.3-0.7,0.3-1,0.1
		c-0.3-0.2-0.3-0.7-0.1-1C88.4,180.5,88.9,180.5,89.2,180.7z M105,181.9l6.9-8.1l-30.3-25.3l-6.9,8.1L105,181.9z M87.1,179
		c0.3,0.2,0.3,0.7,0.1,1c-0.2,0.3-0.7,0.3-1,0.1c-0.3-0.2-0.3-0.7-0.1-1C86.3,178.8,86.8,178.7,87.1,179z M84.8,177.1
		c0.3,0.2,0.3,0.7,0.1,1c-0.2,0.3-0.7,0.3-1,0.1c-0.3-0.2-0.3-0.7-0.1-1C84,176.8,84.5,176.8,84.8,177.1z M106,176.3
		c-0.9,1.1-2.7,1.4-3.9,0.7c-1.2-0.7-1.9-2.3-1.4-3.7c0.5-1.7,2.8-2.7,4.4-1.8C106.7,172.4,107.3,174.8,106,176.3
		C106,176.3,106,176.3,106,176.3z M105.3,175.8c0.6-0.7,0.7-1.6,0.3-2.4c-0.5-1.1-2-1.6-3.1-1c-1.1,0.6-1.6,2.3-0.7,3.4
		C102.6,176.7,104.4,176.8,105.3,175.8C105.3,175.8,105.3,175.8,105.3,175.8z M79.9,175.7l2-2.4c0.3-0.3,1,0.1,0.7,0.6
		c-0.7,0.8-1.3,1.6-2,2.4c-0.2,0.2-0.2,0.1-0.3,0.1C79.9,176.4,79.7,176,79.9,175.7z M77.4,173.6l2-2.4c0.1-0.2,0.2-0.1,0.3-0.2
		c0.3,0,0.6,0.4,0.4,0.7c-0.7,0.8-1.3,1.6-2,2.4c-0.2,0.2-0.2,0.1-0.3,0.1C77.4,174.4,77.2,173.9,77.4,173.6z M74.9,171.6l2-2.4
		c0.3-0.3,1.1,0.1,0.7,0.6c-0.7,0.8-1.3,1.6-2,2.4C75.3,172.5,74.6,172,74.9,171.6z M98.8,169.3c0.3,0.2,0.3,0.7,0.1,1
		c-0.2,0.3-0.7,0.3-1,0.1c-0.3-0.2-0.3-0.7-0.1-1S98.5,169.1,98.8,169.3z M72.4,169.5l2-2.4c0.3-0.3,1.1,0.1,0.7,0.6
		c-0.7,0.8-1.3,1.6-2,2.4C72.8,170.4,72.1,170,72.4,169.5z M96.7,167.6c0.3,0.2,0.3,0.7,0.1,1c-0.2,0.3-0.7,0.3-1,0.1
		c-0.3-0.2-0.3-0.7-0.1-1C96,167.4,96.4,167.4,96.7,167.6z M70,167.4l2-2.4c0.3-0.3,1.1,0.1,0.7,0.6c-0.7,0.8-1.3,1.6-2,2.4
		c-0.2,0.2-0.2,0.1-0.3,0.1C70,168.1,69.7,167.7,70,167.4z M94.4,165.7c0.3,0.2,0.3,0.7,0.1,1c-0.2,0.3-0.7,0.3-1,0.1
		c-0.3-0.2-0.3-0.7-0.1-1C93.6,165.5,94.1,165.4,94.4,165.7z M89.5,164.3l2-2.4c0.1-0.2,0.2-0.1,0.3-0.2c0.3,0,0.6,0.4,0.4,0.7
		c-0.7,0.8-1.3,1.6-2,2.4C89.9,165.2,89.1,164.8,89.5,164.3z M87,162.3l2-2.4c0.3-0.3,1,0.1,0.7,0.6c-0.7,0.8-1.3,1.6-2,2.4
		c-0.2,0.2-0.2,0.1-0.3,0.1C87,163,86.8,162.6,87,162.3z M84.5,160.2l2-2.4c0.3-0.3,1,0.1,0.7,0.6c-0.7,0.8-1.3,1.6-2,2.4
		c-0.2,0.2-0.2,0.1-0.3,0.1C84.6,160.9,84.3,160.5,84.5,160.2z M82,158.1l2-2.4c0.3-0.3,1.1,0.1,0.7,0.6c-0.7,0.8-1.3,1.6-2,2.4
		C82.4,159,81.7,158.6,82,158.1z M79.6,156l2-2.4c0.3-0.3,1.1,0.1,0.7,0.6c-0.7,0.8-1.3,1.6-2,2.4c-0.2,0.2-0.2,0.1-0.3,0.1
		C79.6,156.8,79.3,156.3,79.6,156z M73.7-16.4l7.4-8.8l0.1-0.1l0.2,0l0.2,0l0.1,0.1l30.9,25.8l0.1,0.1l0,0.2l0,0.2l-0.1,0.1
		l-7.4,8.8c0,0-0.1,0.1-0.1,0.1l-0.2,0l-0.2,0l-0.1-0.1l-1.5-1.3c-0.5,0.6-1.1,1.3-1.6,1.9l1.5,1.3c0.1,0.1,0.1,0.1,0.2,0.3l0,0.2
		l-0.1,0.1l-7.4,8.8c0,0-0.1,0.1-0.1,0.1l-0.2,0l-0.2,0l-0.1-0.1l-1.4-1.2L91,23.4c-0.3,0.3-0.4,0.2-0.6,0.1c0,0,0,0-0.1,0l0,0
		L88.6,22c-0.1-0.1-0.1-0.1-0.2-0.3l0-0.2l0.1-0.1l0.8-1l-23-19.2L65.8,2c-0.1,0.1-0.1,0.1-0.3,0.2l-0.2,0L65.1,2l-1.6-1.4
		c-0.1-0.1-0.1-0.1-0.2-0.3l0-0.2L63.5,0l2.5-3l-1.8-1.5l-0.1-0.1l0-0.2l0-0.2L64.1-5l7.4-8.8l0.1-0.1l0.2,0l0.2,0l0.1,0.1l1.8,1.5
		l1.6-1.9l-1.8-1.5c-0.1-0.1-0.1-0.1-0.2-0.3l0-0.2L73.7-16.4z M90.6,22.5l2.4-2.8l-26.4-22l-2.2,2.6l1,0.8L66,0.3l0.1-0.1
		c0.2,0,0.2,0,0.3,0l0.1,0.1L90.3,20l0.1,0.1c0,0.1,0.1,0.2-0.1,0.5l-0.8,1L90.6,22.5z M95.4,20.5l6.9-8.1L72-12.9l-6.9,8.1
		L95.4,20.5z M96.4,14.9c-0.9,1.1-2.7,1.4-3.9,0.7c-1.2-0.7-1.9-2.3-1.4-3.7c0.5-1.7,2.8-2.7,4.4-1.8C97.1,11,97.7,13.4,96.4,14.9
		C96.4,14.9,96.4,14.9,96.4,14.9z M95.7,14.3c0.7-0.8,0.7-2.1,0-2.9c-0.8-1-2.6-1-3.5,0c-0.6,0.8-0.7,2-0.1,2.8
		C93,15.3,94.8,15.5,95.7,14.3C95.7,14.4,95.7,14.4,95.7,14.3z M100.9,10.1l1.6-1.9l-26.3-22c-0.5,0.6-1.1,1.3-1.6,1.9L100.9,10.1z
		 M89.2,7.9c0.3,0.2,0.3,0.7,0.1,1c-0.2,0.3-0.7,0.3-1,0.1c-0.3-0.2-0.3-0.7-0.1-1C88.4,7.7,88.9,7.7,89.2,7.9z M105,9.1l6.9-8.1
		L81.6-24.3l-6.9,8.1L105,9.1z M87.1,6.2c0.3,0.2,0.3,0.7,0.1,1c-0.2,0.3-0.7,0.3-1,0.1c-0.3-0.2-0.3-0.7-0.1-1
		C86.3,6,86.8,5.9,87.1,6.2z M84.8,4.3c0.3,0.2,0.3,0.7,0.1,1c-0.2,0.3-0.7,0.3-1,0.1c-0.3-0.2-0.3-0.7-0.1-1C84,4,84.5,4,84.8,4.3z
		 M106,3.5c-0.9,1.1-2.7,1.4-3.9,0.7c-1.2-0.7-1.9-2.3-1.4-3.7c0.5-1.7,2.8-2.7,4.4-1.8C106.7-0.4,107.3,2,106,3.5
		C106,3.5,106,3.5,106,3.5z M105.3,3c0.6-0.7,0.7-1.6,0.3-2.4c-0.5-1.1-2-1.6-3.1-1c-1.1,0.6-1.6,2.3-0.7,3.4
		C102.6,3.9,104.4,4,105.3,3C105.3,3,105.3,3,105.3,3z M79.9,2.9l2-2.4c0.3-0.3,1,0.1,0.7,0.6c-0.7,0.8-1.3,1.6-2,2.4
		c-0.2,0.2-0.2,0.1-0.3,0.1C79.9,3.6,79.7,3.2,79.9,2.9z M77.4,0.8l2-2.4c0.1-0.2,0.2-0.1,0.3-0.2c0.3,0,0.6,0.4,0.4,0.7
		c-0.7,0.8-1.3,1.6-2,2.4c-0.2,0.2-0.2,0.1-0.3,0.1C77.4,1.6,77.2,1.1,77.4,0.8z M74.9-1.2l2-2.4c0.3-0.3,1.1,0.1,0.7,0.6
		c-0.7,0.8-1.3,1.6-2,2.4C75.3-0.3,74.6-0.8,74.9-1.2z M98.8-3.5c0.3,0.2,0.3,0.7,0.1,1c-0.2,0.3-0.7,0.3-1,0.1
		c-0.3-0.2-0.3-0.7-0.1-1S98.5-3.7,98.8-3.5z M72.4-3.3l2-2.4c0.3-0.3,1.1,0.1,0.7,0.6c-0.7,0.8-1.3,1.6-2,2.4
		C72.8-2.4,72.1-2.8,72.4-3.3z M96.7-5.2C97-5,97-4.5,96.8-4.2c-0.2,0.3-0.7,0.3-1,0.1c-0.3-0.2-0.3-0.7-0.1-1S96.4-5.4,96.7-5.2z
		 M70-5.4l2-2.4c0.3-0.3,1.1,0.1,0.7,0.6c-0.7,0.8-1.3,1.6-2,2.4c-0.2,0.2-0.2,0.1-0.3,0.1C70-4.7,69.7-5.1,70-5.4z M94.4-7.1
		c0.3,0.2,0.3,0.7,0.1,1c-0.2,0.3-0.7,0.3-1,0.1c-0.3-0.2-0.3-0.7-0.1-1C93.6-7.3,94.1-7.4,94.4-7.1z M89.5-8.5l2-2.4
		c0.1-0.2,0.2-0.1,0.3-0.2c0.3,0,0.6,0.4,0.4,0.7c-0.7,0.8-1.3,1.6-2,2.4C89.9-7.6,89.1-8,89.5-8.5z M87-10.5l2-2.4
		c0.3-0.3,1,0.1,0.7,0.6c-0.7,0.8-1.3,1.6-2,2.4c-0.2,0.2-0.2,0.1-0.3,0.1C87-9.8,86.8-10.2,87-10.5z M84.5-12.6l2-2.4
		c0.3-0.3,1,0.1,0.7,0.6c-0.7,0.8-1.3,1.6-2,2.4c-0.2,0.2-0.2,0.1-0.3,0.1C84.6-11.9,84.3-12.3,84.5-12.6z M82-14.7l2-2.4
		c0.3-0.3,1.1,0.1,0.7,0.6c-0.7,0.8-1.3,1.6-2,2.4C82.4-13.8,81.7-14.2,82-14.7z M79.6-16.8l2-2.4c0.3-0.3,1.1,0.1,0.7,0.6
		c-0.7,0.8-1.3,1.6-2,2.4c-0.2,0.2-0.2,0.1-0.3,0.1C79.6-16,79.3-16.5,79.6-16.8z"/>
	<path id="Layer-10-copy-4" serif:id="Layer 10 copy 4" class="st2" d="M16.6,167.5L16.6,167.5C16.6,167.5,16.6,167.5,16.6,167.5
		l2.2,1.9l0.1,0.1c0,0.1,0,0.1,0,0.3l-0.1,0.1L8.7,182c0,0-0.1,0.1-0.1,0.1l-0.1,0l-0.1,0L8.2,182l-2.1-1.8l-3.9,4.5
		c-0.1,0.1-0.2,0.1-0.3,0.1c0,0-0.1,0-0.1,0l0,0l-0.1-0.1l-2.4-2c-0.1-0.1-0.1-0.1-0.1-0.3l0-0.1l0.1-0.1l1.3-1.5l-31.8-26.7l-1,1.2
		c-0.1,0.1-0.1,0.1-0.3,0.1l-0.1,0l-0.1-0.1l-2.2-1.9c-0.1-0.1-0.1-0.1-0.1-0.3l0-0.1l0.1-0.1l3.6-4.2l-2.6-2.2l-0.1-0.1l0-0.1
		c0-0.1,0-0.1,0.1-0.3l10.2-12l0.1-0.1l0.1,0l0.1,0l0.1,0.1l2.6,2.2c0,0,0,0,0,0l2.5-2.9l-2.6-2.2l-0.1-0.1l0-0.1
		c0-0.1,0-0.1,0.1-0.3l10.2-12c0.2-0.2,0.3-0.1,0.4-0.1l0.1,0.1L32,153.9l0.1,0.1l0,0.1l0,0.1l-0.1,0.1l-10.2,12
		c0,0-0.1,0.1-0.1,0.1l-0.1,0l-0.1,0l-0.1-0.1l-2.2-1.9L16.6,167.5z M304.5,167.5L304.5,167.5C304.5,167.5,304.5,167.5,304.5,167.5
		l2.2,1.9l0.1,0.1c0,0.1,0,0.1,0,0.3l-0.1,0.1L296.6,182c0,0-0.1,0.1-0.1,0.1l-0.1,0l-0.1,0l-0.1-0.1l-2.1-1.8l-3.9,4.5
		c-0.1,0.1-0.2,0.1-0.3,0.1c0,0-0.1,0-0.1,0l0,0l-0.1-0.1l-2.4-2c-0.1-0.1-0.1-0.1-0.1-0.3l0-0.1l0.1-0.1l1.3-1.5L256.8,154l-1,1.2
		c-0.1,0.1-0.1,0.1-0.3,0.1l-0.1,0l-0.1-0.1l-2.2-1.9c-0.1-0.1-0.1-0.1-0.1-0.3l0-0.1l0.1-0.1l3.5-4.2l-2.6-2.2l-0.1-0.1l0-0.1
		c0-0.1,0-0.1,0.1-0.3l10.2-12.1l0.1-0.1l0.1,0l0.1,0l0.1,0.1l2.6,2.2c0,0,0,0,0,0l2.5-2.9l-2.6-2.2l-0.1-0.1l0-0.1
		c0-0.1,0-0.1,0.1-0.3l10.2-12.1c0.2-0.2,0.3-0.1,0.4-0.1l0.1,0.1l42.2,35.5l0.1,0.1l0,0.1l0,0.1l-0.1,0.1l-10.2,12.1
		c0,0-0.1,0.1-0.1,0.1l-0.1,0l-0.1,0l-0.1-0.1l-2.2-1.9L304.5,167.5z M-31.6,153.3c0,0,0.1-0.3,0.5,0l32.4,27.1
		c0.2,0.2,0.1,0.3,0.1,0.4l-0.1,0.1l-1.3,1.5l1.8,1.5l3.6-4.2l-36.4-30.5l-3.3,3.9l1.7,1.4L-31.6,153.3z M256.4,153.2
		c0,0,0.1-0.3,0.5,0l32.3,27.2c0.2,0.2,0.1,0.3,0.1,0.4l-0.1,0.1l-1.3,1.5l1.8,1.5l3.6-4.2l-36.3-30.6l-3.3,3.9l1.6,1.4L256.4,153.2
		z M8.4,181.2l9.7-11.5l-41.7-35l-9.7,11.5L8.4,181.2z M296.3,181.2l9.7-11.5l-41.6-35l-9.7,11.5L296.3,181.2z M9.6,173.1
		c-1.2,1.4-3.5,1.8-5.1,0.9c-2-1.2-2.7-4.2-1.1-6.1c1.2-1.4,3.3-1.9,5-1C10.5,168,11.3,171.1,9.6,173.1
		C9.6,173.1,9.6,173.1,9.6,173.1z M297.5,173.1c-1.2,1.4-3.5,1.8-5.1,0.9c-2-1.2-2.7-4.2-1.1-6.1c1.2-1.4,3.3-1.9,5-1
		C298.4,168,299.2,171.1,297.5,173.1C297.6,173.1,297.5,173.1,297.5,173.1z M9.1,172.6c1-1.2,1-3,0-4.2c-0.9-1.2-2.7-1.6-4.1-0.9
		c-1.7,0.9-2.3,3.3-1.2,4.9C5,174,7.6,174.3,9.1,172.6C9,172.7,9,172.6,9.1,172.6z M297,172.6c1-1.2,1-3,0-4.2
		c-0.9-1.2-2.7-1.6-4.1-0.9c-1.7,0.9-2.3,3.3-1.2,4.9C292.9,174,295.5,174.2,297,172.6C296.9,172.6,297,172.6,297,172.6z
		 M-20.2,136.6L-20.2,136.6C-20.3,136.6-20.3,136.6-20.2,136.6L16,167.1c0,0,0,0,0,0c0,0,0,0,0,0l2.5-2.9l-36.3-30.4L-20.2,136.6z
		 M267.7,136.5L267.7,136.5C267.7,136.5,267.7,136.5,267.7,136.5l36.2,30.5c0,0,0,0,0,0c0,0,0,0,0,0l2.5-2.9l-36.2-30.5L267.7,136.5
		z M31.2,154.2l-41.7-35l-9.7,11.5l41.7,35C24.8,161.8,28,158,31.2,154.2z M0.3,163.9c0.4,0.3,0.5,1,0.1,1.4c-0.3,0.4-1,0.5-1.4,0.1
		c-0.4-0.3-0.5-1-0.1-1.4C-0.7,163.6-0.1,163.5,0.3,163.9z M319.1,154.1l-41.6-35l-9.7,11.5l41.6,35
		C312.7,161.8,315.9,157.9,319.1,154.1z M288.2,163.8c0.4,0.3,0.5,1,0.1,1.4c-0.3,0.4-1,0.5-1.4,0.1c-0.4-0.3-0.5-1-0.1-1.4
		C287.2,163.5,287.8,163.5,288.2,163.8z M-2.6,161.5c0.4,0.3,0.5,1,0.1,1.4c-0.3,0.4-1,0.5-1.4,0.1c-0.4-0.3-0.5-1-0.1-1.4
		C-3.6,161.2-3,161.1-2.6,161.5z M285.3,161.4c0.4,0.3,0.5,1,0.1,1.4c-0.3,0.4-1,0.5-1.4,0.1c-0.4-0.3-0.5-1-0.1-1.4
		C284.3,161.1,284.9,161,285.3,161.4z M-5.9,158.7c0.4,0.3,0.5,1,0.1,1.4c-0.3,0.4-1,0.5-1.4,0.1c-0.4-0.3-0.5-1-0.1-1.4
		C-6.9,158.4-6.3,158.4-5.9,158.7z M282.1,158.7c0.4,0.3,0.5,1,0.1,1.4c-0.3,0.4-1,0.5-1.4,0.1c-0.4-0.3-0.5-1-0.1-1.4
		C281.1,158.4,281.7,158.3,282.1,158.7z M22.8,157.6c-1.2,1.4-3.4,1.8-5.1,0.9c-2-1.1-2.8-4.2-1.1-6.1c1.2-1.4,3.4-1.9,5-1
		C23.7,152.5,24.4,155.5,22.8,157.6C22.8,157.5,22.8,157.6,22.8,157.6z M310.7,157.5c-1.2,1.4-3.4,1.8-5.1,0.9
		c-2-1.1-2.8-4.2-1.1-6.1c1.2-1.4,3.4-1.9,5-1C311.6,152.4,312.3,155.5,310.7,157.5C310.7,157.5,310.7,157.5,310.7,157.5z
		 M22.2,157.1c1-1.1,1-2.9,0.1-4.1c-0.9-1.2-2.8-1.6-4.1-0.9c-1.7,0.9-2.3,3.3-1.1,4.9C18.2,158.5,20.8,158.7,22.2,157.1
		C22.2,157.1,22.2,157.1,22.2,157.1z M310.1,157c1-1.1,1-2.9,0.1-4.1c-0.9-1.2-2.8-1.6-4.1-0.9c-1.7,0.9-2.3,3.3-1.1,4.9
		C306.1,158.4,308.7,158.6,310.1,157C310.1,157,310.1,157,310.1,157z M-12.6,156.9l2.8-3.3c0.2-0.3,0.9,0.1,0.6,0.5l-2.8,3.3
		c0,0,0,0,0,0C-12.3,157.7-12.9,157.4-12.6,156.9z M275.4,156.9l2.8-3.3c0.2-0.3,0.9,0.1,0.6,0.5l-2.8,3.3c0,0,0,0,0,0
		C275.7,157.6,275.1,157.3,275.4,156.9z M-16,154.1l2.8-3.3c0.1-0.2,0.2-0.1,0.3-0.1c0.3,0,0.5,0.3,0.3,0.6c0,0,0,0,0,0l-2.8,3.3
		c0,0,0,0,0,0C-15.7,154.8-16.3,154.5-16,154.1z M272,154l2.8-3.3c0.1-0.2,0.2-0.1,0.3-0.1c0.3,0,0.5,0.3,0.3,0.6c0,0,0,0,0,0
		l-2.8,3.3c0,0,0,0,0,0C272.3,154.8,271.7,154.4,272,154z M-19.4,151.3l2.8-3.3c0.2-0.3,0.9,0.1,0.6,0.5l-2.8,3.3c0,0,0,0,0,0
		C-19.1,152-19.7,151.7-19.4,151.3z M-7.6,114.7l10.2-12l0.1-0.1c0.1,0,0.1,0,0.3,0l0.1,0.1L45.4,138l0.1,0.1l0,0.1l0,0.1l-0.1,0.1
		l-10.2,12c0,0-0.1,0.1-0.1,0.1c-0.2,0.1-0.3,0-0.4,0l-2.2-1.9l-2.5,2.9l0,0c-0.3,0.3-0.9-0.1-0.6-0.5l2.5-2.9l-36.3-30.4l-2.5,2.9
		l0,0c-0.2,0.2-0.3,0.1-0.4,0.1c-0.2-0.1-0.3-0.4-0.2-0.6c0,0,0,0,0,0l2.5-2.9l-2.6-2.2l-0.1-0.1l0-0.1l0-0.1L-7.6,114.7z
		 M268.6,151.2l2.8-3.3c0.2-0.3,0.9,0.1,0.6,0.5l-2.8,3.3c0,0,0,0,0,0C268.9,151.9,268.3,151.6,268.6,151.2z M280.4,114.5l10.2-12.1
		l0.1-0.1c0.1,0,0.1,0,0.3,0l0.1,0.1l42.2,35.5l0.1,0.1l0,0.1l0,0.1l-0.1,0.1l-10.2,12.1c0,0-0.1,0.1-0.1,0.1c-0.2,0.1-0.3,0-0.4,0
		l-2.2-1.9l-2.5,2.9l0,0c-0.3,0.3-0.9-0.1-0.6-0.5l2.5-2.9l-36.2-30.5l-2.5,2.9l0,0c-0.2,0.2-0.3,0.1-0.4,0.1
		c-0.2-0.1-0.3-0.4-0.2-0.6c0,0,0,0,0,0l2.5-2.9l-2.6-2.2l-0.1-0.1l0-0.1l0-0.1L280.4,114.5z M13.4,148.4c0.4,0.3,0.5,1,0.1,1.4
		c-0.3,0.4-1,0.5-1.4,0.1c-0.4-0.3-0.5-1-0.1-1.4C12.4,148.1,13,148,13.4,148.4z M301.3,148.3c0.4,0.3,0.5,1,0.1,1.4
		c-0.3,0.4-1,0.5-1.4,0.1c-0.4-0.3-0.5-1-0.1-1.4C300.3,148,300.9,147.9,301.3,148.3z M34.9,149.8l9.7-11.5l-41.7-35l-9.7,11.5
		L34.9,149.8z M322.8,149.7l9.7-11.5l-41.6-35l-9.7,11.5L322.8,149.7z M-22.8,148.4l2.8-3.3c0.2-0.2,0.3-0.2,0.4-0.1
		c0.2,0.1,0.4,0.4,0.2,0.6c0,0,0,0,0,0l-2.8,3.3c0,0,0,0,0,0C-22.5,149.2-23.1,148.8-22.8,148.4z M265.2,148.3l2.8-3.3
		c0.2-0.2,0.3-0.2,0.4-0.1c0.2,0.1,0.4,0.4,0.2,0.6c0,0,0,0,0,0l-2.8,3.3c0,0,0,0,0,0C265.5,149.1,264.9,148.7,265.2,148.3z
		 M10.5,145.9c0.4,0.3,0.5,1,0.1,1.4c-0.3,0.4-1,0.5-1.4,0.1c-0.4-0.3-0.5-1-0.1-1.4C9.5,145.6,10.1,145.6,10.5,145.9z M298.4,145.8
		c0.4,0.3,0.5,1,0.1,1.4c-0.3,0.4-1,0.5-1.4,0.1c-0.4-0.3-0.5-1-0.1-1.4C297.4,145.5,298,145.5,298.4,145.8z M-26.2,145.6l2.8-3.3
		c0.1-0.2,0.2-0.1,0.3-0.1c0.3,0,0.5,0.3,0.3,0.6c0,0,0,0,0,0l-2.8,3.3c0,0,0,0,0,0C-25.9,146.3-26.5,146-26.2,145.6z M261.8,145.5
		l2.8-3.3c0.1-0.2,0.2-0.1,0.3-0.1c0.3,0,0.5,0.3,0.3,0.6c0,0,0,0,0,0l-2.8,3.3c0,0,0,0,0,0C262.1,146.2,261.5,145.9,261.8,145.5z
		 M7.3,143.2c0.4,0.3,0.5,1,0.1,1.4C7,145,6.4,145,6,144.7c-0.4-0.3-0.5-1-0.1-1.4C6.2,142.9,6.9,142.9,7.3,143.2z M295.2,143.1
		c0.4,0.3,0.5,1,0.1,1.4s-1,0.5-1.4,0.1c-0.4-0.3-0.5-1-0.1-1.4C294.2,142.8,294.8,142.7,295.2,143.1z M36.1,141.8
		c-1.2,1.4-3.4,1.8-5.1,0.9c-2-1.1-2.8-4.2-1.1-6.1c1.2-1.4,3.3-1.9,5-1C37,136.6,37.8,139.7,36.1,141.8
		C36.2,141.7,36.1,141.7,36.1,141.8z M324,141.6c-1.2,1.4-3.4,1.8-5.1,0.9c-2-1.1-2.8-4.2-1.1-6.1c1.2-1.4,3.3-1.9,5-1
		C324.9,136.5,325.7,139.6,324,141.6C324,141.6,324,141.6,324,141.6z M35.6,141.2c1-1.2,1-3,0-4.2c-0.9-1.2-2.7-1.5-4.1-0.9
		c-1.7,0.9-2.3,3.3-1.1,4.9C31.6,142.7,34.1,142.9,35.6,141.2C35.6,141.3,35.6,141.3,35.6,141.2z M323.5,141.1c1-1.2,1-3,0-4.2
		c-0.9-1.2-2.7-1.6-4.1-0.9c-1.7,0.9-2.3,3.3-1.1,4.9C319.4,142.5,322,142.8,323.5,141.1C323.4,141.2,323.4,141.1,323.5,141.1z
		 M0.6,141.4l2.8-3.3c0.3-0.3,0.9,0.1,0.6,0.5l-2.8,3.3c0,0,0,0,0,0C0.9,142.1,0.3,141.8,0.6,141.4z M288.5,141.3l2.8-3.3
		c0.3-0.3,0.9,0.1,0.6,0.5l-2.8,3.3c0,0,0,0,0,0C288.8,142,288.2,141.7,288.5,141.3z M-2.8,138.5l2.8-3.3c0.2-0.3,0.9,0.1,0.6,0.5
		l-2.8,3.3c0,0,0,0,0,0C-2.5,139.3-3.1,138.9-2.8,138.5z M285.1,138.4l2.8-3.3c0.2-0.3,0.9,0.1,0.6,0.5l-2.8,3.3c0,0,0,0,0,0
		C285.4,139.2,284.8,138.8,285.1,138.4z M-6.2,135.7l2.8-3.3c0.2-0.3,0.9,0.1,0.6,0.5l-2.8,3.3c0,0,0,0,0,0
		C-5.9,136.4-6.5,136.1-6.2,135.7z M281.7,135.6l2.8-3.3c0.2-0.3,0.9,0.1,0.6,0.5l-2.8,3.3c0,0,0,0,0,0
		C282,136.3,281.4,136,281.7,135.6z M26.9,132.4c0.4,0.3,0.5,1,0.1,1.4c-0.3,0.4-1,0.5-1.4,0.1c-0.4-0.3-0.5-1-0.1-1.4
		C25.9,132.1,26.5,132.1,26.9,132.4z M314.8,132.3c0.4,0.3,0.5,1,0.1,1.4c-0.3,0.4-1,0.5-1.4,0.1c-0.4-0.3-0.5-1-0.1-1.4
		C313.8,132,314.4,132,314.8,132.3z M-9.6,132.8l2.8-3.3c0.2-0.3,0.9,0,0.6,0.5l-2.8,3.3c0,0,0,0,0,0
		C-9.3,133.6-9.9,133.2-9.6,132.8z M278.4,132.7l2.8-3.3c0.2-0.3,0.9,0,0.6,0.5l-2.8,3.3c0,0,0,0,0,0
		C278.7,133.5,278,133.1,278.4,132.7z M24,130c0.4,0.3,0.5,1,0.1,1.4c-0.3,0.4-1,0.5-1.4,0.1c-0.4-0.3-0.5-1-0.1-1.4
		C23,129.7,23.6,129.7,24,130z M311.9,129.9c0.4,0.3,0.5,1,0.1,1.4c-0.3,0.4-1,0.5-1.4,0.1c-0.4-0.3-0.5-1-0.1-1.4
		C310.9,129.6,311.5,129.5,311.9,129.9z M-13,130l2.8-3.3c0.1-0.2,0.2-0.1,0.3-0.1c0.3,0,0.5,0.3,0.3,0.6c0,0,0,0,0,0l-2.8,3.3
		c0,0,0,0,0,0C-12.7,130.7-13.3,130.4-13,130z M275,129.9l2.8-3.3c0.1-0.2,0.2-0.1,0.3-0.1c0.3,0,0.5,0.3,0.3,0.6c0,0,0,0,0,0
		l-2.8,3.3c0,0,0,0,0,0C275.3,130.6,274.7,130.3,275,129.9z M20.7,127.3c0.4,0.3,0.5,1,0.1,1.4c-0.3,0.4-1,0.5-1.4,0.1
		c-0.4-0.3-0.5-1-0.1-1.4C19.7,127,20.3,126.9,20.7,127.3z M308.6,127.1c0.4,0.3,0.5,1,0.1,1.4c-0.3,0.4-1,0.5-1.4,0.1
		c-0.4-0.3-0.5-1-0.1-1.4C307.6,126.8,308.2,126.8,308.6,127.1z M14,125.6l2.8-3.3c0.3-0.3,0.9,0.1,0.6,0.5l-2.8,3.3c0,0,0,0,0,0
		C14.2,126.3,13.6,126,14,125.6z M301.9,125.4l2.8-3.3c0.3-0.3,0.9,0.1,0.6,0.5l-2.8,3.3c0,0,0,0,0,0
		C302.2,126.2,301.6,125.8,301.9,125.4z M10.6,122.7l2.8-3.3c0.2-0.3,0.3-0.2,0.5-0.1c0.2,0.1,0.2,0.4,0.1,0.5l-2.8,3.3c0,0,0,0,0,0
		C10.9,123.5,10.2,123.1,10.6,122.7z M298.5,122.6l2.8-3.3c0.2-0.3,0.3-0.2,0.5-0.1c0.2,0.1,0.2,0.4,0.1,0.5l-2.8,3.3c0,0,0,0,0,0
		C298.8,123.3,298.2,123,298.5,122.6z M7.2,119.9l2.8-3.3c0.2-0.3,0.9,0.1,0.6,0.5l-2.8,3.3c0,0,0,0,0,0
		C7.5,120.6,6.9,120.3,7.2,119.9z M295.1,119.7l2.8-3.3c0.2-0.3,0.9,0.1,0.6,0.5l-2.8,3.3c0,0,0,0,0,0
		C295.4,120.5,294.8,120.1,295.1,119.7z M3.8,117l2.8-3.3c0.2-0.3,0.3-0.2,0.5-0.1c0.2,0.1,0.2,0.4,0.1,0.5l-2.8,3.3c0,0,0,0,0,0
		C4.1,117.8,3.5,117.4,3.8,117z M291.7,116.9l2.8-3.3c0.2-0.3,0.3-0.2,0.5-0.1c0.2,0.1,0.2,0.4,0.1,0.5l-2.8,3.3c0,0,0,0,0,0
		C292,117.6,291.4,117.3,291.7,116.9z M0.4,114.2l2.8-3.3c0.2-0.3,0.9,0.1,0.6,0.5l-2.8,3.3c0,0,0,0,0,0
		C0.7,114.9,0.1,114.6,0.4,114.2z M288.3,114l2.8-3.3c0.2-0.3,0.9,0.1,0.6,0.5l-2.8,3.3c0,0,0,0,0,0
		C288.6,114.8,288,114.4,288.3,114z M304.6-5.3L304.6-5.3C304.6-5.3,304.6-5.3,304.6-5.3l2.2,1.9l0.1,0.1c0,0.1,0,0.1,0,0.3
		l-0.1,0.1l-10.2,12c0,0-0.1,0.1-0.1,0.1l-0.1,0l-0.1,0l-0.1-0.1l-2.1-1.8l-3.9,4.5c-0.1,0.1-0.2,0.1-0.3,0.1c0,0-0.1,0-0.1,0l0,0
		l-0.1-0.1l-2.4-2c-0.1-0.1-0.1-0.1-0.1-0.3l0-0.1l0.1-0.1l1.3-1.5l-31.8-26.7l-1,1.2c-0.1,0.1-0.1,0.1-0.3,0.1l-0.1,0l-0.1-0.1
		l-2.2-1.9c-0.1-0.1-0.1-0.1-0.1-0.3l0-0.1l0.1-0.1l3.6-4.2l-2.6-2.2l-0.1-0.1l0-0.1c0-0.1,0-0.1,0.1-0.3l10.2-12l0.1-0.1l0.1,0
		l0.1,0l0.1,0.1l2.6,2.2c0,0,0,0,0,0l2.5-2.9l-2.6-2.2l-0.1-0.1l0-0.1c0-0.1,0-0.1,0.1-0.3l10.2-12c0.2-0.2,0.3-0.1,0.4-0.1l0.1,0.1
		L320-18.9l0.1,0.1l0,0.1l0,0.1l-0.1,0.1l-10.2,12c0,0-0.1,0.1-0.1,0.1l-0.1,0l-0.1,0l-0.1-0.1l-2.2-1.9L304.6-5.3z M16.6-5.3
		L16.6-5.3C16.6-5.3,16.6-5.3,16.6-5.3l2.2,1.9l0.1,0.1c0,0.1,0,0.1,0,0.3l-0.1,0.1L8.7,9.2c0,0-0.1,0.1-0.1,0.1l-0.1,0l-0.1,0
		L8.2,9.2L6.1,7.4l-3.9,4.5c-0.1,0.1-0.2,0.1-0.3,0.1c0,0-0.1,0-0.1,0l0,0L1.7,12l-2.4-2c-0.1-0.1-0.1-0.1-0.1-0.3l0-0.1l0.1-0.1
		L0.6,8l-31.8-26.7l-1,1.2c-0.1,0.1-0.1,0.1-0.3,0.1l-0.1,0l-0.1-0.1l-2.2-1.9c-0.1-0.1-0.1-0.1-0.1-0.3l0-0.1l0.1-0.1l3.6-4.2
		l-2.6-2.2l-0.1-0.1l0-0.1c0-0.1,0-0.1,0.1-0.3l10.2-12l0.1-0.1l0.1,0l0.1,0l0.1,0.1l2.6,2.2c0,0,0,0,0,0l2.5-2.9l-2.6-2.2l-0.1-0.1
		l0-0.1c0-0.1,0-0.1,0.1-0.3l10.2-12c0.2-0.2,0.3-0.1,0.4-0.1l0.1,0.1L32-18.9l0.1,0.1l0,0.1l0,0.1L32-18.4l-10.2,12
		c0,0-0.1,0.1-0.1,0.1l-0.1,0l-0.1,0l-0.1-0.1l-2.2-1.9L16.6-5.3z M-31.6-19.5c0,0,0.1-0.3,0.5,0L1.3,7.6C1.5,7.8,1.4,7.9,1.4,8
		L1.4,8.1L0.1,9.7l1.8,1.5L5.5,7l-36.4-30.5l-3.3,3.9l1.7,1.4L-31.6-19.5z M256.4-19.5c0,0,0.1-0.3,0.5,0l32.4,27.1
		c0.2,0.2,0.1,0.3,0.1,0.4l-0.1,0.1l-1.3,1.5l1.8,1.5l3.6-4.2l-36.4-30.5l-3.3,3.9l1.7,1.4L256.4-19.5z M8.4,8.4l9.7-11.5l-41.7-35
		l-9.7,11.5L8.4,8.4z M296.4,8.4l9.7-11.5l-41.7-35l-9.7,11.5L296.4,8.4z M9.6,0.3C8.4,1.8,6.1,2.2,4.5,1.2C2.5,0.1,1.8-3,3.4-4.9
		c1.2-1.4,3.3-1.9,5-1C10.5-4.8,11.3-1.7,9.6,0.3C9.6,0.3,9.6,0.3,9.6,0.3z M297.6,0.3c-1.2,1.4-3.5,1.8-5.1,0.9
		c-2-1.2-2.7-4.2-1.1-6.1c1.2-1.4,3.3-1.9,5-1C298.5-4.8,299.3-1.7,297.6,0.3C297.6,0.3,297.6,0.3,297.6,0.3z M297.1-0.2
		c1-1.2,1-3,0-4.2c-0.9-1.2-2.7-1.6-4.1-0.9c-1.7,0.9-2.3,3.3-1.2,4.9C293,1.2,295.6,1.5,297.1-0.2C297-0.1,297-0.2,297.1-0.2z
		 M9.1-0.2c1-1.2,1-3,0-4.2C8.1-5.5,6.3-5.9,5-5.2C3.3-4.4,2.7-1.9,3.8-0.3C5,1.2,7.6,1.5,9.1-0.2C9-0.1,9-0.2,9.1-0.2z M-20.2-36.2
		L-20.2-36.2C-20.3-36.2-20.3-36.2-20.2-36.2L16-5.7c0,0,0,0,0,0c0,0,0,0,0,0l2.5-2.9l-36.3-30.4L-20.2-36.2z M267.8-36.2
		L267.8-36.2C267.7-36.2,267.7-36.2,267.8-36.2L304-5.7c0,0,0,0,0,0c0,0,0,0,0,0l2.5-2.9l-36.3-30.4L267.8-36.2z M319.2-18.6
		l-41.7-35l-9.7,11.5l41.7,35C312.8-11,316-14.8,319.2-18.6z M31.2-18.6l-41.7-35l-9.7,11.5l41.7,35C24.8-11,28-14.8,31.2-18.6z
		 M0.3-8.9c0.4,0.3,0.5,1,0.1,1.4C0.1-7.1-0.6-7.1-1-7.4c-0.4-0.3-0.5-1-0.1-1.4C-0.7-9.2-0.1-9.3,0.3-8.9z M288.3-8.9
		c0.4,0.3,0.5,1,0.1,1.4c-0.3,0.4-1,0.5-1.4,0.1c-0.4-0.3-0.5-1-0.1-1.4C287.3-9.2,287.9-9.3,288.3-8.9z M-2.6-11.3
		c0.4,0.3,0.5,1,0.1,1.4c-0.3,0.4-1,0.5-1.4,0.1c-0.4-0.3-0.5-1-0.1-1.4C-3.6-11.6-3-11.7-2.6-11.3z M285.4-11.3
		c0.4,0.3,0.5,1,0.1,1.4c-0.3,0.4-1,0.5-1.4,0.1c-0.4-0.3-0.5-1-0.1-1.4C284.4-11.6,285-11.7,285.4-11.3z M282.1-14.1
		c0.4,0.3,0.5,1,0.1,1.4c-0.3,0.4-1,0.5-1.4,0.1c-0.4-0.3-0.5-1-0.1-1.4C281.1-14.4,281.7-14.4,282.1-14.1z M-5.9-14.1
		c0.4,0.3,0.5,1,0.1,1.4c-0.3,0.4-1,0.5-1.4,0.1c-0.4-0.3-0.5-1-0.1-1.4C-6.9-14.4-6.3-14.4-5.9-14.1z M310.8-15.2
		c-1.2,1.4-3.4,1.8-5.1,0.9c-2-1.1-2.8-4.2-1.1-6.1c1.2-1.4,3.4-1.9,5-1C311.7-20.3,312.4-17.3,310.8-15.2
		C310.8-15.3,310.8-15.2,310.8-15.2z M22.8-15.2c-1.2,1.4-3.4,1.8-5.1,0.9c-2-1.1-2.8-4.2-1.1-6.1c1.2-1.4,3.4-1.9,5-1
		C23.7-20.3,24.4-17.3,22.8-15.2C22.8-15.3,22.8-15.2,22.8-15.2z M310.2-15.7c1-1.1,1-2.9,0.1-4.1c-0.9-1.2-2.8-1.6-4.1-0.9
		c-1.7,0.9-2.3,3.3-1.1,4.9C306.2-14.3,308.8-14.1,310.2-15.7C310.2-15.7,310.2-15.7,310.2-15.7z M22.2-15.7c1-1.1,1-2.9,0.1-4.1
		c-0.9-1.2-2.8-1.6-4.1-0.9c-1.7,0.9-2.3,3.3-1.1,4.9C18.2-14.3,20.8-14.1,22.2-15.7C22.2-15.7,22.2-15.7,22.2-15.7z M275.4-15.9
		l2.8-3.3c0.2-0.3,0.9,0.1,0.6,0.5l-2.8,3.3c0,0,0,0,0,0C275.7-15.1,275.1-15.4,275.4-15.9z M-12.6-15.9l2.8-3.3
		c0.2-0.3,0.9,0.1,0.6,0.5l-2.8,3.3c0,0,0,0,0,0C-12.3-15.1-12.9-15.4-12.6-15.9z M272-18.7l2.8-3.3c0.1-0.2,0.2-0.1,0.3-0.1
		c0.3,0,0.5,0.3,0.3,0.6c0,0,0,0,0,0l-2.8,3.3c0,0,0,0,0,0C272.3-18,271.7-18.3,272-18.7z M-16-18.7l2.8-3.3
		c0.1-0.2,0.2-0.1,0.3-0.1c0.3,0,0.5,0.3,0.3,0.6c0,0,0,0,0,0l-2.8,3.3c0,0,0,0,0,0C-15.7-18-16.3-18.3-16-18.7z M-19.4-21.5
		l2.8-3.3c0.2-0.3,0.9,0.1,0.6,0.5l-2.8,3.3c0,0,0,0,0,0C-19.1-20.8-19.7-21.1-19.4-21.5z M268.6-21.5l2.8-3.3
		c0.2-0.3,0.9,0.1,0.6,0.5l-2.8,3.3c0,0,0,0,0,0C268.9-20.8,268.3-21.1,268.6-21.5z M-7.6-58.1l10.2-12l0.1-0.1c0.1,0,0.1,0,0.3,0
		l0.1,0.1l42.3,35.4l0.1,0.1l0,0.1l0,0.1l-0.1,0.1l-10.2,12c0,0-0.1,0.1-0.1,0.1c-0.2,0.1-0.3,0-0.4,0L32.5-24L30-21.1l0,0
		c-0.3,0.3-0.9-0.1-0.6-0.5l2.5-2.9L-4.4-55L-6.9-52l0,0c-0.2,0.2-0.3,0.1-0.4,0.1c-0.2-0.1-0.3-0.4-0.2-0.6c0,0,0,0,0,0l2.5-2.9
		l-2.6-2.2l-0.1-0.1l0-0.1l0-0.1L-7.6-58.1z M280.4-58.1l10.2-12l0.1-0.1c0.1,0,0.1,0,0.3,0l0.1,0.1l42.3,35.4l0.1,0.1l0,0.1l0,0.1
		l-0.1,0.1l-10.2,12c0,0-0.1,0.1-0.1,0.1c-0.2,0.1-0.3,0-0.4,0l-2.2-1.9l-2.5,2.9l0,0c-0.3,0.3-0.9-0.1-0.6-0.5l2.5-2.9L283.6-55
		l-2.5,2.9l0,0c-0.2,0.2-0.3,0.1-0.4,0.1c-0.2-0.1-0.3-0.4-0.2-0.6c0,0,0,0,0,0l2.5-2.9l-2.6-2.2l-0.1-0.1l0-0.1l0-0.1L280.4-58.1z
		 M301.4-24.4c0.4,0.3,0.5,1,0.1,1.4c-0.3,0.4-1,0.5-1.4,0.1c-0.4-0.3-0.5-1-0.1-1.4C300.4-24.7,301-24.8,301.4-24.4z M13.4-24.4
		c0.4,0.3,0.5,1,0.1,1.4c-0.3,0.4-1,0.5-1.4,0.1c-0.4-0.3-0.5-1-0.1-1.4C12.4-24.7,13-24.8,13.4-24.4z M322.9-23l9.7-11.5l-41.7-35
		l-9.7,11.5L322.9-23z M34.9-23l9.7-11.5l-41.7-35l-9.7,11.5L34.9-23z M-22.8-24.4l2.8-3.3c0.2-0.2,0.3-0.2,0.4-0.1
		c0.2,0.1,0.4,0.4,0.2,0.6c0,0,0,0,0,0l-2.8,3.3c0,0,0,0,0,0C-22.5-23.6-23.1-24-22.8-24.4z M265.2-24.4l2.8-3.3
		c0.2-0.2,0.3-0.2,0.4-0.1c0.2,0.1,0.4,0.4,0.2,0.6c0,0,0,0,0,0l-2.8,3.3c0,0,0,0,0,0C265.5-23.6,264.9-24,265.2-24.4z M10.5-26.9
		c0.4,0.3,0.5,1,0.1,1.4c-0.3,0.4-1,0.5-1.4,0.1c-0.4-0.3-0.5-1-0.1-1.4C9.5-27.2,10.1-27.2,10.5-26.9z M298.5-26.9
		c0.4,0.3,0.5,1,0.1,1.4c-0.3,0.4-1,0.5-1.4,0.1c-0.4-0.3-0.5-1-0.1-1.4C297.5-27.2,298.1-27.2,298.5-26.9z M-26.2-27.2l2.8-3.3
		c0.1-0.2,0.2-0.1,0.3-0.1c0.3,0,0.5,0.3,0.3,0.6c0,0,0,0,0,0l-2.8,3.3c0,0,0,0,0,0C-25.9-26.5-26.5-26.8-26.2-27.2z M261.8-27.2
		l2.8-3.3c0.1-0.2,0.2-0.1,0.3-0.1c0.3,0,0.5,0.3,0.3,0.6c0,0,0,0,0,0l-2.8,3.3c0,0,0,0,0,0C262.1-26.5,261.5-26.8,261.8-27.2z
		 M295.3-29.6c0.4,0.3,0.5,1,0.1,1.4c-0.3,0.4-1,0.5-1.4,0.1s-0.5-1-0.1-1.4C294.2-29.9,294.9-29.9,295.3-29.6z M7.3-29.6
		c0.4,0.3,0.5,1,0.1,1.4c-0.3,0.4-1,0.5-1.4,0.1s-0.5-1-0.1-1.4C6.2-29.9,6.9-29.9,7.3-29.6z M36.1-31c-1.2,1.4-3.4,1.8-5.1,0.9
		c-2-1.1-2.8-4.2-1.1-6.1c1.2-1.4,3.3-1.9,5-1C37-36.2,37.8-33.1,36.1-31C36.2-31.1,36.1-31.1,36.1-31z M324.1-31
		c-1.2,1.4-3.4,1.8-5.1,0.9c-2-1.1-2.8-4.2-1.1-6.1c1.2-1.4,3.3-1.9,5-1C325-36.2,325.8-33.1,324.1-31
		C324.2-31.1,324.1-31.1,324.1-31z M323.6-31.6c1-1.2,1-3,0-4.2c-0.9-1.2-2.7-1.5-4.1-0.9c-1.7,0.9-2.3,3.3-1.1,4.9
		C319.6-30.1,322.1-29.9,323.6-31.6C323.6-31.5,323.6-31.5,323.6-31.6z M35.6-31.6c1-1.2,1-3,0-4.2c-0.9-1.2-2.7-1.5-4.1-0.9
		c-1.7,0.9-2.3,3.3-1.1,4.9C31.6-30.1,34.1-29.9,35.6-31.6C35.6-31.5,35.6-31.5,35.6-31.6z M0.6-31.4l2.8-3.3
		c0.3-0.3,0.9,0.1,0.6,0.5l-2.8,3.3c0,0,0,0,0,0C0.9-30.7,0.3-31,0.6-31.4z M288.6-31.4l2.8-3.3c0.3-0.3,0.9,0.1,0.6,0.5l-2.8,3.3
		c0,0,0,0,0,0C288.9-30.7,288.3-31,288.6-31.4z M285.2-34.3l2.8-3.3c0.2-0.3,0.9,0.1,0.6,0.5l-2.8,3.3c0,0,0,0,0,0
		C285.5-33.5,284.9-33.9,285.2-34.3z M-2.8-34.3L0-37.5c0.2-0.3,0.9,0.1,0.6,0.5l-2.8,3.3c0,0,0,0,0,0C-2.5-33.5-3.1-33.9-2.8-34.3z
		 M281.8-37.1l2.8-3.3c0.2-0.3,0.9,0.1,0.6,0.5l-2.8,3.3c0,0,0,0,0,0C282.1-36.4,281.5-36.7,281.8-37.1z M-6.2-37.1l2.8-3.3
		c0.2-0.3,0.9,0.1,0.6,0.5l-2.8,3.3c0,0,0,0,0,0C-5.9-36.4-6.5-36.7-6.2-37.1z M314.9-40.4c0.4,0.3,0.5,1,0.1,1.4
		c-0.3,0.4-1,0.5-1.4,0.1c-0.4-0.3-0.5-1-0.1-1.4C313.9-40.7,314.5-40.7,314.9-40.4z M26.9-40.4c0.4,0.3,0.5,1,0.1,1.4
		c-0.3,0.4-1,0.5-1.4,0.1c-0.4-0.3-0.5-1-0.1-1.4C25.9-40.7,26.5-40.7,26.9-40.4z M-9.6-40l2.8-3.3c0.2-0.3,0.9,0,0.6,0.5L-9-39.5
		c0,0,0,0,0,0C-9.3-39.2-9.9-39.6-9.6-40z M278.4-40l2.8-3.3c0.2-0.3,0.9,0,0.6,0.5l-2.8,3.3c0,0,0,0,0,0
		C278.7-39.2,278.1-39.6,278.4-40z M312-42.8c0.4,0.3,0.5,1,0.1,1.4c-0.3,0.4-1,0.5-1.4,0.1s-0.5-1-0.1-1.4
		C311-43.1,311.6-43.1,312-42.8z M24-42.8c0.4,0.3,0.5,1,0.1,1.4c-0.3,0.4-1,0.5-1.4,0.1c-0.4-0.3-0.5-1-0.1-1.4
		C23-43.1,23.6-43.1,24-42.8z M-13-42.8l2.8-3.3c0.1-0.2,0.2-0.1,0.3-0.1c0.3,0,0.5,0.3,0.3,0.6c0,0,0,0,0,0l-2.8,3.3c0,0,0,0,0,0
		C-12.7-42.1-13.3-42.4-13-42.8z M275-42.8l2.8-3.3c0.1-0.2,0.2-0.1,0.3-0.1c0.3,0,0.5,0.3,0.3,0.6c0,0,0,0,0,0l-2.8,3.3
		c0,0,0,0,0,0C275.3-42.1,274.7-42.4,275-42.8z M308.7-45.5c0.4,0.3,0.5,1,0.1,1.4c-0.3,0.4-1,0.5-1.4,0.1c-0.4-0.3-0.5-1-0.1-1.4
		C307.7-45.8,308.3-45.9,308.7-45.5z M20.7-45.5c0.4,0.3,0.5,1,0.1,1.4c-0.3,0.4-1,0.5-1.4,0.1c-0.4-0.3-0.5-1-0.1-1.4
		C19.7-45.8,20.3-45.9,20.7-45.5z M14-47.2l2.8-3.3c0.3-0.3,0.9,0.1,0.6,0.5l-2.8,3.3c0,0,0,0,0,0C14.2-46.5,13.6-46.8,14-47.2z
		 M302-47.2l2.8-3.3c0.3-0.3,0.9,0.1,0.6,0.5l-2.8,3.3c0,0,0,0,0,0C302.2-46.5,301.6-46.8,302-47.2z M298.6-50.1l2.8-3.3
		c0.2-0.3,0.3-0.2,0.5-0.1c0.2,0.1,0.2,0.4,0.1,0.5l-2.8,3.3c0,0,0,0,0,0C298.9-49.3,298.2-49.7,298.6-50.1z M10.6-50.1l2.8-3.3
		c0.2-0.3,0.3-0.2,0.5-0.1c0.2,0.1,0.2,0.4,0.1,0.5l-2.8,3.3c0,0,0,0,0,0C10.9-49.3,10.2-49.7,10.6-50.1z M7.2-52.9l2.8-3.3
		c0.2-0.3,0.9,0.1,0.6,0.5l-2.8,3.3c0,0,0,0,0,0C7.5-52.2,6.9-52.5,7.2-52.9z M295.2-52.9l2.8-3.3c0.2-0.3,0.9,0.1,0.6,0.5l-2.8,3.3
		c0,0,0,0,0,0C295.5-52.2,294.9-52.5,295.2-52.9z M3.8-55.8l2.8-3.3c0.2-0.3,0.3-0.2,0.5-0.1c0.2,0.1,0.2,0.4,0.1,0.5l-2.8,3.3
		c0,0,0,0,0,0C4.1-55,3.5-55.4,3.8-55.8z M291.8-55.8l2.8-3.3c0.2-0.3,0.3-0.2,0.5-0.1c0.2,0.1,0.2,0.4,0.1,0.5l-2.8,3.3
		c0,0,0,0,0,0C292.1-55,291.5-55.4,291.8-55.8z M0.4-58.6l2.8-3.3c0.2-0.3,0.9,0.1,0.6,0.5l-2.8,3.3c0,0,0,0,0,0
		C0.7-57.9,0.1-58.2,0.4-58.6z M288.4-58.6l2.8-3.3c0.2-0.3,0.9,0.1,0.6,0.5l-2.8,3.3c0,0,0,0,0,0C288.7-57.9,288.1-58.2,288.4-58.6
		z"/>
</g>
<g id="lines">
	<path id="Layer-10-copy" serif:id="Layer 10 copy" class="st3" d="M219.1,162.9c-1.3,1.5-3.6,1.8-5.2,0.5
		c-13.8-11.4-30.2-25.5-44-36.8c-1.2-0.9-3-0.8-4.1,0.4l-28.7,34.2c-0.1,0.1-0.1,0.1-0.2,0.1c0.9,1,1.1,2.5,0.4,3.7
		c-0.7,1.2-2.3,1.8-3.7,1.4c-1.7-0.6-2.7-2.8-1.8-4.5c0.8-1.5,3-2.1,4.5-1.1l0,0l0.1-0.1c9.6-11.4,19.1-22.9,28.7-34.3
		c1.3-1.5,3.7-1.7,5.2-0.5c13.8,11.4,30.2,25.5,44,36.8c1.2,0.9,3,0.8,4.1-0.4l62-73.9v0.8h0.5C260.5,113.9,240,138.6,219.1,162.9z
		 M136.1,161.7C136.1,161.7,136.1,161.7,136.1,161.7c-0.9-0.7-2.1-0.7-3,0c-1,0.8-1,2.6,0,3.5c1.1,1,3.2,0.5,3.6-1.1
		C137,163.2,136.8,162.3,136.1,161.7z M248.3,9.1L206.4,59l22.9,19.2c0,0,0,0,0.1,0.1c0,0,0,0,0,0.1c1.1-0.9,2.8-1.1,4-0.1
		c0,0,0,0,0,0c1.1,0.9,1.4,2.7,0.7,4c-0.7,1.2-2.3,1.8-3.7,1.4c-1.7-0.6-2.7-2.8-1.8-4.5c0-0.1,0.1-0.2,0.2-0.2c0,0-0.1,0-0.1-0.1
		l-22.9-19.2l-78.4,93.4c-0.1,0.1-0.1,0.1-0.2,0.1c0.8,1,1,2.5,0.4,3.6c-0.7,1.2-2.3,1.8-3.7,1.4c-1.7-0.6-2.7-2.8-1.8-4.4
		c0.8-1.5,3-2.2,4.5-1.1l0.1-0.1l58.4-69.6L123,30.7c-0.1-0.1-0.1-0.1-0.1-0.2c-0.8,0.7-2,1-3,0.6c-1.7-0.5-2.7-2.8-1.8-4.4
		c0.8-1.6,3.2-2.2,4.8-1c0,0,0,0,0,0c1.1,0.9,1.4,2.7,0.7,3.9c-0.1,0.1-0.1,0.2-0.2,0.3l0,0l0.1,0.1l62.3,52.2l61.8-73.7l0.1-0.1
		l0.2,0c0.2,0,0.2,0,0.3,0.1c0,0,0.1,0.1,0.1,0.1l0,0.2l0,0.2L248.3,9.1z M230,82.4c0.8,0.7,2,0.7,2.8,0.1c1.1-0.8,1.2-2.6,0.1-3.5
		c0,0,0,0,0,0c-0.8-0.7-2.1-0.7-2.9,0C229,79.8,229,81.5,230,82.4z M126.4,153.6C126.4,153.6,126.4,153.5,126.4,153.6
		c-0.9-0.7-2.1-0.7-3,0c-1,0.8-1,2.6,0,3.5c1.1,1,3.2,0.5,3.6-1.1C127.4,155.1,127.1,154.2,126.4,153.6z M122.3,26.4
		C122.3,26.4,122.3,26.4,122.3,26.4c-0.8-0.7-2.1-0.7-2.9-0.1c-1,0.8-1.1,2.6,0,3.5c0.8,0.7,2,0.7,2.9,0.1
		C123.2,29.1,123.4,27.3,122.3,26.4z M118.6,43.9c15.3,12.8,30.7,25.6,45.9,38.5c1.5,1.3,1.8,3.7,0.5,5.3
		c-15.9,19.1-31.9,38.1-48,57.1c-1.3,1.5-3.7,1.8-5.3,0.5c-7.1-6-15.9-13.8-23.1-19.7c-1.2-0.9-3-0.8-4.1,0.4l-29.9,35.6l0-0.4h-0.8
		c10-11.9,20-23.9,30-35.8c1.3-1.5,3.7-1.8,5.3-0.5c7.2,6,15.9,13.8,23.1,19.7c1.2,0.9,3,0.8,4-0.4c16-19,32.2-37.9,48-57.2
		c0.9-1.2,0.8-3-0.4-4c-15.3-12.9-30.5-25.8-45.9-38.5c-1.2-0.9-3-0.8-4,0.4c-21.6,25.2-37.2,44.7-58.8,69.9
		c-1.3,1.5-3.7,1.7-5.3,0.4L21.5,91.5c0-0.1-0.1-0.1-0.1-0.1c-0.8,0.8-2.1,1.1-3.2,0.8c-1.7-0.5-2.7-2.8-1.8-4.4
		c0.8-1.6,3.2-2.2,4.7-1c0,0,0.1,0,0.1,0.1c1.1,0.9,1.4,2.7,0.7,3.9c0,0,0,0,0,0l0,0l0.1,0.1c9.5,7.9,18.9,16,28.4,23.8
		c1.2,0.9,3,0.8,4-0.4C76,89,92,69.8,113.4,44.4C114.6,42.9,117,42.6,118.6,43.9z M20.7,87.5C20.7,87.5,20.7,87.5,20.7,87.5
		c-0.8-0.7-2.1-0.7-2.9-0.1c-1,0.8-1.1,2.6-0.1,3.5c0.8,0.7,2,0.7,2.8,0.1C21.6,90.2,21.8,88.4,20.7,87.5z"/>
	<path id="Ellipse-4" serif:id="Ellipse 4" class="st3" d="M249.4,4c1.6,0,2.9,1.3,2.9,2.9s-1.3,2.9-2.9,2.9s-2.9-1.3-2.9-2.9
		S247.8,4,249.4,4z M249.4,4.8c1.1,0,2.1,0.9,2.1,2.1S250.5,9,249.4,9c-1.1,0-2.1-0.9-2.1-2.1S248.3,4.8,249.4,4.8z"/>
	<path id="Ellipse-4-copy" serif:id="Ellipse 4 copy" class="st3" d="M53,160.1c1.6,0,2.9,1.3,2.9,2.9s-1.3,2.9-2.9,2.9
		c-1.6,0-2.9-1.3-2.9-2.9S51.4,160.1,53,160.1z M53,160.9c1.1,0,2.1,0.9,2.1,2.1s-0.9,2.1-2.1,2.1c-1.1,0-2.1-0.9-2.1-2.1
		S51.8,160.9,53,160.9z"/>
	<path id="Ellipse-4-copy-2" serif:id="Ellipse 4 copy 2" class="st3" d="M282.2,84.1c1.6,0,2.9,1.3,2.9,2.9c0,1.6-1.3,2.9-2.9,2.9
		c-1.6,0-2.9-1.3-2.9-2.9C279.4,85.4,280.7,84.1,282.2,84.1z M282.2,84.9c1.1,0,2.1,0.9,2.1,2.1c0,1.1-0.9,2.1-2.1,2.1
		c-1.1,0-2.1-0.9-2.1-2.1C280.2,85.8,281.1,84.9,282.2,84.9z"/>
</g>
</svg>
